<?xml version="1.0" standalone="no"?>
<!DOCTYPE svg PUBLIC "-//W3C//DTD SVG 1.1//EN" "http://www.w3.org/Graphics/SVG/1.1/DTD/svg11.dtd" >
<svg>
<metadata>
Created by FontForge 20110222 at Mon Apr 28 08:39:52 2014
 By deploy user
Copyright (C) 1996 Emigre Graphics, Designed by Zuzana Licko
</metadata>
<defs>
<font id="MrsEavesOT-Bold" horiz-adv-x="458" >
  <font-face 
    font-family="Mrs Eaves OT"
    font-weight="700"
    font-stretch="normal"
    units-per-em="1000"
    panose-1="0 0 0 0 0 0 0 0 0 0"
    ascent="800"
    descent="-200"
    x-height="333"
    cap-height="600"
    bbox="-111.1 -301 1403 873"
    underline-thickness="25"
    underline-position="-62"
    unicode-range="U+0020-FB04"
  />
<missing-glyph horiz-adv-x="500" 
 />
    <glyph glyph-name="f_f_b" unicode="ffb" horiz-adv-x="1192" 
d="M1019 167q0 61 -19 98.5t-56 37.5q-26 0 -46 -25t-20 -63v-97q0 -37 20 -62.5t46 -25.5q37 0 56 38t19 99zM223 289v-143q0 -75 14.5 -96t64.5 -21v-29h-271v29q50 0 64.5 21t14.5 96v143h-82v44h82v48q0 194 163 194q50 0 82 -25t32 -53q0 -16 -9.5 -27t-25.5 -11
q-18 0 -28.5 12.5t-14 27t-13 27t-25.5 12.5q-28 0 -38 -23.5t-10 -83.5v-98h224v81q0 203 177 203h254v-296q34 29 82 29q83 0 132.5 -52.5t49.5 -130.5t-50 -131t-132 -53q-72 0 -113 65l-53 -56h-29v287v155q0 79 -15.5 110.5t-63.5 31.5h-64q-37 0 -50 -27.5t-13 -91.5
v-124h101v-44h-101v-143q0 -75 14.5 -96t64.5 -21v-29h-270v29q50 0 64.5 21t14.5 96v143h-224z" />
    <glyph glyph-name="f_f_h" unicode="ffh" horiz-adv-x="1223" 
d="M447 333v81q0 203 177 203h254v-321q44 54 118 54q66 0 105 -42t39 -107v-55q0 -75 14.5 -96t64.5 -21v-29h-231v29q21 0 30.5 23.5t9.5 93.5v42q0 53 -13.5 79.5t-48.5 26.5q-34 0 -61 -26t-27 -73v-49q0 -75 14.5 -96t64.5 -21v-29h-271v29q50 0 64.5 21t14.5 96v288
q0 79 -15.5 110.5t-63.5 31.5h-64q-37 0 -50 -27.5t-13 -91.5v-124h101v-44h-101v-143q0 -75 14.5 -96t64.5 -21v-29h-270v29q50 0 64.5 21t14.5 96v143h-224v-143q0 -75 14.5 -96t64.5 -21v-29h-271v29q50 0 64.5 21t14.5 96v143h-82v44h82v48q0 194 163 194q50 0 82 -25
t32 -53q0 -16 -9.5 -27t-25.5 -11q-18 0 -28.5 12.5t-14 27t-13 27t-25.5 12.5q-28 0 -38 -23.5t-10 -83.5v-98h224z" />
    <glyph glyph-name="f_f_j" unicode="ffj" horiz-adv-x="983" 
d="M447 333v70q0 106 57 160t147 54q73 0 120.5 -32t47.5 -86q0 -18 -13 -31.5t-31 -13.5q-24 0 -35.5 19t-13.5 42t-19.5 42t-52.5 19q-42 0 -68.5 -31t-26.5 -93v-119h345v-411q0 -98 -40.5 -143.5t-122.5 -45.5q-65 0 -104.5 31t-40.5 63q-1 15 8 25t25 10q18 0 28 -14
t13.5 -30t17 -30t37.5 -14q32 0 49.5 34t17.5 122v243q0 74 -14.5 95t-64.5 21h-154v-143q0 -75 14.5 -96t64.5 -21v-29h-270v29q50 0 64.5 21t14.5 96v143h-224v-143q0 -75 14.5 -96t64.5 -21v-29h-271v29q50 0 64.5 21t14.5 96v143h-82v44h82v48q0 194 163 194
q50 0 82 -25t32 -53q0 -16 -9.5 -27t-25.5 -11q-18 0 -28.5 12.5t-14 27t-13 27t-25.5 12.5q-28 0 -38 -23.5t-10 -83.5v-98h224z" />
    <glyph glyph-name="f_f_r" unicode="ffr" horiz-adv-x="1105" 
d="M223 289v-143q0 -75 14.5 -96t64.5 -21v-29h-271v29q50 0 64.5 21t14.5 96v143h-82v44h82v48q0 194 163 194q50 0 82 -25t32 -53q0 -16 -9.5 -27t-25.5 -11q-18 0 -28.5 12.5t-14 27t-13 27t-25.5 12.5q-28 0 -38 -23.5t-10 -83.5v-98h224v81q0 103 40.5 153t128.5 50
q56 0 91 -28t35 -60q0 -17 -10.5 -29t-28.5 -12q-20 0 -31.5 14t-15.5 30t-14.5 30t-28.5 14q-30 0 -42 -26.5t-12 -92.5v-124h331q12 -28 14 -55q16 30 46 51t60 21q46 0 67.5 -25t21.5 -57q0 -22 -14 -41t-39 -19q-17 0 -26.5 10.5t-12.5 22.5t-13 22.5t-28 10.5
q-25 0 -43.5 -26t-18.5 -81v-21q0 -75 14.5 -96t64.5 -21v-29h-270v29q50 0 64.5 21t14.5 96v27q0 74 -14.5 95t-64.5 21h-154v-143q0 -75 14.5 -96t64.5 -21v-29h-270v29q50 0 64.5 21t14.5 96v143h-224z" />
    <glyph glyph-name="f_f_t" unicode="fft" horiz-adv-x="976" 
d="M223 289v-143q0 -75 14.5 -96t64.5 -21v-29h-271v29q50 0 64.5 21t14.5 96v143h-82v44h82v48q0 194 163 194q50 0 82 -25t32 -53q0 -16 -9.5 -27t-25.5 -11q-18 0 -28.5 12.5t-14 27t-13 27t-25.5 12.5q-28 0 -38 -23.5t-10 -83.5v-98h224v81q0 103 40.5 153t128.5 50
q56 0 91 -28t35 -60q0 -17 -10.5 -29t-28.5 -12q-20 0 -31.5 14t-15.5 30t-14.5 30t-28.5 14q-30 0 -42 -26.5t-12 -92.5v-124h127q62 0 99.5 41.5t42.5 95.5h35v-137h86v-44h-86v-174q0 -72 45 -72q28 0 67 29l14 -29q-24 -23 -60.5 -40t-61.5 -17q-55 0 -86 32t-31 90v181
h-191v-143q0 -75 14.5 -96t64.5 -21v-29h-270v29q50 0 64.5 21t14.5 96v143h-224z" />
    <glyph glyph-name="f_b" unicode="fb" horiz-adv-x="855" 
d="M805 167q0 -78 -50 -131t-132 -53q-72 0 -113 65l-52 -56h-30v287v155q0 79 -15.5 110.5t-63.5 31.5h-64q-37 0 -49.5 -27.5t-12.5 -91.5v-124h100v-44h-100v-143q0 -75 14.5 -96t64.5 -21v-29h-271v29q50 0 64.5 21t14.5 96v143h-82v44h82v81q0 203 178 203h253v-296
q36 29 82 29q83 0 132.5 -52.5t49.5 -130.5zM683 167q0 60 -19 98t-56 38q-27 0 -47 -25t-20 -63v-97q0 -37 20 -62.5t47 -25.5q37 0 56 38.5t19 98.5z" />
    <glyph glyph-name="f_h" unicode="fh" horiz-adv-x="883" 
d="M541 296q46 54 118 54q66 0 105 -42t39 -107v-55q0 -75 14.5 -96t65.5 -21v-29h-231v29q21 0 30 23.5t9 93.5v42q0 53 -13.5 79.5t-48.5 26.5q-34 0 -61 -26t-27 -73v-49q0 -75 14.5 -96t64.5 -21v-29h-271v29q50 0 64.5 21t14.5 96v288q0 79 -15.5 110.5t-63.5 31.5h-64
q-37 0 -49.5 -27.5t-12.5 -91.5v-124h100v-44h-100v-143q0 -75 14.5 -96t64.5 -21v-29h-271v29q50 0 64.5 21t14.5 96v143h-82v44h82v81q0 203 178 203h253v-321z" />
    <glyph glyph-name="f_j" unicode="fj" horiz-adv-x="622" 
d="M543 -78q0 -98 -41 -143.5t-123 -45.5q-65 0 -104.5 31t-40.5 63q-1 15 8 25t26 10q18 0 28 -14t13.5 -30t16.5 -30t37 -14q33 0 50 33.5t17 122.5v243q0 75 -14.5 95.5t-64.5 20.5h-128v-143q0 -75 14.5 -96t64.5 -21v-29h-271v29q50 0 64.5 21t14.5 96v143h-82v44h82
v70q0 106 57 160t147 54q73 0 121 -32t48 -86q0 -18 -13.5 -31.5t-31.5 -13.5q-20 0 -30.5 12.5t-14 30.5t-8.5 36t-21.5 30.5t-45.5 12.5q-42 0 -68.5 -31t-26.5 -93v-119h320v-411z" />
    <glyph glyph-name="f_r" unicode="fr" horiz-adv-x="768" 
d="M553 333q11 -25 15 -55q15 30 45 51t60 21q47 0 68.5 -25t21.5 -57q0 -22 -14.5 -41t-39.5 -19q-17 0 -26.5 10.5t-12 22.5t-13 22.5t-28.5 10.5q-25 0 -43 -25.5t-18 -81.5v-21q0 -75 14.5 -96t64.5 -21v-29h-271v29q50 0 64.5 21t14.5 96v27q0 75 -14.5 95.5
t-64.5 20.5h-153v-143q0 -75 14.5 -96t64.5 -21v-29h-271v29q50 0 64.5 21t14.5 96v143h-82v44h82v81q0 103 40.5 153t128.5 50q56 0 91 -28t35 -60q0 -17 -10 -29t-28 -12q-20 0 -31.5 14t-15.5 30t-14.5 30t-28.5 14q-31 0 -42.5 -26.5t-11.5 -92.5v-124h330z" />
    <glyph glyph-name="f_t" unicode="ft" horiz-adv-x="639" 
d="M349 333q62 0 99.5 41t43.5 96h34v-137h87v-44h-87v-174q0 -72 45 -72q28 0 67 29l15 -29q-25 -23 -61.5 -40t-61.5 -17q-54 0 -85.5 32.5t-31.5 89.5v181h-190v-143q0 -75 14.5 -96t64.5 -21v-29h-271v29q50 0 64.5 21t14.5 96v143h-82v44h82v81q0 103 40.5 153
t128.5 50q56 0 91 -28t35 -60q0 -17 -10 -29t-28 -12q-20 0 -31.5 14t-15.5 30t-14.5 30t-28.5 14q-31 0 -42.5 -26.5t-11.5 -92.5v-124h126z" />
    <glyph glyph-name="ff" unicode="ff" horiz-adv-x="673" 
d="M742 529q0 -17 -10.5 -29t-28.5 -12q-20 0 -31.5 14t-15.5 30t-14.5 30t-28.5 14q-30 0 -42 -26.5t-12 -92.5v-124h101v-44h-101v-143q0 -75 14.5 -96t64.5 -21v-29h-270v29q50 0 64.5 21t14.5 96v143h-224v-143q0 -75 14.5 -96t64.5 -21v-29h-271v29q50 0 64.5 21
t14.5 96v143h-82v44h82v48q0 194 163 194q50 0 82 -25t32 -53q0 -16 -9.5 -27t-25.5 -11q-18 0 -28.5 12.5t-14 27t-13 27t-25.5 12.5q-28 0 -38 -23.5t-10 -83.5v-98h224v81q0 103 40.5 153t128.5 50q56 0 91 -28t35 -60z" />
    <glyph glyph-name="fi" unicode="fi" horiz-adv-x="668" 
d="M223 333h345v-187q0 -75 14.5 -96t64.5 -21v-29h-271v29q50 0 64.5 21t14.5 96v27q0 75 -14.5 95.5t-64.5 20.5h-153v-143q0 -75 14.5 -96t64.5 -21v-29h-271v29q50 0 64.5 21t14.5 96v143h-82v44h82v70q0 106 57 160t147 54q73 0 121 -32t48 -86q0 -18 -13.5 -31.5
t-31.5 -13.5q-20 0 -30.5 12.5t-14 30.5t-8.5 36t-21.5 30.5t-45.5 12.5q-42 0 -68.5 -31t-26.5 -93v-119z" />
    <glyph glyph-name="fl" unicode="fl" horiz-adv-x="633" 
d="M285 576q-37 0 -49.5 -27.5t-12.5 -91.5v-124h100v-44h-100v-143q0 -75 14.5 -96t64.5 -21v-29h-271v29q50 0 64.5 21t14.5 96v143h-82v44h82v81q0 203 178 203h253v-471q0 -75 14.5 -96t64.5 -21v-29h-271v29q50 0 64.5 21t14.5 96v288q0 79 -15.5 110.5t-63.5 31.5h-64
z" />
    <glyph glyph-name="ffi" unicode="ffi" horiz-adv-x="1004" 
d="M447 333v70q0 106 57 160t147 54q73 0 120.5 -32t47.5 -86q0 -18 -13 -31.5t-31 -13.5q-24 0 -35.5 19t-13.5 42t-19.5 42t-52.5 19q-42 0 -68.5 -31t-26.5 -93v-119h345v-187q0 -75 14.5 -96t64.5 -21v-29h-270v29q50 0 64.5 21t14.5 96v27q0 74 -14.5 95t-64.5 21h-154
v-143q0 -75 14.5 -96t64.5 -21v-29h-270v29q50 0 64.5 21t14.5 96v143h-224v-143q0 -75 14.5 -96t64.5 -21v-29h-271v29q50 0 64.5 21t14.5 96v143h-82v44h82v48q0 194 163 194q50 0 82 -25t32 -53q0 -16 -9.5 -27t-25.5 -11q-18 0 -28.5 12.5t-14 27t-13 27t-25.5 12.5
q-28 0 -38 -23.5t-10 -83.5v-98h224z" />
    <glyph glyph-name="ffl" unicode="ffl" horiz-adv-x="969" 
d="M447 333v81q0 203 177 203h254v-471q0 -75 14.5 -96t64.5 -21v-29h-271v29q50 0 64.5 21t14.5 96v288q0 79 -15.5 110.5t-63.5 31.5h-64q-37 0 -50 -27.5t-13 -91.5v-124h101v-44h-101v-143q0 -75 14.5 -96t64.5 -21v-29h-270v29q50 0 64.5 21t14.5 96v143h-224v-143
q0 -75 14.5 -96t64.5 -21v-29h-271v29q50 0 64.5 21t14.5 96v143h-82v44h82v48q0 194 163 194q50 0 82 -25t32 -53q0 -16 -9.5 -27t-25.5 -11q-18 0 -28.5 12.5t-14 27t-13 27t-25.5 12.5q-28 0 -38 -23.5t-10 -83.5v-98h224z" />
    <glyph glyph-name=".notdef" horiz-adv-x="500" 
 />
    <glyph glyph-name=".null" horiz-adv-x="0" 
 />
    <glyph glyph-name="nonmarkingreturn" horiz-adv-x="333" 
 />
    <glyph glyph-name="space" unicode=" " horiz-adv-x="233" 
 />
    <glyph glyph-name="space" unicode="&#xa0;" horiz-adv-x="233" 
 />
    <glyph glyph-name="exclam" unicode="!" horiz-adv-x="329" 
d="M90 540q0 31 22 54t53 23t54.5 -23t23.5 -54q0 -37 -13.5 -72.5t-29 -101t-18.5 -173.5h-34q-3 107 -18 173.5t-27.5 101.5t-12.5 72zM223 49q0 -23 -17 -40t-41 -17t-40 16.5t-16 40.5t16 41t40 17t41 -17t17 -41z" />
    <glyph glyph-name="quotedbl" unicode="&#x22;" horiz-adv-x="413" 
d="M57 556q0 25 17 43t41 18q25 0 43 -18t18 -43q0 -8 -22 -75t-28 -146h-21q-6 79 -27 146t-21 75zM237 556q0 25 17 43t41 18q25 0 43 -18t18 -43q0 -8 -22 -75t-28 -146h-21q-6 79 -27 146t-21 75z" />
    <glyph glyph-name="numbersign" unicode="#" horiz-adv-x="435" 
d="M311 323h70l-13 -70h-70l-18 -114h-57l20 114h-90l-19 -114h-56l19 114h-70l12 70h69l16 94h-69l13 69h69l19 114h57l-20 -114h90l19 114h56l-19 -114h70l-12 -69h-70zM165 323h89l16 94h-89z" />
    <glyph glyph-name="dollar" unicode="$" horiz-adv-x="498" 
d="M260 589q85 -11 122 -64q27 -38 6 -61q-7 -8 -18 -11q-16 -5 -28.5 5t-20 26.5t-24 35t-37.5 25.5v-185l70 -36q50 -26 76.5 -65t26.5 -80q0 -74 -49.5 -120t-123.5 -51v-91h-52v93q-93 12 -144 72q-35 41 -19 66q4 7 12 10q19 8 33.5 -3.5t24.5 -32t34 -42t59 -28.5v216
l-48 25q-47 24 -77.5 64t-30.5 91q0 59 44 99t112 44v92h52v-94zM260 49q35 5 56.5 27t21.5 57q0 63 -78 108v-192zM208 548q-26 -6 -43.5 -25.5t-17.5 -46.5q0 -52 61 -88v160z" />
    <glyph glyph-name="percent" unicode="%" horiz-adv-x="763" 
d="M372 473q0 -59 -48.5 -101t-115.5 -42q-68 0 -116.5 42t-48.5 101t48.5 101.5t116.5 42.5q67 0 115.5 -42.5t48.5 -101.5zM273 473q0 41 -17 73t-48 32t-48.5 -32t-17.5 -73q0 -40 17.5 -72.5t48.5 -32.5t48 32t17 73zM587 598l-369 -616l-40 21l370 617zM719 128
q0 -59 -48.5 -101.5t-115.5 -42.5t-115.5 42.5t-48.5 101.5t48.5 101t115.5 42t115.5 -42t48.5 -101zM621 128q0 40 -17.5 72.5t-48.5 32.5t-48.5 -32.5t-17.5 -72.5q0 -41 17.5 -73t48.5 -32t48.5 32t17.5 73z" />
    <glyph glyph-name="ampersand" unicode="&#x26;" horiz-adv-x="657" 
d="M249 368q49 31 75.5 61.5t26.5 72.5q0 32 -17.5 50t-44.5 18q-31 0 -50.5 -25t-19.5 -56q0 -65 30 -121zM374 67q-125 132 -171 194q-35 -48 -35 -111q0 -51 34 -85.5t83 -34.5q47 0 89 37zM405 38q-59 -55 -153 -55q-87 0 -146.5 46t-59.5 129q0 52 30.5 88t86.5 72
q-58 86 -58 155q0 64 53 104t131 40q67 0 113 -30t46 -85q0 -31 -18 -58t-36.5 -40.5t-60.5 -39t-58 -36.5q30 -44 155 -181q10 19 18 46q14 45 -3 62t-79 17v29h234v-29q-53 0 -73.5 -19t-43.5 -85q-7 -23 -22 -55q52 -55 97 -55q30 0 65 35l20 -19q-62 -91 -126 -91
q-48 0 -112 55z" />
    <glyph glyph-name="quotesingle" unicode="'" horiz-adv-x="233" 
d="M57 556q0 25 17 43t41 18q25 0 43 -18t18 -43q0 -8 -22 -75t-28 -146h-21q-6 79 -27 146t-21 75z" />
    <glyph glyph-name="parenleft" unicode="(" horiz-adv-x="358" 
d="M334 -86l-26 -25q-241 197 -241 406q0 208 240 406l27 -25q-156 -176 -156 -381t156 -381z" />
    <glyph glyph-name="parenright" unicode=")" horiz-adv-x="358" 
d="M292 295q0 -209 -241 -406l-27 25q157 177 157 381t-157 381l28 25q240 -198 240 -406z" />
    <glyph glyph-name="asterisk" unicode="*" horiz-adv-x="425" 
d="M181 429q-27 10 -63 12t-47 9q-19 11 -25 32.5t4 40.5q11 19 33.5 25t40.5 -5q12 -7 32 -38t42 -50q-5 28 -21.5 60.5t-16.5 46.5q0 22 15.5 38.5t37.5 16.5t38 -16.5t16 -38.5q0 -14 -17 -46t-22 -59q21 18 41.5 48t32.5 36q18 11 40.5 6t32.5 -24q11 -19 5 -41.5
t-25 -33.5q-11 -6 -47.5 -7.5t-64.5 -11.5q27 -9 62.5 -11.5t48.5 -9.5q19 -11 25 -32.5t-4 -39.5q-11 -19 -33.5 -25t-40.5 5q-11 7 -31.5 37.5t-41.5 48.5q5 -27 21 -59.5t16 -45.5q0 -22 -15.5 -38.5t-36.5 -16.5q-22 0 -38.5 16.5t-16.5 38.5q0 13 17 45t23 60
q-22 -18 -42.5 -48t-32.5 -36q-18 -11 -40.5 -6t-32.5 24q-11 18 -5 41t25 33q11 6 47 7.5t64 11.5z" />
    <glyph glyph-name="plus" unicode="+" 
d="M268 260h140v-77h-140v-141h-78v141h-140v77h140v140h78v-140z" />
    <glyph glyph-name="comma" unicode="," horiz-adv-x="313" 
d="M108 -139l-20 20q58 60 65 111h-5q-26 0 -44 19t-18 45t18 45t44 19q29 0 51 -21t22 -57q0 -47 -29.5 -97t-83.5 -84z" />
    <glyph glyph-name="hyphen" unicode="-" 
d="M375 166h-292v77h292v-77z" />
    <glyph glyph-name="hyphen" unicode="&#xad;" 
d="M375 166h-292v77h292v-77z" />
    <glyph glyph-name="period" unicode="." horiz-adv-x="313" 
d="M149 120q27 0 45.5 -18.5t18.5 -45.5t-18.5 -45.5t-45.5 -18.5t-45 18.5t-18 45.5t18 45.5t45 18.5z" />
    <glyph glyph-name="slash" unicode="/" horiz-adv-x="348" 
d="M334 601l-271 -619l-49 17l271 621z" />
    <glyph glyph-name="zero" unicode="0" horiz-adv-x="592" 
d="M296 450q96 0 164.5 -68.5t68.5 -164.5q0 -97 -68.5 -165.5t-164.5 -68.5t-164.5 68.5t-68.5 165.5q0 96 68.5 164.5t164.5 68.5zM296 366q-59 0 -101.5 -44t-42.5 -105q0 -62 42.5 -105.5t101.5 -43.5t101.5 43.5t42.5 105.5q0 61 -42.5 105t-101.5 44z" />
    <glyph glyph-name="one" unicode="1" horiz-adv-x="404" 
d="M354 0h-304v29q62 0 79 21t17 96v142q0 75 -17 95.5t-79 20.5v29h304v-29q-62 0 -79 -20.5t-17 -95.5v-142q0 -75 17 -96t79 -21v-29z" />
    <glyph glyph-name="two" unicode="2" horiz-adv-x="553" 
d="M348 163l-117 -71h237l-25 -171h-21q0 50 -21 64.5t-96 14.5h-231v24l188 154q68 57 68 125q0 42 -24 69t-68 27q-54 0 -76.5 -39t8.5 -102l-47 -31q-58 35 -60.5 88.5t49.5 94t136 40.5q98 0 156.5 -38.5t58.5 -95.5q0 -50 -32 -86t-83 -67z" />
    <glyph glyph-name="three" unicode="3" horiz-adv-x="525" 
d="M258 115q-6 -5 -14 -13.5t-13.5 -14.5t-13 -12t-13.5 -5.5t-15 5.5q-7 6 -8.5 12.5t4 14.5t9.5 12.5t14 14.5l55 58q25 25 38.5 56.5t13.5 55.5q0 46 -22 73t-60 27q-49 0 -71 -40.5t8 -100.5l-47 -31q-58 35 -62.5 88.5t45.5 94t133 40.5q89 0 148.5 -36t59.5 -98
q0 -84 -106 -147l-49 -28q74 -10 123 -56.5t49 -104.5q0 -76 -63 -121.5t-152 -45.5q-101 0 -158 59q-36 38 -25 67q5 15 24 18q14 3 26 -6t22 -24t21.5 -30.5t32.5 -26.5t49 -11q41 0 63 34t22 87q0 96 -68 135z" />
    <glyph glyph-name="four" unicode="4" horiz-adv-x="565" 
d="M358 492v-405h3q64 0 84 15.5t32 60.5l5 20h29l-8 -141h-145v-66q0 -75 17 -96t79 -21v-29h-304v29q62 0 79 21t17 96v66h-210v27l296 423h26zM246 87v203l-143 -203h143z" />
    <glyph glyph-name="five" unicode="5" horiz-adv-x="501" 
d="M133 186q13 18 43 31t61 13q86 0 143.5 -60.5t57.5 -147.5q0 -88 -59.5 -148.5t-150.5 -60.5q-71 0 -117 39t-46 76q0 29 28 29q19 0 30 -15.5t16.5 -33.5t25.5 -33.5t55 -15.5q40 0 66.5 46t26.5 117q0 70 -26.5 114t-66.5 44q-35 0 -56.5 -18t-39.5 -72h-45l31 343h178
q64 0 84 15.5t31 60.5h23l-24 -188h-254z" />
    <glyph glyph-name="six" unicode="6" horiz-adv-x="533" 
d="M179 278q0 -246 94 -246q78 0 78 140q0 138 -86 138q-65 0 -86 -32zM179 332q31 26 86 26q84 0 147 -55t63 -132t-59.5 -132.5t-142.5 -55.5q-33 0 -65.5 12.5t-67 41t-56 88t-21.5 141.5q0 88 26.5 167t82.5 133t129 54q76 0 124 -43q36 -32 18 -55q-3 -5 -8 -8
q-12 -10 -26.5 -2t-23.5 21t-31.5 25.5t-51.5 12.5q-115 0 -123 -239z" />
    <glyph glyph-name="seven" unicode="7" horiz-adv-x="479" 
d="M435 442v-28l-223 -562q-17 -40 -48 -40q-23 0 -34 22t4 56l219 439h-150q-45 0 -68.5 -8.5t-32 -22.5t-15.5 -45l-5 -20h-21l42 288h20q0 -50 21 -64.5t96 -14.5h195z" />
    <glyph glyph-name="eight" unicode="8" horiz-adv-x="545" 
d="M299 378q48 48 48 118q0 34 -22 54t-52 20q-29 0 -47.5 -19.5t-18.5 -44.5q0 -53 92 -128zM239 293q-71 -59 -71 -147q0 -46 28 -81t77 -35q43 0 69 29t26 70q0 40 -34 78.5t-95 85.5zM336 349q29 -23 37 -29t32 -26.5t32.5 -32t22 -30t18.5 -36.5t5 -37
q0 -74 -63 -124.5t-147 -50.5q-85 0 -147.5 49.5t-62.5 121.5q0 32 10.5 57t35 46t42 32t53.5 31q-55 44 -83 78.5t-28 74.5q0 61 52.5 102.5t122.5 41.5q69 0 122.5 -38.5t53.5 -89.5q0 -46 -28.5 -77.5t-79.5 -62.5z" />
    <glyph glyph-name="nine" unicode="9" horiz-adv-x="533" 
d="M471 168q0 -88 -26.5 -167.5t-82.5 -133.5t-129 -54q-77 0 -125 44q-36 33 -18 55q3 4 8 7q15 7 22.5 4.5t18.5 -12.5t21 -21t29 -19.5t43 -8.5q114 0 122 240q-32 -27 -86 -27q-84 0 -147 55.5t-63 132.5t59.5 132t142.5 55q33 0 66 -12.5t67.5 -41t56 -87.5t21.5 -141z
M354 156q0 246 -94 246q-77 0 -77 -140q0 -139 85 -139q64 0 86 33z" />
    <glyph glyph-name="colon" unicode=":" horiz-adv-x="285" 
d="M199 49q0 -23 -17 -40t-40 -17q-24 0 -40 16.5t-16 40.5t16 41t40 17q23 0 40 -17t17 -41zM199 238q0 -23 -17 -40t-40 -17q-24 0 -40 16.5t-16 40.5t16 41t40 17q23 0 40 -17t17 -41z" />
    <glyph glyph-name="semicolon" unicode=";" horiz-adv-x="278" 
d="M98 -128l-17 18q51 54 58 100h-5q-23 0 -39.5 17.5t-16.5 40.5t16.5 40.5t39.5 17.5q26 0 46 -19t20 -52q0 -42 -26.5 -87t-75.5 -76zM193 238q0 -23 -17 -40t-41 -17t-40 16.5t-16 40.5t16 41t40 17t41 -17t17 -41z" />
    <glyph glyph-name="less" unicode="&#x3c;" horiz-adv-x="483" 
d="M67 223l337 218l23 -31l-199 -187l199 -185l-23 -32z" />
    <glyph glyph-name="equal" unicode="=" 
d="M375 253h-292v78h292v-78zM375 112h-292v77h292v-77z" />
    <glyph glyph-name="greater" unicode="&#x3e;" horiz-adv-x="483" 
d="M417 223l-338 -217l-22 32l198 185l-198 187l22 31z" />
    <glyph glyph-name="question" unicode="?" horiz-adv-x="513" 
d="M392 468q0 43 -42.5 76t-106.5 33q-41 0 -66 -15t-25 -30q0 -23 34 -23q18 0 31 -12.5t13 -29.5q0 -25 -21.5 -38.5t-42.5 -13.5q-32 0 -59 21t-27 65q0 52 52 84t111 32q101 0 162.5 -56t61.5 -122q0 -90 -62.5 -144t-161.5 -66v-54h-45v174q85 0 139.5 32t54.5 87z
M278 49q0 -23 -16.5 -40t-40.5 -17t-40 16.5t-16 40.5t16 41t40 17t40.5 -17t16.5 -41z" />
    <glyph glyph-name="at" unicode="@" horiz-adv-x="708" 
d="M674 239q0 -101 -62 -176t-130 -75q-46 0 -69 40q-19 -19 -45 -31t-46 -12q-65 0 -96.5 55.5t-16.5 137.5q14 77 70 132t121 55q34 0 65 -16h67l-48 -267q-9 -44 19 -44q40 0 80 56.5t40 143.5q0 95 -64.5 152.5t-152.5 57.5q-116 0 -197.5 -87.5t-81.5 -202.5
q0 -117 68.5 -190.5t175.5 -73.5q102 0 210 68l19 -28q-116 -87 -237 -87q-136 0 -230.5 88t-94.5 219q0 145 104 248.5t250 103.5q122 0 202 -74t80 -193zM444 304q-19 17 -46 17q-37 0 -64.5 -44t-38.5 -104q-22 -135 43 -135q24 0 45.5 23t28.5 57z" />
    <glyph glyph-name="A" unicode="A" horiz-adv-x="625" 
d="M170 200l-41 -95q-19 -41 -2.5 -58.5t77.5 -17.5v-29h-242v29q52 0 76 17.5t47 70.5l217 500h21l218 -500q23 -53 44.5 -70.5t77.5 -17.5v-29h-328v29q64 0 79.5 18t-4.5 58l-42 95h-198zM349 245l-80 183l-79 -183h159z" />
    <glyph glyph-name="B" unicode="B" horiz-adv-x="657" 
d="M347 45q62 0 94.5 35t32.5 90q0 54 -32.5 89.5t-94.5 35.5h-89v-139q0 -71 17 -91t79 -20h-7zM258 555v-215h56q54 0 82 30t28 77q0 46 -28 77t-82 31h-56zM484 326q58 -18 91 -60.5t33 -97.5q0 -72 -55.5 -120t-146.5 -48h-368v29q62 0 78.5 21t16.5 96v308
q0 75 -16.5 96t-78.5 21v29h340q81 0 130.5 -43t49.5 -107q0 -81 -74 -124z" />
    <glyph glyph-name="C" unicode="C" horiz-adv-x="692" 
d="M618 11h-28q-12 47 -26 57q-82 -85 -186 -85q-127 0 -217 93t-90 224t90 224t217 93q106 0 186 -85q15 12 26 57h28v-220h-29q-20 96 -75.5 148t-131.5 52q-49 0 -85 -24t-55 -64.5t-27.5 -85.5t-8.5 -95t8.5 -95t27.5 -85.5t55 -64.5t85 -24q75 0 131 52.5t76 147.5h29
v-220z" />
    <glyph glyph-name="D" unicode="D" horiz-adv-x="772" 
d="M38 0v29q62 0 78.5 21t16.5 96v308q0 75 -16.5 96t-78.5 21v29h330q166 0 249.5 -84t83.5 -216t-83.5 -216t-249.5 -84h-330zM258 555v-397q0 -73 17 -93t79 -20h10q47 0 82.5 16t56.5 41t34 60t17.5 68t4.5 70t-4.5 70t-17.5 68t-34 60t-56.5 41t-82.5 16h-106z" />
    <glyph glyph-name="E" unicode="E" horiz-adv-x="641" 
d="M38 0v29q62 0 78.5 21t16.5 96v308q0 75 -16.5 96t-78.5 21v29h515l8 -141h-29l-5 20q-12 45 -32 60.5t-84 15.5h-153v-215h55q75 0 95.5 17t20.5 79h29v-237h-29q0 63 -20.5 79.5t-95.5 16.5h-55v-133q0 -75 17 -96t79 -21h90q45 0 68.5 9t32 23t15.5 44l5 20h29
l-8 -141h-548z" />
    <glyph glyph-name="F" unicode="F" horiz-adv-x="594" 
d="M258 555v-215h55q75 0 95.5 17t20.5 79h29v-237h-29q0 63 -20.5 79.5t-95.5 16.5h-55v-149q0 -75 17 -96t79 -21v-29h-316v29q62 0 78.5 21t16.5 96v308q0 75 -16.5 96t-78.5 21v29h531l9 -141h-30l-5 20q-11 44 -31 60t-84 16h-170z" />
    <glyph glyph-name="G" unicode="G" horiz-adv-x="725" 
d="M532 155q0 33 -21.5 48.5t-72.5 15.5v29h295v-29q-62 0 -78.5 -20.5t-16.5 -95.5v-68q-61 0 -136.5 -26t-123.5 -26q-127 0 -217 93t-90 224t90 224t217 93q106 0 186 -85q15 12 26 57h28v-220h-29q-20 96 -75.5 148t-131.5 52q-49 0 -85 -24t-55 -64.5t-27.5 -85.5
t-8.5 -95t8.5 -95t27.5 -85.5t55 -64.5t85 -24q65 0 107.5 30t42.5 94z" />
    <glyph glyph-name="H" unicode="H" horiz-adv-x="823" 
d="M258 296v-150q0 -75 17 -96t79 -21v-29h-316v29q62 0 78.5 21t16.5 96v308q0 75 -16.5 96t-78.5 21v29h316v-29q-62 0 -79 -21t-17 -96v-113h307v113q0 76 -16.5 96.5t-79.5 20.5v29h317v-29q-62 0 -79 -21t-17 -96v-308q0 -75 17 -96t79 -21v-29h-317v29q63 0 79.5 20.5
t16.5 96.5v150h-307z" />
    <glyph glyph-name="I" unicode="I" horiz-adv-x="392" 
d="M354 0h-316v29q62 0 78.5 21t16.5 96v308q0 75 -16.5 96t-78.5 21v29h316v-29q-62 0 -79 -21t-17 -96v-308q0 -75 17 -96t79 -21v-29z" />
    <glyph glyph-name="J" unicode="J" horiz-adv-x="383" 
d="M51 -178q82 0 82 125v507q0 75 -16.5 96t-78.5 21v29h316v-29q-62 0 -79 -21t-17 -96v-458q0 -107 -57 -163t-147 -56q-66 0 -114 35t-48 88q0 18 11.5 30t29.5 12t29.5 -12t11.5 -30q0 -30 19.5 -54t57.5 -24z" />
    <glyph glyph-name="K" unicode="K" horiz-adv-x="788" 
d="M387 375l277 -287q24 -24 65 -41.5t64 -17.5v-29h-332v29q41 0 52.5 14t-15.5 45l-197 214l-43 -35v-121q0 -75 17 -96t79 -21v-29h-316v29q62 0 78.5 21t16.5 96v308q0 75 -16.5 96t-78.5 21v29h316v-29q-62 0 -79 -21t-17 -96v-134l210 169q12 10 23 22t19.5 26.5
t-0.5 24t-38 9.5v29h241v-29q-40 0 -73 -11.5t-51 -24.5t-60 -46z" />
    <glyph glyph-name="L" unicode="L" horiz-adv-x="633" 
d="M133 454q0 75 -16.5 96t-78.5 21v29h316v-29q-62 0 -79 -21t-17 -96v-292q0 -75 17 -96t79 -21h115q45 0 68.5 9t32 23t15.5 44l5 20h29l-8 -141h-573v29q62 0 78.5 21t16.5 96v308z" />
    <glyph glyph-name="M" unicode="M" horiz-adv-x="850" 
d="M178 434v-288q0 -75 17 -96t79 -21v-29h-236v29q62 0 78.5 21t16.5 96v308q0 75 -16.5 96t-78.5 21v29h200l193 -433l187 433h195v-29q-63 0 -79.5 -20.5t-16.5 -96.5v-308q0 -76 16.5 -96.5t79.5 -20.5v-29h-312v29q62 0 79 21t17 96v289l-196 -452h-22z" />
    <glyph glyph-name="N" unicode="N" horiz-adv-x="749" 
d="M572 202v252q0 75 -17 96t-79 21v29h237v-29q-63 0 -79.5 -20.5t-16.5 -96.5v-471h-25l-414 494v-331q0 -75 17 -96t79 -21v-29h-236v29q62 0 78.5 21t16.5 96v308q0 75 -16.5 96t-78.5 21v29h200z" />
    <glyph glyph-name="O" unicode="O" horiz-adv-x="783" 
d="M725 300q0 -131 -98 -224t-235 -93q-138 0 -236 93t-98 224t98 224t236 93q137 0 235 -93t98 -224zM591 300q0 65 -19.5 124t-66.5 102t-113 43q-67 0 -114 -43t-66 -102t-19 -124t19 -124t66 -102t114 -43q66 0 113 43t66.5 102t19.5 124z" />
    <glyph glyph-name="P" unicode="P" horiz-adv-x="598" 
d="M373 600q91 0 146.5 -48.5t55.5 -120.5t-55.5 -120t-146.5 -48h-115v-117q0 -75 17 -96t79 -21v-29h-316v29q62 0 78.5 21t16.5 96v308q0 75 -16.5 96t-78.5 21v29h335zM313 308q62 0 95 34.5t33 88.5t-33 89t-95 35h-55v-247h55z" />
    <glyph glyph-name="Q" unicode="Q" horiz-adv-x="808" 
d="M350 -13q-122 21 -200.5 109t-78.5 204q0 131 98 224t235 93q138 0 236 -93t98 -224q0 -124 -87 -212.5t-213 -102.5q-30 -3 -70 -19.5t-66 -38.5q59 12 100.5 8t83 -20t72 -33t67 -30.5t68.5 -13.5q113 0 165 85l24 -10q-9 -27 -17.5 -47t-26.5 -48.5t-39 -47t-53.5 -32
t-71.5 -13.5q-46 0 -87.5 18.5t-71.5 44.5t-57 52.5t-55.5 45t-54.5 18.5q-33 0 -54.5 -10t-29 -22t-16.5 -22.5t-20 -12.5q-14 -2 -24 7t-10 25q0 24 46 61.5t110 56.5zM404 569q-66 0 -113 -43t-66.5 -102t-19.5 -124t19.5 -124t66.5 -102t113 -43q67 0 114 43t66 102
t19 124t-19 124t-66 102t-114 43z" />
    <glyph glyph-name="R" unicode="R" horiz-adv-x="678" 
d="M398 263l97 -106q65 -71 102.5 -96.5t84.5 -31.5v-29h-217l-178 263h-29v-117q0 -75 17 -96t79 -21v-29h-316v29q62 0 78.5 21t16.5 96v308q0 75 -16.5 96t-78.5 21v29h335q91 0 146.5 -48.5t55.5 -120.5q0 -66 -48.5 -113.5t-128.5 -54.5zM313 308q62 0 95 34.5t33 88.5
t-33 89t-95 35h-55v-247h55z" />
    <glyph glyph-name="S" unicode="S" horiz-adv-x="507" 
d="M111 30q-23 -19 -29 -47h-29v220h30q14 -78 67 -126.5t117 -48.5q45 0 72.5 25.5t27.5 73.5q0 28 -20 55.5t-54 45.5l-95 50q-69 35 -102.5 77t-33.5 112q0 62 51 106t123 44q66 0 122 -41q23 19 29 46h28v-220h-29q-6 72 -39.5 121.5t-104.5 49.5q-32 0 -56.5 -22
t-24.5 -58q0 -24 21.5 -53.5t58.5 -48.5l96 -49q58 -30 93.5 -75.5t35.5 -101.5q0 -79 -59.5 -130.5t-139.5 -51.5q-34 0 -65 10t-56 22.5t-35 14.5z" />
    <glyph glyph-name="T" unicode="T" horiz-adv-x="642" 
d="M625 600l8 -141h-29l-5 20q-7 30 -15.5 44t-32 23t-68.5 9h-100v-409q0 -75 17 -96t79 -21v-29h-316v29q62 0 78.5 21t16.5 96v409h-100q-64 0 -84 -16t-31 -60l-5 -20h-30l9 141h608z" />
    <glyph glyph-name="U" unicode="U" horiz-adv-x="733" 
d="M554 454q0 76 -16.5 96.5t-79.5 20.5v29h245v-29q-62 0 -78.5 -21t-16.5 -96v-231q0 -113 -68.5 -176.5t-172.5 -63.5t-172 63t-68 177v231q0 75 -17 96t-79 21v29h317v-29q-63 0 -79.5 -20.5t-16.5 -96.5v-220q0 -93 43.5 -141t111.5 -48q67 0 107 48t40 141v220z" />
    <glyph glyph-name="V" unicode="V" horiz-adv-x="625" 
d="M663 571q-52 0 -76 -17.5t-47 -70.5l-217 -500h-21l-218 500q-23 53 -44.5 70.5t-77.5 17.5v29h328v-29q-64 0 -79.5 -18t4.5 -58l140 -325l141 325q19 41 2.5 58.5t-77.5 17.5v29h242v-29z" />
    <glyph glyph-name="W" unicode="W" horiz-adv-x="778" 
d="M820 571q-60 0 -81 -17t-38 -71l-162 -500h-21l-126 387l-124 -387h-21l-162 500q-17 54 -38 71t-81 17v29h316v-29q-62 0 -77.5 -16t-1.5 -60l91 -281l123 386h22l126 -387l92 282q13 41 -2.5 58.5t-67.5 17.5v29h233v-29z" />
    <glyph glyph-name="X" unicode="X" horiz-adv-x="614" 
d="M359 348l145 -231q33 -50 62.5 -69t78.5 -19v-29h-335v29q57 0 68.5 17.5t-14.5 58.5l-87 139l-114 -139q-62 -76 54 -76v-29h-246v29q44 0 75.5 21t68.5 67l136 167l-124 199q-32 49 -62 68.5t-78 19.5v29h334v-29q-54 0 -66.5 -17.5t12.5 -58.5l67 -107l88 107
q62 76 -54 76v29h246v-29q-49 0 -76 -18.5t-68 -69.5z" />
    <glyph glyph-name="Y" unicode="Y" horiz-adv-x="633" 
d="M665 571q-59 0 -84.5 -17.5t-59.5 -70.5l-143 -216v-121q0 -75 16.5 -96t78.5 -21v-29h-312v29q62 0 79 21t17 96v118l-145 219q-35 53 -63.5 70.5t-81.5 17.5v29h339v-29q-105 0 -53 -76l112 -169l112 169q28 41 16 58.5t-70 17.5v29h242v-29z" />
    <glyph glyph-name="Z" unicode="Z" horiz-adv-x="592" 
d="M353 563h-157q-45 0 -68.5 -9t-32 -22.5t-15.5 -43.5l-5 -20h-21l9 132h443v-22l-313 -541h193q64 0 84 15.5t32 60.5l5 20h21l-9 -133h-476v24z" />
    <glyph glyph-name="bracketleft" unicode="[" horiz-adv-x="375" 
d="M336 -88h-219v766h219v-40h-104v-686h104v-40z" />
    <glyph glyph-name="backslash" unicode="\" horiz-adv-x="348" 
d="M14 601l49 19l271 -621l-49 -17z" />
    <glyph glyph-name="bracketright" unicode="]" horiz-adv-x="375" 
d="M258 -88h-219v40h104v686h-104v40h219v-766z" />
    <glyph glyph-name="asciicircum" unicode="^" horiz-adv-x="485" 
d="M460 296l-23 -16l-194 158l-195 -158l-23 16l218 321z" />
    <glyph glyph-name="underscore" unicode="_" horiz-adv-x="358" 
d="M359 -44h-360v44h360v-44z" />
    <glyph glyph-name="grave" unicode="`" horiz-adv-x="404" 
d="M270 490l-7 -9l-179 76q-30 16 -30 39q0 14 10 25.5t27 11.5q25 0 57 -30z" />
    <glyph glyph-name="a" unicode="a" horiz-adv-x="441" 
d="M427 26q-49 -37 -94 -37q-66 0 -76 58q-45 -35 -69.5 -47.5t-56.5 -12.5q-38 0 -67 23t-29 61q0 60 57.5 93t164.5 49v1q0 53 -16 74t-49 21q-20 0 -37 -10.5t-17 -28.5q0 -20 -11.5 -31.5t-28.5 -11.5t-28.5 11.5t-11.5 31.5q0 36 44 58t102 22q83 0 120.5 -32.5
t37.5 -103.5v-135q0 -38 21 -38q11 0 30 12zM257 88v85q-64 -17 -93.5 -36t-29.5 -54q0 -40 39 -40q33 0 84 45z" />
    <glyph glyph-name="b" unicode="b" horiz-adv-x="502" 
d="M333 167q0 61 -19 98.5t-56 37.5q-26 0 -46 -25t-20 -63v-97q0 -37 20 -62.5t46 -25.5q37 0 56 38t19 99zM79 -8v454q0 75 -14.5 96t-64.5 21v29l192 25v-296q36 29 82 29q83 0 132.5 -52.5t49.5 -130.5t-50 -131t-132 -53q-72 0 -113 65l-53 -56h-29z" />
    <glyph glyph-name="c" unicode="c" horiz-adv-x="405" 
d="M239 310q-71 0 -71 -152q0 -60 27 -93t75 -33t101 46l17 -29q-61 -66 -149 -66q-83 0 -138 50t-55 125q0 86 54 139t131 53q58 0 92.5 -25t34.5 -56q0 -15 -10.5 -28.5t-33.5 -13.5q-16 0 -27.5 12t-11.5 28q0 43 -36 43z" />
    <glyph glyph-name="d" unicode="d" horiz-adv-x="510" 
d="M310 321v125q0 75 -14.5 96t-64.5 21v29l192 25v-463q0 -75 14.5 -95.5t64.5 -20.5v-30l-175 -25q-3 4 -9 36q-38 -36 -90 -36q-82 0 -132 53t-50 131t49.5 130.5t132.5 52.5q46 0 82 -29zM310 118v97q0 38 -20 63t-47 25q-37 0 -56 -38t-19 -98t19 -98.5t56 -38.5
q27 0 47 25.5t20 62.5z" />
    <glyph glyph-name="e" unicode="e" horiz-adv-x="433" 
d="M173 229h133q2 32 -14 52.5t-48 20.5q-56 0 -71 -73zM166 185q-6 -72 24 -110.5t74 -38.5q71 0 119 42l17 -29q-27 -29 -69 -47.5t-83 -18.5q-88 0 -145 53.5t-57 130.5q0 78 56.5 130.5t136.5 52.5q78 0 120 -54.5t24 -110.5h-217z" />
    <glyph glyph-name="f" unicode="f" horiz-adv-x="328" 
d="M401 529q0 -17 -10 -29t-28 -12q-20 0 -31.5 14t-15.5 30t-14.5 30t-28.5 14q-31 0 -43 -26.5t-12 -92.5v-124h101v-44h-101v-143q0 -75 14.5 -96t65.5 -21v-29h-271v29q50 0 64.5 21t14.5 96v143h-82v44h82v81q0 103 40.5 153t128.5 50q56 0 91 -28t35 -60z" />
    <glyph glyph-name="g" unicode="g" horiz-adv-x="425" 
d="M250 214q0 43 -14 69t-42 26q-27 0 -41.5 -26.5t-14.5 -68.5t14.5 -68.5t41.5 -26.5q28 0 42 26.5t14 68.5zM113 45q0 -12 18 -16.5t66 -9.5q14 -1 22 -2q87 -10 128.5 -51t41.5 -90q0 -64 -55 -103.5t-136 -39.5q-114 0 -162 53q-39 43 -6 89q18 23 52 40l19 -11
q-30 -32 -31.5 -58t18.5 -40.5t46.5 -22t53.5 -7.5q53 0 86 18.5t33 49.5q0 27 -30 42.5t-119 25.5q-125 13 -125 100q0 27 24 51t63 36q-33 15 -54 46t-21 69q0 56 44 96t105 40q60 0 104 -38q12 16 34.5 27t39.5 11q55 0 69 -42q11 -32 -9 -51q-12 -13 -31 -8
q-13 3 -19.5 12t-8 18.5t-7 16.5t-16.5 7q-15 0 -31 -16q24 -29 24 -73q0 -52 -39 -91.5t-99 -44.5q-68 -6 -82 -15q-10 -6 -10 -18z" />
    <glyph glyph-name="h" unicode="h" horiz-adv-x="542" 
d="M88 446q0 75 -14.5 96t-65.5 21v29l192 25v-321q46 54 118 54q66 0 105.5 -42t39.5 -107v-55q0 -75 14.5 -96t64.5 -21v-29h-231v29q21 0 30 23.5t9 93.5v42q0 53 -13.5 79.5t-48.5 26.5q-34 0 -61 -26t-27 -73v-49q0 -75 14.5 -96t64.5 -21v-29h-271v29q51 0 65.5 21
t14.5 96v300z" />
    <glyph glyph-name="i" unicode="i" horiz-adv-x="323" 
d="M306 0h-271v29q50 0 64.5 21t14.5 96v33q0 75 -14.5 96t-64.5 21v29l192 25v-204q0 -75 14.5 -96t64.5 -21v-29zM234 518q0 -26 -19 -45.5t-45 -19.5t-44 19t-18 46q0 26 18 45t44 19t45 -19t19 -45z" />
    <glyph glyph-name="j" unicode="j" horiz-adv-x="281" 
d="M206 -78q0 -98 -40.5 -143.5t-122.5 -45.5q-65 0 -105 31t-41 63q0 35 34 35q18 0 28 -14t13.5 -30t17 -30t37.5 -14q32 0 49 34t17 122v249q0 75 -14.5 96t-64.5 21v29l192 25v-428zM213 518q0 -26 -19 -45.5t-45 -19.5t-44 19t-18 46q0 26 18 45t44 19t45 -19t19 -45z
" />
    <glyph glyph-name="k" unicode="k" horiz-adv-x="465" 
d="M200 198l76 54q26 18 16 35t-47 17v29h209v-29q-51 0 -96 -36l-76 -58l117 -141q34 -40 76 -40v-29h-142l-133 159v-21q0 -66 12.5 -87.5t50.5 -21.5v-29h-255v29q51 0 65.5 21t14.5 96v300q0 75 -14.5 96t-65.5 21v29l192 25v-419z" />
    <glyph glyph-name="l" unicode="l" horiz-adv-x="304" 
d="M288 0h-271v29q50 0 64.5 21t14.5 96v300q0 75 -14.5 96t-64.5 21v29l191 25v-471q0 -75 14.5 -96t65.5 -21v-29z" />
    <glyph glyph-name="m" unicode="m" horiz-adv-x="828" 
d="M488 195v-49q0 -75 14.5 -96t64.5 -21v-29h-231v29q21 0 30 23.5t9 93.5v42q0 53 -12 79.5t-44 26.5q-34 0 -63 -26.5t-29 -72.5v-49q0 -74 13 -95.5t53 -21.5v-29h-258v29q50 0 64.5 21t14.5 96v33q0 75 -14.5 96t-64.5 21v29l175 25q11 -21 14 -57q47 57 125 57
q88 0 123 -74q54 74 138 74q66 0 102 -41.5t36 -107.5v-55q0 -75 14.5 -96t65.5 -21v-29h-231v29q21 0 30 23.5t9 93.5v42q0 53 -12 79.5t-44 26.5q-34 0 -63 -26.5t-29 -72.5z" />
    <glyph glyph-name="n" unicode="n" horiz-adv-x="583" 
d="M224 293q47 57 125 57q67 0 111 -42.5t44 -106.5v-55q0 -75 14.5 -96t64.5 -21v-29h-230v29q21 0 30 23.5t9 93.5v42q0 52 -16.5 79t-56.5 27q-34 0 -63 -26.5t-29 -72.5v-49q0 -75 14.5 -96t64.5 -21v-29h-271v29q50 0 64.5 21t14.5 96v33q0 75 -14.5 96t-64.5 21v29
l175 25q11 -21 14 -57z" />
    <glyph glyph-name="o" unicode="o" horiz-adv-x="495" 
d="M449 167q0 -76 -59 -130t-142 -54t-142.5 54t-59.5 130t59.5 129.5t142.5 53.5t142 -53.5t59 -129.5zM327 167q0 60 -20 98t-59 38t-59.5 -38t-20.5 -98t20.5 -98.5t59.5 -38.5t59 38.5t20 98.5z" />
    <glyph glyph-name="p" unicode="p" horiz-adv-x="502" 
d="M333 167q0 61 -19 98.5t-56 37.5q-26 0 -46 -25t-20 -63v-97q0 -37 20 -62.5t46 -25.5q37 0 56 38t19 99zM192 -104q0 -75 14.5 -96t64.5 -21v-29h-271v29q50 0 64.5 21t14.5 96v283q0 75 -14.5 96t-64.5 21v29l175 25q3 -4 9 -36q38 36 90 36q83 0 132.5 -52.5
t49.5 -130.5t-50 -131t-132 -53q-47 0 -82 30v-117z" />
    <glyph glyph-name="q" unicode="q" horiz-adv-x="502" 
d="M310 118v97q0 38 -20 63t-47 25q-37 0 -56 -38t-19 -98t19 -98.5t56 -38.5q27 0 47 25.5t20 62.5zM423 -104q0 -75 14.5 -96t64.5 -21v-29h-271v29q50 0 64.5 21t14.5 96v117q-35 -30 -82 -30q-82 0 -132 53t-50 131t49.5 130.5t132.5 52.5q71 0 113 -64l52 56h30v-446z
" />
    <glyph glyph-name="r" unicode="r" horiz-adv-x="423" 
d="M422 268q0 -22 -14.5 -41t-39.5 -19q-17 0 -26.5 10.5t-12 22.5t-13 22.5t-28.5 10.5q-25 0 -43 -25.5t-18 -81.5v-21q0 -75 14.5 -96t64.5 -21v-29h-271v29q50 0 64.5 21t14.5 96v33q0 75 -14.5 96t-64.5 21v29l175 25q9 -19 17 -72q16 30 46 51t60 21q46 0 67.5 -25
t21.5 -57z" />
    <glyph glyph-name="s" unicode="s" horiz-adv-x="383" 
d="M341 96q0 -56 -40.5 -84.5t-95.5 -28.5q-22 0 -44.5 7t-35 13.5t-23.5 10t-15.5 -3.5t-4.5 -27h-29v146h29q0 -36 37 -70t84 -34q24 0 38.5 11t14.5 28t-15 29.5t-49 29.5l-56 25q-75 35 -75 102q0 51 36 75.5t82 24.5q20 0 39.5 -4t31 -8t21 -6t13 2t3.5 16h29v-116h-29
q0 30 -29.5 53t-62.5 23q-21 0 -35 -9.5t-14 -24.5q0 -16 14 -26.5t55 -28.5l48 -23q37 -17 57.5 -44.5t20.5 -57.5z" />
    <glyph glyph-name="t" unicode="t" horiz-adv-x="319" 
d="M81 289h-53v33q47 10 87 50t44 87h34v-126h87v-44h-87v-174q0 -72 45 -72q27 0 68 29l14 -29q-24 -23 -60.5 -40t-61.5 -17q-55 0 -86 32t-31 90v181z" />
    <glyph glyph-name="u" unicode="u" horiz-adv-x="548" 
d="M548 8l-175 -25q-8 17 -14 58q-46 -58 -125 -58q-67 0 -111 43t-44 107v55q0 75 -14.5 95.5t-64.5 20.5v29h192v-187q0 -52 16 -79.5t56 -27.5q34 0 63.5 26.5t29.5 72.5v50q0 74 -14.5 95t-64.5 21v29h191v-179q0 -74 14.5 -95t64.5 -21v-30z" />
    <glyph glyph-name="v" unicode="v" horiz-adv-x="384" 
d="M226 125l60 129q13 27 6 38.5t-35 11.5v29h148v-29q-26 0 -42 -11t-29 -39l-126 -272h-28l-134 272q-13 28 -28 39t-39 11v29h219v-29q-31 0 -38.5 -12t5.5 -38z" />
    <glyph glyph-name="w" unicode="w" horiz-adv-x="543" 
d="M274 175l-82 -193h-20l-118 272q-12 30 -26.5 40t-41.5 10v29h211v-29q-32 0 -38.5 -11t6.5 -39l48 -105l79 184h24l86 -184l42 105q12 28 6 39t-33 11v29h148v-29q-28 0 -44.5 -10.5t-27.5 -39.5l-110 -272h-20z" />
    <glyph glyph-name="x" unicode="x" horiz-adv-x="415" 
d="M182 118l-37 -39q-49 -50 17 -50v-29h-159v29q42 0 88 50l67 70l-81 105q-23 29 -42.5 39.5t-45.5 10.5v29h235v-29q-32 0 -37 -10.5t16 -39.5l24 -31l30 31q47 50 -13 50v29h163v-29q-50 0 -96 -50l-59 -62l86 -113q24 -30 44 -40t52 -10v-29h-247v29q65 0 25 50z" />
    <glyph glyph-name="y" unicode="y" horiz-adv-x="379" 
d="M128 -233q-15 -37 -37 -37q-14 0 -27 8.5t-13 28.5q0 16 11.5 27t31.5 32t33 54l43 106l-120 268q-22 50 -67 50v29h220v-29q-32 0 -39 -11t5 -39l59 -130l54 130q11 27 5 38.5t-34 11.5v29h148v-29q-50 0 -71 -50z" />
    <glyph glyph-name="z" unicode="z" horiz-adv-x="375" 
d="M326 333v-16l-149 -277h19q64 0 85.5 13t29.5 46l5 20h21l-8 -119h-290v17l149 276h-5q-64 0 -85.5 -13t-29.5 -46l-5 -20h-21l7 119h277z" />
    <glyph glyph-name="braceleft" unicode="{" horiz-adv-x="375" 
d="M42 304q23 8 33 12t25.5 16.5t21.5 28.5t11 45.5t5 71.5q0 26 5 48t11.5 39t19.5 33t23.5 26t29.5 23t30 19.5t33.5 18.5t32.5 18l23 -30q-59 -39 -76.5 -74t-17.5 -119q0 -42 -6.5 -73t-16 -49.5t-27 -31t-33 -18.5t-40.5 -12q25 -6 40.5 -12t33 -18.5t27 -31t16 -49.5
t6.5 -73q0 -84 17.5 -119t76.5 -75l-23 -29q-10 6 -37 20.5t-38.5 21.5t-33 22.5t-31.5 29t-22.5 33.5t-17.5 44.5t-5 53.5q0 42 -5 71.5t-11 45.5t-21.5 28.5t-25.5 16.5t-33 12v16z" />
    <glyph glyph-name="bar" unicode="|" horiz-adv-x="274" 
d="M111 686h52v-782h-52v782z" />
    <glyph glyph-name="braceright" unicode="}" horiz-adv-x="375" 
d="M333 288q-28 -10 -40.5 -16.5t-28 -24t-21 -49.5t-5.5 -84q0 -29 -5 -53.5t-17.5 -44.5t-22.5 -33.5t-32 -28.5t-33.5 -22.5t-38.5 -22t-37 -20.5l-23 29q59 40 76.5 75t17.5 119q0 42 6.5 73t16 49.5t27 31t33 18.5t40.5 12q-25 6 -40.5 12t-33 18.5t-27 31t-16 49.5
t-6.5 73q0 84 -17.5 119t-76.5 74l23 30q9 -5 36.5 -20t39 -22.5t33.5 -22.5t32 -29t22.5 -33.5t17.5 -44t5 -53.5q0 -52 5.5 -84t21 -49.5t28 -24t40.5 -16.5v-16z" />
    <glyph glyph-name="asciitilde" unicode="~" horiz-adv-x="423" 
d="M298 222q44 0 58 54h21q0 -75 -24 -114t-68 -39q-25 0 -85 32.5t-79 32.5q-18 0 -34 -15t-22 -39h-21q0 70 23.5 110.5t62.5 40.5q27 0 86 -31.5t82 -31.5z" />
    <glyph glyph-name="exclamdown" unicode="&#xa1;" horiz-adv-x="329" 
d="M243 -109q0 -31 -23.5 -54t-54.5 -23t-53 23t-22 54q0 36 12.5 71.5t27.5 101.5t18 174h34q3 -84 13 -145t20.5 -86.5t19 -55t8.5 -60.5zM223 382q0 -24 -17 -41t-41 -17t-40 17t-16 41t16 40.5t40 16.5t41 -17t17 -40z" />
    <glyph glyph-name="cent" unicode="&#xa2;" horiz-adv-x="463" 
d="M281 448q48 -6 77.5 -29.5t29.5 -49.5q0 -15 -11 -28.5t-34 -13.5q-16 0 -27.5 12t-11.5 28q0 31 -23 41v-275q6 -1 18 -1q48 0 101 46l18 -29q-56 -57 -137 -65v0v0v-1v0v0v-1v-1v0v-1v-1v-1v-1v-1v-1v-1v-1v-1v-1v-1v-1v-1v-1v-1v-1v-1v-1v-1v-1v-1v-1v-1v-1v-1v-2v-1
v-1v-1v-1v-1v-1v-1v-1v-1v-2v-1v-1v-1v-1v-2v-1v-1v-1v-2v-1v-1v-1v-2v-1v-1v-2v-1v-2v-1v-1v-2v-1v-1v-2v-1v-2v-1v-2v-1v-2v-1v-2v-1v-2v-1v-2v-1v-2v-1v-2v-1v-2v-2v-1v-2v-1v-2v-2v-1v-2v-2v-1v-2v-2v-1v-2v-2v-1v-2v-2v-1v-2v-2v-2v-1v-2v-2v-2v-2v-1v-2v-2v-2v-2v-1
v-2v-10h-46v168q-76 8 -126.5 56t-50.5 117q0 80 52.5 132.5t124.5 58.5v168h46v-169zM235 401q-54 -32 -54 -143q0 -74 54 -108v251z" />
    <glyph glyph-name="sterling" unicode="&#xa3;" horiz-adv-x="513" 
d="M357 45q44 0 67.5 9t32 23t16.5 44l5 20h29l-9 -141h-467v29q50 0 64.5 21t14.5 96v143h-82v44h82v81q0 103 40.5 153t128.5 50q56 0 91 -28t35 -60q0 -17 -10 -29t-28 -12q-20 0 -31.5 14t-15.5 30t-14.5 30t-28.5 14q-31 0 -42.5 -26.5t-11.5 -92.5v-124h142v-44h-142
v-127q0 -75 14.5 -96t64.5 -21h55z" />
    <glyph glyph-name="currency" unicode="&#xa4;" horiz-adv-x="642" 
d="M223 336q-1 -12 -1 -36v-36h201v-58h-196q10 -77 44.5 -126t94.5 -49q71 0 112 50t62 150h29v-220h-28q-12 50 -23 57q-59 -85 -156 -85q-91 0 -162.5 62.5t-96.5 160.5h-70v58h59q0 6 -0.5 18t-0.5 18q0 12 2 36h-60v58h70q25 98 96.5 160.5t162.5 62.5q102 0 156 -85
q11 9 23 57h28v-220h-29q-21 101 -62 150.5t-112 49.5q-116 0 -139 -175h196v-58h-200z" />
    <glyph glyph-name="yen" unicode="&#xa5;" horiz-adv-x="633" 
d="M378 255v-67h130v-56h-130q1 -66 18 -84.5t77 -18.5v-29h-312v29q59 0 77 18.5t19 84.5h-134v56h134v67h-134v57h102l-113 171q-35 53 -63.5 70.5t-81.5 17.5v29h339v-29q-105 0 -53 -76l112 -169l112 169q28 41 16 58.5t-70 17.5v29h242v-29q-59 0 -84.5 -17.5
t-59.5 -70.5l-114 -171h101v-57h-130z" />
    <glyph glyph-name="brokenbar" unicode="&#xa6;" horiz-adv-x="274" 
d="M111 686h52v-337h-52v337zM111 241h52v-337h-52v337z" />
    <glyph glyph-name="section" unicode="&#xa7;" horiz-adv-x="498" 
d="M171 327q-30 -23 -30 -70q0 -25 17.5 -50.5t48.5 -41.5l94 -48q13 -7 25 -14q30 25 30 70q0 25 -17.5 50.5t-48.5 41.5l-94 48q-12 7 -25 14zM368 74q55 -46 55 -119q0 -58 -44 -100t-114 -42q-66 0 -122 41q-23 -19 -29 -46h-28v220h29q6 -72 39.5 -121.5t104.5 -49.5
q32 0 53.5 20.5t21.5 53.5q0 22 -19 48.5t-52 43.5l-87 45q-51 26 -83.5 67t-32.5 92q0 81 68 129q-55 46 -55 119q0 58 44.5 100t114.5 42q67 0 106 -41q22 20 28 46h28v-195h-29q-14 146 -127 146q-32 0 -53.5 -20.5t-21.5 -53.5q0 -22 19 -48.5t52 -43.5l87 -44
q51 -27 83.5 -68t32.5 -92q0 -80 -69 -129z" />
    <glyph glyph-name="dieresis" unicode="&#xa8;" horiz-adv-x="370" 
d="M270 685q21 0 36 -14.5t15 -36.5q0 -21 -15 -36t-36 -15t-36 15t-15 36q0 22 15 36.5t36 14.5zM71 685q21 0 36 -14.5t15 -36.5q0 -21 -15 -36t-36 -15t-36 15t-15 36q0 22 15 36.5t36 14.5z" />
    <glyph glyph-name="copyright" unicode="&#xa9;" horiz-adv-x="683" 
d="M342 617q131 0 223.5 -93t92.5 -224t-92.5 -224t-223.5 -93t-224 93t-93 224t93 224t224 93zM342 571q-112 0 -191.5 -79.5t-79.5 -191.5t79.5 -191.5t191.5 -79.5t191.5 79.5t79.5 191.5t-79.5 191.5t-191.5 79.5zM497 124h-23q-4 28 -14 40q-19 -22 -52.5 -37.5
t-62.5 -15.5q-75 0 -128.5 55.5t-53.5 133.5q0 77 53.5 133t128.5 56q29 0 62.5 -15.5t52.5 -37.5q10 12 14 40h23v-141h-24q-23 116 -105 116q-49 0 -74.5 -42.5t-25.5 -108.5q0 -67 25 -109t75 -42q82 0 105 117h24v-142z" />
    <glyph glyph-name="ordfeminine" unicode="&#xaa;" horiz-adv-x="449" 
d="M422 309q-48 -35 -89 -35q-63 0 -73 54q-43 -32 -66 -43.5t-54 -11.5q-37 0 -64 21.5t-27 57.5q0 57 54.5 88t156.5 47v1q0 50 -15 70t-47 20q-18 0 -34.5 -10t-16.5 -27q0 -18 -11 -29.5t-28 -11.5q-15 0 -25.5 11.5t-10.5 29.5q0 34 41.5 55t96.5 21q79 0 114 -30.5
t35 -98.5v-129q0 -36 21 -36q14 0 28 12zM260 368v81q-62 -17 -89.5 -35t-27.5 -51q0 -37 38 -37q33 0 79 42z" />
    <glyph glyph-name="guillemotleft" unicode="&#xab;" horiz-adv-x="533" 
d="M332 28l-16 -21l-270 196l270 195l16 -20l-144 -175zM493 68l-15 -22l-220 157l220 156l15 -21l-111 -135z" />
    <glyph glyph-name="logicalnot" unicode="&#xac;" horiz-adv-x="570" 
d="M459 295v-180h-77v103h-299v77h376z" />
    <glyph glyph-name="registered" unicode="&#xae;" horiz-adv-x="512" 
d="M256 617q96 0 164 -67.5t68 -163.5t-68 -163.5t-164 -67.5t-163.5 67.5t-67.5 163.5t67.5 163.5t163.5 67.5zM299 444q0 20 -12 33t-28 13h-20v-92h20q16 0 28 13t12 33zM426 279q31 52 31 107q0 83 -59 142t-142 59t-142 -59t-59 -142t59 -142t142 -59q95 0 155 73h-81
l-79 112h-12v-24q0 -44 9 -56.5t39 -12.5v-19h-160v19q30 0 38.5 12t8.5 57v85q0 44 -8.5 56.5t-38.5 12.5v18h151q41 0 65.5 -21t24.5 -53q0 -26 -16 -44.5t-42 -25.5l42 -41q43 -45 74 -54z" />
    <glyph glyph-name="macron" unicode="&#xaf;" horiz-adv-x="310" 
d="M259 603h-210v35h210v-35z" />
    <glyph glyph-name="macron" unicode="&#x2c9;" horiz-adv-x="310" 
d="M259 603h-210v35h210v-35z" />
    <glyph glyph-name="degree" unicode="&#xb0;" horiz-adv-x="400" 
d="M199 601q62 0 106 -44t44 -106t-44 -106t-106 -44t-106 44t-44 106q0 61 44.5 105.5t105.5 44.5zM199 530q-32 0 -55.5 -23.5t-23.5 -55.5t23.5 -55.5t55.5 -23.5q33 0 56 23.5t23 55.5t-23 55.5t-56 23.5z" />
    <glyph glyph-name="plusminus" unicode="&#xb1;" 
d="M190 61v122h-140v77h140v140h78v-140h140v-77h-140v-122h140v-61h-358v61h140z" />
    <glyph glyph-name="twosuperior" unicode="&#xb2;" horiz-adv-x="336" 
d="M300 352l-9 -65h-250v22l132 127q35 34 35 73q0 62 -63 62q-33 0 -48.5 -26t6.5 -71l-27 -25q-39 27 -41 67t32 70.5t89 30.5q54 0 94 -27.5t40 -71.5q0 -60 -60 -104l-89 -62h159z" />
    <glyph glyph-name="threesuperior" unicode="&#xb3;" horiz-adv-x="336" 
d="M306 378q0 -45 -39 -76.5t-105 -31.5q-67 0 -101 41q-23 28 -6 41q6 5 18 5q10 0 17 -8t12.5 -18t21 -18t38.5 -8q31 0 46 21t15 52q0 25 -16 42t-41 23q-8 -10 -16 -23q-14 -23 -31 -15q-16 7 -9 24q2 5 7 10l77 79h-56q-54 0 -63 -37l-5 -18h-22l18 137h232v-23
l-90 -87q38 -10 68 -44t30 -68z" />
    <glyph glyph-name="acute" unicode="&#xb4;" horiz-adv-x="227" 
d="M196 668q0 -24 -30 -40l-179 -75l-6 9l121 113q33 30 57 30q17 0 27 -12t10 -25z" />
    <glyph glyph-name="mu" unicode="&#xb5;" horiz-adv-x="557" 
d="M83 188q0 75 -14.5 95.5t-64.5 20.5v29h192v-187q0 -107 72 -107q34 0 63.5 26.5t29.5 72.5v50q0 74 -14.5 95t-64.5 21v29h191v-179q0 -74 14.5 -95t65.5 -21v-30l-175 -25q-10 19 -15 58q-46 -58 -125 -58q-20 0 -42 5v-12q0 -75 14.5 -96t64.5 -21v-29h-271v29
q50 0 64.5 21t14.5 96v212z" />
    <glyph glyph-name="mu" unicode="&#x3bc;" horiz-adv-x="557" 
d="M83 188q0 75 -14.5 95.5t-64.5 20.5v29h192v-187q0 -107 72 -107q34 0 63.5 26.5t29.5 72.5v50q0 74 -14.5 95t-64.5 21v29h191v-179q0 -74 14.5 -95t65.5 -21v-30l-175 -25q-10 19 -15 58q-46 -58 -125 -58q-20 0 -42 5v-12q0 -75 14.5 -96t64.5 -21v-29h-271v29
q50 0 64.5 21t14.5 96v212z" />
    <glyph glyph-name="paragraph" unicode="&#xb6;" horiz-adv-x="563" 
d="M504 600v-29q-62 0 -79 -21t-17 -96v-478q0 -75 17 -96t79 -21v-29h-157v718h-84v-718h-157v29q62 0 79 21t17 96v286q-64 7 -108 55t-44 113q0 70 50 120t120 50h284z" />
    <glyph glyph-name="periodcentered" unicode="&#xb7;" horiz-adv-x="283" 
d="M142 270q27 0 45 -18.5t18 -45.5t-18 -45.5t-45 -18.5t-45.5 18.5t-18.5 45.5t18.5 45.5t45.5 18.5z" />
    <glyph glyph-name="periodcentered" unicode="&#x2219;" horiz-adv-x="283" 
d="M142 270q27 0 45 -18.5t18 -45.5t-18 -45.5t-45 -18.5t-45.5 18.5t-18.5 45.5t18.5 45.5t45.5 18.5z" />
    <glyph glyph-name="cedilla" unicode="&#xb8;" horiz-adv-x="218" 
d="M227 -136q0 -33 -23 -59.5t-58 -41t-61 -22t-48 -10.5v36q111 35 111 97q0 32 -42 45t-90 -2v18l141 140h58l-97 -99q41 -2 75 -28t34 -74z" />
    <glyph glyph-name="onesuperior" unicode="&#xb9;" horiz-adv-x="336" 
d="M272 291h-205v27q34 0 44 15t10 65v93q0 48 -14 62.5t-53 12.5v27l163 23v-218q0 -50 10 -65t45 -15v-27z" />
    <glyph glyph-name="ordmasculine" unicode="&#xba;" horiz-adv-x="503" 
d="M443 443q0 -72 -56 -123.5t-135 -51.5t-135.5 51.5t-56.5 123.5q0 71 56.5 122.5t135.5 51.5t135 -51.5t56 -122.5zM327 443q0 56 -19.5 93t-55.5 37q-37 0 -56 -37t-19 -93q0 -57 19 -93.5t56 -36.5t56 36.5t19 93.5z" />
    <glyph glyph-name="guillemotright" unicode="&#xbb;" horiz-adv-x="533" 
d="M202 28l143 175l-143 175l16 20l270 -195l-270 -196zM41 68l111 135l-111 135l14 21l220 -156l-220 -157z" />
    <glyph glyph-name="onequarter" unicode="&#xbc;" horiz-adv-x="755" 
d="M715 203l-6 -110h-80q0 -39 10.5 -51t46.5 -12v-30h-207v30q37 0 47.5 12t10.5 51h-138v25l195 221h35v-205q22 1 33.5 11.5t19.5 40.5l4 17h29zM537 134v86l-76 -86h76zM573 598l-370 -616l-39 21l369 617zM272 291h-205v27q34 0 44 15t10 65v93q0 48 -14 62.5t-53 12.5
v27l163 23v-218q0 -50 10 -65t45 -15v-27z" />
    <glyph glyph-name="onehalf" unicode="&#xbd;" horiz-adv-x="755" 
d="M573 598l-370 -616l-39 21l369 617zM272 291h-205v27q34 0 44 15t10 65v93q0 48 -14 62.5t-53 12.5v27l163 23v-218q0 -50 10 -65t45 -15v-27zM708 65l-9 -65h-250v23l133 126q35 34 35 74q0 61 -64 61q-33 0 -48.5 -25.5t6.5 -70.5l-27 -25q-39 27 -41 67t32 70t89 30
q54 0 94 -27t40 -72q0 -62 -60 -103l-89 -63h159z" />
    <glyph glyph-name="threequarters" unicode="&#xbe;" horiz-adv-x="755" 
d="M306 378q0 -45 -39 -76.5t-105 -31.5q-67 0 -101 41q-23 28 -6 41q6 5 18 5q10 0 17 -8t12.5 -18t21 -18t38.5 -8q31 0 46 21t15 52q0 25 -16 42t-41 23q-8 -10 -16 -23q-14 -23 -31 -15q-16 7 -9 24q2 5 7 10l77 79h-56q-54 0 -63 -37l-5 -18h-22l18 137h232v-23
l-90 -87q38 -10 68 -44t30 -68zM715 203l-6 -110h-80q0 -39 10.5 -51t46.5 -12v-30h-207v30q37 0 47.5 12t10.5 51h-138v25l195 221h35v-205q22 1 33.5 11.5t19.5 40.5l4 17h29zM537 134v86l-76 -86h76zM585 598l-369 -616l-39 21l369 617z" />
    <glyph glyph-name="questiondown" unicode="&#xbf;" horiz-adv-x="513" 
d="M463 -71q0 -52 -52 -84t-111 -32q-101 0 -162.5 56t-61.5 122q0 90 62 144t162 66v54h44v-174q-85 0 -139 -32t-54 -87q0 -43 42 -76t106 -33q41 0 66.5 15t25.5 30q0 23 -34 23q-18 0 -31 12.5t-13 29.5q0 25 21.5 38.5t42.5 13.5q32 0 59 -21t27 -65zM379 382
q0 -24 -17 -41t-40 -17q-24 0 -40 17t-16 41t16 40.5t40 16.5q23 0 40 -17t17 -40z" />
    <glyph glyph-name="Agrave" unicode="&#xc0;" horiz-adv-x="625" 
d="M170 200l-41 -95q-19 -41 -2.5 -58.5t77.5 -17.5v-29h-242v29q52 0 76 17.5t47 70.5l217 500h21l218 -500q23 -53 44.5 -70.5t77.5 -17.5v-29h-328v29q64 0 79.5 18t-4.5 58l-42 95h-198zM349 245l-80 183l-79 -183h159zM381 682l-7 -9l-179 75q-30 16 -30 40q0 13 10 25
t27 12q24 0 57 -30z" />
    <glyph glyph-name="Aacute" unicode="&#xc1;" horiz-adv-x="625" 
d="M170 200l-41 -95q-19 -41 -2.5 -58.5t77.5 -17.5v-29h-242v29q52 0 76 17.5t47 70.5l217 500h21l218 -500q23 -53 44.5 -70.5t77.5 -17.5v-29h-328v29q64 0 79.5 18t-4.5 58l-42 95h-198zM349 245l-80 183l-79 -183h159zM447 788q0 -24 -30 -40l-179 -75l-6 9l121 113
q33 30 57 30q17 0 27 -12t10 -25z" />
    <glyph glyph-name="Acircumflex" unicode="&#xc2;" horiz-adv-x="625" 
d="M170 200l-41 -95q-19 -41 -2.5 -58.5t77.5 -17.5v-29h-242v29q52 0 76 17.5t47 70.5l217 500h21l218 -500q23 -53 44.5 -70.5t77.5 -17.5v-29h-328v29q64 0 79.5 18t-4.5 58l-42 95h-198zM349 245l-80 183l-79 -183h159zM454 689l-15 -14l-128 83l-128 -83l-15 14
l143 155z" />
    <glyph glyph-name="Atilde" unicode="&#xc3;" horiz-adv-x="625" 
d="M170 200l-41 -95q-19 -41 -2.5 -58.5t77.5 -17.5v-29h-242v29q52 0 76 17.5t47 70.5l217 500h21l218 -500q23 -53 44.5 -70.5t77.5 -17.5v-29h-328v29q64 0 79.5 18t-4.5 58l-42 95h-198zM349 245l-80 183l-79 -183h159zM389 731q39 0 52 57h19q0 -56 -22 -88t-60 -32
q-22 0 -77 33t-71 33t-30 -16t-21 -39h-18q0 51 22.5 84.5t54.5 33.5q25 0 77.5 -33t73.5 -33z" />
    <glyph glyph-name="Adieresis" unicode="&#xc4;" horiz-adv-x="625" 
d="M170 200l-41 -95q-19 -41 -2.5 -58.5t77.5 -17.5v-29h-242v29q52 0 76 17.5t47 70.5l217 500h21l218 -500q23 -53 44.5 -70.5t77.5 -17.5v-29h-328v29q64 0 79.5 18t-4.5 58l-42 95h-198zM349 245l-80 183l-79 -183h159zM409 776q22 0 36.5 -15t14.5 -36t-14.5 -36
t-36.5 -15q-21 0 -36 15t-15 36t15 36t36 15zM210 776q21 0 36 -15t15 -36t-15 -36t-36 -15q-20 0 -35.5 15t-15.5 36t15.5 36t35.5 15z" />
    <glyph glyph-name="Aring" unicode="&#xc5;" horiz-adv-x="625" 
d="M308 873q41 0 70.5 -29t29.5 -70t-29.5 -70t-70.5 -29t-70 29t-29 70t29 70t70 29zM308 820q-19 0 -32 -13.5t-13 -32.5t13 -32.5t32 -13.5t32.5 13.5t13.5 32.5t-13.5 32.5t-32.5 13.5zM170 200l-41 -95q-19 -41 -2.5 -58.5t77.5 -17.5v-29h-242v29q52 0 76 17.5
t47 70.5l217 500h21l218 -500q23 -53 44.5 -70.5t77.5 -17.5v-29h-328v29q64 0 79.5 18t-4.5 58l-42 95h-198zM349 245l-80 183l-79 -183h159z" />
    <glyph glyph-name="AE" unicode="&#xc6;" horiz-adv-x="818" 
d="M358 547l-135 -261h135v261zM728 600l8 -141h-29l-5 20q-12 45 -32 60.5t-84 15.5h-103v-269h5q75 0 95.5 16.5t20.5 79.5h29v-237h-29q0 62 -20.5 79t-95.5 17h-5v-79q0 -75 17 -96t79 -21h40q45 0 68.5 9t32 23t15.5 44l5 20h29l-8 -141h-498v29q62 0 78.5 21t16.5 96
v95h-158l-74 -144q-21 -41 -8 -54.5t70 -13.5v-29h-242v29q57 0 84 15t52 64l254 492h392z" />
    <glyph glyph-name="Ccedilla" unicode="&#xc7;" horiz-adv-x="692" 
d="M324 -12q-108 20 -180.5 108t-72.5 204q0 131 90 224t217 93q106 0 186 -85q15 12 26 57h28v-220h-29q-20 96 -75.5 148t-131.5 52q-49 0 -85 -24t-55 -64.5t-27.5 -85.5t-8.5 -95t8.5 -95t27.5 -85.5t55 -64.5t85 -24q75 0 131 52.5t76 147.5h29v-220h-28q-12 47 -26 57
q-82 -84 -185 -85l-48 -49q41 -2 75 -27.5t34 -74.5q0 -33 -23 -59.5t-58 -41t-61 -22t-48 -10.5v36q111 34 111 97q0 33 -42 46t-90 -3v18z" />
    <glyph glyph-name="Egrave" unicode="&#xc8;" horiz-adv-x="641" 
d="M38 0v29q62 0 78.5 21t16.5 96v308q0 75 -16.5 96t-78.5 21v29h515l8 -141h-29l-5 20q-12 45 -32 60.5t-84 15.5h-153v-215h55q75 0 95.5 17t20.5 79h29v-237h-29q0 63 -20.5 79.5t-95.5 16.5h-55v-133q0 -75 17 -96t79 -21h90q45 0 68.5 9t32 23t15.5 44l5 20h29
l-8 -141h-548zM413 682l-7 -9l-179 75q-30 16 -30 40q0 13 9.5 25t26.5 12q23 0 58 -30z" />
    <glyph glyph-name="Eacute" unicode="&#xc9;" horiz-adv-x="641" 
d="M38 0v29q62 0 78.5 21t16.5 96v308q0 75 -16.5 96t-78.5 21v29h515l8 -141h-29l-5 20q-12 45 -32 60.5t-84 15.5h-153v-215h55q75 0 95.5 17t20.5 79h29v-237h-29q0 63 -20.5 79.5t-95.5 16.5h-55v-133q0 -75 17 -96t79 -21h90q45 0 68.5 9t32 23t15.5 44l5 20h29
l-8 -141h-548zM498 788q0 -21 -30 -39l-180 -76l-5 10l120 113q35 30 58 30q17 0 27 -12t10 -26z" />
    <glyph glyph-name="Ecircumflex" unicode="&#xca;" horiz-adv-x="641" 
d="M38 0v29q62 0 78.5 21t16.5 96v308q0 75 -16.5 96t-78.5 21v29h515l8 -141h-29l-5 20q-12 45 -32 60.5t-84 15.5h-153v-215h55q75 0 95.5 17t20.5 79h29v-237h-29q0 63 -20.5 79.5t-95.5 16.5h-55v-133q0 -75 17 -96t79 -21h90q45 0 68.5 9t32 23t15.5 44l5 20h29
l-8 -141h-548zM474 689l-15 -14l-128 83l-128 -83l-15 14l143 155z" />
    <glyph glyph-name="Edieresis" unicode="&#xcb;" horiz-adv-x="641" 
d="M38 0v29q62 0 78.5 21t16.5 96v308q0 75 -16.5 96t-78.5 21v29h515l8 -141h-29l-5 20q-12 45 -32 60.5t-84 15.5h-153v-215h55q75 0 95.5 17t20.5 79h29v-237h-29q0 63 -20.5 79.5t-95.5 16.5h-55v-133q0 -75 17 -96t79 -21h90q45 0 68.5 9t32 23t15.5 44l5 20h29
l-8 -141h-548zM442 776q21 0 36 -15t15 -36t-15 -36t-36 -15q-22 0 -36.5 15t-14.5 36t14.5 36t36.5 15zM243 776q21 0 35.5 -15t14.5 -36t-14.5 -36t-35.5 -15t-36 15t-15 36t15 36t36 15z" />
    <glyph glyph-name="Igrave" unicode="&#xcc;" horiz-adv-x="392" 
d="M354 0h-316v29q62 0 78.5 21t16.5 96v308q0 75 -16.5 96t-78.5 21v29h316v-29q-62 0 -79 -21t-17 -96v-308q0 -75 17 -96t79 -21v-29zM253 682l-6 -9l-179 75q-30 16 -30 40q0 13 9.5 25t26.5 12q23 0 58 -30z" />
    <glyph glyph-name="Iacute" unicode="&#xcd;" horiz-adv-x="392" 
d="M354 0h-316v29q62 0 78.5 21t16.5 96v308q0 75 -16.5 96t-78.5 21v29h316v-29q-62 0 -79 -21t-17 -96v-308q0 -75 17 -96t79 -21v-29zM350 788q0 -24 -30 -40l-179 -75l-6 9l121 113q35 30 57 30q17 0 27 -12t10 -25z" />
    <glyph glyph-name="Icircumflex" unicode="&#xce;" horiz-adv-x="392" 
d="M354 0h-316v29q62 0 78.5 21t16.5 96v308q0 75 -16.5 96t-78.5 21v29h316v-29q-62 0 -79 -21t-17 -96v-308q0 -75 17 -96t79 -21v-29zM343 689l-15 -14l-129 83l-128 -83l-15 14l143 155z" />
    <glyph glyph-name="Idieresis" unicode="&#xcf;" horiz-adv-x="392" 
d="M354 0h-316v29q62 0 78.5 21t16.5 96v308q0 75 -16.5 96t-78.5 21v29h316v-29q-62 0 -79 -21t-17 -96v-308q0 -75 17 -96t79 -21v-29zM298 776q21 0 35.5 -15t14.5 -36t-14.5 -36t-35.5 -15q-22 0 -36.5 15t-14.5 36t14.5 36t36.5 15zM98 776q22 0 36.5 -15t14.5 -36
t-14.5 -36t-36.5 -15q-20 0 -35 15t-15 36t15 36t35 15z" />
    <glyph glyph-name="Eth" unicode="&#xd0;" horiz-adv-x="772" 
d="M258 330h92v-61h-92v-111q0 -73 17 -93t79 -20h10q47 0 82.5 16t56.5 41t34 60t17.5 68t4.5 70t-4.5 70t-17.5 68t-34 60t-56.5 41t-82.5 16h-106v-225zM133 269h-91v61h91v124q0 75 -16.5 96t-78.5 21v29h330q166 0 249.5 -84t83.5 -216t-83.5 -216t-249.5 -84h-330v29
q62 0 78.5 21t16.5 96v123z" />
    <glyph glyph-name="Ntilde" unicode="&#xd1;" horiz-adv-x="749" 
d="M572 202v252q0 75 -17 96t-79 21v29h237v-29q-63 0 -79.5 -20.5t-16.5 -96.5v-471h-25l-414 494v-331q0 -75 17 -96t79 -21v-29h-236v29q62 0 78.5 21t16.5 96v308q0 75 -16.5 96t-78.5 21v29h200zM458 726q39 0 52 57h19q0 -56 -22 -88t-60 -32q-23 0 -77 33t-71 33
q-15 0 -29.5 -16t-21.5 -39h-18q0 51 22.5 84.5t55.5 33.5q24 0 76.5 -33t73.5 -33z" />
    <glyph glyph-name="Ograve" unicode="&#xd2;" horiz-adv-x="783" 
d="M725 300q0 -131 -98 -224t-235 -93q-138 0 -236 93t-98 224t98 224t236 93q137 0 235 -93t98 -224zM591 300q0 65 -19.5 124t-66.5 102t-113 43q-67 0 -114 -43t-66 -102t-19 -124t19 -124t66 -102t114 -43q66 0 113 43t66.5 102t19.5 124zM463 682l-6 -9l-179 75
q-11 5 -20.5 15.5t-9.5 24.5q0 13 9.5 25t26.5 12q25 0 58 -30z" />
    <glyph glyph-name="Oacute" unicode="&#xd3;" horiz-adv-x="783" 
d="M725 300q0 -131 -98 -224t-235 -93q-138 0 -236 93t-98 224t98 224t236 93q137 0 235 -93t98 -224zM591 300q0 65 -19.5 124t-66.5 102t-113 43q-67 0 -114 -43t-66 -102t-19 -124t19 -124t66 -102t114 -43q66 0 113 43t66.5 102t19.5 124zM529 788q0 -14 -9.5 -24.5
t-20.5 -15.5l-179 -75l-6 9l121 113q33 30 58 30q17 0 26.5 -12t9.5 -25z" />
    <glyph glyph-name="Ocircumflex" unicode="&#xd4;" horiz-adv-x="783" 
d="M725 300q0 -131 -98 -224t-235 -93q-138 0 -236 93t-98 224t98 224t236 93q137 0 235 -93t98 -224zM591 300q0 65 -19.5 124t-66.5 102t-113 43q-67 0 -114 -43t-66 -102t-19 -124t19 -124t66 -102t114 -43q66 0 113 43t66.5 102t19.5 124zM536 687l-15 -14l-128 83
l-129 -83l-15 14l144 155z" />
    <glyph glyph-name="Otilde" unicode="&#xd5;" horiz-adv-x="783" 
d="M725 300q0 -131 -98 -224t-235 -93q-138 0 -236 93t-98 224t98 224t236 93q137 0 235 -93t98 -224zM591 300q0 65 -19.5 124t-66.5 102t-113 43q-67 0 -114 -43t-66 -102t-19 -124t19 -124t66 -102t114 -43q66 0 113 43t66.5 102t19.5 124zM472 731q38 0 51 57h20
q0 -56 -22.5 -88t-60.5 -32q-22 0 -76 33t-71 33q-16 0 -30.5 -16t-20.5 -39h-19q0 51 22.5 84.5t55.5 33.5q24 0 76.5 -33t74.5 -33z" />
    <glyph glyph-name="Odieresis" unicode="&#xd6;" horiz-adv-x="783" 
d="M725 300q0 -131 -98 -224t-235 -93q-138 0 -236 93t-98 224t98 224t236 93q137 0 235 -93t98 -224zM591 300q0 65 -19.5 124t-66.5 102t-113 43q-67 0 -114 -43t-66 -102t-19 -124t19 -124t66 -102t114 -43q66 0 113 43t66.5 102t19.5 124zM493 776q22 0 36.5 -15
t14.5 -36t-14.5 -36t-36.5 -15q-21 0 -35.5 15t-14.5 36t14.5 36t35.5 15zM294 776q22 0 36.5 -15t14.5 -36t-14.5 -36t-36.5 -15q-20 0 -35.5 15t-15.5 36t15.5 36t35.5 15z" />
    <glyph glyph-name="multiply" unicode="&#xd7;" 
d="M283 221l109 -108l-55 -55l-108 108l-108 -108l-55 55l108 108l-107 107l55 55l107 -107l108 107l54 -55z" />
    <glyph glyph-name="Oslash" unicode="&#xd8;" horiz-adv-x="808" 
d="M551 488l-63 -106q-62 -105 -125 -211l-63 -106q45 -34 104 -34q67 0 114 43t66 102t19 124q0 115 -52 188zM258 109q16 27 42 71t81 137t91 155l37 61q-42 36 -105 36q-66 0 -113 -43t-66.5 -102t-19.5 -124q0 -112 53 -191zM217 38q-67 44 -106.5 113t-39.5 149
q0 131 98 224t235 93q74 0 138 -29l37 64l53 -27q-19 -32 -39 -65q67 -44 106 -112.5t39 -147.5q0 -131 -98 -224t-236 -93q-71 0 -136 28l-36 -62l-53 26z" />
    <glyph glyph-name="Ugrave" unicode="&#xd9;" horiz-adv-x="733" 
d="M554 454q0 76 -16.5 96.5t-79.5 20.5v29h245v-29q-62 0 -78.5 -21t-16.5 -96v-231q0 -113 -68.5 -176.5t-172.5 -63.5t-172 63t-68 177v231q0 75 -17 96t-79 21v29h317v-29q-63 0 -79.5 -20.5t-16.5 -96.5v-220q0 -93 43.5 -141t111.5 -48q67 0 107 48t40 141v220z
M429 682l-6 -9l-180 75q-30 18 -30 40q0 13 10 25t27 12q23 0 58 -30z" />
    <glyph glyph-name="Uacute" unicode="&#xda;" horiz-adv-x="733" 
d="M554 454q0 76 -16.5 96.5t-79.5 20.5v29h245v-29q-62 0 -78.5 -21t-16.5 -96v-231q0 -113 -68.5 -176.5t-172.5 -63.5t-172 63t-68 177v231q0 75 -17 96t-79 21v29h317v-29q-63 0 -79.5 -20.5t-16.5 -96.5v-220q0 -93 43.5 -141t111.5 -48q67 0 107 48t40 141v220z
M555 788q0 -24 -30 -40l-179 -75l-6 9l121 113q35 30 57 30q17 0 27 -12t10 -25z" />
    <glyph glyph-name="Ucircumflex" unicode="&#xdb;" horiz-adv-x="733" 
d="M554 454q0 76 -16.5 96.5t-79.5 20.5v29h245v-29q-62 0 -78.5 -21t-16.5 -96v-231q0 -113 -68.5 -176.5t-172.5 -63.5t-172 63t-68 177v231q0 75 -17 96t-79 21v29h317v-29q-63 0 -79.5 -20.5t-16.5 -96.5v-220q0 -93 43.5 -141t111.5 -48q67 0 107 48t40 141v220z
M534 689l-15 -14l-128 83l-128 -83l-15 14l143 155z" />
    <glyph glyph-name="Udieresis" unicode="&#xdc;" horiz-adv-x="733" 
d="M554 454q0 76 -16.5 96.5t-79.5 20.5v29h245v-29q-62 0 -78.5 -21t-16.5 -96v-231q0 -113 -68.5 -176.5t-172.5 -63.5t-172 63t-68 177v231q0 75 -17 96t-79 21v29h317v-29q-63 0 -79.5 -20.5t-16.5 -96.5v-220q0 -93 43.5 -141t111.5 -48q67 0 107 48t40 141v220z
M489 777q22 0 36.5 -15t14.5 -36t-14.5 -36t-36.5 -15q-21 0 -36 15t-15 36t15 36t36 15zM290 777q21 0 36 -15t15 -36t-15 -36t-36 -15q-20 0 -35.5 15t-15.5 36t15.5 36t35.5 15z" />
    <glyph glyph-name="Yacute" unicode="&#xdd;" horiz-adv-x="633" 
d="M665 571q-59 0 -84.5 -17.5t-59.5 -70.5l-143 -216v-121q0 -75 16.5 -96t78.5 -21v-29h-312v29q62 0 79 21t17 96v118l-145 219q-35 53 -63.5 70.5t-81.5 17.5v29h339v-29q-105 0 -53 -76l112 -169l112 169q28 41 16 58.5t-70 17.5v29h242v-29zM499 788q0 -23 -30 -39
l-179 -76l-6 10l121 113q35 30 58 30q17 0 26.5 -12t9.5 -26z" />
    <glyph glyph-name="Thorn" unicode="&#xde;" horiz-adv-x="598" 
d="M258 477h115q91 0 146.5 -48.5t55.5 -120.5t-55.5 -120.5t-146.5 -48.5h-115q1 -70 18 -90t78 -20v-29h-316v29q62 0 78.5 21t16.5 96v308q0 75 -16.5 96t-78.5 21v29h316v-29q-58 0 -76 -17.5t-20 -76.5zM313 184q63 0 95.5 34.5t32.5 89.5q0 54 -33 89t-95 35h-55v-248
h55z" />
    <glyph glyph-name="germandbls" unicode="&#xdf;" horiz-adv-x="593" 
d="M110 414q0 203 178 203q64 0 98 -33.5t34 -80.5q0 -35 -22.5 -85t-22.5 -88q0 -53 69 -91l49 -26q77 -43 77 -113q0 -56 -41 -86.5t-95 -30.5q-22 0 -44.5 7t-35 13.5t-23.5 10t-15.5 -3.5t-4.5 -27h-29v146h29q0 -36 37.5 -70t84.5 -34q23 0 37.5 12.5t14.5 30.5
q0 35 -64 70l-56 30q-75 39 -75 120q0 40 36 111t36 104q0 73 -68 73q-71 0 -71 -119v-457h-192v29q50 0 64.5 21t14.5 96v158h-79v29q48 0 63.5 18.5t15.5 62.5z" />
    <glyph glyph-name="agrave" unicode="&#xe0;" horiz-adv-x="441" 
d="M427 26q-49 -37 -94 -37q-66 0 -76 58q-45 -35 -69.5 -47.5t-56.5 -12.5q-38 0 -67 23t-29 61q0 60 57.5 93t164.5 49v1q0 53 -16 74t-49 21q-20 0 -37 -10.5t-17 -28.5q0 -20 -11.5 -31.5t-28.5 -11.5t-28.5 11.5t-11.5 31.5q0 36 44 58t102 22q83 0 120.5 -32.5
t37.5 -103.5v-135q0 -38 21 -38q11 0 30 12zM257 88v85q-64 -17 -93.5 -36t-29.5 -54q0 -40 39 -40q33 0 84 45zM293 416l-6 -9l-179 76q-30 14 -30 39q0 14 9.5 25.5t26.5 11.5q23 0 58 -30z" />
    <glyph glyph-name="aacute" unicode="&#xe1;" horiz-adv-x="441" 
d="M427 26q-49 -37 -94 -37q-66 0 -76 58q-45 -35 -69.5 -47.5t-56.5 -12.5q-38 0 -67 23t-29 61q0 60 57.5 93t164.5 49v1q0 53 -16 74t-49 21q-20 0 -37 -10.5t-17 -28.5q0 -20 -11.5 -31.5t-28.5 -11.5t-28.5 11.5t-11.5 31.5q0 36 44 58t102 22q83 0 120.5 -32.5
t37.5 -103.5v-135q0 -38 21 -38q11 0 30 12zM257 88v85q-64 -17 -93.5 -36t-29.5 -54q0 -40 39 -40q33 0 84 45zM359 522q0 -25 -30 -39l-179 -76l-6 9l121 113q35 30 58 30q17 0 26.5 -11.5t9.5 -25.5z" />
    <glyph glyph-name="acircumflex" unicode="&#xe2;" horiz-adv-x="441" 
d="M427 26q-49 -37 -94 -37q-66 0 -76 58q-45 -35 -69.5 -47.5t-56.5 -12.5q-38 0 -67 23t-29 61q0 60 57.5 93t164.5 49v1q0 53 -16 74t-49 21q-20 0 -37 -10.5t-17 -28.5q0 -20 -11.5 -31.5t-28.5 -11.5t-28.5 11.5t-11.5 31.5q0 36 44 58t102 22q83 0 120.5 -32.5
t37.5 -103.5v-135q0 -38 21 -38q11 0 30 12zM257 88v85q-64 -17 -93.5 -36t-29.5 -54q0 -40 39 -40q33 0 84 45zM365 423l-15 -15l-128 84l-129 -84l-15 15l144 155z" />
    <glyph glyph-name="atilde" unicode="&#xe3;" horiz-adv-x="441" 
d="M427 26q-49 -37 -94 -37q-66 0 -76 58q-45 -35 -69.5 -47.5t-56.5 -12.5q-38 0 -67 23t-29 61q0 60 57.5 93t164.5 49v1q0 53 -16 74t-49 21q-20 0 -37 -10.5t-17 -28.5q0 -20 -11.5 -31.5t-28.5 -11.5t-28.5 11.5t-11.5 31.5q0 36 44 58t102 22q83 0 120.5 -32.5
t37.5 -103.5v-135q0 -38 21 -38q11 0 30 12zM257 88v85q-64 -17 -93.5 -36t-29.5 -54q0 -40 39 -40q33 0 84 45zM300 460q38 0 52 57h19q0 -56 -22.5 -87.5t-60.5 -31.5q-22 0 -76 32.5t-71 32.5q-16 0 -30.5 -16t-20.5 -39h-18q0 52 22.5 85t54.5 33q25 0 77.5 -33
t73.5 -33z" />
    <glyph glyph-name="adieresis" unicode="&#xe4;" horiz-adv-x="441" 
d="M427 26q-49 -37 -94 -37q-66 0 -76 58q-45 -35 -69.5 -47.5t-56.5 -12.5q-38 0 -67 23t-29 61q0 60 57.5 93t164.5 49v1q0 53 -16 74t-49 21q-20 0 -37 -10.5t-17 -28.5q0 -20 -11.5 -31.5t-28.5 -11.5t-28.5 11.5t-11.5 31.5q0 36 44 58t102 22q83 0 120.5 -32.5
t37.5 -103.5v-135q0 -38 21 -38q11 0 30 12zM257 88v85q-64 -17 -93.5 -36t-29.5 -54q0 -40 39 -40q33 0 84 45zM320 510q21 0 36 -14.5t15 -36.5q0 -21 -15 -36t-36 -15t-36 15t-15 36q0 22 15 36.5t36 14.5zM121 510q21 0 36 -14.5t15 -36.5q0 -21 -15 -36t-36 -15t-36 15
t-15 36q0 22 15 36.5t36 14.5z" />
    <glyph glyph-name="aring" unicode="&#xe5;" horiz-adv-x="441" 
d="M427 26q-49 -37 -94 -37q-66 0 -76 58q-45 -35 -69.5 -47.5t-56.5 -12.5q-38 0 -67 23t-29 61q0 60 57.5 93t164.5 49v1q0 53 -16 74t-49 21q-20 0 -37 -10.5t-17 -28.5q0 -20 -11.5 -31.5t-28.5 -11.5t-28.5 11.5t-11.5 31.5q0 36 44 58t102 22q83 0 120.5 -32.5
t37.5 -103.5v-135q0 -38 21 -38q11 0 30 12zM257 88v85q-64 -17 -93.5 -36t-29.5 -54q0 -40 39 -40q33 0 84 45zM222 606q41 0 70 -29t29 -70t-29 -70t-70 -29t-70 29t-29 70t29 70t70 29zM222 553q-19 0 -32.5 -13.5t-13.5 -32.5t13.5 -32.5t32.5 -13.5t32.5 13.5
t13.5 32.5t-13.5 32.5t-32.5 13.5z" />
    <glyph glyph-name="ae" unicode="&#xe6;" horiz-adv-x="634" 
d="M373 229h134q2 32 -14.5 52.5t-47.5 20.5q-55 0 -72 -73zM261 88v85q-64 -17 -93.5 -36t-29.5 -54q0 -40 40 -40q32 0 83 45zM279 63q-83 -76 -144 -76q-38 0 -67 23t-29 61q0 60 57.5 93t164.5 49v1q0 53 -16 74t-49 21q-20 0 -37 -10.5t-17 -28.5q0 -20 -11.5 -31.5
t-28.5 -11.5t-28 11.5t-11 31.5q0 36 43.5 58t101.5 22q84 0 120 -32q51 32 112 32q78 0 120 -54.5t24 -110.5h-217q-6 -72 24 -110.5t74 -38.5q71 0 118 42l18 -29q-27 -29 -69 -47.5t-84 -18.5q-112 0 -169 80z" />
    <glyph glyph-name="ccedilla" unicode="&#xe7;" horiz-adv-x="405" 
d="M179 -9q-60 17 -96.5 62t-36.5 105q0 86 54 139t131 53q58 0 92.5 -25t34.5 -56q0 -15 -10.5 -28.5t-33.5 -13.5q-16 0 -27.5 12t-11.5 28q0 43 -36 43q-71 0 -71 -152q0 -60 27 -93t75 -33t101 46l17 -29q-61 -66 -149 -66h-8l-48 -49q41 -2 75 -28t34 -74
q0 -33 -23 -59.5t-58 -41t-61 -22t-48 -10.5v36q111 35 111 97q0 33 -42 46t-90 -3v18z" />
    <glyph glyph-name="egrave" unicode="&#xe8;" horiz-adv-x="433" 
d="M173 229h133q2 32 -14 52.5t-48 20.5q-56 0 -71 -73zM166 185q-6 -72 24 -110.5t74 -38.5q71 0 119 42l17 -29q-27 -29 -69 -47.5t-83 -18.5q-88 0 -145 53.5t-57 130.5q0 78 56.5 130.5t136.5 52.5q78 0 120 -54.5t24 -110.5h-217zM309 416l-6 -9l-180 76q-30 15 -30 39
q0 14 10 25.5t27 11.5q23 0 58 -30z" />
    <glyph glyph-name="eacute" unicode="&#xe9;" horiz-adv-x="433" 
d="M173 229h133q2 32 -14 52.5t-48 20.5q-56 0 -71 -73zM166 185q-6 -72 24 -110.5t74 -38.5q71 0 119 42l17 -29q-27 -29 -69 -47.5t-83 -18.5q-88 0 -145 53.5t-57 130.5q0 78 56.5 130.5t136.5 52.5q78 0 120 -54.5t24 -110.5h-217zM376 522q0 -25 -30 -39l-179 -76l-6 9
l121 113q33 30 57 30q17 0 27 -11.5t10 -25.5z" />
    <glyph glyph-name="ecircumflex" unicode="&#xea;" horiz-adv-x="433" 
d="M173 229h133q2 32 -14 52.5t-48 20.5q-56 0 -71 -73zM166 185q-6 -72 24 -110.5t74 -38.5q71 0 119 42l17 -29q-27 -29 -69 -47.5t-83 -18.5q-88 0 -145 53.5t-57 130.5q0 78 56.5 130.5t136.5 52.5q78 0 120 -54.5t24 -110.5h-217zM382 423l-15 -15l-129 84l-128 -84
l-15 15l143 155z" />
    <glyph glyph-name="edieresis" unicode="&#xeb;" horiz-adv-x="433" 
d="M173 229h133q2 32 -14 52.5t-48 20.5q-56 0 -71 -73zM166 185q-6 -72 24 -110.5t74 -38.5q71 0 119 42l17 -29q-27 -29 -69 -47.5t-83 -18.5q-88 0 -145 53.5t-57 130.5q0 78 56.5 130.5t136.5 52.5q78 0 120 -54.5t24 -110.5h-217zM337 510q21 0 36 -14.5t15 -36.5
q0 -21 -15 -36t-36 -15q-22 0 -36.5 15t-14.5 36q0 22 14.5 36.5t36.5 14.5zM138 510q21 0 35.5 -14.5t14.5 -36.5q0 -21 -14.5 -36t-35.5 -15t-36 15t-15 36q0 22 15 36.5t36 14.5z" />
    <glyph glyph-name="igrave" unicode="&#xec;" horiz-adv-x="323" 
d="M306 0h-271v29q50 0 64.5 21t14.5 96v33q0 75 -14.5 96t-64.5 21v29l192 25v-204q0 -75 14.5 -96t64.5 -21v-29zM238 416l-7 -9l-179 76q-30 14 -30 39q0 14 9.5 25.5t26.5 11.5q23 0 58 -30z" />
    <glyph glyph-name="iacute" unicode="&#xed;" horiz-adv-x="323" 
d="M306 0h-271v29q50 0 64.5 21t14.5 96v33q0 75 -14.5 96t-64.5 21v29l192 25v-204q0 -75 14.5 -96t64.5 -21v-29zM303 522q0 -25 -30 -39l-179 -76l-6 9l121 113q35 30 58 30q17 0 26.5 -11.5t9.5 -25.5z" />
    <glyph glyph-name="icircumflex" unicode="&#xee;" horiz-adv-x="323" 
d="M306 0h-271v29q50 0 64.5 21t14.5 96v33q0 75 -14.5 96t-64.5 21v29l192 25v-204q0 -75 14.5 -96t64.5 -21v-29zM310 422l-15 -14l-128 83l-129 -83l-15 14l144 155z" />
    <glyph glyph-name="idieresis" unicode="&#xef;" horiz-adv-x="323" 
d="M306 0h-271v29q50 0 64.5 21t14.5 96v33q0 75 -14.5 96t-64.5 21v29l192 25v-204q0 -75 14.5 -96t64.5 -21v-29zM265 510q21 0 36 -14.5t15 -36.5q0 -21 -15 -36t-36 -15t-36 15t-15 36q0 22 15 36.5t36 14.5zM66 510q21 0 36 -14.5t15 -36.5q0 -21 -15 -36t-36 -15
t-36 15t-15 36q0 22 15 36.5t36 14.5z" />
    <glyph glyph-name="eth" unicode="&#xf0;" horiz-adv-x="533" 
d="M351 278q-21 32 -86 32q-86 0 -86 -138q0 -140 78 -140q94 0 94 246zM348 577l79 59l28 -37l-75 -56q42 -51 65 -124.5t23 -152.5q0 -82 -21.5 -141.5t-56 -88t-67.5 -41t-66 -12.5q-83 0 -142.5 55.5t-59.5 132.5t63 132t147 55q55 0 86 -26q-3 105 -28 169l-118 -88
l-27 37l122 92q-27 37 -72 37q-28 0 -50.5 -14t-32 -28.5t-23.5 -23.5t-27 1q-29 18 0 52q34 42 104 52q15 2 30 2q65 0 119 -43z" />
    <glyph glyph-name="ntilde" unicode="&#xf1;" horiz-adv-x="583" 
d="M224 293q47 57 125 57q67 0 111 -42.5t44 -106.5v-55q0 -75 14.5 -96t64.5 -21v-29h-230v29q21 0 30 23.5t9 93.5v42q0 52 -16.5 79t-56.5 27q-34 0 -63 -26.5t-29 -72.5v-49q0 -75 14.5 -96t64.5 -21v-29h-271v29q50 0 64.5 21t14.5 96v33q0 75 -14.5 96t-64.5 21v29
l175 25q11 -21 14 -57zM381 470q38 0 52 57h19q0 -56 -22.5 -87.5t-60.5 -31.5q-22 0 -76 32.5t-71 32.5q-16 0 -30.5 -16t-20.5 -39h-18q0 52 22.5 85t54.5 33q25 0 77.5 -33t73.5 -33z" />
    <glyph glyph-name="ograve" unicode="&#xf2;" horiz-adv-x="495" 
d="M449 167q0 -76 -59 -130t-142 -54t-142.5 54t-59.5 130t59.5 129.5t142.5 53.5t142 -53.5t59 -129.5zM327 167q0 60 -20 98t-59 38t-59.5 -38t-20.5 -98t20.5 -98.5t59.5 -38.5t59 38.5t20 98.5zM320 416l-7 -9l-179 76q-30 14 -30 39q0 14 10 25.5t27 11.5q24 0 57 -30z
" />
    <glyph glyph-name="oacute" unicode="&#xf3;" horiz-adv-x="495" 
d="M449 167q0 -76 -59 -130t-142 -54t-142.5 54t-59.5 130t59.5 129.5t142.5 53.5t142 -53.5t59 -129.5zM327 167q0 60 -20 98t-59 38t-59.5 -38t-20.5 -98t20.5 -98.5t59.5 -38.5t59 38.5t20 98.5zM386 522q0 -25 -30 -39l-179 -76l-6 9l121 113q33 30 57 30q17 0 27 -11.5
t10 -25.5z" />
    <glyph glyph-name="ocircumflex" unicode="&#xf4;" horiz-adv-x="495" 
d="M449 167q0 -76 -59 -130t-142 -54t-142.5 54t-59.5 130t59.5 129.5t142.5 53.5t142 -53.5t59 -129.5zM327 167q0 60 -20 98t-59 38t-59.5 -38t-20.5 -98t20.5 -98.5t59.5 -38.5t59 38.5t20 98.5zM393 423l-15 -15l-129 84l-128 -84l-15 15l143 155z" />
    <glyph glyph-name="otilde" unicode="&#xf5;" horiz-adv-x="495" 
d="M449 167q0 -76 -59 -130t-142 -54t-142.5 54t-59.5 130t59.5 129.5t142.5 53.5t142 -53.5t59 -129.5zM327 167q0 60 -20 98t-59 38t-59.5 -38t-20.5 -98t20.5 -98.5t59.5 -38.5t59 38.5t20 98.5zM328 460q38 0 51 57h19q0 -56 -22 -87.5t-60 -31.5q-22 0 -77 32.5
t-71 32.5q-15 0 -29.5 -16t-20.5 -39h-19q0 52 22.5 85t55.5 33q24 0 76.5 -33t74.5 -33z" />
    <glyph glyph-name="odieresis" unicode="&#xf6;" horiz-adv-x="495" 
d="M449 167q0 -76 -59 -130t-142 -54t-142.5 54t-59.5 130t59.5 129.5t142.5 53.5t142 -53.5t59 -129.5zM327 167q0 60 -20 98t-59 38t-59.5 -38t-20.5 -98t20.5 -98.5t59.5 -38.5t59 38.5t20 98.5zM348 510q21 0 35.5 -14.5t14.5 -36.5q0 -21 -14.5 -36t-35.5 -15
q-22 0 -36.5 15t-14.5 36q0 22 14.5 36.5t36.5 14.5zM148 510q22 0 36.5 -14.5t14.5 -36.5q0 -21 -14.5 -36t-36.5 -15q-20 0 -35 15t-15 36t15 36t35 15z" />
    <glyph glyph-name="divide" unicode="&#xf7;" 
d="M408 183h-358v77h358v-77zM287 83q0 -23 -18 -41t-41 -18q-22 0 -38.5 18t-16.5 41t16.5 40.5t38.5 17.5q23 0 41 -17.5t18 -40.5zM287 360q0 -23 -18 -40.5t-41 -17.5q-22 0 -38.5 17.5t-16.5 40.5t16.5 40.5t38.5 17.5q23 0 41 -17.5t18 -40.5z" />
    <glyph glyph-name="oslash" unicode="&#xf8;" horiz-adv-x="503" 
d="M322 238l-115 -189q17 -19 45 -19q39 0 59 38.5t20 98.5q0 41 -9 71zM182 96l114 188q-18 19 -44 19q-39 0 -59 -38t-20 -98q0 -39 9 -71zM134 18q-84 56 -84 149q0 76 59.5 129.5t142.5 53.5q37 0 76 -13l26 43l40 -22l-26 -42q39 -25 62 -64.5t23 -84.5q0 -76 -59 -130
t-142 -54q-41 0 -77 14l-27 -44l-40 22z" />
    <glyph glyph-name="ugrave" unicode="&#xf9;" horiz-adv-x="548" 
d="M548 8l-175 -25q-8 17 -14 58q-46 -58 -125 -58q-67 0 -111 43t-44 107v55q0 75 -14.5 95.5t-64.5 20.5v29h192v-187q0 -52 16 -79.5t56 -27.5q34 0 63.5 26.5t29.5 72.5v50q0 74 -14.5 95t-64.5 21v29h191v-179q0 -74 14.5 -95t64.5 -21v-30zM338 415l-6 -9l-179 76
q-30 16 -30 39q0 14 9.5 25.5t26.5 11.5q25 0 58 -30z" />
    <glyph glyph-name="uacute" unicode="&#xfa;" horiz-adv-x="548" 
d="M548 8l-175 -25q-8 17 -14 58q-46 -58 -125 -58q-67 0 -111 43t-44 107v55q0 75 -14.5 95.5t-64.5 20.5v29h192v-187q0 -52 16 -79.5t56 -27.5q34 0 63.5 26.5t29.5 72.5v50q0 74 -14.5 95t-64.5 21v29h191v-179q0 -74 14.5 -95t64.5 -21v-30zM405 521q0 -23 -30 -39
l-179 -76l-6 9l121 113q33 30 57 30q17 0 27 -11.5t10 -25.5z" />
    <glyph glyph-name="ucircumflex" unicode="&#xfb;" horiz-adv-x="548" 
d="M548 8l-175 -25q-8 17 -14 58q-46 -58 -125 -58q-67 0 -111 43t-44 107v55q0 75 -14.5 95.5t-64.5 20.5v29h192v-187q0 -52 16 -79.5t56 -27.5q34 0 63.5 26.5t29.5 72.5v50q0 74 -14.5 95t-64.5 21v29h191v-179q0 -74 14.5 -95t64.5 -21v-30zM401 423l-15 -15l-128 84
l-129 -84l-15 15l144 155z" />
    <glyph glyph-name="udieresis" unicode="&#xfc;" horiz-adv-x="548" 
d="M548 8l-175 -25q-8 17 -14 58q-46 -58 -125 -58q-67 0 -111 43t-44 107v55q0 75 -14.5 95.5t-64.5 20.5v29h192v-187q0 -52 16 -79.5t56 -27.5q34 0 63.5 26.5t29.5 72.5v50q0 74 -14.5 95t-64.5 21v29h191v-179q0 -74 14.5 -95t64.5 -21v-30zM363 510q22 0 36.5 -14.5
t14.5 -36.5q0 -21 -14.5 -36t-36.5 -15q-21 0 -35.5 15t-14.5 36q0 22 14.5 36.5t35.5 14.5zM164 510q22 0 36.5 -14.5t14.5 -36.5q0 -21 -14.5 -36t-36.5 -15q-20 0 -35.5 15t-15.5 36t15 36t36 15z" />
    <glyph glyph-name="yacute" unicode="&#xfd;" horiz-adv-x="379" 
d="M377 522q0 -25 -30 -39l-179 -76l-6 9l121 113q33 30 57 30q17 0 27 -11.5t10 -25.5zM128 -233q-15 -37 -37 -37q-14 0 -27 8.5t-13 28.5q0 16 11.5 27t31.5 32t33 54l43 106l-120 268q-22 50 -67 50v29h220v-29q-32 0 -39 -11t5 -39l59 -130l54 130q11 27 5 38.5
t-34 11.5v29h148v-29q-50 0 -71 -50z" />
    <glyph glyph-name="thorn" unicode="&#xfe;" horiz-adv-x="510" 
d="M338 167q0 60 -19 98t-56 38q-27 0 -47 -25t-20 -63v-97q0 -37 20 -62.5t47 -25.5q37 0 56 38.5t19 98.5zM83 446q0 75 -14.5 96t-64.5 21v29l192 25v-296q38 29 82 29q83 0 132.5 -52.5t49.5 -130.5t-50 -131t-132 -53q-47 0 -82 30v-117q0 -75 14.5 -96t64.5 -21v-29
h-271v29q50 0 64.5 21t14.5 96v550z" />
    <glyph glyph-name="ydieresis" unicode="&#xff;" horiz-adv-x="379" 
d="M128 -233q-15 -37 -37 -37q-14 0 -27 8.5t-13 28.5q0 16 11.5 27t31.5 32t33 54l43 106l-120 268q-22 50 -67 50v29h220v-29q-32 0 -39 -11t5 -39l59 -130l54 130q11 27 5 38.5t-34 11.5v29h148v-29q-50 0 -71 -50zM303 510q21 0 35.5 -14.5t14.5 -36.5q0 -21 -14.5 -36
t-35.5 -15q-22 0 -36.5 15t-14.5 36q0 22 14.5 36.5t36.5 14.5zM103 510q22 0 36.5 -14.5t14.5 -36.5q0 -21 -14.5 -36t-36.5 -15q-20 0 -35 15t-15 36t14.5 36t35.5 15z" />
    <glyph glyph-name="dotlessi" unicode="&#x131;" horiz-adv-x="323" 
d="M306 0h-271v29q50 0 64.5 21t14.5 96v33q0 75 -14.5 96t-64.5 21v29l192 25v-204q0 -75 14.5 -96t64.5 -21v-29z" />
    <glyph glyph-name="Lslash" unicode="&#x141;" horiz-adv-x="633" 
d="M258 333v-171q0 -75 17 -96t79 -21h115q45 0 68.5 9t32 23t15.5 44l5 20h29l-8 -141h-573v29q62 0 78.5 21t16.5 96v102l-64 -43l-25 37l89 60v152q0 75 -16.5 96t-78.5 21v29h316v-29q-62 0 -79 -21t-17 -96v-68l62 42l26 -37z" />
    <glyph glyph-name="lslash" unicode="&#x142;" horiz-adv-x="296" 
d="M204 327v-181q0 -75 14.5 -96t64.5 -21v-29h-270v29q50 0 64.5 21t14.5 96v106l-69 -47l-26 37l95 63v141q0 75 -14.5 96t-64.5 21v29l191 25v-236l69 47l26 -37z" />
    <glyph glyph-name="OE" unicode="&#x152;" horiz-adv-x="998" 
d="M491 62v476q-42 31 -99 31q-67 0 -114 -43t-66 -102t-19 -124t19 -124t66 -102t114 -43q55 0 99 31zM498 600h411l9 -141h-30l-5 20q-10 43 -31 59.5t-84 16.5h-153v-215h54q75 0 96 17t21 79h29v-237h-29q0 63 -20.5 79.5t-96.5 16.5h-54v-133q0 -75 17 -96t79 -21h90
q64 0 84.5 16.5t31.5 59.5l5 20h29l-8 -141h-445q-51 -17 -106 -17q-138 0 -236 93t-98 224t98 224t236 93q55 0 106 -17z" />
    <glyph glyph-name="oe" unicode="&#x153;" horiz-adv-x="720" 
d="M459 229h134q2 32 -14.5 52.5t-47.5 20.5q-55 0 -72 -73zM331 167q0 60 -20 98t-59 38t-59 -38t-20 -98t20 -98.5t59 -38.5t59 38.5t20 98.5zM391 35q-59 -52 -139 -52q-83 0 -142.5 54t-59.5 130t59.5 129.5t142.5 53.5q80 0 139 -51q56 51 135 51q78 0 120 -54.5
t24 -110.5h-217q-6 -72 24 -110.5t74 -38.5q70 0 118 42l18 -29q-27 -29 -69 -47.5t-84 -18.5q-84 0 -143 52z" />
    <glyph glyph-name="Scaron" unicode="&#x160;" horiz-adv-x="507" 
d="M111 30q-23 -19 -29 -47h-29v220h30q14 -78 67 -126.5t117 -48.5q45 0 72.5 25.5t27.5 73.5q0 28 -20 55.5t-54 45.5l-95 50q-69 35 -102.5 77t-33.5 112q0 62 51 106t123 44q66 0 122 -41q23 19 29 46h28v-220h-29q-6 72 -39.5 121.5t-104.5 49.5q-32 0 -56.5 -22
t-24.5 -58q0 -24 21.5 -53.5t58.5 -48.5l96 -49q58 -30 93.5 -75.5t35.5 -101.5q0 -79 -59.5 -130.5t-139.5 -51.5q-34 0 -65 10t-56 22.5t-35 14.5zM393 829l-143 -155l-143 155l15 14l128 -83l128 83z" />
    <glyph glyph-name="scaron" unicode="&#x161;" horiz-adv-x="383" 
d="M341 96q0 -56 -40.5 -84.5t-95.5 -28.5q-22 0 -44.5 7t-35 13.5t-23.5 10t-15.5 -3.5t-4.5 -27h-29v146h29q0 -36 37 -70t84 -34q24 0 38.5 11t14.5 28t-15 29.5t-49 29.5l-56 25q-75 35 -75 102q0 51 36 75.5t82 24.5q20 0 39.5 -4t31 -8t21 -6t13 2t3.5 16h29v-116h-29
q0 30 -29.5 53t-62.5 23q-21 0 -35 -9.5t-14 -24.5q0 -16 14 -26.5t55 -28.5l48 -23q37 -17 57.5 -44.5t20.5 -57.5zM344 563l-143 -155l-143 155l15 14l128 -84l128 84z" />
    <glyph glyph-name="Ydieresis" unicode="&#x178;" horiz-adv-x="633" 
d="M665 571q-59 0 -84.5 -17.5t-59.5 -70.5l-143 -216v-121q0 -75 16.5 -96t78.5 -21v-29h-312v29q62 0 79 21t17 96v118l-145 219q-35 53 -63.5 70.5t-81.5 17.5v29h339v-29q-105 0 -53 -76l112 -169l112 169q28 41 16 58.5t-70 17.5v29h242v-29zM433 776q22 0 36.5 -15
t14.5 -36t-14.5 -36t-36.5 -15q-21 0 -35.5 15t-14.5 36t14.5 36t35.5 15zM234 776q22 0 36.5 -15t14.5 -36t-14.5 -36t-36.5 -15q-20 0 -35.5 15t-15.5 36t15.5 36t35.5 15z" />
    <glyph glyph-name="Zcaron" unicode="&#x17d;" horiz-adv-x="592" 
d="M353 563h-157q-45 0 -68.5 -9t-32 -22.5t-15.5 -43.5l-5 -20h-21l9 132h443v-22l-313 -541h193q64 0 84 15.5t32 60.5l5 20h21l-9 -133h-476v24zM428 829l-144 -155l-143 155l15 14l128 -83l129 83z" />
    <glyph glyph-name="zcaron" unicode="&#x17e;" horiz-adv-x="375" 
d="M326 333v-16l-149 -277h19q64 0 85.5 13t29.5 46l5 20h21l-8 -119h-290v17l149 276h-5q-64 0 -85.5 -13t-29.5 -46l-5 -20h-21l7 119h277zM326 563l-143 -155l-144 155l15 14l129 -84l128 84z" />
    <glyph glyph-name="florin" unicode="&#x192;" horiz-adv-x="337" 
d="M223 -78q0 -98 -41 -143.5t-123 -45.5q-65 0 -104.5 31t-40.5 63q-1 15 8 25t25 10q19 0 29 -14t13.5 -30t16.5 -30t37 -14q33 0 50 33.5t17 122.5v359h-82v44h82v81q0 103 40.5 153t128.5 50q56 0 91 -28t35 -60q0 -17 -10 -29t-28 -12q-20 0 -31.5 14t-15.5 30
t-14.5 30t-28.5 14q-31 0 -42.5 -26.5t-11.5 -92.5v-124h100v-44h-100v-367z" />
    <glyph glyph-name="circumflex" unicode="&#x2c6;" horiz-adv-x="342" 
d="M323 536l-15 -14l-128 83l-128 -83l-15 14l143 155z" />
    <glyph glyph-name="caron" unicode="&#x2c7;" horiz-adv-x="340" 
d="M284 691l-143 -155l-144 155l16 14l128 -83l128 83z" />
    <glyph glyph-name="breve" unicode="&#x2d8;" horiz-adv-x="308" 
d="M224 662q0 -41 -24.5 -65.5t-61.5 -24.5q-38 0 -62.5 25t-24.5 65h16q8 -21 27 -34.5t44 -13.5t44 13.5t26 34.5h16z" />
    <glyph glyph-name="dotaccent" unicode="&#x2d9;" horiz-adv-x="310" 
d="M121 662q16 0 27.5 -11.5t11.5 -27.5q0 -17 -11.5 -28.5t-27.5 -11.5t-27.5 11.5t-11.5 28.5q0 16 11.5 27.5t27.5 11.5z" />
    <glyph glyph-name="ring" unicode="&#x2da;" horiz-adv-x="223" 
d="M128 703q41 0 70 -29.5t29 -70.5t-29 -70t-70 -29t-70.5 29t-29.5 70t29.5 70.5t70.5 29.5zM128 649q-19 0 -32.5 -13.5t-13.5 -32.5t13.5 -32t32.5 -13t32 13t13 32t-13 32.5t-32 13.5z" />
    <glyph glyph-name="ogonek" unicode="&#x2db;" horiz-adv-x="222" 
d="M206 -78q-5 -35 -32.5 -55.5t-65.5 -20.5q-39 0 -64.5 26t-25.5 65q0 47 43.5 78.5t90.5 16.5l11 -2l-8 -17h-9q-25 0 -46 -16.5t-21 -37.5q0 -24 14 -41t40 -17q41 0 53 29l10 20l8 -25z" />
    <glyph glyph-name="tilde" unicode="&#x2dc;" horiz-adv-x="300" 
d="M232 603q38 0 51 57h20q0 -56 -22.5 -87.5t-60.5 -31.5q-22 0 -76 33t-71 33q-16 0 -30.5 -16t-20.5 -39h-19q0 51 22.5 84t55.5 33q24 0 76.5 -33t74.5 -33z" />
    <glyph glyph-name="hungarumlaut" unicode="&#x2dd;" horiz-adv-x="328" 
d="M201 648q0 -18 -23 -30l-138 -59l-5 7l93 87q27 24 45 24q13 0 20.5 -9.5t7.5 -19.5zM318 648q0 -19 -24 -30l-137 -59l-5 7l93 87q27 24 44 24q13 0 21 -9.5t8 -19.5z" />
    <glyph glyph-name="Delta" unicode="&#x394;" horiz-adv-x="565" 
d="M118 52h270l-131 375zM45 0l228 617h30l217 -617h-475z" />
    <glyph glyph-name="Delta" unicode="&#x2206;" horiz-adv-x="565" 
d="M118 52h270l-131 375zM45 0l228 617h30l217 -617h-475z" />
    <glyph glyph-name="Omega" unicode="&#x3a9;" horiz-adv-x="575" 
d="M328 204q80 30 80 177q0 33 -5 62t-17 58t-37 46t-61 17q-47 0 -76 -31t-37.5 -68.5t-8.5 -83.5q0 -60 18.5 -110.5t61.5 -66.5v-204h-173l-6 191h32l4 -20q8 -44 23.5 -60t63.5 -16h9v76q-64 26 -102.5 83t-38.5 124q0 90 65.5 157.5t164.5 67.5q98 0 163.5 -67.5
t65.5 -157.5q0 -66 -39 -123.5t-102 -82.5v-77h9q48 0 64 16t24 60l3 20h32l-6 -191h-174v204z" />
    <glyph glyph-name="Omega" unicode="&#x2126;" horiz-adv-x="575" 
d="M328 204q80 30 80 177q0 33 -5 62t-17 58t-37 46t-61 17q-47 0 -76 -31t-37.5 -68.5t-8.5 -83.5q0 -60 18.5 -110.5t61.5 -66.5v-204h-173l-6 191h32l4 -20q8 -44 23.5 -60t63.5 -16h9v76q-64 26 -102.5 83t-38.5 124q0 90 65.5 157.5t164.5 67.5q98 0 163.5 -67.5
t65.5 -157.5q0 -66 -39 -123.5t-102 -82.5v-77h9q48 0 64 16t24 60l3 20h32l-6 -191h-174v204z" />
    <glyph glyph-name="pi" unicode="&#x3c0;" horiz-adv-x="505" 
d="M358 236v-168q0 -41 19 -41q17 0 36 22l4 -31q-11 -15 -32 -25t-36 -10q-43 0 -65.5 22.5t-22.5 60.5v170h-63l-19 -183q-8 -70 -53 -70q-27 0 -47 35l6 31l5 -7q6 -7 9.5 -11t9 -8t9.5 -4q18 0 23 42l19 175h-49q-56 0 -41 -54l-17 -4q-13 34 -15.5 68.5t18 60.5
t58.5 26h290q30 0 38.5 16.5t2.5 38.5l18 4q12 -26 17 -51.5t2 -50t-23.5 -39.5t-57.5 -15h-43z" />
    <glyph glyph-name="endash" unicode="&#x2013;" horiz-adv-x="525" 
d="M525 166h-526v77h526v-77z" />
    <glyph glyph-name="emdash" unicode="&#x2014;" horiz-adv-x="667" 
d="M667 166h-668v77h668v-77z" />
    <glyph glyph-name="quoteleft" unicode="&#x2018;" horiz-adv-x="251" 
d="M192 424q0 -26 -18.5 -45t-44.5 -19q-28 0 -50 21t-22 57q0 47 29 97t83 84l20 -20q-56 -58 -65 -111h5q26 0 44.5 -19t18.5 -45z" />
    <glyph glyph-name="quoteright" unicode="&#x2019;" horiz-adv-x="251" 
d="M82 358l-20 20q56 58 65 110h-5q-26 0 -44.5 19.5t-18.5 45.5t18.5 45t44.5 19q29 0 50.5 -21t21.5 -58q0 -46 -29 -96t-83 -84z" />
    <glyph glyph-name="quotesinglbase" unicode="&#x201a;" horiz-adv-x="251" 
d="M82 -139l-20 20q56 58 65 111h-5q-26 0 -44.5 19t-18.5 45t18.5 45t44.5 19q28 0 50 -21t22 -57q0 -47 -29 -97t-83 -84z" />
    <glyph glyph-name="quotedblleft" unicode="&#x201c;" horiz-adv-x="434" 
d="M375 424q0 -26 -18 -45t-44 -19q-29 0 -51 21t-22 57q0 47 29.5 97t83.5 84l20 -20q-58 -60 -65 -111h5q26 0 44 -19t18 -45zM192 424q0 -26 -18.5 -45t-44.5 -19q-28 0 -50 21t-22 57q0 47 29 97t83 84l20 -20q-56 -58 -65 -111h5q26 0 44.5 -19t18.5 -45z" />
    <glyph glyph-name="quotedblright" unicode="&#x201d;" horiz-adv-x="434" 
d="M82 358l-20 20q56 58 65 110h-5q-26 0 -44.5 19.5t-18.5 45.5t18.5 45t44.5 19q29 0 50.5 -21t21.5 -58q0 -46 -29 -96t-83 -84zM265 358l-20 20q56 58 65 110h-5q-26 0 -44 19t-18 46q0 26 18 45t44 19q29 0 51 -21t22 -58q0 -46 -29.5 -96t-83.5 -84z" />
    <glyph glyph-name="quotedblbase" unicode="&#x201e;" horiz-adv-x="434" 
d="M82 -139l-20 20q56 58 65 111h-5q-26 0 -44.5 19t-18.5 45t18.5 45t44.5 19q28 0 50 -21t22 -57q0 -47 -29 -97t-83 -84zM265 -139l-20 20q56 58 65 111h-5q-26 0 -44 19t-18 45t18 45t44 19q29 0 51 -21t22 -57q0 -47 -29.5 -97t-83.5 -84z" />
    <glyph glyph-name="dagger" unicode="&#x2020;" horiz-adv-x="448" 
d="M240 388l54 -181l-62 -394h-16l-62 394l54 182l-110 -36q-25 -7 -47 11t-22 44t22 44t47 11l112 -37l-41 122q-7 25 10.5 47t44.5 22t44.5 -22t10.5 -47l-41 -122l111 37q25 7 47 -10.5t22 -44.5t-22 -44.5t-47 -10.5z" />
    <glyph glyph-name="daggerdbl" unicode="&#x2021;" horiz-adv-x="448" 
d="M418 23q0 -26 -22 -44.5t-47 -11.5l-111 38l41 -123q7 -24 -11 -46t-44 -22t-44 22t-11 46l41 123l-112 -38q-24 -7 -46.5 11.5t-22.5 44.5t22 44t47 11l110 -36l-56 173l56 174l-110 -37q-25 -7 -47 11.5t-22 44.5t22.5 44t46.5 11l112 -38l-41 123q-7 25 11 47t44 22
t44 -22t11 -47l-41 -123l111 38q25 7 47 -11t22 -44q0 -27 -22 -45t-47 -11l-109 36l56 -172l-56 -173l109 35q25 7 47 -10.5t22 -44.5z" />
    <glyph glyph-name="bullet" unicode="&#x2022;" horiz-adv-x="303" 
d="M152 366q41 0 70.5 -29.5t29.5 -70.5t-29.5 -70.5t-70.5 -29.5t-70.5 29.5t-29.5 70.5t29.5 70.5t70.5 29.5z" />
    <glyph glyph-name="ellipsis" unicode="&#x2026;" horiz-adv-x="896" 
d="M149 120q27 0 45.5 -18.5t18.5 -45.5t-18.5 -45.5t-45.5 -18.5t-45.5 18.5t-18.5 45.5t18.5 45.5t45.5 18.5zM441 120q27 0 45.5 -18.5t18.5 -45.5t-18.5 -45.5t-45.5 -18.5t-45.5 18.5t-18.5 45.5t18.5 45.5t45.5 18.5zM733 120q26 0 45 -18.5t19 -45.5t-19 -45.5
t-45 -18.5q-27 0 -46 18.5t-19 45.5t19 45.5t46 18.5z" />
    <glyph glyph-name="perthousand" unicode="&#x2030;" horiz-adv-x="1133" 
d="M372 473q0 -59 -48.5 -101t-115.5 -42q-68 0 -116.5 42t-48.5 101t48.5 101.5t116.5 42.5q67 0 115.5 -42.5t48.5 -101.5zM273 473q0 41 -17 73t-48 32t-48.5 -32t-17.5 -73q0 -40 17.5 -72.5t48.5 -32.5t48 32t17 73zM587 598l-369 -616l-40 21l370 617zM719 128
q0 -59 -48.5 -101.5t-115.5 -42.5t-115.5 42.5t-48.5 101.5t48.5 101t115.5 42t115.5 -42t48.5 -101zM621 128q0 40 -17.5 72.5t-48.5 32.5t-48.5 -32.5t-17.5 -72.5q0 -41 17.5 -73t48.5 -32t48.5 32t17.5 73zM1090 128q0 -59 -48.5 -101.5t-115.5 -42.5t-115.5 42.5
t-48.5 101.5t48.5 101t115.5 42t115.5 -42t48.5 -101zM992 128q0 40 -17.5 72.5t-48.5 32.5t-48.5 -32.5t-17.5 -72.5q0 -41 17.5 -73t48.5 -32t48.5 32t17.5 73z" />
    <glyph glyph-name="guilsinglleft" unicode="&#x2039;" horiz-adv-x="367" 
d="M333 28l-16 -21l-270 196l270 195l16 -20l-144 -175z" />
    <glyph glyph-name="guilsinglright" unicode="&#x203a;" horiz-adv-x="367" 
d="M35 28l143 175l-143 175l16 20l270 -195l-270 -196z" />
    <glyph glyph-name="fraction" unicode="&#x2044;" horiz-adv-x="348" 
d="M383 594l-370 -612l-47 25l369 613z" />
    <glyph glyph-name="fraction" unicode="&#x2215;" horiz-adv-x="348" 
d="M383 594l-370 -612l-47 25l369 613z" />
    <glyph glyph-name="Euro" unicode="&#x20ac;" horiz-adv-x="642" 
d="M223 336q-1 -12 -1 -36v-36h201v-58h-196q10 -77 44.5 -126t94.5 -49q71 0 112 50t62 150h29v-220h-28q-12 50 -23 57q-59 -85 -156 -85q-91 0 -162.5 62.5t-96.5 160.5h-70v58h59q0 6 -0.5 18t-0.5 18q0 12 2 36h-60v58h70q25 98 96.5 160.5t162.5 62.5q102 0 156 -85
q11 9 23 57h28v-220h-29q-21 101 -62 150.5t-112 49.5q-116 0 -139 -175h196v-58h-200z" />
    <glyph glyph-name="trademark" unicode="&#x2122;" horiz-adv-x="973" 
d="M168 559h-17q-56 0 -74.5 -11.5t-25.5 -43.5l-4 -17h-26l6 113h384l7 -113h-27l-3 17q-7 33 -25 44t-75 11h-16v-206q0 -65 12.5 -83t56.5 -18v-26h-243v26q44 0 57 18t13 83v206zM568 498v-145q0 -65 12 -83t55 -18v-26h-177v26q44 0 56.5 18t12.5 83v121q0 64 -12.5 82
t-56.5 18v26h163l104 -243l105 243h140v-26q-43 0 -55 -18t-12 -82v-121q0 -65 12 -83t55 -18v-26h-217v26q43 0 55.5 18t12.5 83v133l-118 -274h-12z" />
    <glyph glyph-name="partialdiff" unicode="&#x2202;" horiz-adv-x="533" 
d="M470 266q0 -82 -21.5 -141.5t-56 -88t-67.5 -41t-66 -12.5q-83 0 -142 55.5t-59 132.5t63 132t147 55q54 0 85 -26q-8 247 -122 247q-24 0 -43 -9.5t-29 -21t-21 -22.5t-18.5 -15t-21.5 3q-29 18 0 52q34 42 104 52q15 2 30 2q73 0 129 -54t82.5 -133t26.5 -167zM353 278
q-21 32 -85 32q-86 0 -86 -138q0 -140 77 -140q94 0 94 246z" />
    <glyph glyph-name="product" unicode="&#x220f;" horiz-adv-x="733" 
d="M250 548v-402q0 -75 17 -96t79 -21v-29h-308v29q62 0 78.5 21t16.5 96v308q0 75 -16.5 96t-78.5 21v29h658v-29q-62 0 -79 -21t-17 -96v-308q0 -75 17 -96t79 -21v-29h-308v29q62 0 78.5 21t16.5 96v402h-233z" />
    <glyph glyph-name="summation" unicode="&#x2211;" horiz-adv-x="598" 
d="M49 -170v17l219 417l-217 319v17h482l9 -141h-29l-5 20q-8 30 -16.5 44t-32 23t-67.5 9h-244l228 -336l-181 -344h222q44 0 67.5 9t32 23t16.5 44l5 20h29l-9 -141h-509z" />
    <glyph glyph-name="minus" unicode="&#x2212;" 
d="M375 183h-292v77h292v-77z" />
    <glyph glyph-name="radical" unicode="&#x221a;" horiz-adv-x="549" 
d="M118 288l89 40l76 -189l224 602h49l-284 -763h-24z" />
    <glyph glyph-name="infinity" unicode="&#x221e;" horiz-adv-x="713" 
d="M641 219q0 -55 -37.5 -92.5t-96.5 -37.5q-34 0 -77.5 25.5t-80.5 60.5q-37 -35 -81.5 -60.5t-77.5 -25.5q-60 0 -97.5 37.5t-37.5 92.5t37.5 92.5t97.5 37.5q33 0 77.5 -25.5t81.5 -60.5q37 35 80.5 60.5t77.5 25.5q60 0 97 -37.5t37 -92.5zM571 219q0 27 -17.5 45.5
t-44.5 18.5q-33 0 -116 -64q83 -64 116 -64q26 0 44 19t18 45zM290 219q-67 64 -103 64q-27 0 -44.5 -18.5t-17.5 -45.5q0 -26 18 -45t44 -19q36 0 103 64z" />
    <glyph glyph-name="integral" unicode="&#x222b;" horiz-adv-x="287" 
d="M198 -78q0 -98 -41 -143.5t-123 -45.5q-65 0 -104.5 31t-40.5 63q-1 15 8 25t25 10q18 0 28 -14t14 -30t17 -30t37 -14q33 0 50 33.5t17 122.5v484q0 103 40.5 153t128.5 50q56 0 91 -28t35 -60q0 -17 -10 -29t-28 -12q-20 0 -31.5 14t-15.5 30t-14.5 30t-28.5 14
q-31 0 -42.5 -26.5t-11.5 -92.5v-535z" />
    <glyph glyph-name="approxequal" unicode="&#x2248;" 
d="M95 311q28 33 67 33q20 0 66 -16.5t67 -16.5q17 0 33.5 8.5t25.5 16.5l8 8v-83q-28 -33 -67 -33q-20 0 -66 16.5t-67 16.5q-17 0 -33.5 -8.5t-24.5 -16.5l-9 -8v83zM95 178q28 33 67 33q20 0 66 -16.5t67 -16.5q17 0 33.5 8t25.5 16l8 9v-83q-28 -34 -67 -34
q-20 0 -66 17t-67 17q-17 0 -33.5 -8.5t-24.5 -17.5l-9 -8v84z" />
    <glyph glyph-name="notequal" unicode="&#x2260;" 
d="M277 250l-42 -64h140v-78h-191l-55 -84l-46 27l38 57h-38v78h89l41 64h-130v78h181l65 100l46 -28l-47 -72h47v-78h-98z" />
    <glyph glyph-name="lessequal" unicode="&#x2264;" 
d="M408 61v-61h-358v61h358zM395 140l-16 -23l-329 151l329 150l16 -22l-167 -128z" />
    <glyph glyph-name="greaterequal" unicode="&#x2265;" 
d="M408 268l-329 -151l-16 23l167 128l-167 128l16 22zM408 0h-358v61h358v-61z" />
    <glyph glyph-name="lozenge" unicode="&#x25ca;" horiz-adv-x="494" 
d="M250 626l192 -331l-192 -341l-192 341zM250 58l130 238l-130 227l-131 -227z" />
    <glyph glyph-name="quotedblleft.alt" unicode="&#xf006;" horiz-adv-x="434" 
d="M375 553q0 -27 -18 -46t-44 -19h-5q7 -50 65 -110l-20 -20q-54 34 -83.5 84t-29.5 96q0 37 22 58t51 21q26 0 44 -19t18 -45zM192 553q0 -26 -18.5 -45.5t-44.5 -19.5h-5q9 -52 65 -110l-20 -20q-54 34 -83 84t-29 96q0 37 21.5 58t50.5 21q26 0 44.5 -19t18.5 -45z" />
    <glyph glyph-name="quoteleft.alt" unicode="&#xf007;" horiz-adv-x="251" 
d="M192 553q0 -26 -18.5 -45.5t-44.5 -19.5h-5q9 -52 65 -110l-20 -20q-54 34 -83 84t-29 96q0 37 21.5 58t50.5 21q26 0 44.5 -19t18.5 -45z" />
    <glyph glyph-name="s_s" unicode="&#xf008;" horiz-adv-x="595" 
d="M575 96q0 -56 -40.5 -84.5t-95.5 -28.5q-22 0 -44.5 7t-35 13.5t-23.5 10t-15.5 -3.5t-4.5 -27h-29v146h29q0 -36 37.5 -70t84.5 -34q24 0 38 11t14 28t-15 30t-49 29l-56 25q-75 35 -75 102q0 51 36 75.5t82 24.5q20 0 39.5 -4t31 -8t21 -6t13 2t3.5 16h29v-116h-29
q0 30 -29.5 53t-62.5 23q-21 0 -35 -9.5t-14 -24.5q0 -16 14 -26.5t55 -28.5l49 -23q37 -17 57 -44.5t20 -57.5zM85 414q0 103 40.5 153t128.5 50q56 0 91 -28t35 -60q0 -17 -10 -29t-28 -12q-20 0 -31.5 14t-15.5 30t-14.5 30t-28.5 14q-31 0 -42.5 -26.5t-11.5 -92.5v-531
q0 -99 -46 -146t-122 -47q-49 0 -79.5 27.5t-29.5 57.5q-1 15 7.5 24.5t25.5 9.5t25.5 -13t10.5 -29t13 -29t32 -13q27 0 38.5 35.5t11.5 122.5v488z" />
    <glyph glyph-name="s.alt_s" unicode="&#xf009;" horiz-adv-x="595" 
d="M85 414q0 103 40.5 153t128.5 50q56 0 91 -28t35 -60q0 -17 -10 -29t-28 -12q-20 0 -31.5 14t-15.5 30t-14.5 30t-28.5 14q-31 0 -42.5 -26.5t-11.5 -92.5v-457h-192v29q50 0 64.5 21t14.5 96v143h-79v29q48 0 63.5 20.5t15.5 75.5zM575 96q0 -56 -40.5 -84.5
t-95.5 -28.5q-22 0 -44.5 7t-35 13.5t-23.5 10t-15.5 -3.5t-4.5 -27h-29v146h29q0 -36 37.5 -70t84.5 -34q24 0 38 11t14 28t-15 30t-49 29l-56 25q-75 35 -75 102q0 51 36 75.5t82 24.5q20 0 39.5 -4t31 -8t21 -6t13 2t3.5 16h29v-116h-29q0 30 -29.5 53t-62.5 23
q-21 0 -35 -9.5t-14 -24.5q0 -16 14 -26.5t55 -28.5l49 -23q37 -17 57 -44.5t20 -57.5z" />
    <glyph glyph-name="zero.lprp" unicode="&#xf144;" horiz-adv-x="575" 
d="M513 300q0 -130 -66.5 -223.5t-158.5 -93.5t-158.5 93.5t-66.5 223.5t66.5 223.5t158.5 93.5t158.5 -93.5t66.5 -223.5zM288 568q-51 0 -75 -80t-24 -188t24 -188t75 -80q50 0 74 80t24 188t-24 188t-74 80z" />
    <glyph glyph-name="one.lprp" unicode="&#xf145;" horiz-adv-x="408" 
d="M339 0h-271v29q51 0 65.5 21t14.5 96v300q0 70 -22 89t-78 19v29l212 34v-471q0 -75 14.5 -96t64.5 -21v-29z" />
    <glyph glyph-name="two.lprp" unicode="&#xf146;" horiz-adv-x="508" 
d="M54 0v24l159 199q92 117 92 232q0 50 -21 80t-64 30q-47 0 -67.5 -39t8.5 -93l-48 -40q-46 27 -62 66t-2 73.5t59 59.5t111 25q87 0 146.5 -50t59.5 -116q0 -13 -2 -25.5t-7.5 -26t-9 -23.5t-14.5 -25.5t-16.5 -23.5t-21 -26.5t-21 -25t-25 -28.5t-25.5 -29l-110 -126
h132q64 0 84.5 14.5t33.5 61.5h22l-30 -168h-361z" />
    <glyph glyph-name="three.lprp" unicode="&#xf147;" horiz-adv-x="525" 
d="M258 285q-6 -5 -14 -13.5t-13.5 -14.5t-13 -12t-13.5 -5.5t-15 5.5q-7 6 -8.5 12.5t4 14.5t9.5 12.5t14 14.5l55 58q25 25 38.5 56.5t13.5 55.5q0 46 -22 71.5t-60 25.5q-49 0 -71 -39t8 -99l-47 -31q-58 35 -62.5 87.5t45.5 92.5t133 40q89 0 148.5 -35t59.5 -96
q0 -84 -106 -147l-49 -28q74 -10 123 -56.5t49 -104.5q0 -76 -63 -121.5t-152 -45.5q-101 0 -158 59q-36 38 -25 68q5 14 24 18q17 3 32 -11.5t25.5 -34t35 -36.5t58.5 -17q41 0 63 34t22 87q0 96 -68 135z" />
    <glyph glyph-name="four.lprp" unicode="&#xf148;" horiz-adv-x="565" 
d="M358 625v-405h3q64 0 84 15.5t32 60.5l5 20h29l-8 -141h-145v-29q0 -75 17 -96t79 -21v-29h-304v29q62 0 79 21t17 96v29h-210v28l296 422h26zM246 220v203l-143 -203h143z" />
    <glyph glyph-name="five.lprp" unicode="&#xf149;" horiz-adv-x="513" 
d="M133 330q13 21 45 37t63 16q92 0 151 -56.5t59 -143.5q0 -86 -61 -143t-157 -57q-71 0 -119.5 39t-48.5 76q0 30 28 30q19 0 30.5 -15.5t17.5 -34t27 -34t56 -15.5q47 0 74.5 42t27.5 112q0 71 -27.5 110.5t-74.5 39.5q-36 0 -59 -18.5t-41 -71.5h-45l31 357h318
l-14 -112h-266z" />
    <glyph glyph-name="six.lprp" unicode="&#xf14a;" horiz-adv-x="533" 
d="M179 278q0 -246 94 -246q78 0 78 140q0 138 -86 138q-65 0 -86 -32zM179 332q31 26 86 26q84 0 147 -55t63 -132t-59.5 -132.5t-142.5 -55.5q-33 0 -65.5 12.5t-67 41t-56 88t-21.5 141.5q0 88 26.5 167t82.5 133t129 54q76 0 124 -43q36 -32 18 -55q-3 -5 -8 -8
q-12 -10 -26.5 -2t-23.5 21t-31.5 25.5t-51.5 12.5q-115 0 -123 -239z" />
    <glyph glyph-name="seven.lprp" unicode="&#xf14b;" horiz-adv-x="479" 
d="M435 600v-27l-221 -555q-16 -41 -47 -41q-24 0 -34.5 22t4.5 56l216 433h-150q-65 0 -85 -15.5t-31 -60.5l-5 -20h-21l30 208h344z" />
    <glyph glyph-name="eight.lprp" unicode="&#xf14c;" horiz-adv-x="545" 
d="M299 378q48 48 48 118q0 34 -22 54t-52 20q-29 0 -47.5 -19.5t-18.5 -44.5q0 -53 92 -128zM239 293q-71 -59 -71 -147q0 -46 28 -81t77 -35q43 0 69 29t26 70q0 40 -34 78.5t-95 85.5zM336 349q29 -23 37 -29t32 -26.5t32.5 -32t22 -30t18.5 -36.5t5 -37
q0 -74 -63 -124.5t-147 -50.5q-85 0 -147.5 49.5t-62.5 121.5q0 32 10.5 57t35 46t42 32t53.5 31q-55 44 -83 78.5t-28 74.5q0 61 52.5 102.5t122.5 41.5q69 0 122.5 -38.5t53.5 -89.5q0 -46 -28.5 -77.5t-79.5 -62.5z" />
    <glyph glyph-name="nine.lprp" unicode="&#xf14d;" horiz-adv-x="533" 
d="M471 334q0 -88 -26.5 -167t-82.5 -133t-129 -54q-77 0 -125 44q-36 33 -18 55q3 4 8 7q15 7 22.5 4.5t18.5 -12.5t21 -21t29 -19.5t43 -8.5q114 0 122 239q-31 -26 -86 -26q-83 0 -146.5 55.5t-63.5 131.5q0 78 59.5 133t142.5 55q33 0 66 -12.5t67.5 -41t56 -88
t21.5 -141.5zM354 323q0 245 -94 245q-77 0 -77 -140q0 -138 85 -138q65 0 86 33z" />
    <glyph glyph-name="sterling.lprp" unicode="&#xf14e;" horiz-adv-x="513" 
d="M357 45q44 0 67.5 9t32 23t16.5 44l5 20h29l-9 -141h-467v29q50 0 64.5 21t14.5 96v143h-82v44h82v81q0 103 40.5 153t128.5 50q56 0 91 -28t35 -60q0 -17 -10 -29t-28 -12q-20 0 -31.5 14t-15.5 30t-14.5 30t-28.5 14q-31 0 -42.5 -26.5t-11.5 -92.5v-124h142v-44h-142
v-127q0 -75 14.5 -96t64.5 -21h55z" />
    <glyph glyph-name="yen.lprp" unicode="&#xf150;" horiz-adv-x="633" 
d="M378 255v-67h130v-56h-130q1 -66 18 -84.5t77 -18.5v-29h-312v29q59 0 77 18.5t19 84.5h-134v56h134v67h-134v57h102l-113 171q-35 53 -63.5 70.5t-81.5 17.5v29h339v-29q-105 0 -53 -76l112 -169l112 169q28 41 16 58.5t-70 17.5v29h242v-29q-59 0 -84.5 -17.5
t-59.5 -70.5l-114 -171h101v-57h-130z" />
    <glyph glyph-name="dollar.lprp" unicode="&#xf151;" horiz-adv-x="498" 
d="M260 589q85 -11 122 -64q27 -38 6 -61q-7 -8 -18 -11q-16 -5 -28.5 5t-20 26.5t-24 35t-37.5 25.5v-185l70 -36q50 -26 76.5 -65t26.5 -80q0 -74 -49.5 -120t-123.5 -51v-91h-52v93q-93 12 -144 72q-35 41 -19 66q4 7 12 10q19 8 33.5 -3.5t24.5 -32t34 -42t59 -28.5v216
l-48 25q-47 24 -77.5 64t-30.5 91q0 59 44 99t112 44v92h52v-94zM260 49q35 5 56.5 27t21.5 57q0 63 -78 108v-192zM208 548q-26 -6 -43.5 -25.5t-17.5 -46.5q0 -52 61 -88v160z" />
    <glyph glyph-name="percent.lprp" unicode="&#xf152;" horiz-adv-x="763" 
d="M372 473q0 -59 -48.5 -101t-115.5 -42q-68 0 -116.5 42t-48.5 101t48.5 101.5t116.5 42.5q67 0 115.5 -42.5t48.5 -101.5zM273 473q0 41 -17 73t-48 32t-48.5 -32t-17.5 -73q0 -40 17.5 -72.5t48.5 -32.5t48 32t17 73zM587 598l-369 -616l-40 21l370 617zM719 128
q0 -59 -48.5 -101.5t-115.5 -42.5t-115.5 42.5t-48.5 101.5t48.5 101t115.5 42t115.5 -42t48.5 -101zM621 128q0 40 -17.5 72.5t-48.5 32.5t-48.5 -32.5t-17.5 -72.5q0 -41 17.5 -73t48.5 -32t48.5 32t17.5 73z" />
    <glyph glyph-name="perthousand.lprp" unicode="&#xf153;" horiz-adv-x="1133" 
d="M372 473q0 -59 -48.5 -101t-115.5 -42q-68 0 -116.5 42t-48.5 101t48.5 101.5t116.5 42.5q67 0 115.5 -42.5t48.5 -101.5zM273 473q0 41 -17 73t-48 32t-48.5 -32t-17.5 -73q0 -40 17.5 -72.5t48.5 -32.5t48 32t17 73zM587 598l-369 -616l-40 21l370 617zM719 128
q0 -59 -48.5 -101.5t-115.5 -42.5t-115.5 42.5t-48.5 101.5t48.5 101t115.5 42t115.5 -42t48.5 -101zM621 128q0 40 -17.5 72.5t-48.5 32.5t-48.5 -32.5t-17.5 -72.5q0 -41 17.5 -73t48.5 -32t48.5 32t17.5 73zM1090 128q0 -59 -48.5 -101.5t-115.5 -42.5t-115.5 42.5
t-48.5 101.5t48.5 101t115.5 42t115.5 -42t48.5 -101zM992 128q0 40 -17.5 72.5t-48.5 32.5t-48.5 -32.5t-17.5 -72.5q0 -41 17.5 -73t48.5 -32t48.5 32t17.5 73z" />
    <glyph glyph-name="cent.lprp" unicode="&#xf154;" horiz-adv-x="476" 
d="M287 483q54 -6 84.5 -29t30.5 -51q0 -16 -10.5 -29.5t-33.5 -13.5q-16 0 -28 12t-12 28q0 39 -31 43v-277q5 -1 14 -1q49 0 105 46l17 -28q-57 -57 -136 -65v-135h-46v135q-81 6 -132 54.5t-51 119.5q0 80 52.5 131.5t130.5 59.5v134h46v-134zM241 435q-32 -14 -50 -52
t-18 -91q0 -86 68 -116v259z" />
    <glyph glyph-name="less.lprp" unicode="&#xf155;" horiz-adv-x="483" 
d="M67 290l337 218l23 -31l-199 -187l199 -186l-23 -31z" />
    <glyph glyph-name="equal.lprp" unicode="&#xf156;" 
d="M375 320h-292v78h292v-78zM375 178h-292v78h292v-78z" />
    <glyph glyph-name="greater.lprp" unicode="&#xf157;" horiz-adv-x="483" 
d="M417 290l-338 -217l-22 31l198 186l-198 187l22 31z" />
    <glyph glyph-name="plus.lprp" unicode="&#xf158;" 
d="M268 327h140v-78h-140v-141h-78v141h-140v78h140v140h78v-140z" />
    <glyph glyph-name="plusminus.lprp" unicode="&#xf159;" 
d="M408 61v-61h-358v61h358zM268 327h140v-78h-140v-141h-78v141h-140v78h140v140h78v-140z" />
    <glyph glyph-name="infinity.lprp" unicode="&#xf15a;" horiz-adv-x="713" 
d="M641 286q0 -55 -37 -92.5t-97 -37.5q-34 0 -77.5 25.5t-80.5 60.5q-37 -35 -81.5 -60.5t-77.5 -25.5q-60 0 -97.5 37.5t-37.5 92.5t37.5 92.5t97.5 37.5q33 0 77.5 -25.5t81.5 -60.5q37 35 80.5 60.5t77.5 25.5q60 0 97 -37.5t37 -92.5zM571 286q0 27 -17.5 45.5
t-44.5 18.5q-33 0 -116 -64q83 -64 116 -64q26 0 44 19t18 45zM290 286q-67 64 -103 64q-27 0 -44.5 -18.5t-17.5 -45.5q0 -26 18 -45t44 -19q36 0 103 64z" />
    <glyph glyph-name="lessequal.lprp" unicode="&#xf15b;" 
d="M408 61v-61h-358v61h358zM395 160l-16 -23l-329 151l329 150l16 -22l-167 -128z" />
    <glyph glyph-name="greaterequal.lprp" unicode="&#xf15c;" 
d="M408 288l-329 -151l-16 23l167 128l-167 128l16 22zM408 0h-358v61h358v-61z" />
    <glyph glyph-name="Euro.lprp" unicode="&#xf15d;" horiz-adv-x="642" 
d="M223 336q-1 -12 -1 -36v-36h201v-58h-196q10 -77 44.5 -126t94.5 -49q71 0 112 50t62 150h29v-220h-28q-12 50 -23 57q-59 -85 -156 -85q-91 0 -162.5 62.5t-96.5 160.5h-70v58h59q0 6 -0.5 18t-0.5 18q0 12 2 36h-60v58h70q25 98 96.5 160.5t162.5 62.5q102 0 156 -85
q11 9 23 57h28v-220h-29q-21 101 -62 150.5t-112 49.5q-116 0 -139 -175h196v-58h-200z" />
    <glyph glyph-name="notequal.lprp" unicode="&#xf15e;" 
d="M277 317l-42 -64h140v-78h-191l-55 -84l-46 27l38 57h-38v78h89l41 64h-130v77h181l65 100l46 -27l-47 -73h47v-77h-98z" />
    <glyph glyph-name="approxequal.lprp" unicode="&#xf15f;" 
d="M95 378q28 33 67 33q20 0 66 -16.5t67 -16.5q17 0 33.5 8t25.5 16l8 9v-83q-28 -34 -67 -34q-20 0 -66 17t-67 17q-17 0 -33.5 -8.5t-24.5 -17.5l-9 -8v84zM95 244q28 34 67 34q20 0 66 -17t67 -17q17 0 33.5 8.5t25.5 17.5l8 8v-84q-28 -33 -67 -33q-20 0 -66 16.5
t-67 16.5q-17 0 -33.5 -8t-24.5 -16l-9 -9v83z" />
    <glyph glyph-name="logicalnot.lprp" unicode="&#xf160;" horiz-adv-x="570" 
d="M459 362v-180h-77v102h-299v78h376z" />
    <glyph glyph-name="divide.lprp" unicode="&#xf161;" 
d="M408 249h-358v78h358v-78zM287 149q0 -23 -18 -40.5t-41 -17.5q-22 0 -38.5 17.5t-16.5 40.5t16.5 41t38.5 18q23 0 41 -18t18 -41zM287 427q0 -23 -18 -41t-41 -18q-22 0 -38.5 18t-16.5 41t16.5 40.5t38.5 17.5q23 0 41 -17.5t18 -40.5z" />
    <glyph glyph-name="minus.lprp" unicode="&#xf162;" 
d="M375 249h-292v78h292v-78z" />
    <glyph glyph-name="multiply.lprp" unicode="&#xf163;" 
d="M283 288l109 -109l-55 -54l-108 108l-108 -108l-55 54l108 109l-107 107l55 55l107 -107l108 107l54 -55z" />
    <glyph glyph-name="approxequal.caps" unicode="&#xf215;" 
d="M95 378q28 33 67 33q20 0 66 -16.5t67 -16.5q17 0 33.5 8t25.5 16l8 9v-83q-28 -34 -67 -34q-20 0 -66 17t-67 17q-17 0 -33.5 -8.5t-24.5 -17.5l-9 -8v84zM95 244q28 34 67 34q20 0 66 -17t67 -17q17 0 33.5 8.5t25.5 17.5l8 8v-84q-28 -33 -67 -33q-20 0 -66 16.5
t-67 16.5q-17 0 -33.5 -8t-24.5 -16l-9 -9v83z" />
    <glyph glyph-name="integral.caps" unicode="&#xf21c;" horiz-adv-x="403" 
d="M256 172q0 -98 -40.5 -143.5t-122.5 -45.5q-65 0 -105 31t-41 64q0 34 34 34q18 0 28 -14t13.5 -30t17 -30t37.5 -14q32 0 49 34t17 122v234q0 103 41 153t129 50q56 0 90.5 -28t34.5 -60q0 -17 -10 -29t-28 -12q-20 0 -31.5 14t-15.5 30t-14.5 30t-28.5 14
q-31 0 -42.5 -26.5t-11.5 -92.5v-285z" />
    <glyph glyph-name="fi.caps" unicode="&#xf21d;" horiz-adv-x="986" 
d="M258 555v-215h55q75 0 95.5 17t20.5 79h29v-237h-29q0 63 -20.5 79.5t-95.5 16.5h-55v-149q0 -75 17 -96t79 -21v-29h-316v29q62 0 78.5 21t16.5 96v308q0 75 -16.5 96t-78.5 21v29h531l9 -141h-30l-5 20q-11 44 -31 60t-84 16h-170zM948 0h-316v29q62 0 79 21t17 96v308
q0 75 -17 96t-79 21v29h316v-29q-62 0 -78.5 -21t-16.5 -96v-308q0 -75 16.5 -96t78.5 -21v-29z" />
    <glyph glyph-name="fl.caps" unicode="&#xf21e;" horiz-adv-x="1228" 
d="M258 555v-215h55q75 0 95.5 17t20.5 79h29v-237h-29q0 63 -20.5 79.5t-95.5 16.5h-55v-149q0 -75 17 -96t79 -21v-29h-316v29q62 0 78.5 21t16.5 96v308q0 75 -16.5 96t-78.5 21v29h531l9 -141h-30l-5 20q-11 44 -31 60t-84 16h-170zM728 454q0 75 -17 96t-79 21v29h316
v-29q-62 0 -78.5 -21t-16.5 -96v-292q0 -75 16.5 -96t78.5 -21h115q45 0 68.5 9t32 23t15.5 44l5 20h29l-8 -141h-573v29q62 0 79 21t17 96v308z" />
    <glyph glyph-name="germandbls.caps" unicode="&#xf21f;" horiz-adv-x="1013" 
d="M111 30q-23 -19 -29 -47h-29v220h30q14 -78 67 -126.5t117 -48.5q45 0 72.5 25.5t27.5 73.5q0 28 -20 55.5t-54 45.5l-95 50q-69 35 -102.5 77t-33.5 112q0 62 51 106t123 44q66 0 122 -41q23 19 29 46h28v-220h-29q-6 72 -39.5 121.5t-104.5 49.5q-32 0 -56.5 -22
t-24.5 -58q0 -24 21.5 -53.5t58.5 -48.5l96 -49q58 -30 93.5 -75.5t35.5 -101.5q0 -79 -59.5 -130.5t-139.5 -51.5q-34 0 -65 10t-56 22.5t-35 14.5zM618 30q-24 -20 -30 -47h-28v220h29q14 -78 67.5 -126.5t116.5 -48.5q46 0 73 25.5t27 73.5q0 28 -19.5 56t-53.5 45
l-96 50q-69 35 -102.5 77t-33.5 112q0 62 51 106t124 44q66 0 122 -41q21 18 28 46h29v-220h-29q-3 33 -11 61t-24 54t-44 41t-66 15q-32 0 -56 -22t-24 -58q0 -25 21 -54t59 -48l95 -49q58 -30 94 -75.5t36 -101.5q0 -79 -59.5 -130.5t-140.5 -51.5q-45 0 -99.5 23.5
t-55.5 23.5z" />
    <glyph glyph-name="pi.caps" unicode="&#xf220;" horiz-adv-x="733" 
d="M250 548v-402q0 -75 17 -96t79 -21v-29h-308v29q62 0 78.5 21t16.5 96v308q0 75 -16.5 96t-78.5 21v29h658v-29q-62 0 -79 -21t-17 -96v-308q0 -75 17 -96t79 -21v-29h-308v29q62 0 78.5 21t16.5 96v402h-233z" />
    <glyph glyph-name="florin.caps" unicode="&#xf221;" horiz-adv-x="453" 
d="M281 172q0 -98 -40.5 -143.5t-122.5 -45.5q-65 0 -105 31t-41 64q0 34 34 34q18 0 28 -14t13.5 -30t17 -30t37.5 -14q32 0 49 34t17 122v109h-81v44h81v81q0 103 41 153t129 50q56 0 90.5 -28t34.5 -60q0 -17 -10 -29t-28 -12q-20 0 -31.5 14t-15.5 30t-14.5 30t-28.5 14
q-31 0 -42.5 -26.5t-11.5 -92.5v-124h101v-44h-101v-117z" />
    <glyph glyph-name="mu.caps" unicode="&#xf222;" horiz-adv-x="733" 
d="M239 14v-38q0 -75 14.5 -96t64.5 -21v-29h-270v29q50 0 64.5 21t14.5 96v478q0 75 -17 96t-79 21v29h317v-29q-63 0 -79.5 -20.5t-16.5 -96.5v-220q0 -93 43.5 -141t111.5 -48q67 0 107 48t40 141v220q0 76 -16.5 96.5t-79.5 20.5v29h245v-29q-62 0 -78.5 -21t-16.5 -96
v-231q0 -113 -68.5 -176.5t-172.5 -63.5q-73 0 -128 31z" />
    <glyph glyph-name="ordfeminine.caps" unicode="&#xf223;" horiz-adv-x="448" 
d="M123 325q-8 -19 0.5 -26t43.5 -7v-25h-152v25q32 0 45.5 8.5t26.5 35.5l127 278h19l128 -278q13 -27 25 -35.5t47 -8.5v-25h-202v25q35 0 44.5 7t-0.5 26l-18 40h-117zM198 491l-40 -89h82z" />
    <glyph glyph-name="ordmasculine.caps" unicode="&#xf224;" horiz-adv-x="507" 
d="M253 253q-82 0 -140.5 53t-58.5 127q0 75 58 127.5t141 52.5t141.5 -52.5t58.5 -127.5q0 -74 -58.5 -127t-141.5 -53zM253 576q-55 0 -82.5 -43.5t-27.5 -99.5q0 -55 27.5 -98.5t82.5 -43.5t82.5 43.5t27.5 98.5q0 56 -27.5 99.5t-82.5 43.5z" />
    <glyph glyph-name="colon.caps" unicode="&#xf225;" horiz-adv-x="285" 
d="M199 49q0 -23 -17 -40t-40 -17q-24 0 -40 16.5t-16 40.5t16 41t40 17q23 0 40 -17t17 -41zM199 280q0 -24 -17 -40.5t-40 -16.5q-24 0 -40 16.5t-16 40.5t16 41t40 17q23 0 40 -17t17 -41z" />
    <glyph glyph-name="semicolon.caps" unicode="&#xf226;" horiz-adv-x="278" 
d="M98 -128l-17 18q51 54 58 100h-5q-23 0 -39.5 17.5t-16.5 40.5t16.5 40.5t39.5 17.5q26 0 46 -19t20 -52q0 -42 -26.5 -87t-75.5 -76zM193 280q0 -24 -17 -40.5t-41 -16.5t-40 16.5t-16 40.5t16 41t40 17t41 -17t17 -41z" />
    <glyph glyph-name="questiondown.caps" unicode="&#xf227;" horiz-adv-x="513" 
d="M433 98q0 -52 -51.5 -84t-110.5 -32q-101 0 -162.5 56t-61.5 121q0 90 62 144t162 66v54h44v-174q-85 0 -139 -32t-54 -86q0 -44 42 -76.5t106 -32.5q42 0 67 15t25 30q0 22 -34 22q-19 0 -32 12.5t-13 30.5q0 25 22 38t43 13q32 0 58.5 -20.5t26.5 -64.5zM350 550
q0 -24 -17 -40.5t-40 -16.5q-24 0 -40 16.5t-16 40.5t16 41t40 17q23 0 40 -17t17 -41z" />
    <glyph glyph-name="exclamdown.caps" unicode="&#xf228;" horiz-adv-x="329" 
d="M243 59q0 -31 -23.5 -54t-54.5 -23t-53 23t-22 54q0 37 12.5 72.5t27.5 101.5t18 173h34q3 -84 13 -144.5t20.5 -86t19 -55.5t8.5 -61zM223 550q0 -24 -17 -40.5t-41 -16.5t-40 16.5t-16 40.5t16 41t40 17t41 -17t17 -41z" />
    <glyph glyph-name="endash.caps" unicode="&#xf229;" horiz-adv-x="525" 
d="M525 249h-526v78h526v-78z" />
    <glyph glyph-name="emdash.caps" unicode="&#xf22a;" horiz-adv-x="667" 
d="M667 249h-668v78h668v-78z" />
    <glyph glyph-name="hyphen.caps" unicode="&#xf22b;" 
d="M375 249h-292v78h292v-78z" />
    <glyph glyph-name="periodcentered.caps" unicode="&#xf22c;" horiz-adv-x="283" 
d="M142 353q27 0 45 -18.5t18 -45.5t-18 -45.5t-45 -18.5t-45.5 18.5t-18.5 45.5t18.5 45.5t45.5 18.5z" />
    <glyph glyph-name="guillemotleft.caps" unicode="&#xf22d;" horiz-adv-x="533" 
d="M332 111l-16 -21l-270 196l270 196l16 -20l-144 -176zM493 151l-15 -22l-220 157l220 157l15 -21l-111 -136z" />
    <glyph glyph-name="guillemotright.caps" unicode="&#xf22e;" horiz-adv-x="533" 
d="M202 111l143 175l-143 176l16 20l270 -196l-270 -196zM41 151l111 135l-111 136l14 21l220 -157l-220 -157z" />
    <glyph glyph-name="asciitilde.caps" unicode="&#xf22f;" horiz-adv-x="423" 
d="M298 305q44 0 58 54h21q0 -75 -24 -114t-68 -39q-25 0 -85 32.5t-79 32.5q-18 0 -34 -14.5t-22 -38.5h-21q0 69 23.5 109.5t62.5 40.5q27 0 86 -31.5t82 -31.5z" />
    <glyph glyph-name="guilsinglleft.caps" unicode="&#xf230;" horiz-adv-x="367" 
d="M333 111l-16 -21l-270 196l270 196l16 -20l-144 -176z" />
    <glyph glyph-name="guilsinglright.caps" unicode="&#xf231;" horiz-adv-x="367" 
d="M35 111l143 175l-143 176l16 20l270 -196l-270 -196z" />
    <glyph glyph-name="at.caps" unicode="&#xf233;" horiz-adv-x="708" 
d="M674 360q0 -101 -62 -176t-130 -75q-46 0 -69 40q-19 -19 -45 -31t-46 -12q-65 0 -96.5 55.5t-16.5 136.5q14 78 70 133t121 55q34 0 65 -16h67l-48 -267q-9 -44 19 -44q40 0 80 56t40 143q0 96 -64 153t-153 57q-116 0 -197.5 -87.5t-81.5 -202.5q0 -116 68.5 -189.5
t175.5 -73.5q102 0 210 68l19 -28q-116 -87 -237 -87q-136 0 -230.5 88t-94.5 219q0 145 104 248.5t250 103.5q122 0 202 -74t80 -193zM444 425q-19 17 -46 17q-37 0 -64.5 -44t-38.5 -104q-22 -136 43 -136q24 0 45.5 23.5t28.5 56.5z" />
    <glyph glyph-name="zero.ltab" unicode="&#xf235;" horiz-adv-x="550" 
d="M488 300q0 -131 -62.5 -224t-150.5 -93t-150 93t-62 224t62 224t150 93t150.5 -93t62.5 -224zM275 568q-31 0 -51 -42.5t-27.5 -100t-7.5 -125.5t7.5 -125.5t27.5 -100t51 -42.5t51 42.5t27.5 100t7.5 125.5t-7.5 125.5t-27.5 100t-51 42.5z" />
    <glyph glyph-name="one.ltab" unicode="&#xf236;" horiz-adv-x="550" 
d="M411 0h-271v29q50 0 64.5 21t14.5 96v300q0 70 -22 89t-78 19v29l213 34v-471q0 -75 14.5 -96t64.5 -21v-29z" />
    <glyph glyph-name="two.ltab" unicode="&#xf237;" horiz-adv-x="550" 
d="M75 0v24l158 199q93 117 93 232q0 50 -21 80t-64 30q-47 0 -68 -39t9 -93l-48 -40q-46 27 -62 66t-2 73.5t59 59.5t111 25q87 0 146.5 -50t59.5 -116q0 -15 -3.5 -30t-7 -26.5t-14 -29t-16 -26.5t-22.5 -29t-23.5 -27.5t-28 -32t-28.5 -32.5l-110 -126h133q63 0 84 14.5
t33 61.5h23l-30 -168h-361z" />
    <glyph glyph-name="three.ltab" unicode="&#xf238;" horiz-adv-x="550" 
d="M270 285q-6 -5 -14 -13.5t-13 -14.5t-12.5 -12t-13.5 -5.5t-15 5.5q-7 6 -8.5 12t4.5 15t9 12.5t13 14.5l56 58q25 26 38.5 57t13.5 55q0 46 -22.5 71.5t-60.5 25.5q-48 0 -70 -39t8 -99l-48 -31q-58 35 -62 87.5t46 92.5t133 40q89 0 148 -34.5t59 -96.5
q0 -85 -106 -147l-49 -28q75 -10 124 -56.5t49 -104.5q0 -76 -63.5 -121.5t-151.5 -45.5q-102 0 -158 59q-37 38 -26 68q6 14 25 18q17 3 31.5 -11.5t25 -34t35 -36.5t58.5 -17q42 0 63.5 34t21.5 87q0 96 -68 135z" />
    <glyph glyph-name="four.ltab" unicode="&#xf239;" horiz-adv-x="550" 
d="M358 625v-405h2q52 0 71.5 15.5t31.5 60.5l5 20h29l-9 -141h-130v-29q0 -75 16.5 -96t78.5 -21v-29h-304v29q63 0 79.5 20.5t16.5 96.5v29h-210v28l296 422h27zM245 220v203l-142 -203h142z" />
    <glyph glyph-name="five.ltab" unicode="&#xf23a;" horiz-adv-x="550" 
d="M151 330q13 21 45 37t63 16q92 0 151 -56.5t59 -143.5t-60.5 -143.5t-157.5 -56.5q-71 0 -119.5 39t-48.5 76q0 30 28 30q19 0 30.5 -15.5t18 -34t27.5 -34t56 -15.5q46 0 73.5 42t27.5 112t-27.5 110t-73.5 40q-36 0 -59 -18.5t-41 -71.5h-45l30 357h319l-14 -112h-266z
" />
    <glyph glyph-name="six.ltab" unicode="&#xf23b;" horiz-adv-x="550" 
d="M188 278q0 -246 94 -246q77 0 77 140q0 138 -86 138q-64 0 -85 -32zM188 332q31 26 85 26q84 0 147 -55t63 -132t-59 -132.5t-142 -55.5q-33 0 -66 12.5t-67.5 41t-56 88t-21.5 141.5q0 88 26.5 167t82.5 133t129 54q76 0 124 -43q36 -32 18 -55q-3 -5 -8 -8
q-12 -10 -26.5 -2t-23.5 21t-31.5 25.5t-51.5 12.5q-114 0 -122 -239z" />
    <glyph glyph-name="seven.ltab" unicode="&#xf23c;" horiz-adv-x="550" 
d="M471 600v-27l-229 -555q-16 -41 -48 -41q-23 0 -34 22t4 56l225 433h-171q-64 0 -84.5 -16t-31.5 -60l-5 -20h-21l30 208h365z" />
    <glyph glyph-name="eight.ltab" unicode="&#xf23d;" horiz-adv-x="550" 
d="M302 378q47 47 47 118q0 34 -22 54t-52 20q-29 0 -47.5 -19.5t-18.5 -44.5q0 -52 93 -128zM242 293q-71 -57 -71 -147q0 -46 28 -81t76 -35q43 0 69.5 29t26.5 70q0 40 -34 78.5t-95 85.5zM338 349q38 -29 55.5 -43.5t43.5 -41t37 -52t11 -54.5q0 -74 -62.5 -124.5
t-147.5 -50.5t-147.5 49.5t-62.5 121.5q0 32 10.5 57t35 46t42.5 32.5t54 30.5q-55 44 -83.5 78.5t-28.5 74.5q0 61 52.5 102.5t123.5 41.5q69 0 122.5 -38.5t53.5 -89.5q0 -46 -28.5 -77.5t-80.5 -62.5z" />
    <glyph glyph-name="nine.ltab" unicode="&#xf23e;" horiz-adv-x="550" 
d="M479 334q0 -88 -26.5 -167t-82.5 -133t-129 -54q-76 0 -124 44q-36 32 -18 55q3 4 8 7q14 7 21.5 4.5t18.5 -12.5t21 -21t29 -19.5t43 -8.5q113 0 123 239q-33 -26 -86 -26q-84 0 -147 55t-63 132q0 78 59 133t142 55q33 0 66 -12.5t67.5 -41t56 -88t21.5 -141.5z
M363 323q0 245 -95 245q-77 0 -77 -140q0 -138 86 -138q65 0 86 33z" />
    <glyph glyph-name="zero.otab" unicode="&#xf244;" horiz-adv-x="550" 
d="M488 217q0 -97 -62.5 -165.5t-150.5 -68.5t-150 68.5t-62 165.5t62 165t150 68t150.5 -68t62.5 -165zM275 403q-31 0 -51 -29.5t-27.5 -69.5t-7.5 -87q0 -48 7.5 -87.5t27.5 -69t51 -29.5t51 29.5t27.5 69t7.5 87.5q0 47 -7.5 87t-27.5 69.5t-51 29.5z" />
    <glyph glyph-name="one.otab" unicode="&#xf245;" horiz-adv-x="550" 
d="M428 0h-305v29q63 0 79.5 20.5t16.5 96.5v142q0 75 -16.5 95.5t-79.5 20.5v29h305v-29q-63 0 -79.5 -20.5t-16.5 -95.5v-142q0 -76 16.5 -96.5t79.5 -20.5v-29z" />
    <glyph glyph-name="two.otab" unicode="&#xf246;" horiz-adv-x="550" 
d="M348 163l-117 -71h237l-25 -171h-21q0 50 -21 64.5t-96 14.5h-231v24l188 154q68 57 68 125q0 42 -24 69t-68 27q-54 0 -76.5 -39t8.5 -102l-47 -31q-58 35 -60.5 88.5t49.5 94t136 40.5q98 0 156.5 -38.5t58.5 -95.5q0 -50 -32 -86t-83 -67z" />
    <glyph glyph-name="three.otab" unicode="&#xf247;" horiz-adv-x="550" 
d="M270 115q-6 -5 -14 -13.5t-13 -14.5t-12.5 -12t-13.5 -5.5t-15 5.5q-7 6 -8.5 12t4.5 15t9 12.5t13 14.5l56 58q25 25 38.5 56.5t13.5 55.5q0 46 -22.5 73t-60.5 27q-48 0 -70 -40.5t8 -100.5l-48 -31q-58 35 -62 88.5t46 94t133 40.5q89 0 148 -36t59 -98
q0 -85 -106 -147l-49 -28q75 -10 124 -56.5t49 -104.5q0 -76 -63.5 -121.5t-151.5 -45.5q-102 0 -158 59q-37 38 -26 67q6 15 25 18q14 3 25.5 -6t21.5 -24t21.5 -30.5t32.5 -26.5t49 -11q42 0 63.5 34t21.5 87q0 96 -68 135z" />
    <glyph glyph-name="four.otab" unicode="&#xf248;" horiz-adv-x="550" 
d="M358 492v-405h2q52 0 71.5 15.5t31.5 60.5l5 20h29l-9 -141h-130v-66q0 -75 16.5 -96t78.5 -21v-29h-304v29q63 0 79.5 20.5t16.5 96.5v66h-210v27l296 423h27zM245 87v203l-142 -203h142z" />
    <glyph glyph-name="five.otab" unicode="&#xf249;" horiz-adv-x="550" 
d="M318 433q65 0 85 15.5t31 60.5h23l-24 -188h-266l-16 -158q13 22 45 38t63 16q92 0 151 -56.5t59 -143.5t-60.5 -143.5t-157.5 -56.5q-71 0 -119.5 39t-48.5 76q0 29 28 29q19 0 30.5 -15.5t18 -34t27.5 -34t56 -15.5q46 0 73.5 42t27.5 113q0 70 -27.5 110t-73.5 40
q-36 0 -59 -18.5t-41 -71.5h-45l30 356h190z" />
    <glyph glyph-name="six.otab" unicode="&#xf24a;" horiz-adv-x="550" 
d="M188 278q0 -246 94 -246q77 0 77 140q0 138 -86 138q-64 0 -85 -32zM188 332q31 26 85 26q84 0 147 -55t63 -132t-59 -132.5t-142 -55.5q-33 0 -66 12.5t-67.5 41t-56 88t-21.5 141.5q0 88 26.5 167t82.5 133t129 54q76 0 124 -43q36 -32 18 -55q-3 -5 -8 -8
q-12 -10 -26.5 -2t-23.5 21t-31.5 25.5t-51.5 12.5q-114 0 -122 -239z" />
    <glyph glyph-name="seven.otab" unicode="&#xf24b;" horiz-adv-x="550" 
d="M471 442v-28l-233 -562q-17 -40 -48 -40q-23 0 -34 22t4 56l229 439h-171q-45 0 -68 -8.5t-31.5 -22.5t-15.5 -45l-5 -20h-21l41 288h21q0 -50 21 -64.5t96 -14.5h215z" />
    <glyph glyph-name="eight.otab" unicode="&#xf24c;" horiz-adv-x="550" 
d="M302 378q47 47 47 118q0 34 -22 54t-52 20q-29 0 -47.5 -19.5t-18.5 -44.5q0 -52 93 -128zM242 293q-71 -57 -71 -147q0 -46 28 -81t76 -35q43 0 69.5 29t26.5 70q0 40 -34 78.5t-95 85.5zM338 349q38 -29 55.5 -43.5t43.5 -41t37 -52t11 -54.5q0 -74 -62.5 -124.5
t-147.5 -50.5t-147.5 49.5t-62.5 121.5q0 32 10.5 57t35 46t42.5 32.5t54 30.5q-55 44 -83.5 78.5t-28.5 74.5q0 61 52.5 102.5t123.5 41.5q69 0 122.5 -38.5t53.5 -89.5q0 -46 -28.5 -77.5t-80.5 -62.5z" />
    <glyph glyph-name="nine.otab" unicode="&#xf24d;" horiz-adv-x="550" 
d="M479 168q0 -88 -26.5 -167.5t-82.5 -133.5t-129 -54q-76 0 -124 44q-36 32 -18 55q3 4 8 7q14 7 21.5 4.5t18.5 -12.5t21 -21t29 -19.5t43 -8.5q113 0 123 240q-34 -27 -86 -27q-84 0 -147 55.5t-63 132.5t59 132t142 55q33 0 66 -12.5t67.5 -41t56 -87.5t21.5 -141z
M363 156q0 246 -95 246q-77 0 -77 -140q0 -139 86 -139q64 0 86 33z" />
    <glyph glyph-name="a_e" unicode="&#xf26e;" horiz-adv-x="883" 
d="M626 229h133q3 32 -13.5 52.5t-47.5 20.5q-55 0 -72 -73zM261 88v85q-64 -17 -93.5 -36t-29.5 -54q0 -40 40 -40q32 0 83 45zM366 223q84 6 144 6q20 55 70 88t113 33q77 0 119 -54.5t25 -110.5h-218q-5 -72 25 -110.5t74 -38.5q70 0 118 42l17 -29q-27 -29 -68.5 -47.5
t-83.5 -18.5q-88 0 -145 53.5t-57 130.5q0 12 1 18q-96 -2 -134 -5v-101q0 -38 22 -38q10 0 29 12l14 -27q-49 -37 -93 -37q-66 0 -77 58q-45 -35 -69.5 -47.5t-56.5 -12.5q-38 0 -67 23t-29 61q0 60 57.5 93t164.5 49v1q0 53 -16 74t-49 21q-20 0 -37 -10.5t-17 -28.5
q0 -20 -11.5 -31.5t-28.5 -11.5t-28 11.5t-11 31.5q0 36 43.5 58t101.5 22q81 0 118.5 -30t39.5 -97z" />
    <glyph glyph-name="c_t" unicode="&#xf26f;" horiz-adv-x="716" 
d="M233 310q-69 -3 -69 -152q0 -60 27 -93t75 -33t101 46l17 -29q-61 -66 -149 -66q-83 0 -138 50t-55 125q0 85 53 137.5t129 54.5q-11 70 14.5 123.5t71 80t100.5 26.5q83 0 133.5 -45.5t50.5 -124.5v-77h87v-44h-87v-174q0 -72 45 -72q27 0 68 29l14 -29q-25 -23 -61 -40
t-62 -17q-54 0 -85 32t-31 90v181h-53v33l22 6q47 13 71.5 45.5t24.5 66.5q0 44 -36.5 79t-102.5 35q-70 0 -115 -61t-7 -152q36 -9 54 -29t18 -44q0 -16 -13 -31.5t-36 -15.5q-46 0 -71 70q-5 16 -5 19z" />
    <glyph glyph-name="c_k_y" unicode="&#xf270;" horiz-adv-x="1228" 
d="M903 254q-21 49 -55 49q-36 0 -81 -35l-76 -58l117 -141q34 -40 76 -40v-29h-141l-134 159v-21q0 -66 12.5 -87.5t50.5 -21.5v-29h-254v29q50 0 64.5 21t14.5 96v292q0 74 -14.5 95t-64.5 21q-60 0 -100 -34t-45.5 -81.5t13.5 -97.5q36 -9 54 -29t18 -44q0 -16 -13 -31.5
t-36 -15.5q-46 0 -71 70q-5 16 -5 19q-69 -3 -69 -152q0 -60 27 -93t75 -33t101 46l17 -29q-61 -66 -149 -66q-83 0 -138 50t-55 125q0 85 53 137.5t129 54.5q-16 105 42 167.5t152 74.5l191 25v-419l129 92q2 2 12 8.5t13 9t12.5 9t14 9l13.5 7.5t15 7.5t14.5 6t15.5 5
t15 2.5t16 1q57 0 88.5 -23.5t55.5 -77.5l58 -130l54 130q11 27 5 38.5t-34 11.5v29h148v-29q-50 0 -71 -50l-107 -261q-14 -32 -21.5 -50t-23.5 -49t-29 -49.5t-33.5 -41.5t-41.5 -35.5t-49 -21.5t-59 -9q-40 0 -67.5 21t-27.5 44q0 46 44 46q11 0 17.5 -8t9 -17.5
t13 -17.5t30.5 -8q62 0 106 48t79 141z" />
    <glyph glyph-name="e_e" unicode="&#xf271;" horiz-adv-x="858" 
d="M302 229q2 32 -14.5 52.5t-47.5 20.5q-55 0 -72 -73h134zM735 229q2 32 -14 52.5t-48 20.5q-54 0 -71 -73h133zM476 185h-314q-6 -72 24 -110.5t74 -38.5q71 0 118 42l18 -29q-27 -29 -69 -47.5t-84 -18.5q-88 0 -144.5 53.5t-56.5 130.5q0 78 56.5 130.5t136.5 52.5
q62 0 102 -36t46 -85h103q20 55 70 88t112 33q78 0 120 -54.5t25 -110.5h-218q-5 -72 24.5 -110.5t73.5 -38.5q71 0 119 42l17 -29q-27 -29 -69 -47.5t-83 -18.5q-88 0 -145 53.5t-57 130.5q0 12 1 18z" />
    <glyph glyph-name="f_f_y" unicode="&#xf272;" horiz-adv-x="1032" 
d="M884 124l54 130q12 27 5.5 38.5t-34.5 11.5v29h149v-29q-52 0 -71 -50l-108 -261q-18 -44 -30.5 -71t-36.5 -66.5t-48.5 -62t-61.5 -39.5t-79 -17q-40 0 -67.5 21t-27.5 44q0 46 43 46q11 0 17.5 -8t9 -17.5t13.5 -17.5t31 -8q62 0 106 48t79 141l-114 253q-21 50 -66 50
h-88v-143q0 -75 14.5 -96t64.5 -21v-29h-270v29q50 0 64.5 21t14.5 96v143h-224v-143q0 -75 14.5 -96t64.5 -21v-29h-271v29q50 0 64.5 21t14.5 96v143h-82v44h82v48q0 194 163 194q50 0 82 -25t32 -53q0 -16 -9.5 -27t-25.5 -11q-18 0 -28.5 12.5t-14 27t-13 27t-25.5 12.5
q-28 0 -38 -23.5t-10 -83.5v-98h224v81q0 103 40.5 153t128.5 50q56 0 91 -28t35 -60q0 -17 -10.5 -29t-28.5 -12q-20 0 -31.5 14t-15.5 30t-14.5 30t-28.5 14q-30 0 -42 -26.5t-12 -92.5v-124h300v-29q-31 0 -38.5 -11t5.5 -39z" />
    <glyph glyph-name="f_y" unicode="&#xf273;" horiz-adv-x="695" 
d="M548 124l54 130q11 27 5 38.5t-34 11.5v29h148v-29q-52 0 -71 -50l-107 -261q-19 -45 -31 -71t-36.5 -66t-49 -62.5t-61.5 -39.5t-79 -17q-40 0 -67.5 21t-27.5 44q0 46 43 46q11 0 17.5 -8t9 -17.5t13.5 -17.5t31 -8q62 0 106 48t79 141l-113 253q-22 50 -67 50h-87
v-143q0 -75 14.5 -96t64.5 -21v-29h-271v29q50 0 64.5 21t14.5 96v143h-82v44h82v81q0 103 40.5 153t128.5 50q56 0 91 -28t35 -60q0 -17 -10 -29t-28 -12q-20 0 -31.5 14t-15.5 30t-14.5 30t-28.5 14q-31 0 -42.5 -26.5t-11.5 -92.5v-124h300v-29q-32 0 -39 -11t5 -39z" />
    <glyph glyph-name="g_g_y" unicode="&#xf274;" horiz-adv-x="1178" 
d="M401 249q-13 3 -19.5 12t-8 18.5t-7 16.5t-16.5 7q-15 0 -31 -16q24 -29 24 -73q0 -52 -39 -91.5t-99 -44.5q-68 -6 -82 -15q-10 -6 -10 -18t17.5 -16.5t67.5 -9.5q14 -1 21 -2q87 -10 128.5 -51t41.5 -90q0 -64 -55 -103.5t-136 -39.5q-114 0 -162 53q-39 43 -6 89
q18 23 52 40l19 -11q-30 -32 -31.5 -58t18.5 -40.5t46.5 -22t53.5 -7.5q53 0 86 18.5t33 49.5q0 27 -30 42.5t-119 25.5q-125 13 -125 100q0 27 24 51t63 36q-33 15 -54 46t-21 69q0 56 44 96t105 40q60 0 104 -38q12 16 34.5 27t39.5 11q55 0 69 -42q11 -32 -9 -51
q-12 -13 -31 -8zM250 214q0 43 -14 69t-42 26q-27 0 -41.5 -26.5t-14.5 -68.5t14.5 -68.5t41.5 -26.5q28 0 42 26.5t14 68.5zM932 -233q-17 -37 -38 -37q-14 0 -27 8.5t-13 28.5q0 16 12 27t31.5 32t32.5 54l43 106l-120 268q-21 50 -66 50v29h219v-29q-32 0 -39 -11t6 -39
l58 -130l54 130q11 27 5 38.5t-34 11.5v29h148v-29q-50 0 -71 -50zM660 214q0 43 -14 69t-42 26q-27 0 -41.5 -26.5t-14.5 -68.5t14.5 -68.5t41.5 -26.5q28 0 42 26.5t14 68.5zM523 45q0 -12 17.5 -16.5t67.5 -9.5q14 -1 21 -2q87 -10 128.5 -51t41.5 -90q0 -64 -55 -103.5
t-136 -39.5q-116 0 -163 54q-38 44 -3 89q17 22 50 39l19 -11q-30 -32 -31.5 -58t18.5 -40.5t46.5 -22t53.5 -7.5q53 0 86 18.5t33 49.5q0 27 -30 42.5t-119 25.5q-125 13 -125 100q0 27 24 51t63 36q-33 15 -54 46t-21 69q0 56 44 96t105 40q50 0 94 -32q-18 80 15.5 126
t93.5 46q55 0 69 -42q11 -32 -9 -51q-12 -13 -31 -8q-13 3 -19.5 12t-8.5 18.5t-9 16.5t-20 7q-39 0 -51.5 -44.5t1.5 -111.5q24 -29 24 -73q0 -52 -39 -91.5t-99 -44.5q-68 -6 -82 -15q-10 -6 -10 -18z" />
    <glyph glyph-name="g_g" unicode="&#xf275;" horiz-adv-x="820" 
d="M250 214q0 43 -14 69t-42 26q-27 0 -41.5 -26.5t-14.5 -68.5t14.5 -68.5t41.5 -26.5q28 0 42 26.5t14 68.5zM426 389q-13 3 -19.5 12t-8.5 18.5t-9 16.5t-20 7q-39 0 -51.5 -44.5t1.5 -111.5q24 -29 24 -73q0 -52 -39 -91.5t-99 -44.5q-68 -6 -82 -15q-10 -6 -10 -18
t17.5 -16.5t67.5 -9.5q14 -1 21 -2q87 -10 128.5 -51t41.5 -90q0 -64 -55 -103.5t-136 -39.5q-114 0 -162 53q-39 43 -6 89q18 23 52 40l19 -11q-30 -32 -31.5 -58t18.5 -40.5t46.5 -22t53.5 -7.5q53 0 86 18.5t33 49.5q0 27 -30 42.5t-119 25.5q-125 13 -125 100
q0 27 24 51t63 36q-33 15 -54 46t-21 69q0 56 44 96t105 40q50 0 94 -32q-18 80 15.5 126t93.5 46q55 0 69 -42q11 -32 -9 -51q-12 -13 -31 -8zM660 214q0 43 -14 69t-42 26q-27 0 -41.5 -26.5t-14.5 -68.5t14.5 -68.5t41.5 -26.5q28 0 42 26.5t14 68.5zM669 343q91 0 91 57
q0 13 -7 20t-16 9t-18 8.5t-12 19.5q-7 30 23 41q33 10 58 -15q20 -20 20 -55q0 -45 -27 -76.5t-77 -37.5q49 -41 49 -100q0 -52 -39 -91.5t-99 -44.5q-68 -6 -82 -15q-10 -6 -10 -18t17.5 -16.5t67.5 -9.5q14 -1 21 -2q87 -10 128.5 -51t41.5 -90q0 -64 -55 -103.5
t-136 -39.5q-116 0 -163 54q-38 44 -3 89q17 22 50 39l19 -11q-30 -32 -31.5 -58t18.5 -40.5t46.5 -22t53.5 -7.5q53 0 86 18.5t33 49.5q0 27 -30 42.5t-119 25.5q-125 13 -125 100q0 27 24 51t63 36q-33 15 -54 46t-21 69q0 56 44 96t105 40q11 0 33.5 -3.5t31.5 -3.5z" />
    <glyph glyph-name="g_i" unicode="&#xf276;" horiz-adv-x="699" 
d="M250 206q0 42 -14 68.5t-42 26.5q-27 0 -41.5 -26.5t-14.5 -68.5t14.5 -68.5t41.5 -26.5q28 0 42 26.5t14 68.5zM278 318q-28 129 50.5 209.5t196.5 45.5q20 -6 43 -25t23 -46q0 -20 -14 -34.5t-34 -14.5q-31 0 -51 46q-20 42 -70 40q-55 -4 -90 -59q-47 -75 -14 -199
q25 -33 25 -75q0 -52 -39 -91.5t-99 -44.5q-70 -6 -84 -16q-8 -7 -8 -17q0 -18 82 -26q15 -2 24 -3q87 -9 128.5 -50t41.5 -91q0 -64 -55 -103t-136 -39q-114 0 -162 53q-39 43 -6 89q18 23 52 40l19 -11q-30 -32 -31.5 -58t18.5 -41t46.5 -22.5t53.5 -7.5q53 0 86 19t33 50
q0 27 -30 42.5t-119 24.5q-125 13 -125 100q0 27 24 51t63 37q-33 14 -54 45.5t-21 69.5q0 56 44 96t105 40q44 0 84 -24zM678 -8h-270v29q50 0 64.5 21t14.5 96v33q0 75 -14.5 96t-64.5 21v29l191 25v-204q0 -75 14.5 -96t64.5 -21v-29z" />
    <glyph glyph-name="g_y" unicode="&#xf277;" horiz-adv-x="768" 
d="M522 -233q-17 -37 -38 -37q-14 0 -27 8.5t-13 28.5q0 16 12 27t31.5 32t32.5 54l43 106l-120 268q-21 50 -66 50v29h219v-29q-32 0 -39 -11t6 -39l58 -130l54 130q11 27 5 38.5t-34 11.5v29h148v-29q-50 0 -71 -50zM250 214q0 43 -14 69t-42 26q-27 0 -41.5 -26.5
t-14.5 -68.5t14.5 -68.5t41.5 -26.5q28 0 42 26.5t14 68.5zM113 45q0 -12 17.5 -16.5t67.5 -9.5q14 -1 21 -2q87 -10 128.5 -51t41.5 -90q0 -64 -55 -103.5t-136 -39.5q-114 0 -162 53q-39 43 -6 89q18 23 52 40l19 -11q-30 -32 -31.5 -58t18.5 -40.5t46.5 -22t53.5 -7.5
q53 0 86 18.5t33 49.5q0 27 -30 42.5t-119 25.5q-125 13 -125 100q0 27 24 51t63 36q-33 15 -54 46t-21 69q0 56 44 96t105 40q50 0 94 -32q-18 80 15.5 126t93.5 46q55 0 69 -42q11 -32 -9 -51q-12 -13 -31 -8q-13 3 -19.5 12t-8.5 18.5t-9 16.5t-20 7q-39 0 -51.5 -44.5
t1.5 -111.5q24 -29 24 -73q0 -52 -39 -91.5t-99 -44.5q-68 -6 -82 -15q-10 -6 -10 -18z" />
    <glyph glyph-name="i_p" unicode="&#xf278;" horiz-adv-x="841" 
d="M668 167q0 61 -19 98.5t-56 37.5q-26 0 -46 -25t-20 -63v-97q0 -37 20 -62.5t46 -25.5q37 0 56 38t19 99zM472 440q0 44 -36.5 79t-102.5 35q-40 0 -66 -17.5t-48 -58.5q-5 -10 -19.5 -18t-26.5 -8q-23 0 -39.5 17t-16.5 41t18 39t54.5 21.5t67 8t78.5 1.5
q83 0 133.5 -45.5t50.5 -124.5v-96q38 36 90 36q83 0 132.5 -52.5t49.5 -130.5t-50 -131t-132 -53q-47 0 -82 30v-117q0 -75 14.5 -96t64.5 -21v-29h-271v29q50 0 64.5 21t14.5 96v283q0 75 -14.5 96t-64.5 21v29l39 6q49 7 73.5 41t24.5 68zM310 0h-271v29q50 0 64.5 21
t14.5 96v33q0 75 -14.5 96t-64.5 21v29l192 25v-204q0 -75 14.5 -96t64.5 -21v-29z" />
    <glyph glyph-name="i_t" unicode="&#xf279;" horiz-adv-x="633" 
d="M310 0h-271v29q50 0 64.5 21t14.5 96v33q0 75 -14.5 96t-64.5 21v29l192 25v-204q0 -75 14.5 -96t64.5 -21v-29zM219 477q-6 -10 -19.5 -17.5t-26.5 -7.5q-23 0 -39 17t-16 41t18 39t54.5 21.5t67 8t78.5 1.5q83 0 133.5 -45.5t50.5 -124.5v-77h87v-44h-87v-174
q0 -72 45 -72q27 0 68 29l14 -29q-25 -23 -61.5 -40t-61.5 -17q-54 0 -85 32t-31 90v181h-53v33l22 6q47 13 71.5 45.5t24.5 66.5q0 44 -37 79t-103 35q-42 0 -66 -17.5t-48 -59.5z" />
    <glyph glyph-name="k_y" unicode="&#xf27a;" horiz-adv-x="823" 
d="M676 124l54 130q11 27 5 38.5t-34 11.5v29h148v-29q-50 0 -71 -50l-107 -261q-14 -32 -21.5 -50t-23.5 -49t-29 -49.5t-33.5 -41.5t-41.5 -35.5t-49 -21.5t-59 -9q-40 0 -67.5 21t-27.5 44q0 46 44 46q11 0 17.5 -8t9 -17.5t13 -17.5t30.5 -8q62 0 106 48t79 141
l-120 268q-21 49 -55 49q-36 0 -81 -35l-76 -58l117 -141q34 -40 76 -40v-29h-141l-134 159v-21q0 -66 12.5 -87.5t50.5 -21.5v-29h-254v29q50 0 64.5 21t14.5 96v300q0 75 -14.5 96t-64.5 21v29l191 25v-419l129 92q30 21 44.5 30.5t43.5 22t53 12.5q57 0 88.5 -23.5
t55.5 -77.5z" />
    <glyph glyph-name="o_e" unicode="&#xf27b;" horiz-adv-x="928" 
d="M672 229h133q2 32 -14 52.5t-48 20.5q-54 0 -71 -73zM323 167q0 60 -20.5 98t-59.5 38t-59 -38t-20 -98t20 -98.5t59 -38.5t59.5 38.5t20.5 98.5zM433 229h123q20 55 70 88t112 33q78 0 120 -54.5t25 -110.5h-218q-5 -72 24.5 -110.5t73.5 -38.5q71 0 119 42l17 -29
q-27 -29 -69 -47.5t-83 -18.5q-88 0 -145 53.5t-57 130.5q0 12 1 18h-102q1 -6 1 -18q0 -76 -59.5 -130t-142.5 -54t-142 54t-59 130t59 129.5t142 53.5q64 0 116 -34t74 -87z" />
    <glyph glyph-name="p_y" unicode="&#xf27c;" horiz-adv-x="868" 
d="M338 167q0 60 -19 98t-56 38q-27 0 -47 -25t-20 -63v-97q0 -37 20 -62.5t47 -25.5q37 0 56 38.5t19 98.5zM460 167q0 -78 -50 -131t-132 -53q-47 0 -82 30v-117q0 -75 14.5 -96t64.5 -21v-29h-271v29q50 0 64.5 21t14.5 96v283q0 75 -14.5 96t-64.5 21v29l175 25
q3 -4 9 -36q38 36 90 36q83 0 132.5 -52.5t49.5 -130.5zM716 -7q-14 -32 -21.5 -50t-23.5 -49t-29 -49.5t-33.5 -41.5t-41.5 -35.5t-49 -21.5t-59 -9q-40 0 -67.5 21t-27.5 44q0 46 44 46q11 0 17.5 -8t9 -17.5t13 -17.5t30.5 -8q62 0 106 48t79 141l-120 268q-21 50 -66 50
v29h219v-29q-32 0 -39 -11t6 -39l58 -130l54 130q11 27 5 38.5t-34 11.5v29h148v-29q-50 0 -71 -50z" />
    <glyph glyph-name="s_p" unicode="&#xf27d;" horiz-adv-x="860" 
d="M688 167q0 60 -19 98t-56 38q-27 0 -47 -25t-20 -63v-97q0 -37 20 -62.5t47 -25.5q37 0 56 38.5t19 98.5zM393 331q48 7 73 40.5t25 68.5q0 46 -32.5 80t-97.5 34q-69 0 -110 -63.5t-3 -154.5q16 -8 25.5 -14.5t18 -19t8.5 -27.5q0 -13 -10.5 -25t-28.5 -12q-37 0 -57 55
q0 1 -1.5 6t-3.5 9q-5 2 -15 2q-21 0 -35 -9.5t-14 -24.5q0 -16 14 -26.5t55 -28.5l49 -23q37 -17 57 -44.5t20 -57.5q0 -56 -40.5 -84.5t-95.5 -28.5q-22 0 -44.5 7t-35 13.5t-23.5 10t-15.5 -3.5t-4.5 -27h-29v146h29q0 -36 37.5 -70t84.5 -34q24 0 38 11t14 28t-15 30
t-49 29l-56 25q-75 35 -75 102q0 51 36 75.5t82 24.5q15 0 22 -1q-3 19 -3 40q0 88 51 139.5t125 51.5q82 0 128.5 -45t46.5 -125v-96q38 36 90 36q83 0 132.5 -52.5t49.5 -130.5t-50 -131t-132 -53q-47 0 -82 30v-117q0 -75 14.5 -96t64.5 -21v-29h-271v29q50 0 64.5 21
t14.5 96v283q0 75 -14.5 96t-64.5 21v29z" />
    <glyph glyph-name="s_t" unicode="&#xf27e;" horiz-adv-x="661" 
d="M190 349q-3 19 -3 40q0 88 51 139.5t125 51.5q82 0 129 -45t47 -125v-77h87v-44h-87v-174q0 -72 45 -72q27 0 68 29l14 -29q-25 -23 -61 -40t-62 -17q-54 0 -85 32t-31 90v181h-53v33l22 6q47 13 71.5 45.5t24.5 66.5q0 45 -33 79.5t-98 34.5q-69 0 -110 -63.5t-3 -154.5
q16 -8 25.5 -14.5t18 -19t8.5 -27.5q0 -13 -10.5 -25t-28.5 -12q-37 0 -57 55q0 1 -1.5 6t-3.5 9q-5 2 -15 2q-21 0 -35 -9.5t-14 -24.5q0 -16 14 -26.5t55 -28.5l49 -23q37 -17 57 -44.5t20 -57.5q0 -56 -40.5 -84.5t-95.5 -28.5q-22 0 -44.5 7t-35 13.5t-23.5 10
t-15.5 -3.5t-4.5 -27h-29v146h29q0 -36 37.5 -70t84.5 -34q24 0 38 11t14 28t-15 30t-49 29l-56 25q-75 35 -75 102q0 51 36 75.5t82 24.5q15 0 22 -1z" />
    <glyph glyph-name="t_t_y" unicode="&#xf27f;" horiz-adv-x="963" 
d="M645 239q-22 50 -67 50h-86v-174q0 -72 45 -72q28 0 67 29l14 -29q-24 -23 -60.5 -40t-61.5 -17q-55 0 -86 32t-31 90v181h-190v-174q0 -72 45 -72q27 0 68 29l14 -29q-25 -23 -61 -40t-62 -17q-54 0 -85 32t-31 90v181h-53v33q48 10 87.5 52t43.5 96h34v-137h126
q62 0 99.5 41.5t43.5 95.5h34v-137h299v-29q-32 0 -39 -11t6 -39l58 -130l54 130q11 27 5 38.5t-34 11.5v29h148v-29q-50 0 -71 -50l-107 -261q-14 -32 -21.5 -50t-23.5 -49t-29 -49.5t-33.5 -41.5t-41.5 -35.5t-49 -21.5t-59 -9q-40 0 -67.5 21t-27.5 44q0 46 44 46
q11 0 17.5 -8t9 -17.5t13 -17.5t30.5 -8q62 0 106 48t79 141z" />
    <glyph glyph-name="t_t" unicode="&#xf280;" horiz-adv-x="605" 
d="M315 333q62 0 99.5 41.5t43.5 95.5h34v-137h86v-44h-86v-174q0 -72 45 -72q28 0 67 29l14 -29q-24 -23 -60.5 -40t-61.5 -17q-55 0 -86 32t-31 90v181h-190v-174q0 -72 45 -72q27 0 68 29l14 -29q-25 -23 -61 -40t-62 -17q-54 0 -85 32t-31 90v181h-53v33q48 10 87.5 52
t43.5 96h34v-137h126z" />
    <glyph glyph-name="t_y" unicode="&#xf281;" horiz-adv-x="661" 
d="M343 239q-22 50 -67 50h-87v-174q0 -72 45 -72q27 0 68 29l14 -29q-25 -23 -61 -40t-62 -17q-54 0 -85 32t-31 90v181h-53v33q48 10 87.5 52t43.5 96h34v-137h299v-29q-31 0 -38.5 -11t5.5 -39l58 -130l55 130q12 27 5 38.5t-35 11.5v29h149v-29q-52 0 -71 -50l-108 -261
q-18 -44 -30.5 -71t-36.5 -66.5t-48.5 -62t-61.5 -39.5t-79 -17q-40 0 -67.5 21t-27.5 44q0 46 43 46q11 0 17.5 -8t9 -17.5t13.5 -17.5t31 -8q62 0 106 48t79 141z" />
    <glyph glyph-name="t_w" unicode="&#xf282;" horiz-adv-x="808" 
d="M484 333v-29q-31 0 -38 -10.5t5 -39.5l41 -99l69 178h32l74 -178l38 99q11 28 5 39t-34 11v29h148v-29q-28 0 -44 -10.5t-27 -39.5l-105 -272h-20l-80 193l-75 -193h-20l-107 257q-13 29 -27 39.5t-40 10.5h-90v-174q0 -72 45 -72q27 0 68 29l14 -29q-25 -23 -61 -40
t-62 -17q-54 0 -85 32t-31 90v181h-53v33q47 10 86.5 50t44.5 87h34v-126h295z" />
    <glyph glyph-name="A_A" unicode="&#xf283;" horiz-adv-x="1033" 
d="M757 245l-80 183l-79 -183h159zM349 245l-80 183l-79 -183h159zM483 -17h-21l-94 217h-198l-41 -95q-19 -41 -2.5 -58.5t77.5 -17.5v-29h-242v29q52 0 76 17.5t47 70.5l217 500h21l194 -444l192 444h22l217 -500q24 -53 45.5 -70.5t77.5 -17.5v-29h-328v29q64 0 79.5 18
t-4.5 58l-42 95h-198z" />
    <glyph glyph-name="A_V" unicode="&#xf284;" horiz-adv-x="787" 
d="M349 245l-80 183l-79 -183h159zM517 170l141 325q19 41 2.5 58.5t-77.5 17.5v29h241v-29q-51 0 -75 -17.5t-47 -70.5l-217 -500h-22l-95 217h-198l-41 -95q-19 -41 -2.5 -58.5t77.5 -17.5v-29h-242v29q52 0 76 17.5t47 70.5l217 500h21z" />
    <glyph glyph-name="F_F" unicode="&#xf285;" horiz-adv-x="1138" 
d="M1113 600l9 -141h-29l-5 20q-8 30 -16.5 44t-32 23t-67.5 9h-169v-215h54q75 0 95.5 17t20.5 79h30v-237h-30q0 63 -20.5 79.5t-95.5 16.5h-54v-149q0 -75 16.5 -96t78.5 -21v-29h-316v29q62 0 79 21t17 96v292q0 75 -17 96t-79 21h-324v-215h55q75 0 95.5 17t20.5 79h29
v-237h-29q0 63 -20.5 79.5t-95.5 16.5h-55v-149q0 -75 17 -96t79 -21v-29h-316v29q62 0 78.5 21t16.5 96v308q0 75 -16.5 96t-78.5 21v29h1075z" />
    <glyph glyph-name="F_I" unicode="&#xf286;" horiz-adv-x="944" 
d="M907 600v-29q-63 0 -79.5 -20.5t-16.5 -96.5v-308q0 -76 16.5 -96.5t79.5 -20.5v-29h-317v29q62 0 79 21t17 96v292q0 75 -17 96t-79 21h-332v-215h55q75 0 95.5 17t20.5 79h29v-237h-29q0 63 -20.5 79.5t-95.5 16.5h-55v-149q0 -75 17 -96t79 -21v-29h-316v29
q62 0 78.5 21t16.5 96v308q0 75 -16.5 96t-78.5 21v29h869z" />
    <glyph glyph-name="F_L" unicode="&#xf287;" horiz-adv-x="1186" 
d="M907 600v-29q-63 0 -79.5 -20.5t-16.5 -96.5v-292q0 -76 16.5 -96.5t79.5 -20.5h115q44 0 67.5 9t32 23t16.5 44l5 20h29l-9 -141h-573v29q62 0 79 21t17 96v292q0 75 -17 96t-79 21h-332v-215h55q75 0 95.5 17t20.5 79h29v-237h-29q0 63 -20.5 79.5t-95.5 16.5h-55v-149
q0 -75 17 -96t79 -21v-29h-316v29q62 0 78.5 21t16.5 96v308q0 75 -16.5 96t-78.5 21v29h869z" />
    <glyph glyph-name="H_E" unicode="&#xf288;" horiz-adv-x="1073" 
d="M565 296h-307v-150q0 -75 17 -96t79 -21v-29h-316v29q62 0 78.5 21t16.5 96v308q0 75 -16.5 96t-78.5 21v29h316v-29q-62 0 -79 -21t-17 -96v-113h307v113q0 76 -16.5 96.5t-79.5 20.5v29h515l9 -141h-30l-5 20q-11 44 -31 60t-84 16h-153v-215h54q75 0 96 17t21 79h29
v-237h-29q0 63 -20.5 79.5t-96.5 16.5h-54v-133q0 -75 17 -96t79 -21h90q64 0 84 15.5t32 60.5l5 20h29l-8 -141h-549v29q63 0 79.5 20.5t16.5 96.5v150z" />
    <glyph glyph-name="L_A" unicode="&#xf289;" horiz-adv-x="1117" 
d="M841 245l-80 183l-79 -183h159zM38 0v29q62 0 78.5 21t16.5 96v308q0 75 -16.5 96t-78.5 21v29h316v-29q-62 0 -79 -21t-17 -96v-292q0 -75 17 -96t79 -21h73h34q51 0 75.5 17.5t46.5 70.5l210 484h22l218 -500q23 -53 44.5 -70.5t77.5 -17.5v-29h-328v29q64 0 79.5 18
t-4.5 58l-42 95h-198l-41 -95q-19 -41 -2.5 -58.5t77.5 -17.5v-29h-658z" />
    <glyph glyph-name="M_B" unicode="&#xf28a;" horiz-adv-x="1120" 
d="M813 45q61 1 93 36t32 89t-33 89.5t-95 35.5h-88v-139q0 -71 16 -90.5t75 -20.5zM722 555v-215h56q54 0 82 30t28 77q0 46 -28 77t-82 31h-56zM501 0v29q62 0 79 21t17 96v289l-196 -452h-22l-201 451v-288q0 -75 17 -96t79 -21v-29h-236v29q62 0 78.5 21t16.5 96v308
q0 75 -16.5 96t-78.5 21v29h200l193 -433l187 433h223q81 0 131 -43t50 -107q0 -81 -74 -124q57 -18 90.5 -61t33.5 -97q0 -71 -56 -119.5t-147 -48.5h-368z" />
    <glyph glyph-name="M_D" unicode="&#xf28b;" horiz-adv-x="1210" 
d="M722 555v-397q0 -73 16.5 -93t79.5 -20h10q57 0 97.5 23t60.5 63t28.5 81t8.5 88t-8.5 88t-28.5 81t-60.5 63t-97.5 23h-106zM501 0v29q62 0 79 21t17 96v289l-196 -452h-22l-201 451v-288q0 -75 17 -96t79 -21v-29h-236v29q62 0 78.5 21t16.5 96v308q0 75 -16.5 96
t-78.5 21v29h200l193 -433l187 433h213q166 0 249.5 -84t83.5 -216t-83.5 -216t-249.5 -84h-330z" />
    <glyph glyph-name="M_E" unicode="&#xf28c;" horiz-adv-x="1104" 
d="M1016 600l8 -141h-29l-5 20q-7 30 -15.5 44t-32 23t-68.5 9h-152v-215h54q75 0 96 17t21 79h29v-237h-29q0 63 -20.5 79.5t-96.5 16.5h-54v-133q0 -76 16.5 -96.5t79.5 -20.5h90q64 0 84 16t31 60l5 20h30l-9 -141h-548v29q62 0 79 21t17 96v289l-196 -452h-22l-201 451
v-288q0 -75 17 -96t79 -21v-29h-236v29q62 0 78.5 21t16.5 96v308q0 75 -16.5 96t-78.5 21v29h200l193 -433l187 433h398z" />
    <glyph glyph-name="M_P" unicode="&#xf28d;" horiz-adv-x="1062" 
d="M777 308q62 0 94.5 34.5t32.5 88.5t-32.5 89t-94.5 35h-55v-247h55zM501 0v29q62 0 79 21t17 96v289l-196 -452h-22l-201 451v-288q0 -75 17 -96t79 -21v-29h-236v29q62 0 78.5 21t16.5 96v308q0 75 -16.5 96t-78.5 21v29h200l193 -433l187 433h218q91 0 146.5 -48.5
t55.5 -120.5t-55.5 -120t-146.5 -48h-114v-117q0 -76 16.5 -96.5t79.5 -20.5v-29h-317z" />
    <glyph glyph-name="N_K" unicode="&#xf28e;" horiz-adv-x="1152" 
d="M622 -17h-30l-414 494v-331q0 -75 17 -96t79 -21v-29h-236v29q62 0 78.5 21t16.5 96v308q0 75 -16.5 96t-78.5 21v29h200l275 -329v183q0 75 -16.5 96t-78.5 21v29h300v-29q-63 0 -79.5 -20.5t-16.5 -96.5v-134l209 169q12 10 23 22t19.5 26.5t-0.5 24t-38 9.5v29h241
v-29q-40 0 -72.5 -11.5t-50.5 -24.5t-60 -46l-143 -114l278 -287q24 -24 64.5 -41.5t64.5 -17.5v-29h-333v29q42 0 53 14t-15 45l-198 214l-42 -35v-284z" />
    <glyph glyph-name="N_T" unicode="&#xf28f;" horiz-adv-x="1308" 
d="M1291 600l8 -141h-29l-5 20q-7 30 -15.5 44t-32 23t-68.5 9h-100v-409q0 -75 17 -96t79 -21v-29h-317v29q63 0 79.5 20.5t16.5 96.5v409h-211q-63 0 -79.5 -20.5t-16.5 -96.5v-455h-25l-414 494v-331q0 -75 17 -96t79 -21v-29h-236v29q62 0 78.5 21t16.5 96v308
q0 75 -16.5 96t-78.5 21v29h200l334 -398v252q0 75 -17 96t-79 21v29h815z" />
    <glyph glyph-name="O_C" unicode="&#xf290;" horiz-adv-x="975" 
d="M469 53q-54 44 -84.5 108.5t-30.5 138.5q0 73 30.5 137.5t84.5 109.5q-39 22 -90 22q-70 0 -119 -43t-69 -102t-20 -124t20 -124t69 -102t119 -43q51 0 90 22zM529 493q-48 -73 -48 -193t48 -193q59 76 59 193t-59 193zM585 548q60 -44 94 -108.5t34 -139.5
q0 -74 -34 -139t-94 -109q35 -21 80 -21q75 0 131 52.5t77 147.5h29v-220h-29q-9 45 -25 57q-83 -85 -187 -85q-71 0 -135 33q-69 -33 -147 -33q-137 0 -235 93t-98 224t98 224t235 93q78 0 147 -33q64 33 135 33q105 0 187 -85q16 14 25 57h29v-220h-29q-21 96 -76.5 148
t-131.5 52q-45 0 -80 -21z" />
    <glyph glyph-name="O_G" unicode="&#xf291;" horiz-adv-x="1008" 
d="M469 53q-54 44 -84.5 108.5t-30.5 138.5q0 73 30.5 137.5t84.5 109.5q-39 22 -90 22q-70 0 -119 -43t-69 -102t-20 -124t20 -124t69 -102t119 -43q51 0 90 22zM529 493q-48 -73 -48 -193t48 -193q59 76 59 193t-59 193zM585 548q60 -44 94 -108.5t34 -139.5
q0 -74 -34 -139t-94 -109q35 -21 80 -21q65 0 107.5 30t42.5 94q0 33 -14 48.5t-47 15.5v29h263v-29q-63 0 -79.5 -20.5t-16.5 -95.5v-68q-61 0 -136.5 -26t-123.5 -26q-71 0 -135 33q-69 -33 -147 -33q-137 0 -235 93t-98 224t98 224t235 93q78 0 147 -33q64 33 135 33
q105 0 187 -85q16 14 25 57h29v-220h-29q-21 96 -76.5 148t-131.5 52q-45 0 -80 -21z" />
    <glyph glyph-name="O_O" unicode="&#xf292;" horiz-adv-x="1067" 
d="M533 488q-54 -77 -54 -188t54 -188q55 77 55 188t-55 188zM533 581q75 36 155 36q137 0 235 -93t98 -224t-98 -224t-235 -93q-78 0 -155 36q-74 -36 -154 -36q-137 0 -235 93t-98 224t98 224t235 93q79 0 154 -36zM475 57q-56 45 -88.5 108.5t-32.5 134.5q0 72 32.5 136
t88.5 107q-41 26 -96 26q-70 0 -119 -43t-69 -102t-20 -124t20 -124t69 -102t119 -43q55 0 96 26zM592 543q56 -45 88.5 -108t32.5 -135t-32.5 -136t-88.5 -107q40 -26 96 -26q70 0 119 43t69 102t20 124t-20 124t-69 102t-119 43q-56 0 -96 -26z" />
    <glyph glyph-name="T_H_E" unicode="&#xf293;" horiz-adv-x="1198" 
d="M690 296h-307v-150q0 -75 17 -96t79 -21v-29h-316v29q62 0 78.5 21t16.5 96v409h-100q-64 0 -84 -16t-31 -60l-5 -20h-30l9 141h462v-29q-62 0 -79 -21t-17 -96v-113h307v113q0 76 -16.5 96.5t-79.5 20.5v29h515l9 -141h-30l-5 20q-11 44 -31 60t-84 16h-153v-215h54
q75 0 96 17t21 79h29v-237h-29q0 63 -20.5 79.5t-96.5 16.5h-54v-133q0 -75 17 -96t79 -21h90q64 0 84 15.5t32 60.5l5 20h29l-8 -141h-549v29q63 0 79.5 20.5t16.5 96.5v150z" />
    <glyph glyph-name="T_h" unicode="&#xf294;" horiz-adv-x="1108" 
d="M383 555v-409q0 -75 17 -96t79 -21v-29h-316v29q62 0 78.5 21t16.5 96v409h-100q-64 0 -84 -16t-31 -60l-5 -20h-30l9 141h557q41 0 90.5 4t79.5 8l29 5v-321q46 54 119 54q66 0 105 -42t39 -107v-55q0 -75 14.5 -96t64.5 -21v-29h-231v29q21 0 30 23.5t9 93.5v42
q0 53 -13 79.5t-48 26.5q-34 0 -61.5 -26t-27.5 -73v-49q0 -75 14.5 -96t65.5 -21v-29h-271v29q50 0 64.5 21t14.5 96v292q0 75 -14.5 96t-64.5 21h-199z" />
    <glyph glyph-name="T_E" unicode="&#xf295;" horiz-adv-x="766" 
d="M678 600l8 -141h-29l-5 20q-12 45 -32 60.5t-84 15.5h-153v-215h55q75 0 95.5 17t20.5 79h29v-237h-29q0 63 -20.5 79.5t-95.5 16.5h-55v-133q0 -75 17 -96t79 -21h90q45 0 68.5 9t32 23t15.5 44l5 20h29l-8 -141h-548v29q62 0 78.5 21t16.5 96v409h-100q-64 0 -84 -16
t-31 -60l-5 -20h-30l9 141h661z" />
    <glyph glyph-name="T_R" unicode="&#xf296;" horiz-adv-x="803" 
d="M438 308q62 0 95 34.5t33 88.5t-33 89t-95 35h-55v-247h55zM163 0v29q62 0 78.5 21t16.5 96v409h-100q-64 0 -84 -16t-31 -60l-5 -20h-30l9 141h481q91 0 146.5 -48.5t55.5 -120.5q0 -66 -48.5 -113.5t-128.5 -54.5l97 -106q65 -71 102.5 -96.5t84.5 -31.5v-29h-217
l-178 263h-29v-117q0 -75 17 -96t79 -21v-29h-316z" />
    <glyph glyph-name="T_T" unicode="&#xf297;" horiz-adv-x="1183" 
d="M1167 600l8 -141h-29l-5 20q-7 30 -15.5 44t-32 23t-68.5 9h-100v-409q0 -75 17 -96t79 -21v-29h-317v29q63 0 79.5 20.5t16.5 96.5v409h-417v-409q0 -75 17 -96t79 -21v-29h-316v29q62 0 78.5 21t16.5 96v409h-100q-64 0 -84 -16t-31 -60l-5 -20h-30l9 141h1150z" />
    <glyph glyph-name="T_W" unicode="&#xf298;" horiz-adv-x="1353" 
d="M865 600v-29q-61 0 -76.5 -16t-1.5 -60l91 -281l122 386h23l125 -387l92 282q14 41 -1.5 58.5t-68.5 17.5v29h233v-29q-60 0 -81 -17t-38 -71l-161 -500h-22l-126 387l-123 -387h-22l-157 485q-17 54 -37.5 70.5t-81.5 16.5h-23h-148v-409q0 -75 17 -96t79 -21v-29h-316
v29q62 0 78.5 21t16.5 96v409h-100q-64 0 -84 -16t-31 -60l-5 -20h-30l9 141h848z" />
    <glyph glyph-name="T_Y" unicode="&#xf299;" horiz-adv-x="1200" 
d="M873 600v-29q-106 0 -54 -76l113 -169l111 169q28 41 16.5 58.5t-69.5 17.5v29h242v-29q-59 0 -84 -17t-60 -71l-144 -216v-121q0 -75 17 -96t79 -21v-29h-312v29q62 0 78.5 21t16.5 96v118l-134 204q-35 53 -63.5 70t-80.5 17h-57h-105v-409q0 -75 17 -96t79 -21v-29
h-316v29q62 0 78.5 21t16.5 96v409h-100q-64 0 -84 -16t-31 -60l-5 -20h-30l9 141h856z" />
    <glyph glyph-name="U_B" unicode="&#xf29a;" horiz-adv-x="1078" 
d="M770 45q61 1 93 36t32 89t-32.5 89.5t-94.5 35.5h-89v-139q0 -70 16 -90t75 -21zM679 555v-215h56q54 0 82 30t28 77q0 46 -28 77t-82 31h-56zM554 0v63q-66 -80 -187 -80q-104 0 -172 63t-68 177v231q0 75 -17 96t-79 21v29h317v-29q-63 0 -79.5 -20.5t-16.5 -96.5v-220
q0 -93 43.5 -141t111.5 -48q67 0 107 48t40 141v220q0 76 -16.5 96.5t-79.5 20.5v29h340q81 0 131 -43t50 -107q0 -81 -74 -124q58 -18 91 -60.5t33 -97.5q0 -72 -55.5 -120t-146.5 -48h-273z" />
    <glyph glyph-name="U_D" unicode="&#xf29b;" horiz-adv-x="1168" 
d="M679 555v-397q0 -73 17 -93t79 -20h10q47 0 82.5 16t56.5 41t34 60t17.5 68t4.5 70t-4.5 70t-17.5 68t-34 60t-56.5 41t-82.5 16h-106zM554 0v63q-66 -80 -187 -80q-104 0 -172 63t-68 177v231q0 75 -17 96t-79 21v29h317v-29q-63 0 -79.5 -20.5t-16.5 -96.5v-220
q0 -93 43.5 -141t111.5 -48q67 0 107 48t40 141v220q0 76 -16.5 96.5t-79.5 20.5v29h330q166 0 250 -84t84 -216t-84 -216t-250 -84h-234z" />
    <glyph glyph-name="U_L" unicode="&#xf29c;" horiz-adv-x="1054" 
d="M775 600v-29q-62 0 -79 -21t-17 -96v-292q0 -75 17 -96t79 -21h115q45 0 68.5 9t32 23t15.5 44l5 20h29l-8 -141h-478v63q-66 -80 -187 -80q-104 0 -172 63t-68 177v231q0 75 -17 96t-79 21v29h317v-29q-63 0 -79.5 -20.5t-16.5 -96.5v-220q0 -93 43.5 -141t111.5 -48
q67 0 107 48t40 141v220q0 76 -16.5 96.5t-79.5 20.5v29h317z" />
    <glyph glyph-name="U_P" unicode="&#xf29d;" horiz-adv-x="1019" 
d="M734 308q62 0 95 34.5t33 88.5t-33 89t-95 35h-55v-247h55zM554 0v63q-66 -80 -187 -80q-104 0 -172 63t-68 177v231q0 75 -17 96t-79 21v29h317v-29q-63 0 -79.5 -20.5t-16.5 -96.5v-220q0 -93 43.5 -141t111.5 -48q67 0 107 48t40 141v220q0 76 -16.5 96.5t-79.5 20.5
v29h335q91 0 147 -48.5t56 -120.5t-55.5 -120t-147.5 -48h-114v-117q0 -75 17 -96t79 -21v-29h-221z" />
    <glyph glyph-name="U_R" unicode="&#xf29e;" horiz-adv-x="1099" 
d="M734 308q62 0 95 34.5t33 88.5t-33 89t-95 35h-55v-247h55zM554 0v63q-66 -80 -187 -80q-104 0 -172 63t-68 177v231q0 75 -17 96t-79 21v29h317v-29q-63 0 -79.5 -20.5t-16.5 -96.5v-220q0 -93 43.5 -141t111.5 -48q67 0 107 48t40 141v220q0 76 -16.5 96.5t-79.5 20.5
v29h335q91 0 147 -48.5t56 -120.5q0 -66 -48.5 -113.5t-129.5 -54.5l98 -106q65 -71 102.5 -96.5t84.5 -31.5v-29h-217l-178 263h-29v-117q0 -75 17 -96t79 -21v-29h-221z" />
    <glyph glyph-name="V_A" unicode="&#xf29f;" horiz-adv-x="872" 
d="M910 0h-328v29q64 0 79.5 18t-4.5 58l-42 95h-198l-94 -217h-21l-218 500q-23 53 -44.5 70.5t-77.5 17.5v29h328v-29q-64 0 -79.5 -18t4.5 -58l140 -325l193 447h22l218 -500q23 -53 44.5 -70.5t77.5 -17.5v-29zM596 245l-80 183l-79 -183h159z" />
    <glyph glyph-name="aacute_e" unicode="&#xf2a0;" horiz-adv-x="883" 
d="M626 229h133q3 32 -13.5 52.5t-47.5 20.5q-55 0 -72 -73zM261 88v85q-64 -17 -93.5 -36t-29.5 -54q0 -40 40 -40q32 0 83 45zM366 223q84 6 144 6q20 55 70 88t113 33q77 0 119 -54.5t25 -110.5h-218q-5 -72 25 -110.5t74 -38.5q70 0 118 42l17 -29q-27 -29 -68.5 -47.5
t-83.5 -18.5q-88 0 -145 53.5t-57 130.5q0 12 1 18q-96 -2 -134 -5v-101q0 -38 22 -38q10 0 29 12l14 -27q-49 -37 -93 -37q-66 0 -77 58q-45 -35 -69.5 -47.5t-56.5 -12.5q-38 0 -67 23t-29 61q0 60 57.5 93t164.5 49v1q0 53 -16 74t-49 21q-20 0 -37 -10.5t-17 -28.5
q0 -20 -11.5 -31.5t-28.5 -11.5t-28 11.5t-11 31.5q0 36 43.5 58t101.5 22q81 0 118.5 -30t39.5 -97zM363 522q0 -26 -30 -39l-179 -76l-6 9l121 113q33 30 58 30q17 0 26.5 -11.5t9.5 -25.5z" />
    <glyph glyph-name="agrave_e" unicode="&#xf2a1;" horiz-adv-x="883" 
d="M626 229h133q3 32 -13.5 52.5t-47.5 20.5q-55 0 -72 -73zM261 88v85q-64 -17 -93.5 -36t-29.5 -54q0 -40 40 -40q32 0 83 45zM366 223q84 6 144 6q20 55 70 88t113 33q77 0 119 -54.5t25 -110.5h-218q-5 -72 25 -110.5t74 -38.5q70 0 118 42l17 -29q-27 -29 -68.5 -47.5
t-83.5 -18.5q-88 0 -145 53.5t-57 130.5q0 12 1 18q-96 -2 -134 -5v-101q0 -38 22 -38q10 0 29 12l14 -27q-49 -37 -93 -37q-66 0 -77 58q-45 -35 -69.5 -47.5t-56.5 -12.5q-38 0 -67 23t-29 61q0 60 57.5 93t164.5 49v1q0 53 -16 74t-49 21q-20 0 -37 -10.5t-17 -28.5
q0 -20 -11.5 -31.5t-28.5 -11.5t-28 11.5t-11 31.5q0 36 43.5 58t101.5 22q81 0 118.5 -30t39.5 -97zM298 416l-7 -9l-179 76q-30 13 -30 39q0 14 9.5 25.5t26.5 11.5q25 0 58 -30z" />
    <glyph glyph-name="acircumflex_e" unicode="&#xf2a2;" horiz-adv-x="883" 
d="M626 229h133q3 32 -13.5 52.5t-47.5 20.5q-55 0 -72 -73zM261 88v85q-64 -17 -93.5 -36t-29.5 -54q0 -40 40 -40q32 0 83 45zM366 223q84 6 144 6q20 55 70 88t113 33q77 0 119 -54.5t25 -110.5h-218q-5 -72 25 -110.5t74 -38.5q70 0 118 42l17 -29q-27 -29 -68.5 -47.5
t-83.5 -18.5q-88 0 -145 53.5t-57 130.5q0 12 1 18q-96 -2 -134 -5v-101q0 -38 22 -38q10 0 29 12l14 -27q-49 -37 -93 -37q-66 0 -77 58q-45 -35 -69.5 -47.5t-56.5 -12.5q-38 0 -67 23t-29 61q0 60 57.5 93t164.5 49v1q0 53 -16 74t-49 21q-20 0 -37 -10.5t-17 -28.5
q0 -20 -11.5 -31.5t-28.5 -11.5t-28 11.5t-11 31.5q0 36 43.5 58t101.5 22q81 0 118.5 -30t39.5 -97zM369 423l-15 -15l-128 84l-128 -84l-15 15l143 155z" />
    <glyph glyph-name="adieresis_e" unicode="&#xf2a3;" horiz-adv-x="883" 
d="M626 229h133q3 32 -13.5 52.5t-47.5 20.5q-55 0 -72 -73zM261 88v85q-64 -17 -93.5 -36t-29.5 -54q0 -40 40 -40q32 0 83 45zM366 223q84 6 144 6q20 55 70 88t113 33q77 0 119 -54.5t25 -110.5h-218q-5 -72 25 -110.5t74 -38.5q70 0 118 42l17 -29q-27 -29 -68.5 -47.5
t-83.5 -18.5q-88 0 -145 53.5t-57 130.5q0 12 1 18q-96 -2 -134 -5v-101q0 -38 22 -38q10 0 29 12l14 -27q-49 -37 -93 -37q-66 0 -77 58q-45 -35 -69.5 -47.5t-56.5 -12.5q-38 0 -67 23t-29 61q0 60 57.5 93t164.5 49v1q0 53 -16 74t-49 21q-20 0 -37 -10.5t-17 -28.5
q0 -20 -11.5 -31.5t-28.5 -11.5t-28 11.5t-11 31.5q0 36 43.5 58t101.5 22q81 0 118.5 -30t39.5 -97zM324 510q22 0 36.5 -14.5t14.5 -36.5q0 -21 -14.5 -36t-36.5 -15q-21 0 -36 15t-15 36q0 22 15 36.5t36 14.5zM125 510q21 0 36 -14.5t15 -36.5q0 -21 -15 -36t-36 -15
q-20 0 -35.5 15t-15.5 36t15 36t36 15z" />
    <glyph glyph-name="atilde_e" unicode="&#xf2a4;" horiz-adv-x="883" 
d="M626 229h133q3 32 -13.5 52.5t-47.5 20.5q-55 0 -72 -73zM261 88v85q-64 -17 -93.5 -36t-29.5 -54q0 -40 40 -40q32 0 83 45zM366 223q84 6 144 6q20 55 70 88t113 33q77 0 119 -54.5t25 -110.5h-218q-5 -72 25 -110.5t74 -38.5q70 0 118 42l17 -29q-27 -29 -68.5 -47.5
t-83.5 -18.5q-88 0 -145 53.5t-57 130.5q0 12 1 18q-96 -2 -134 -5v-101q0 -38 22 -38q10 0 29 12l14 -27q-49 -37 -93 -37q-66 0 -77 58q-45 -35 -69.5 -47.5t-56.5 -12.5q-38 0 -67 23t-29 61q0 60 57.5 93t164.5 49v1q0 53 -16 74t-49 21q-20 0 -37 -10.5t-17 -28.5
q0 -20 -11.5 -31.5t-28.5 -11.5t-28 11.5t-11 31.5q0 36 43.5 58t101.5 22q81 0 118.5 -30t39.5 -97zM304 460q39 0 52 57h19q0 -56 -22 -87.5t-60 -31.5q-23 0 -77 32.5t-71 32.5q-16 0 -30 -16t-21 -39h-18q0 52 22.5 85t54.5 33q25 0 77.5 -33t73.5 -33z" />
    <glyph glyph-name="aring_e" unicode="&#xf2a5;" horiz-adv-x="883" 
d="M626 229h133q3 32 -13.5 52.5t-47.5 20.5q-55 0 -72 -73zM261 88v85q-64 -17 -93.5 -36t-29.5 -54q0 -40 40 -40q32 0 83 45zM366 223q84 6 144 6q20 55 70 88t113 33q77 0 119 -54.5t25 -110.5h-218q-5 -72 25 -110.5t74 -38.5q70 0 118 42l17 -29q-27 -29 -68.5 -47.5
t-83.5 -18.5q-88 0 -145 53.5t-57 130.5q0 12 1 18q-96 -2 -134 -5v-101q0 -38 22 -38q10 0 29 12l14 -27q-49 -37 -93 -37q-66 0 -77 58q-45 -35 -69.5 -47.5t-56.5 -12.5q-38 0 -67 23t-29 61q0 60 57.5 93t164.5 49v1q0 53 -16 74t-49 21q-20 0 -37 -10.5t-17 -28.5
q0 -20 -11.5 -31.5t-28.5 -11.5t-28 11.5t-11 31.5q0 36 43.5 58t101.5 22q81 0 118.5 -30t39.5 -97zM226 606q41 0 70 -29t29 -70t-29 -70t-70 -29t-70 29t-29 70t29 70t70 29zM226 553q-19 0 -32.5 -13.5t-13.5 -32.5t13.5 -32.5t32.5 -13.5t32.5 13.5t13.5 32.5
t-13.5 32.5t-32.5 13.5z" />
    <glyph glyph-name="a_eacute" unicode="&#xf2a6;" horiz-adv-x="883" 
d="M626 229h133q3 32 -13.5 52.5t-47.5 20.5q-55 0 -72 -73zM261 88v85q-64 -17 -93.5 -36t-29.5 -54q0 -40 40 -40q32 0 83 45zM366 223q84 6 144 6q20 55 70 88t113 33q77 0 119 -54.5t25 -110.5h-218q-5 -72 25 -110.5t74 -38.5q70 0 118 42l17 -29q-27 -29 -68.5 -47.5
t-83.5 -18.5q-88 0 -145 53.5t-57 130.5q0 12 1 18q-96 -2 -134 -5v-101q0 -38 22 -38q10 0 29 12l14 -27q-49 -37 -93 -37q-66 0 -77 58q-45 -35 -69.5 -47.5t-56.5 -12.5q-38 0 -67 23t-29 61q0 60 57.5 93t164.5 49v1q0 53 -16 74t-49 21q-20 0 -37 -10.5t-17 -28.5
q0 -20 -11.5 -31.5t-28.5 -11.5t-28 11.5t-11 31.5q0 36 43.5 58t101.5 22q81 0 118.5 -30t39.5 -97zM829 522q0 -26 -30 -39l-179 -76l-6 9l121 113q33 30 58 30q17 0 26.5 -11.5t9.5 -25.5z" />
    <glyph glyph-name="a_egrave" unicode="&#xf2a7;" horiz-adv-x="883" 
d="M626 229h133q3 32 -13.5 52.5t-47.5 20.5q-55 0 -72 -73zM261 88v85q-64 -17 -93.5 -36t-29.5 -54q0 -40 40 -40q32 0 83 45zM366 223q84 6 144 6q20 55 70 88t113 33q77 0 119 -54.5t25 -110.5h-218q-5 -72 25 -110.5t74 -38.5q70 0 118 42l17 -29q-27 -29 -68.5 -47.5
t-83.5 -18.5q-88 0 -145 53.5t-57 130.5q0 12 1 18q-96 -2 -134 -5v-101q0 -38 22 -38q10 0 29 12l14 -27q-49 -37 -93 -37q-66 0 -77 58q-45 -35 -69.5 -47.5t-56.5 -12.5q-38 0 -67 23t-29 61q0 60 57.5 93t164.5 49v1q0 53 -16 74t-49 21q-20 0 -37 -10.5t-17 -28.5
q0 -20 -11.5 -31.5t-28.5 -11.5t-28 11.5t-11 31.5q0 36 43.5 58t101.5 22q81 0 118.5 -30t39.5 -97zM763 416l-7 -9l-179 76q-30 13 -30 39q0 14 9.5 25.5t26.5 11.5q25 0 58 -30z" />
    <glyph glyph-name="a_ecircumflex" unicode="&#xf2a8;" horiz-adv-x="883" 
d="M626 229h133q3 32 -13.5 52.5t-47.5 20.5q-55 0 -72 -73zM261 88v85q-64 -17 -93.5 -36t-29.5 -54q0 -40 40 -40q32 0 83 45zM366 223q84 6 144 6q20 55 70 88t113 33q77 0 119 -54.5t25 -110.5h-218q-5 -72 25 -110.5t74 -38.5q70 0 118 42l17 -29q-27 -29 -68.5 -47.5
t-83.5 -18.5q-88 0 -145 53.5t-57 130.5q0 12 1 18q-96 -2 -134 -5v-101q0 -38 22 -38q10 0 29 12l14 -27q-49 -37 -93 -37q-66 0 -77 58q-45 -35 -69.5 -47.5t-56.5 -12.5q-38 0 -67 23t-29 61q0 60 57.5 93t164.5 49v1q0 53 -16 74t-49 21q-20 0 -37 -10.5t-17 -28.5
q0 -20 -11.5 -31.5t-28.5 -11.5t-28 11.5t-11 31.5q0 36 43.5 58t101.5 22q81 0 118.5 -30t39.5 -97zM835 423l-15 -15l-128 84l-129 -84l-15 15l144 155z" />
    <glyph glyph-name="a_edieresis" unicode="&#xf2a9;" horiz-adv-x="883" 
d="M626 229h133q3 32 -13.5 52.5t-47.5 20.5q-55 0 -72 -73zM261 88v85q-64 -17 -93.5 -36t-29.5 -54q0 -40 40 -40q32 0 83 45zM366 223q84 6 144 6q20 55 70 88t113 33q77 0 119 -54.5t25 -110.5h-218q-5 -72 25 -110.5t74 -38.5q70 0 118 42l17 -29q-27 -29 -68.5 -47.5
t-83.5 -18.5q-88 0 -145 53.5t-57 130.5q0 12 1 18q-96 -2 -134 -5v-101q0 -38 22 -38q10 0 29 12l14 -27q-49 -37 -93 -37q-66 0 -77 58q-45 -35 -69.5 -47.5t-56.5 -12.5q-38 0 -67 23t-29 61q0 60 57.5 93t164.5 49v1q0 53 -16 74t-49 21q-20 0 -37 -10.5t-17 -28.5
q0 -20 -11.5 -31.5t-28.5 -11.5t-28 11.5t-11 31.5q0 36 43.5 58t101.5 22q81 0 118.5 -30t39.5 -97zM790 510q21 0 36 -14.5t15 -36.5q0 -21 -15 -36t-36 -15t-36 15t-15 36q0 22 15 36.5t36 14.5zM591 510q21 0 36 -14.5t15 -36.5q0 -21 -15 -36t-36 -15t-36 15t-15 36
q0 22 15 36.5t36 14.5z" />
    <glyph glyph-name="c_k_yacute" unicode="&#xf2aa;" horiz-adv-x="1228" 
d="M903 254q-21 49 -55 49q-36 0 -81 -35l-76 -58l117 -141q34 -40 76 -40v-29h-141l-134 159v-21q0 -66 12.5 -87.5t50.5 -21.5v-29h-254v29q50 0 64.5 21t14.5 96v292q0 74 -14.5 95t-64.5 21q-60 0 -100 -34t-45.5 -81.5t13.5 -97.5q36 -9 54 -29t18 -44q0 -16 -13 -31.5
t-36 -15.5q-46 0 -71 70q-5 16 -5 19q-69 -3 -69 -152q0 -60 27 -93t75 -33t101 46l17 -29q-61 -66 -149 -66q-83 0 -138 50t-55 125q0 85 53 137.5t129 54.5q-16 105 42 167.5t152 74.5l191 25v-419l129 92q2 2 12 8.5t13 9t12.5 9t14 9l13.5 7.5t15 7.5t14.5 6t15.5 5
t15 2.5t16 1q57 0 88.5 -23.5t55.5 -77.5l58 -130l54 130q11 27 5 38.5t-34 11.5v29h148v-29q-50 0 -71 -50l-107 -261q-14 -32 -21.5 -50t-23.5 -49t-29 -49.5t-33.5 -41.5t-41.5 -35.5t-49 -21.5t-59 -9q-40 0 -67.5 21t-27.5 44q0 46 44 46q11 0 17.5 -8t9 -17.5
t13 -17.5t30.5 -8q62 0 106 48t79 141zM1230 522q0 -25 -30 -39l-179 -76l-6 9l121 113q35 30 57 30q17 0 27 -11.5t10 -25.5z" />
    <glyph glyph-name="c_k_ydieresis" unicode="&#xf2ab;" horiz-adv-x="1228" 
d="M903 254q-21 49 -55 49q-36 0 -81 -35l-76 -58l117 -141q34 -40 76 -40v-29h-141l-134 159v-21q0 -66 12.5 -87.5t50.5 -21.5v-29h-254v29q50 0 64.5 21t14.5 96v292q0 74 -14.5 95t-64.5 21q-60 0 -100 -34t-45.5 -81.5t13.5 -97.5q36 -9 54 -29t18 -44q0 -16 -13 -31.5
t-36 -15.5q-46 0 -71 70q-5 16 -5 19q-69 -3 -69 -152q0 -60 27 -93t75 -33t101 46l17 -29q-61 -66 -149 -66q-83 0 -138 50t-55 125q0 85 53 137.5t129 54.5q-16 105 42 167.5t152 74.5l191 25v-419l129 92q2 2 12 8.5t13 9t12.5 9t14 9l13.5 7.5t15 7.5t14.5 6t15.5 5
t15 2.5t16 1q57 0 88.5 -23.5t55.5 -77.5l58 -130l54 130q11 27 5 38.5t-34 11.5v29h148v-29q-50 0 -71 -50l-107 -261q-14 -32 -21.5 -50t-23.5 -49t-29 -49.5t-33.5 -41.5t-41.5 -35.5t-49 -21.5t-59 -9q-40 0 -67.5 21t-27.5 44q0 46 44 46q11 0 17.5 -8t9 -17.5
t13 -17.5t30.5 -8q62 0 106 48t79 141zM1156 510q21 0 36 -14.5t15 -36.5q0 -21 -15 -36t-36 -15t-36 15t-15 36q0 22 15 36.5t36 14.5zM957 510q21 0 36 -14.5t15 -36.5q0 -21 -15 -36t-36 -15t-36 15t-15 36q0 22 15 36.5t36 14.5z" />
    <glyph glyph-name="ccedilla_t" unicode="&#xf2ac;" horiz-adv-x="716" 
d="M175 -9q-60 17 -96.5 62t-36.5 105q0 85 53 137.5t129 54.5q-11 70 14.5 123.5t71 80t100.5 26.5q83 0 133.5 -45.5t50.5 -124.5v-77h87v-44h-87v-174q0 -72 45 -72q27 0 68 29l14 -29q-25 -23 -61 -40t-62 -17q-54 0 -85 32t-31 90v181h-53v33l22 6q47 13 71.5 45.5
t24.5 66.5q0 44 -36.5 79t-102.5 35q-70 0 -115 -61t-7 -152q36 -9 54 -29t18 -44q0 -16 -13 -31.5t-36 -15.5q-46 0 -71 70q-5 16 -5 19q-69 -3 -69 -152q0 -60 27 -93t75 -33t101 46l17 -29q-61 -66 -149 -66h-8l-49 -49q41 -2 75.5 -28t34.5 -74q0 -33 -23 -59.5
t-58.5 -41t-61 -22t-47.5 -10.5v36q110 34 110 97q0 33 -41.5 46t-89.5 -3v18z" />
    <glyph glyph-name="eacute_e" unicode="&#xf2ad;" horiz-adv-x="858" 
d="M302 229q2 32 -14.5 52.5t-47.5 20.5q-55 0 -72 -73h134zM735 229q2 32 -14 52.5t-48 20.5q-54 0 -71 -73h133zM476 185h-314q-6 -72 24 -110.5t74 -38.5q71 0 118 42l18 -29q-27 -29 -69 -47.5t-84 -18.5q-88 0 -144.5 53.5t-56.5 130.5q0 78 56.5 130.5t136.5 52.5
q62 0 102 -36t46 -85h103q20 55 70 88t112 33q78 0 120 -54.5t25 -110.5h-218q-5 -72 24.5 -110.5t73.5 -38.5q71 0 119 42l17 -29q-27 -29 -69 -47.5t-83 -18.5q-88 0 -145 53.5t-57 130.5q0 12 1 18zM372 522q0 -25 -30 -39l-179 -76l-6 9l121 113q32 30 57 30
q17 0 27 -11.5t10 -25.5z" />
    <glyph glyph-name="egrave_e" unicode="&#xf2ae;" horiz-adv-x="858" 
d="M302 229q2 32 -14.5 52.5t-47.5 20.5q-55 0 -72 -73h134zM735 229q2 32 -14 52.5t-48 20.5q-54 0 -71 -73h133zM476 185h-314q-6 -72 24 -110.5t74 -38.5q71 0 118 42l18 -29q-27 -29 -69 -47.5t-84 -18.5q-88 0 -144.5 53.5t-56.5 130.5q0 78 56.5 130.5t136.5 52.5
q62 0 102 -36t46 -85h103q20 55 70 88t112 33q78 0 120 -54.5t25 -110.5h-218q-5 -72 24.5 -110.5t73.5 -38.5q71 0 119 42l17 -29q-27 -29 -69 -47.5t-83 -18.5q-88 0 -145 53.5t-57 130.5q0 12 1 18zM305 416l-7 -9l-179 76q-30 14 -30 39q0 14 10 25.5t27 11.5
q26 0 57 -30z" />
    <glyph glyph-name="ecircumflex_e" unicode="&#xf2af;" horiz-adv-x="858" 
d="M302 229q2 32 -14.5 52.5t-47.5 20.5q-55 0 -72 -73h134zM735 229q2 32 -14 52.5t-48 20.5q-54 0 -71 -73h133zM476 185h-314q-6 -72 24 -110.5t74 -38.5q71 0 118 42l18 -29q-27 -29 -69 -47.5t-84 -18.5q-88 0 -144.5 53.5t-56.5 130.5q0 78 56.5 130.5t136.5 52.5
q62 0 102 -36t46 -85h103q20 55 70 88t112 33q78 0 120 -54.5t25 -110.5h-218q-5 -72 24.5 -110.5t73.5 -38.5q71 0 119 42l17 -29q-27 -29 -69 -47.5t-83 -18.5q-88 0 -145 53.5t-57 130.5q0 12 1 18zM378 423l-15 -15l-129 84l-128 -84l-15 15l143 155z" />
    <glyph glyph-name="edieresis_e" unicode="&#xf2b0;" horiz-adv-x="858" 
d="M302 229q2 32 -14.5 52.5t-47.5 20.5q-55 0 -72 -73h134zM735 229q2 32 -14 52.5t-48 20.5q-54 0 -71 -73h133zM476 185h-314q-6 -72 24 -110.5t74 -38.5q71 0 118 42l18 -29q-27 -29 -69 -47.5t-84 -18.5q-88 0 -144.5 53.5t-56.5 130.5q0 78 56.5 130.5t136.5 52.5
q62 0 102 -36t46 -85h103q20 55 70 88t112 33q78 0 120 -54.5t25 -110.5h-218q-5 -72 24.5 -110.5t73.5 -38.5q71 0 119 42l17 -29q-27 -29 -69 -47.5t-83 -18.5q-88 0 -145 53.5t-57 130.5q0 12 1 18zM333 510q21 0 35.5 -14.5t14.5 -36.5q0 -21 -14.5 -36t-35.5 -15
q-22 0 -36.5 15t-14.5 36q0 22 14.5 36.5t36.5 14.5zM133 510q22 0 36.5 -14.5t14.5 -36.5q0 -21 -14.5 -36t-36.5 -15q-20 0 -35 15t-15 36t14.5 36t35.5 15z" />
    <glyph glyph-name="e_eacute" unicode="&#xf2b1;" horiz-adv-x="858" 
d="M302 229q2 32 -14.5 52.5t-47.5 20.5q-55 0 -72 -73h134zM735 229q2 32 -14 52.5t-48 20.5q-54 0 -71 -73h133zM476 185h-314q-6 -72 24 -110.5t74 -38.5q71 0 118 42l18 -29q-27 -29 -69 -47.5t-84 -18.5q-88 0 -144.5 53.5t-56.5 130.5q0 78 56.5 130.5t136.5 52.5
q62 0 102 -36t46 -85h103q20 55 70 88t112 33q78 0 120 -54.5t25 -110.5h-218q-5 -72 24.5 -110.5t73.5 -38.5q71 0 119 42l17 -29q-27 -29 -69 -47.5t-83 -18.5q-88 0 -145 53.5t-57 130.5q0 12 1 18zM805 522q0 -26 -30 -39l-179 -76l-6 9l121 113q33 30 57 30
q17 0 27 -11.5t10 -25.5z" />
    <glyph glyph-name="e_egrave" unicode="&#xf2b2;" horiz-adv-x="858" 
d="M302 229q2 32 -14.5 52.5t-47.5 20.5q-55 0 -72 -73h134zM735 229q2 32 -14 52.5t-48 20.5q-54 0 -71 -73h133zM476 185h-314q-6 -72 24 -110.5t74 -38.5q71 0 118 42l18 -29q-27 -29 -69 -47.5t-84 -18.5q-88 0 -144.5 53.5t-56.5 130.5q0 78 56.5 130.5t136.5 52.5
q62 0 102 -36t46 -85h103q20 55 70 88t112 33q78 0 120 -54.5t25 -110.5h-218q-5 -72 24.5 -110.5t73.5 -38.5q71 0 119 42l17 -29q-27 -29 -69 -47.5t-83 -18.5q-88 0 -145 53.5t-57 130.5q0 12 1 18zM738 416l-6 -9l-179 76q-30 13 -30 39q0 14 9.5 25.5t26.5 11.5
q25 0 58 -30z" />
    <glyph glyph-name="e_ecircumflex" unicode="&#xf2b3;" horiz-adv-x="858" 
d="M302 229q2 32 -14.5 52.5t-47.5 20.5q-55 0 -72 -73h134zM735 229q2 32 -14 52.5t-48 20.5q-54 0 -71 -73h133zM476 185h-314q-6 -72 24 -110.5t74 -38.5q71 0 118 42l18 -29q-27 -29 -69 -47.5t-84 -18.5q-88 0 -144.5 53.5t-56.5 130.5q0 78 56.5 130.5t136.5 52.5
q62 0 102 -36t46 -85h103q20 55 70 88t112 33q78 0 120 -54.5t25 -110.5h-218q-5 -72 24.5 -110.5t73.5 -38.5q71 0 119 42l17 -29q-27 -29 -69 -47.5t-83 -18.5q-88 0 -145 53.5t-57 130.5q0 12 1 18zM811 423l-15 -15l-128 84l-129 -84l-15 15l144 155z" />
    <glyph glyph-name="e_edieresis" unicode="&#xf2b4;" horiz-adv-x="858" 
d="M302 229q2 32 -14.5 52.5t-47.5 20.5q-55 0 -72 -73h134zM735 229q2 32 -14 52.5t-48 20.5q-54 0 -71 -73h133zM476 185h-314q-6 -72 24 -110.5t74 -38.5q71 0 118 42l18 -29q-27 -29 -69 -47.5t-84 -18.5q-88 0 -144.5 53.5t-56.5 130.5q0 78 56.5 130.5t136.5 52.5
q62 0 102 -36t46 -85h103q20 55 70 88t112 33q78 0 120 -54.5t25 -110.5h-218q-5 -72 24.5 -110.5t73.5 -38.5q71 0 119 42l17 -29q-27 -29 -69 -47.5t-83 -18.5q-88 0 -145 53.5t-57 130.5q0 12 1 18zM766 510q21 0 36 -14.5t15 -36.5q0 -21 -15 -36t-36 -15t-36 15t-15 36
q0 22 15 36.5t36 14.5zM567 510q21 0 36 -14.5t15 -36.5q0 -21 -15 -36t-36 -15t-36 15t-15 36q0 22 15 36.5t36 14.5z" />
    <glyph glyph-name="k_ydieresis" unicode="&#xf2b5;" horiz-adv-x="823" 
d="M676 124l54 130q11 27 5 38.5t-34 11.5v29h148v-29q-50 0 -71 -50l-107 -261q-14 -32 -21.5 -50t-23.5 -49t-29 -49.5t-33.5 -41.5t-41.5 -35.5t-49 -21.5t-59 -9q-40 0 -67.5 21t-27.5 44q0 46 44 46q11 0 17.5 -8t9 -17.5t13 -17.5t30.5 -8q62 0 106 48t79 141
l-120 268q-21 49 -55 49q-36 0 -81 -35l-76 -58l117 -141q34 -40 76 -40v-29h-141l-134 159v-21q0 -66 12.5 -87.5t50.5 -21.5v-29h-254v29q50 0 64.5 21t14.5 96v300q0 75 -14.5 96t-64.5 21v29l191 25v-419l129 92q30 21 44.5 30.5t43.5 22t53 12.5q57 0 88.5 -23.5
t55.5 -77.5zM751 510q21 0 36 -14.5t15 -36.5q0 -21 -15 -36t-36 -15t-36 15t-15 36q0 22 15 36.5t36 14.5zM552 510q21 0 36 -14.5t15 -36.5q0 -21 -15 -36t-36 -15t-36 15t-15 36q0 22 15 36.5t36 14.5z" />
    <glyph glyph-name="k_yacute" unicode="&#xf2b6;" horiz-adv-x="823" 
d="M676 124l54 130q11 27 5 38.5t-34 11.5v29h148v-29q-50 0 -71 -50l-107 -261q-14 -32 -21.5 -50t-23.5 -49t-29 -49.5t-33.5 -41.5t-41.5 -35.5t-49 -21.5t-59 -9q-40 0 -67.5 21t-27.5 44q0 46 44 46q11 0 17.5 -8t9 -17.5t13 -17.5t30.5 -8q62 0 106 48t79 141
l-120 268q-21 49 -55 49q-36 0 -81 -35l-76 -58l117 -141q34 -40 76 -40v-29h-141l-134 159v-21q0 -66 12.5 -87.5t50.5 -21.5v-29h-254v29q50 0 64.5 21t14.5 96v300q0 75 -14.5 96t-64.5 21v29l191 25v-419l129 92q30 21 44.5 30.5t43.5 22t53 12.5q57 0 88.5 -23.5
t55.5 -77.5zM825 522q0 -25 -30 -39l-179 -76l-6 9l121 113q35 30 57 30q17 0 27 -11.5t10 -25.5z" />
    <glyph glyph-name="oacute_e" unicode="&#xf2b7;" horiz-adv-x="928" 
d="M672 229h133q2 32 -14 52.5t-48 20.5q-54 0 -71 -73zM323 167q0 60 -20.5 98t-59.5 38t-59 -38t-20 -98t20 -98.5t59 -38.5t59.5 38.5t20.5 98.5zM433 229h123q20 55 70 88t112 33q78 0 120 -54.5t25 -110.5h-218q-5 -72 24.5 -110.5t73.5 -38.5q71 0 119 42l17 -29
q-27 -29 -69 -47.5t-83 -18.5q-88 0 -145 53.5t-57 130.5q0 12 1 18h-102q1 -6 1 -18q0 -76 -59.5 -130t-142.5 -54t-142 54t-59 130t59 129.5t142 53.5q64 0 116 -34t74 -87zM382 522q0 -25 -30 -39l-179 -76l-6 9l121 113q32 30 57 30q17 0 27 -11.5t10 -25.5z" />
    <glyph glyph-name="ograve_e" unicode="&#xf2b8;" horiz-adv-x="928" 
d="M672 229h133q2 32 -14 52.5t-48 20.5q-54 0 -71 -73zM323 167q0 60 -20.5 98t-59.5 38t-59 -38t-20 -98t20 -98.5t59 -38.5t59.5 38.5t20.5 98.5zM433 229h123q20 55 70 88t112 33q78 0 120 -54.5t25 -110.5h-218q-5 -72 24.5 -110.5t73.5 -38.5q71 0 119 42l17 -29
q-27 -29 -69 -47.5t-83 -18.5q-88 0 -145 53.5t-57 130.5q0 12 1 18h-102q1 -6 1 -18q0 -76 -59.5 -130t-142.5 -54t-142 54t-59 130t59 129.5t142 53.5q64 0 116 -34t74 -87zM316 416l-7 -9l-179 76q-30 13 -30 39q0 14 10 25.5t27 11.5q25 0 57 -30z" />
    <glyph glyph-name="ocircumflex_e" unicode="&#xf2b9;" horiz-adv-x="928" 
d="M672 229h133q2 32 -14 52.5t-48 20.5q-54 0 -71 -73zM323 167q0 60 -20.5 98t-59.5 38t-59 -38t-20 -98t20 -98.5t59 -38.5t59.5 38.5t20.5 98.5zM433 229h123q20 55 70 88t112 33q78 0 120 -54.5t25 -110.5h-218q-5 -72 24.5 -110.5t73.5 -38.5q71 0 119 42l17 -29
q-27 -29 -69 -47.5t-83 -18.5q-88 0 -145 53.5t-57 130.5q0 12 1 18h-102q1 -6 1 -18q0 -76 -59.5 -130t-142.5 -54t-142 54t-59 130t59 129.5t142 53.5q64 0 116 -34t74 -87zM388 423l-15 -15l-128 84l-128 -84l-15 15l143 155z" />
    <glyph glyph-name="odieresis_e" unicode="&#xf2ba;" horiz-adv-x="928" 
d="M672 229h133q2 32 -14 52.5t-48 20.5q-54 0 -71 -73zM323 167q0 60 -20.5 98t-59.5 38t-59 -38t-20 -98t20 -98.5t59 -38.5t59.5 38.5t20.5 98.5zM433 229h123q20 55 70 88t112 33q78 0 120 -54.5t25 -110.5h-218q-5 -72 24.5 -110.5t73.5 -38.5q71 0 119 42l17 -29
q-27 -29 -69 -47.5t-83 -18.5q-88 0 -145 53.5t-57 130.5q0 12 1 18h-102q1 -6 1 -18q0 -76 -59.5 -130t-142.5 -54t-142 54t-59 130t59 129.5t142 53.5q64 0 116 -34t74 -87zM343 510q22 0 36.5 -14.5t14.5 -36.5q0 -21 -14.5 -36t-36.5 -15q-21 0 -35.5 15t-14.5 36
q0 22 14.5 36.5t35.5 14.5zM144 510q22 0 36.5 -14.5t14.5 -36.5q0 -21 -14.5 -36t-36.5 -15q-20 0 -35.5 15t-15.5 36t15 36t36 15z" />
    <glyph glyph-name="otilde_e" unicode="&#xf2bb;" horiz-adv-x="928" 
d="M672 229h133q2 32 -14 52.5t-48 20.5q-54 0 -71 -73zM323 167q0 60 -20.5 98t-59.5 38t-59 -38t-20 -98t20 -98.5t59 -38.5t59.5 38.5t20.5 98.5zM433 229h123q20 55 70 88t112 33q78 0 120 -54.5t25 -110.5h-218q-5 -72 24.5 -110.5t73.5 -38.5q71 0 119 42l17 -29
q-27 -29 -69 -47.5t-83 -18.5q-88 0 -145 53.5t-57 130.5q0 12 1 18h-102q1 -6 1 -18q0 -76 -59.5 -130t-142.5 -54t-142 54t-59 130t59 129.5t142 53.5q64 0 116 -34t74 -87zM323 460q39 0 52 57h19q0 -56 -22 -87.5t-60 -31.5q-22 0 -77 32.5t-71 32.5q-15 0 -29.5 -16
t-21.5 -39h-18q0 52 22.5 85t55.5 33q24 0 76.5 -33t73.5 -33z" />
    <glyph glyph-name="o_eacute" unicode="&#xf2bc;" horiz-adv-x="928" 
d="M672 229h133q2 32 -14 52.5t-48 20.5q-54 0 -71 -73zM323 167q0 60 -20.5 98t-59.5 38t-59 -38t-20 -98t20 -98.5t59 -38.5t59.5 38.5t20.5 98.5zM433 229h123q20 55 70 88t112 33q78 0 120 -54.5t25 -110.5h-218q-5 -72 24.5 -110.5t73.5 -38.5q71 0 119 42l17 -29
q-27 -29 -69 -47.5t-83 -18.5q-88 0 -145 53.5t-57 130.5q0 12 1 18h-102q1 -6 1 -18q0 -76 -59.5 -130t-142.5 -54t-142 54t-59 130t59 129.5t142 53.5q64 0 116 -34t74 -87zM876 522q0 -26 -30 -39l-179 -76l-6 9l121 113q32 30 57 30q17 0 27 -11.5t10 -25.5z" />
    <glyph glyph-name="o_egrave" unicode="&#xf2bd;" horiz-adv-x="928" 
d="M672 229h133q2 32 -14 52.5t-48 20.5q-54 0 -71 -73zM323 167q0 60 -20.5 98t-59.5 38t-59 -38t-20 -98t20 -98.5t59 -38.5t59.5 38.5t20.5 98.5zM433 229h123q20 55 70 88t112 33q78 0 120 -54.5t25 -110.5h-218q-5 -72 24.5 -110.5t73.5 -38.5q71 0 119 42l17 -29
q-27 -29 -69 -47.5t-83 -18.5q-88 0 -145 53.5t-57 130.5q0 12 1 18h-102q1 -6 1 -18q0 -76 -59.5 -130t-142.5 -54t-142 54t-59 130t59 129.5t142 53.5q64 0 116 -34t74 -87zM809 416l-6 -9l-180 76q-30 14 -30 39q0 14 10 25.5t27 11.5q25 0 58 -30z" />
    <glyph glyph-name="o_ecircumflex" unicode="&#xf2be;" horiz-adv-x="928" 
d="M672 229h133q2 32 -14 52.5t-48 20.5q-54 0 -71 -73zM323 167q0 60 -20.5 98t-59.5 38t-59 -38t-20 -98t20 -98.5t59 -38.5t59.5 38.5t20.5 98.5zM433 229h123q20 55 70 88t112 33q78 0 120 -54.5t25 -110.5h-218q-5 -72 24.5 -110.5t73.5 -38.5q71 0 119 42l17 -29
q-27 -29 -69 -47.5t-83 -18.5q-88 0 -145 53.5t-57 130.5q0 12 1 18h-102q1 -6 1 -18q0 -76 -59.5 -130t-142.5 -54t-142 54t-59 130t59 129.5t142 53.5q64 0 116 -34t74 -87zM882 423l-15 -15l-129 84l-128 -84l-15 15l143 155z" />
    <glyph glyph-name="o_edieresis" unicode="&#xf2bf;" horiz-adv-x="928" 
d="M672 229h133q2 32 -14 52.5t-48 20.5q-54 0 -71 -73zM323 167q0 60 -20.5 98t-59.5 38t-59 -38t-20 -98t20 -98.5t59 -38.5t59.5 38.5t20.5 98.5zM433 229h123q20 55 70 88t112 33q78 0 120 -54.5t25 -110.5h-218q-5 -72 24.5 -110.5t73.5 -38.5q71 0 119 42l17 -29
q-27 -29 -69 -47.5t-83 -18.5q-88 0 -145 53.5t-57 130.5q0 12 1 18h-102q1 -6 1 -18q0 -76 -59.5 -130t-142.5 -54t-142 54t-59 130t59 129.5t142 53.5q64 0 116 -34t74 -87zM837 510q21 0 36 -14.5t15 -36.5q0 -21 -15 -36t-36 -15q-22 0 -36.5 15t-14.5 36
q0 22 14.5 36.5t36.5 14.5zM638 510q21 0 35.5 -14.5t14.5 -36.5q0 -21 -14.5 -36t-35.5 -15t-36 15t-15 36q0 22 15 36.5t36 14.5z" />
    <glyph glyph-name="p_ydieresis" unicode="&#xf2c0;" horiz-adv-x="868" 
d="M338 167q0 60 -19 98t-56 38q-27 0 -47 -25t-20 -63v-97q0 -37 20 -62.5t47 -25.5q37 0 56 38.5t19 98.5zM460 167q0 -78 -50 -131t-132 -53q-47 0 -82 30v-117q0 -75 14.5 -96t64.5 -21v-29h-271v29q50 0 64.5 21t14.5 96v283q0 75 -14.5 96t-64.5 21v29l175 25
q3 -4 9 -36q38 36 90 36q83 0 132.5 -52.5t49.5 -130.5zM716 -7q-14 -32 -21.5 -50t-23.5 -49t-29 -49.5t-33.5 -41.5t-41.5 -35.5t-49 -21.5t-59 -9q-40 0 -67.5 21t-27.5 44q0 46 44 46q11 0 17.5 -8t9 -17.5t13 -17.5t30.5 -8q62 0 106 48t79 141l-120 268q-21 50 -66 50
v29h219v-29q-32 0 -39 -11t6 -39l58 -130l54 130q11 27 5 38.5t-34 11.5v29h148v-29q-50 0 -71 -50zM796 510q21 0 36 -14.5t15 -36.5q0 -21 -15 -36t-36 -15t-36 15t-15 36q0 22 15 36.5t36 14.5zM597 510q21 0 36 -14.5t15 -36.5q0 -21 -15 -36t-36 -15t-36 15t-15 36
q0 22 15 36.5t36 14.5z" />
    <glyph glyph-name="p_yacute" unicode="&#xf2c1;" horiz-adv-x="868" 
d="M338 167q0 60 -19 98t-56 38q-27 0 -47 -25t-20 -63v-97q0 -37 20 -62.5t47 -25.5q37 0 56 38.5t19 98.5zM460 167q0 -78 -50 -131t-132 -53q-47 0 -82 30v-117q0 -75 14.5 -96t64.5 -21v-29h-271v29q50 0 64.5 21t14.5 96v283q0 75 -14.5 96t-64.5 21v29l175 25
q3 -4 9 -36q38 36 90 36q83 0 132.5 -52.5t49.5 -130.5zM716 -7q-14 -32 -21.5 -50t-23.5 -49t-29 -49.5t-33.5 -41.5t-41.5 -35.5t-49 -21.5t-59 -9q-40 0 -67.5 21t-27.5 44q0 46 44 46q11 0 17.5 -8t9 -17.5t13 -17.5t30.5 -8q62 0 106 48t79 141l-120 268q-21 50 -66 50
v29h219v-29q-32 0 -39 -11t6 -39l58 -130l54 130q11 27 5 38.5t-34 11.5v29h148v-29q-50 0 -71 -50zM870 522q0 -25 -30 -39l-179 -76l-6 9l121 113q35 30 57 30q17 0 27 -11.5t10 -25.5z" />
    <glyph glyph-name="t_ydieresis" unicode="&#xf2c2;" horiz-adv-x="661" 
d="M343 239q-22 50 -67 50h-87v-176q0 -73 45 -73q27 0 68 29l14 -28q-26 -23 -61.5 -40.5t-61.5 -17.5q-54 0 -85 32.5t-31 90.5v183h-53v33q48 10 87.5 52t43.5 96h34v-137h299v-29q-31 0 -38.5 -11t5.5 -39l58 -130l55 130q12 27 5 38.5t-35 11.5v29h149v-29
q-52 0 -71 -50l-108 -261q-18 -44 -30.5 -71t-36.5 -66.5t-48.5 -62t-61.5 -39.5t-79 -17q-40 0 -67.5 21t-27.5 44q0 46 43 46q11 0 17.5 -8t9 -17.5t13.5 -17.5t31 -8q62 0 106 48t79 141zM588 510q22 0 36.5 -14.5t14.5 -36.5q0 -21 -14.5 -36t-36.5 -15q-21 0 -35.5 15
t-14.5 36q0 22 14.5 36.5t35.5 14.5zM389 510q22 0 36.5 -14.5t14.5 -36.5q0 -21 -14.5 -36t-36.5 -15q-20 0 -35.5 15t-15.5 36t15 36t36 15z" />
    <glyph glyph-name="t_yacute" unicode="&#xf2c3;" horiz-adv-x="661" 
d="M343 239q-22 50 -67 50h-87v-176q0 -73 45 -73q27 0 68 29l14 -28q-26 -23 -61.5 -40.5t-61.5 -17.5q-54 0 -85 32.5t-31 90.5v183h-53v33q48 10 87.5 52t43.5 96h34v-137h299v-29q-31 0 -38.5 -11t5.5 -39l58 -130l55 130q12 27 5 38.5t-35 11.5v29h149v-29
q-52 0 -71 -50l-108 -261q-18 -44 -30.5 -71t-36.5 -66.5t-48.5 -62t-61.5 -39.5t-79 -17q-40 0 -67.5 21t-27.5 44q0 46 43 46q11 0 17.5 -8t9 -17.5t13.5 -17.5t31 -8q62 0 106 48t79 141zM663 522q0 -24 -30 -39l-180 -76l-5 9l120 113q35 30 58 30q17 0 27 -11.5
t10 -25.5z" />
    <glyph glyph-name="t_t_ydieresis" unicode="&#xf2c4;" horiz-adv-x="963" 
d="M645 239q-22 50 -67 50h-86v-176q0 -73 45 -73q28 0 67 29l14 -28q-25 -23 -61 -40.5t-61 -17.5q-55 0 -86 32.5t-31 90.5v183h-190v-176q0 -73 45 -73q27 0 68 29l14 -28q-26 -23 -61.5 -40.5t-61.5 -17.5q-54 0 -85 32.5t-31 90.5v183h-53v33q48 10 87.5 52t43.5 96h34
v-137h126q62 0 99.5 41.5t43.5 95.5h34v-137h299v-29q-32 0 -39 -11t6 -39l58 -130l54 130q11 27 5 38.5t-34 11.5v29h148v-29q-50 0 -71 -50l-107 -261q-14 -32 -21.5 -50t-23.5 -49t-29 -49.5t-33.5 -41.5t-41.5 -35.5t-49 -21.5t-59 -9q-40 0 -67.5 21t-27.5 44
q0 46 44 46q11 0 17.5 -8t9 -17.5t13 -17.5t30.5 -8q62 0 106 48t79 141zM891 510q21 0 36 -14.5t15 -36.5q0 -21 -15 -36t-36 -15t-36 15t-15 36q0 22 15 36.5t36 14.5zM692 510q21 0 36 -14.5t15 -36.5q0 -21 -15 -36t-36 -15t-36 15t-15 36q0 22 15 36.5t36 14.5z" />
    <glyph glyph-name="t_t_yacute" unicode="&#xf2c5;" horiz-adv-x="963" 
d="M645 239q-22 50 -67 50h-86v-176q0 -73 45 -73q28 0 67 29l14 -28q-25 -23 -61 -40.5t-61 -17.5q-55 0 -86 32.5t-31 90.5v183h-190v-176q0 -73 45 -73q27 0 68 29l14 -28q-26 -23 -61.5 -40.5t-61.5 -17.5q-54 0 -85 32.5t-31 90.5v183h-53v33q48 10 87.5 52t43.5 96h34
v-137h126q62 0 99.5 41.5t43.5 95.5h34v-137h299v-29q-32 0 -39 -11t6 -39l58 -130l54 130q11 27 5 38.5t-34 11.5v29h148v-29q-50 0 -71 -50l-107 -261q-14 -32 -21.5 -50t-23.5 -49t-29 -49.5t-33.5 -41.5t-41.5 -35.5t-49 -21.5t-59 -9q-40 0 -67.5 21t-27.5 44
q0 46 44 46q11 0 17.5 -8t9 -17.5t13 -17.5t30.5 -8q62 0 106 48t79 141zM965 522q0 -25 -30 -39l-179 -76l-6 9l121 113q35 30 57 30q17 0 27 -11.5t10 -25.5z" />
    <glyph glyph-name="Aacute_V" unicode="&#xf2c6;" horiz-adv-x="787" 
d="M349 245l-80 183l-79 -183h159zM517 170l141 325q19 41 2.5 58.5t-77.5 17.5v29h241v-29q-51 0 -75 -17.5t-47 -70.5l-217 -500h-22l-95 217h-198l-41 -95q-19 -41 -2.5 -58.5t77.5 -17.5v-29h-242v29q52 0 76 17.5t47 70.5l217 500h21zM447 788q0 -24 -30 -40l-179 -75
l-6 9l121 113q33 30 57 30q17 0 27 -12t10 -25z" />
    <glyph glyph-name="Agrave_V" unicode="&#xf2c7;" horiz-adv-x="787" 
d="M349 245l-80 183l-79 -183h159zM517 170l141 325q19 41 2.5 58.5t-77.5 17.5v29h241v-29q-51 0 -75 -17.5t-47 -70.5l-217 -500h-22l-95 217h-198l-41 -95q-19 -41 -2.5 -58.5t77.5 -17.5v-29h-242v29q52 0 76 17.5t47 70.5l217 500h21zM381 682l-7 -9l-179 75
q-30 16 -30 40q0 13 10 25t27 12q24 0 57 -30z" />
    <glyph glyph-name="Atilde_V" unicode="&#xf2c8;" horiz-adv-x="787" 
d="M349 245l-80 183l-79 -183h159zM517 170l141 325q19 41 2.5 58.5t-77.5 17.5v29h241v-29q-51 0 -75 -17.5t-47 -70.5l-217 -500h-22l-95 217h-198l-41 -95q-19 -41 -2.5 -58.5t77.5 -17.5v-29h-242v29q52 0 76 17.5t47 70.5l217 500h21zM389 731q39 0 52 57h19
q0 -56 -22 -88t-60 -32q-22 0 -77 33t-71 33t-30 -16t-21 -39h-18q0 51 22.5 84.5t54.5 33.5q25 0 77.5 -33t73.5 -33z" />
    <glyph glyph-name="Acircumflex_V" unicode="&#xf2c9;" horiz-adv-x="787" 
d="M349 245l-80 183l-79 -183h159zM517 170l141 325q19 41 2.5 58.5t-77.5 17.5v29h241v-29q-51 0 -75 -17.5t-47 -70.5l-217 -500h-22l-95 217h-198l-41 -95q-19 -41 -2.5 -58.5t77.5 -17.5v-29h-242v29q52 0 76 17.5t47 70.5l217 500h21zM454 689l-15 -14l-128 83
l-128 -83l-15 14l143 155z" />
    <glyph glyph-name="Adieresis_V" unicode="&#xf2ca;" horiz-adv-x="787" 
d="M349 245l-80 183l-79 -183h159zM517 170l141 325q19 41 2.5 58.5t-77.5 17.5v29h241v-29q-51 0 -75 -17.5t-47 -70.5l-217 -500h-22l-95 217h-198l-41 -95q-19 -41 -2.5 -58.5t77.5 -17.5v-29h-242v29q52 0 76 17.5t47 70.5l217 500h21zM409 776q22 0 36.5 -15t14.5 -36
t-14.5 -36t-36.5 -15q-21 0 -36 15t-15 36t15 36t36 15zM210 776q21 0 36 -15t15 -36t-15 -36t-36 -15q-20 0 -35.5 15t-15.5 36t15.5 36t35.5 15z" />
    <glyph glyph-name="Aring_V" unicode="&#xf2cb;" horiz-adv-x="787" 
d="M349 245l-80 183l-79 -183h159zM517 170l141 325q19 41 2.5 58.5t-77.5 17.5v29h241v-29q-51 0 -75 -17.5t-47 -70.5l-217 -500h-22l-95 217h-198l-41 -95q-19 -41 -2.5 -58.5t77.5 -17.5v-29h-242v29q52 0 76 17.5t47 70.5l217 500h21zM308 873q41 0 70.5 -29t29.5 -70
t-29.5 -70t-70.5 -29t-70 29t-29 70t29 70t70 29zM308 820q-19 0 -32 -13.5t-13 -32.5t13 -32.5t32 -13.5t32.5 13.5t13.5 32.5t-13.5 32.5t-32.5 13.5z" />
    <glyph glyph-name="Agrave_A" unicode="&#xf2cc;" horiz-adv-x="1033" 
d="M757 245l-80 183l-79 -183h159zM349 245l-80 183l-79 -183h159zM483 -17h-21l-94 217h-198l-41 -95q-19 -41 -2.5 -58.5t77.5 -17.5v-29h-242v29q52 0 76 17.5t47 70.5l217 500h21l194 -444l192 444h22l217 -500q24 -53 45.5 -70.5t77.5 -17.5v-29h-328v29q64 0 79.5 18
t-4.5 58l-42 95h-198zM381 682l-7 -9l-179 75q-30 16 -30 40q0 13 10 25t27 12q24 0 57 -30z" />
    <glyph glyph-name="Atilde_A" unicode="&#xf2cd;" horiz-adv-x="1033" 
d="M757 245l-80 183l-79 -183h159zM349 245l-80 183l-79 -183h159zM483 -17h-21l-94 217h-198l-41 -95q-19 -41 -2.5 -58.5t77.5 -17.5v-29h-242v29q52 0 76 17.5t47 70.5l217 500h21l194 -444l192 444h22l217 -500q24 -53 45.5 -70.5t77.5 -17.5v-29h-328v29q64 0 79.5 18
t-4.5 58l-42 95h-198zM389 731q39 0 52 57h19q0 -56 -22 -88t-60 -32q-22 0 -77 33t-71 33t-30 -16t-21 -39h-18q0 51 22.5 84.5t54.5 33.5q25 0 77.5 -33t73.5 -33z" />
    <glyph glyph-name="Acircumflex_A" unicode="&#xf2ce;" horiz-adv-x="1033" 
d="M757 245l-80 183l-79 -183h159zM349 245l-80 183l-79 -183h159zM483 -17h-21l-94 217h-198l-41 -95q-19 -41 -2.5 -58.5t77.5 -17.5v-29h-242v29q52 0 76 17.5t47 70.5l217 500h21l194 -444l192 444h22l217 -500q24 -53 45.5 -70.5t77.5 -17.5v-29h-328v29q64 0 79.5 18
t-4.5 58l-42 95h-198zM454 689l-15 -14l-128 83l-128 -83l-15 14l143 155z" />
    <glyph glyph-name="Aacute_A" unicode="&#xf2cf;" horiz-adv-x="1033" 
d="M757 245l-80 183l-79 -183h159zM349 245l-80 183l-79 -183h159zM483 -17h-21l-94 217h-198l-41 -95q-19 -41 -2.5 -58.5t77.5 -17.5v-29h-242v29q52 0 76 17.5t47 70.5l217 500h21l194 -444l192 444h22l217 -500q24 -53 45.5 -70.5t77.5 -17.5v-29h-328v29q64 0 79.5 18
t-4.5 58l-42 95h-198zM447 788q0 -24 -30 -40l-179 -75l-6 9l121 113q33 30 57 30q17 0 27 -12t10 -25z" />
    <glyph glyph-name="Adieresis_A" unicode="&#xf2d0;" horiz-adv-x="1033" 
d="M757 245l-80 183l-79 -183h159zM349 245l-80 183l-79 -183h159zM483 -17h-21l-94 217h-198l-41 -95q-19 -41 -2.5 -58.5t77.5 -17.5v-29h-242v29q52 0 76 17.5t47 70.5l217 500h21l194 -444l192 444h22l217 -500q24 -53 45.5 -70.5t77.5 -17.5v-29h-328v29q64 0 79.5 18
t-4.5 58l-42 95h-198zM409 776q22 0 36.5 -15t14.5 -36t-14.5 -36t-36.5 -15q-21 0 -36 15t-15 36t15 36t36 15zM210 776q21 0 36 -15t15 -36t-15 -36t-36 -15q-20 0 -35.5 15t-15.5 36t15.5 36t35.5 15z" />
    <glyph glyph-name="Aring_A" unicode="&#xf2d1;" horiz-adv-x="1033" 
d="M757 245l-80 183l-79 -183h159zM349 245l-80 183l-79 -183h159zM483 -17h-21l-94 217h-198l-41 -95q-19 -41 -2.5 -58.5t77.5 -17.5v-29h-242v29q52 0 76 17.5t47 70.5l217 500h21l194 -444l192 444h22l217 -500q24 -53 45.5 -70.5t77.5 -17.5v-29h-328v29q64 0 79.5 18
t-4.5 58l-42 95h-198zM308 873q41 0 70.5 -29t29.5 -70t-29.5 -70t-70.5 -29t-70 29t-29 70t29 70t70 29zM308 820q-19 0 -32 -13.5t-13 -32.5t13 -32.5t32 -13.5t32.5 13.5t13.5 32.5t-13.5 32.5t-32.5 13.5z" />
    <glyph glyph-name="A_Agrave" unicode="&#xf2d2;" horiz-adv-x="1033" 
d="M757 245l-80 183l-79 -183h159zM349 245l-80 183l-79 -183h159zM483 -17h-21l-94 217h-198l-41 -95q-19 -41 -2.5 -58.5t77.5 -17.5v-29h-242v29q52 0 76 17.5t47 70.5l217 500h21l194 -444l192 444h22l217 -500q24 -53 45.5 -70.5t77.5 -17.5v-29h-328v29q64 0 79.5 18
t-4.5 58l-42 95h-198zM789 682l-6 -9l-180 75q-30 14 -30 40q0 13 10 25t27 12q25 0 58 -30z" />
    <glyph glyph-name="A_Atilde" unicode="&#xf2d3;" horiz-adv-x="1033" 
d="M757 245l-80 183l-79 -183h159zM349 245l-80 183l-79 -183h159zM483 -17h-21l-94 217h-198l-41 -95q-19 -41 -2.5 -58.5t77.5 -17.5v-29h-242v29q52 0 76 17.5t47 70.5l217 500h21l194 -444l192 444h22l217 -500q24 -53 45.5 -70.5t77.5 -17.5v-29h-328v29q64 0 79.5 18
t-4.5 58l-42 95h-198zM798 731q38 0 51 57h19q0 -56 -22 -88t-60 -32q-22 0 -77 33t-71 33q-15 0 -29.5 -16t-20.5 -39h-19q0 51 22.5 84.5t55.5 33.5q24 0 76.5 -33t74.5 -33z" />
    <glyph glyph-name="A_Acircumflex" unicode="&#xf2d4;" horiz-adv-x="1033" 
d="M757 245l-80 183l-79 -183h159zM349 245l-80 183l-79 -183h159zM483 -17h-21l-94 217h-198l-41 -95q-19 -41 -2.5 -58.5t77.5 -17.5v-29h-242v29q52 0 76 17.5t47 70.5l217 500h21l194 -444l192 444h22l217 -500q24 -53 45.5 -70.5t77.5 -17.5v-29h-328v29q64 0 79.5 18
t-4.5 58l-42 95h-198zM863 689l-15 -14l-129 83l-128 -83l-15 14l143 155z" />
    <glyph glyph-name="A_Aacute" unicode="&#xf2d5;" horiz-adv-x="1033" 
d="M757 245l-80 183l-79 -183h159zM349 245l-80 183l-79 -183h159zM483 -17h-21l-94 217h-198l-41 -95q-19 -41 -2.5 -58.5t77.5 -17.5v-29h-242v29q52 0 76 17.5t47 70.5l217 500h21l194 -444l192 444h22l217 -500q24 -53 45.5 -70.5t77.5 -17.5v-29h-328v29q64 0 79.5 18
t-4.5 58l-42 95h-198zM855 788q0 -14 -9.5 -24.5t-20.5 -15.5l-179 -75l-6 9l121 113q33 30 57 30q17 0 27 -12t10 -25z" />
    <glyph glyph-name="A_Adieresis" unicode="&#xf2d6;" horiz-adv-x="1033" 
d="M757 245l-80 183l-79 -183h159zM349 245l-80 183l-79 -183h159zM483 -17h-21l-94 217h-198l-41 -95q-19 -41 -2.5 -58.5t77.5 -17.5v-29h-242v29q52 0 76 17.5t47 70.5l217 500h21l194 -444l192 444h22l217 -500q24 -53 45.5 -70.5t77.5 -17.5v-29h-328v29q64 0 79.5 18
t-4.5 58l-42 95h-198zM818 776q21 0 35.5 -15t14.5 -36t-14.5 -36t-35.5 -15q-22 0 -36.5 15t-14.5 36t14.5 36t36.5 15zM618 776q22 0 36.5 -15t14.5 -36t-14.5 -36t-36.5 -15q-20 0 -35 15t-15 36t15 36t35 15z" />
    <glyph glyph-name="A_Aring" unicode="&#xf2d7;" horiz-adv-x="1033" 
d="M757 245l-80 183l-79 -183h159zM349 245l-80 183l-79 -183h159zM483 -17h-21l-94 217h-198l-41 -95q-19 -41 -2.5 -58.5t77.5 -17.5v-29h-242v29q52 0 76 17.5t47 70.5l217 500h21l194 -444l192 444h22l217 -500q24 -53 45.5 -70.5t77.5 -17.5v-29h-328v29q64 0 79.5 18
t-4.5 58l-42 95h-198zM717 873q41 0 70 -29t29 -70t-29 -70t-70 -29t-70 29t-29 70t29 70t70 29zM717 820q-19 0 -32.5 -13.5t-13.5 -32.5t13.5 -32.5t32.5 -13.5t32.5 13.5t13.5 32.5t-13.5 32.5t-32.5 13.5z" />
    <glyph glyph-name="Oacute_C" unicode="&#xf2d8;" horiz-adv-x="975" 
d="M469 53q-54 44 -84.5 108.5t-30.5 138.5q0 73 30.5 137.5t84.5 109.5q-39 22 -90 22q-70 0 -119 -43t-69 -102t-20 -124t20 -124t69 -102t119 -43q51 0 90 22zM529 493q-48 -73 -48 -193t48 -193q59 76 59 193t-59 193zM585 548q60 -44 94 -108.5t34 -139.5
q0 -74 -34 -139t-94 -109q35 -21 80 -21q75 0 131 52.5t77 147.5h29v-220h-29q-9 45 -25 57q-83 -85 -187 -85q-71 0 -135 33q-69 -33 -147 -33q-137 0 -235 93t-98 224t98 224t235 93q78 0 147 -33q64 33 135 33q105 0 187 -85q16 14 25 57h29v-220h-29q-21 96 -76.5 148
t-131.5 52q-45 0 -80 -21zM517 788q0 -26 -30 -40l-179 -75l-6 9l121 113q31 30 57 30q17 0 27 -12t10 -25z" />
    <glyph glyph-name="Ocircumflex_C" unicode="&#xf2d9;" horiz-adv-x="975" 
d="M469 53q-54 44 -84.5 108.5t-30.5 138.5q0 73 30.5 137.5t84.5 109.5q-39 22 -90 22q-70 0 -119 -43t-69 -102t-20 -124t20 -124t69 -102t119 -43q51 0 90 22zM529 493q-48 -73 -48 -193t48 -193q59 76 59 193t-59 193zM585 548q60 -44 94 -108.5t34 -139.5
q0 -74 -34 -139t-94 -109q35 -21 80 -21q75 0 131 52.5t77 147.5h29v-220h-29q-9 45 -25 57q-83 -85 -187 -85q-71 0 -135 33q-69 -33 -147 -33q-137 0 -235 93t-98 224t98 224t235 93q78 0 147 -33q64 33 135 33q105 0 187 -85q16 14 25 57h29v-220h-29q-21 96 -76.5 148
t-131.5 52q-45 0 -80 -21zM523 687l-15 -14l-128 83l-128 -83l-15 14l143 155z" />
    <glyph glyph-name="Ograve_C" unicode="&#xf2da;" horiz-adv-x="975" 
d="M469 53q-54 44 -84.5 108.5t-30.5 138.5q0 73 30.5 137.5t84.5 109.5q-39 22 -90 22q-70 0 -119 -43t-69 -102t-20 -124t20 -124t69 -102t119 -43q51 0 90 22zM529 493q-48 -73 -48 -193t48 -193q59 76 59 193t-59 193zM585 548q60 -44 94 -108.5t34 -139.5
q0 -74 -34 -139t-94 -109q35 -21 80 -21q75 0 131 52.5t77 147.5h29v-220h-29q-9 45 -25 57q-83 -85 -187 -85q-71 0 -135 33q-69 -33 -147 -33q-137 0 -235 93t-98 224t98 224t235 93q78 0 147 -33q64 33 135 33q105 0 187 -85q16 14 25 57h29v-220h-29q-21 96 -76.5 148
t-131.5 52q-45 0 -80 -21zM451 682l-7 -9l-179 75q-11 5 -20.5 15.5t-9.5 24.5q0 13 10 25t27 12q26 0 57 -30z" />
    <glyph glyph-name="Otilde_C" unicode="&#xf2db;" horiz-adv-x="975" 
d="M469 53q-54 44 -84.5 108.5t-30.5 138.5q0 73 30.5 137.5t84.5 109.5q-39 22 -90 22q-70 0 -119 -43t-69 -102t-20 -124t20 -124t69 -102t119 -43q51 0 90 22zM529 493q-48 -73 -48 -193t48 -193q59 76 59 193t-59 193zM585 548q60 -44 94 -108.5t34 -139.5
q0 -74 -34 -139t-94 -109q35 -21 80 -21q75 0 131 52.5t77 147.5h29v-220h-29q-9 45 -25 57q-83 -85 -187 -85q-71 0 -135 33q-69 -33 -147 -33q-137 0 -235 93t-98 224t98 224t235 93q78 0 147 -33q64 33 135 33q105 0 187 -85q16 14 25 57h29v-220h-29q-21 96 -76.5 148
t-131.5 52q-45 0 -80 -21zM459 731q39 0 52 57h19q0 -56 -22 -88t-60 -32q-22 0 -77 33t-71 33t-30 -16t-21 -39h-18q0 51 22.5 84.5t54.5 33.5q25 0 77.5 -33t73.5 -33z" />
    <glyph glyph-name="Odieresis_C" unicode="&#xf2dc;" horiz-adv-x="975" 
d="M469 53q-54 44 -84.5 108.5t-30.5 138.5q0 73 30.5 137.5t84.5 109.5q-39 22 -90 22q-70 0 -119 -43t-69 -102t-20 -124t20 -124t69 -102t119 -43q51 0 90 22zM529 493q-48 -73 -48 -193t48 -193q59 76 59 193t-59 193zM585 548q60 -44 94 -108.5t34 -139.5
q0 -74 -34 -139t-94 -109q35 -21 80 -21q75 0 131 52.5t77 147.5h29v-220h-29q-9 45 -25 57q-83 -85 -187 -85q-71 0 -135 33q-69 -33 -147 -33q-137 0 -235 93t-98 224t98 224t235 93q78 0 147 -33q64 33 135 33q105 0 187 -85q16 14 25 57h29v-220h-29q-21 96 -76.5 148
t-131.5 52q-45 0 -80 -21zM481 776q21 0 36 -15t15 -36t-15 -36t-36 -15t-36 15t-15 36t15 36t36 15zM282 776q21 0 36 -15t15 -36t-15 -36t-36 -15t-36 15t-15 36t15 36t36 15z" />
    <glyph glyph-name="O_Ccedilla" unicode="&#xf2dd;" horiz-adv-x="975" 
d="M529 493q-48 -73 -48 -193t48 -193q59 76 59 193t-59 193zM469 53q-54 44 -84.5 108.5t-30.5 138.5q0 73 30.5 137.5t84.5 109.5q-39 22 -90 22q-70 0 -119 -43t-69 -102t-20 -124t20 -124t69 -102t119 -43q51 0 90 22zM663 -17l-49 -49q41 -2 75 -27.5t34 -74.5
q0 -33 -23 -59.5t-58 -41t-61 -22t-48 -10.5v36q111 34 111 97q0 33 -41.5 46t-89.5 -3v18l95 95q-40 7 -82 28q-69 -33 -147 -33q-137 0 -235 93t-98 224t98 224t235 93q78 0 147 -33q64 33 135 33q105 0 187 -85q16 14 25 57h29v-220h-29q-21 96 -76.5 148t-131.5 52
q-45 0 -80 -21q60 -44 94 -108.5t34 -139.5q0 -74 -34 -139t-94 -109q35 -21 80 -21q75 0 131 52.5t77 147.5h29v-220h-29q-9 45 -25 57q-82 -84 -185 -85z" />
    <glyph glyph-name="M_Ecircumflex" unicode="&#xf2de;" horiz-adv-x="1104" 
d="M1016 600l8 -141h-29l-5 20q-7 30 -15.5 44t-32 23t-68.5 9h-152v-215h54q75 0 96 17t21 79h29v-237h-29q0 63 -20.5 79.5t-96.5 16.5h-54v-133q0 -76 16.5 -96.5t79.5 -20.5h90q64 0 84 16t31 60l5 20h30l-9 -141h-548v29q62 0 79 21t17 96v289l-196 -452h-22l-201 451
v-288q0 -75 17 -96t79 -21v-29h-236v29q62 0 78.5 21t16.5 96v308q0 75 -16.5 96t-78.5 21v29h200l193 -433l187 433h398zM938 689l-15 -14l-129 83l-128 -83l-15 14l143 155z" />
    <glyph glyph-name="M_Edieresis" unicode="&#xf2df;" horiz-adv-x="1104" 
d="M1016 600l8 -141h-29l-5 20q-7 30 -15.5 44t-32 23t-68.5 9h-152v-215h54q75 0 96 17t21 79h29v-237h-29q0 63 -20.5 79.5t-96.5 16.5h-54v-133q0 -76 16.5 -96.5t79.5 -20.5h90q64 0 84 16t31 60l5 20h30l-9 -141h-548v29q62 0 79 21t17 96v289l-196 -452h-22l-201 451
v-288q0 -75 17 -96t79 -21v-29h-236v29q62 0 78.5 21t16.5 96v308q0 75 -16.5 96t-78.5 21v29h200l193 -433l187 433h398zM905 776q21 0 36 -15t15 -36t-15 -36t-36 -15t-36 15t-15 36t15 36t36 15zM706 776q21 0 36 -15t15 -36t-15 -36t-36 -15t-36 15t-15 36t15 36t36 15z
" />
    <glyph glyph-name="M_Egrave" unicode="&#xf2e0;" horiz-adv-x="1104" 
d="M1016 600l8 -141h-29l-5 20q-7 30 -15.5 44t-32 23t-68.5 9h-152v-215h54q75 0 96 17t21 79h29v-237h-29q0 63 -20.5 79.5t-96.5 16.5h-54v-133q0 -76 16.5 -96.5t79.5 -20.5h90q64 0 84 16t31 60l5 20h30l-9 -141h-548v29q62 0 79 21t17 96v289l-196 -452h-22l-201 451
v-288q0 -75 17 -96t79 -21v-29h-236v29q62 0 78.5 21t16.5 96v308q0 75 -16.5 96t-78.5 21v29h200l193 -433l187 433h398zM876 682l-7 -9l-179 75q-11 5 -20.5 15.5t-9.5 24.5q0 13 10 25t27 12q25 0 57 -30z" />
    <glyph glyph-name="M_Eacute" unicode="&#xf2e1;" horiz-adv-x="1104" 
d="M1016 600l8 -141h-29l-5 20q-7 30 -15.5 44t-32 23t-68.5 9h-152v-215h54q75 0 96 17t21 79h29v-237h-29q0 63 -20.5 79.5t-96.5 16.5h-54v-133q0 -76 16.5 -96.5t79.5 -20.5h90q64 0 84 16t31 60l5 20h30l-9 -141h-548v29q62 0 79 21t17 96v289l-196 -452h-22l-201 451
v-288q0 -75 17 -96t79 -21v-29h-236v29q62 0 78.5 21t16.5 96v308q0 75 -16.5 96t-78.5 21v29h200l193 -433l187 433h398zM961 788q0 -26 -30 -39l-179 -76l-6 10l121 113q31 30 57 30q17 0 27 -12t10 -26z" />
    <glyph glyph-name="Oacute_G" unicode="&#xf2e2;" horiz-adv-x="1008" 
d="M469 53q-54 44 -84.5 108.5t-30.5 138.5q0 73 30.5 137.5t84.5 109.5q-39 22 -90 22q-70 0 -119 -43t-69 -102t-20 -124t20 -124t69 -102t119 -43q51 0 90 22zM529 493q-48 -73 -48 -193t48 -193q59 76 59 193t-59 193zM585 548q60 -44 94 -108.5t34 -139.5
q0 -74 -34 -139t-94 -109q35 -21 80 -21q65 0 107.5 30t42.5 94q0 33 -14 48.5t-47 15.5v29h263v-29q-63 0 -79.5 -20.5t-16.5 -95.5v-68q-61 0 -136.5 -26t-123.5 -26q-71 0 -135 33q-69 -33 -147 -33q-137 0 -235 93t-98 224t98 224t235 93q78 0 147 -33q64 33 135 33
q105 0 187 -85q16 14 25 57h29v-220h-29q-21 96 -76.5 148t-131.5 52q-45 0 -80 -21zM517 788q0 -26 -30 -40l-179 -75l-6 9l121 113q31 30 57 30q17 0 27 -12t10 -25z" />
    <glyph glyph-name="Ocircumflex_G" unicode="&#xf2e3;" horiz-adv-x="1008" 
d="M469 53q-54 44 -84.5 108.5t-30.5 138.5q0 73 30.5 137.5t84.5 109.5q-39 22 -90 22q-70 0 -119 -43t-69 -102t-20 -124t20 -124t69 -102t119 -43q51 0 90 22zM529 493q-48 -73 -48 -193t48 -193q59 76 59 193t-59 193zM585 548q60 -44 94 -108.5t34 -139.5
q0 -74 -34 -139t-94 -109q35 -21 80 -21q65 0 107.5 30t42.5 94q0 33 -14 48.5t-47 15.5v29h263v-29q-63 0 -79.5 -20.5t-16.5 -95.5v-68q-61 0 -136.5 -26t-123.5 -26q-71 0 -135 33q-69 -33 -147 -33q-137 0 -235 93t-98 224t98 224t235 93q78 0 147 -33q64 33 135 33
q105 0 187 -85q16 14 25 57h29v-220h-29q-21 96 -76.5 148t-131.5 52q-45 0 -80 -21zM523 687l-15 -14l-128 83l-128 -83l-15 14l143 155z" />
    <glyph glyph-name="Ograve_G" unicode="&#xf2e4;" horiz-adv-x="1008" 
d="M469 53q-54 44 -84.5 108.5t-30.5 138.5q0 73 30.5 137.5t84.5 109.5q-39 22 -90 22q-70 0 -119 -43t-69 -102t-20 -124t20 -124t69 -102t119 -43q51 0 90 22zM529 493q-48 -73 -48 -193t48 -193q59 76 59 193t-59 193zM585 548q60 -44 94 -108.5t34 -139.5
q0 -74 -34 -139t-94 -109q35 -21 80 -21q65 0 107.5 30t42.5 94q0 33 -14 48.5t-47 15.5v29h263v-29q-63 0 -79.5 -20.5t-16.5 -95.5v-68q-61 0 -136.5 -26t-123.5 -26q-71 0 -135 33q-69 -33 -147 -33q-137 0 -235 93t-98 224t98 224t235 93q78 0 147 -33q64 33 135 33
q105 0 187 -85q16 14 25 57h29v-220h-29q-21 96 -76.5 148t-131.5 52q-45 0 -80 -21zM451 682l-7 -9l-179 75q-11 5 -20.5 15.5t-9.5 24.5q0 13 10 25t27 12q26 0 57 -30z" />
    <glyph glyph-name="Otilde_G" unicode="&#xf2e5;" horiz-adv-x="1008" 
d="M469 53q-54 44 -84.5 108.5t-30.5 138.5q0 73 30.5 137.5t84.5 109.5q-39 22 -90 22q-70 0 -119 -43t-69 -102t-20 -124t20 -124t69 -102t119 -43q51 0 90 22zM529 493q-48 -73 -48 -193t48 -193q59 76 59 193t-59 193zM585 548q60 -44 94 -108.5t34 -139.5
q0 -74 -34 -139t-94 -109q35 -21 80 -21q65 0 107.5 30t42.5 94q0 33 -14 48.5t-47 15.5v29h263v-29q-63 0 -79.5 -20.5t-16.5 -95.5v-68q-61 0 -136.5 -26t-123.5 -26q-71 0 -135 33q-69 -33 -147 -33q-137 0 -235 93t-98 224t98 224t235 93q78 0 147 -33q64 33 135 33
q105 0 187 -85q16 14 25 57h29v-220h-29q-21 96 -76.5 148t-131.5 52q-45 0 -80 -21zM459 731q39 0 52 57h19q0 -56 -22 -88t-60 -32q-22 0 -77 33t-71 33t-30 -16t-21 -39h-18q0 51 22.5 84.5t54.5 33.5q25 0 77.5 -33t73.5 -33z" />
    <glyph glyph-name="Odieresis_G" unicode="&#xf2e6;" horiz-adv-x="1008" 
d="M469 53q-54 44 -84.5 108.5t-30.5 138.5q0 73 30.5 137.5t84.5 109.5q-39 22 -90 22q-70 0 -119 -43t-69 -102t-20 -124t20 -124t69 -102t119 -43q51 0 90 22zM529 493q-48 -73 -48 -193t48 -193q59 76 59 193t-59 193zM585 548q60 -44 94 -108.5t34 -139.5
q0 -74 -34 -139t-94 -109q35 -21 80 -21q65 0 107.5 30t42.5 94q0 33 -14 48.5t-47 15.5v29h263v-29q-63 0 -79.5 -20.5t-16.5 -95.5v-68q-61 0 -136.5 -26t-123.5 -26q-71 0 -135 33q-69 -33 -147 -33q-137 0 -235 93t-98 224t98 224t235 93q78 0 147 -33q64 33 135 33
q105 0 187 -85q16 14 25 57h29v-220h-29q-21 96 -76.5 148t-131.5 52q-45 0 -80 -21zM481 776q21 0 36 -15t15 -36t-15 -36t-36 -15t-36 15t-15 36t15 36t36 15zM282 776q21 0 36 -15t15 -36t-15 -36t-36 -15t-36 15t-15 36t15 36t36 15z" />
    <glyph glyph-name="H_Ecircumflex" unicode="&#xf2e7;" horiz-adv-x="1073" 
d="M565 296h-307v-150q0 -75 17 -96t79 -21v-29h-316v29q62 0 78.5 21t16.5 96v308q0 75 -16.5 96t-78.5 21v29h316v-29q-62 0 -79 -21t-17 -96v-113h307v113q0 76 -16.5 96.5t-79.5 20.5v29h515l9 -141h-30l-5 20q-11 44 -31 60t-84 16h-153v-215h54q75 0 96 17t21 79h29
v-237h-29q0 63 -20.5 79.5t-96.5 16.5h-54v-133q0 -75 17 -96t79 -21h90q64 0 84 15.5t32 60.5l5 20h29l-8 -141h-549v29q63 0 79.5 20.5t16.5 96.5v150zM906 689l-15 -14l-128 83l-129 -83l-15 14l144 155z" />
    <glyph glyph-name="H_Edieresis" unicode="&#xf2e8;" horiz-adv-x="1073" 
d="M565 296h-307v-150q0 -75 17 -96t79 -21v-29h-316v29q62 0 78.5 21t16.5 96v308q0 75 -16.5 96t-78.5 21v29h316v-29q-62 0 -79 -21t-17 -96v-113h307v113q0 76 -16.5 96.5t-79.5 20.5v29h515l9 -141h-30l-5 20q-11 44 -31 60t-84 16h-153v-215h54q75 0 96 17t21 79h29
v-237h-29q0 63 -20.5 79.5t-96.5 16.5h-54v-133q0 -75 17 -96t79 -21h90q64 0 84 15.5t32 60.5l5 20h29l-8 -141h-549v29q63 0 79.5 20.5t16.5 96.5v150zM873 776q22 0 36.5 -15t14.5 -36t-14.5 -36t-36.5 -15q-21 0 -35.5 15t-14.5 36t14.5 36t35.5 15zM674 776
q22 0 36.5 -15t14.5 -36t-14.5 -36t-36.5 -15q-20 0 -35.5 15t-15.5 36t15.5 36t35.5 15z" />
    <glyph glyph-name="H_Egrave" unicode="&#xf2e9;" horiz-adv-x="1073" 
d="M565 296h-307v-150q0 -75 17 -96t79 -21v-29h-316v29q62 0 78.5 21t16.5 96v308q0 75 -16.5 96t-78.5 21v29h316v-29q-62 0 -79 -21t-17 -96v-113h307v113q0 76 -16.5 96.5t-79.5 20.5v29h515l9 -141h-30l-5 20q-11 44 -31 60t-84 16h-153v-215h54q75 0 96 17t21 79h29
v-237h-29q0 63 -20.5 79.5t-96.5 16.5h-54v-133q0 -75 17 -96t79 -21h90q64 0 84 15.5t32 60.5l5 20h29l-8 -141h-549v29q63 0 79.5 20.5t16.5 96.5v150zM844 682l-6 -9l-180 75q-30 14 -30 40q0 13 10 25t27 12q25 0 58 -30z" />
    <glyph glyph-name="H_Eacute" unicode="&#xf2ea;" horiz-adv-x="1073" 
d="M565 296h-307v-150q0 -75 17 -96t79 -21v-29h-316v29q62 0 78.5 21t16.5 96v308q0 75 -16.5 96t-78.5 21v29h316v-29q-62 0 -79 -21t-17 -96v-113h307v113q0 76 -16.5 96.5t-79.5 20.5v29h515l9 -141h-30l-5 20q-11 44 -31 60t-84 16h-153v-215h54q75 0 96 17t21 79h29
v-237h-29q0 63 -20.5 79.5t-96.5 16.5h-54v-133q0 -75 17 -96t79 -21h90q64 0 84 15.5t32 60.5l5 20h29l-8 -141h-549v29q63 0 79.5 20.5t16.5 96.5v150zM929 788q0 -26 -30 -39l-179 -76l-6 10l121 113q33 30 58 30q17 0 26.5 -12t9.5 -26z" />
    <glyph glyph-name="F_Iacute" unicode="&#xf2eb;" horiz-adv-x="944" 
d="M907 600v-29q-63 0 -79.5 -20.5t-16.5 -96.5v-308q0 -76 16.5 -96.5t79.5 -20.5v-29h-317v29q62 0 79 21t17 96v292q0 75 -17 96t-79 21h-332v-215h55q75 0 95.5 17t20.5 79h29v-237h-29q0 63 -20.5 79.5t-95.5 16.5h-55v-149q0 -75 17 -96t79 -21v-29h-316v29
q62 0 78.5 21t16.5 96v308q0 75 -16.5 96t-78.5 21v29h869zM903 788q0 -26 -30 -40l-180 -75l-5 9l120 113q33 30 58 30q17 0 27 -12t10 -25z" />
    <glyph glyph-name="F_Icircumflex" unicode="&#xf2ec;" horiz-adv-x="944" 
d="M907 600v-29q-63 0 -79.5 -20.5t-16.5 -96.5v-308q0 -76 16.5 -96.5t79.5 -20.5v-29h-317v29q62 0 79 21t17 96v292q0 75 -17 96t-79 21h-332v-215h55q75 0 95.5 17t20.5 79h29v-237h-29q0 63 -20.5 79.5t-95.5 16.5h-55v-149q0 -75 17 -96t79 -21v-29h-316v29
q62 0 78.5 21t16.5 96v308q0 75 -16.5 96t-78.5 21v29h869zM895 689l-15 -14l-128 83l-129 -83l-15 14l144 155z" />
    <glyph glyph-name="F_Idieresis" unicode="&#xf2ed;" horiz-adv-x="944" 
d="M907 600v-29q-63 0 -79.5 -20.5t-16.5 -96.5v-308q0 -76 16.5 -96.5t79.5 -20.5v-29h-317v29q62 0 79 21t17 96v292q0 75 -17 96t-79 21h-332v-215h55q75 0 95.5 17t20.5 79h29v-237h-29q0 63 -20.5 79.5t-95.5 16.5h-55v-149q0 -75 17 -96t79 -21v-29h-316v29
q62 0 78.5 21t16.5 96v308q0 75 -16.5 96t-78.5 21v29h869zM850 776q21 0 36 -15t15 -36t-15 -36t-36 -15t-36 15t-15 36t15 36t36 15zM651 776q21 0 36 -15t15 -36t-15 -36t-36 -15t-36 15t-15 36t15 36t36 15z" />
    <glyph glyph-name="F_Igrave" unicode="&#xf2ee;" horiz-adv-x="944" 
d="M907 600v-29q-63 0 -79.5 -20.5t-16.5 -96.5v-308q0 -76 16.5 -96.5t79.5 -20.5v-29h-317v29q62 0 79 21t17 96v292q0 75 -17 96t-79 21h-332v-215h55q75 0 95.5 17t20.5 79h29v-237h-29q0 63 -20.5 79.5t-95.5 16.5h-55v-149q0 -75 17 -96t79 -21v-29h-316v29
q62 0 78.5 21t16.5 96v308q0 75 -16.5 96t-78.5 21v29h869zM806 682l-7 -9l-179 75q-11 5 -20.5 15.5t-9.5 24.5q0 13 10 25t27 12q25 0 57 -30z" />
    <glyph glyph-name="Udieresis_B" unicode="&#xf2ef;" horiz-adv-x="1078" 
d="M770 45q61 1 93 36t32 89t-32.5 89.5t-94.5 35.5h-89v-139q0 -70 16 -90t75 -21zM679 555v-215h56q54 0 82 30t28 77q0 46 -28 77t-82 31h-56zM554 0v63q-66 -80 -187 -80q-104 0 -172 63t-68 177v231q0 75 -17 96t-79 21v29h317v-29q-63 0 -79.5 -20.5t-16.5 -96.5v-220
q0 -93 43.5 -141t111.5 -48q67 0 107 48t40 141v220q0 76 -16.5 96.5t-79.5 20.5v29h340q81 0 131 -43t50 -107q0 -81 -74 -124q58 -18 91 -60.5t33 -97.5q0 -72 -55.5 -120t-146.5 -48h-273zM489 777q22 0 36.5 -15t14.5 -36t-14.5 -36t-36.5 -15q-21 0 -36 15t-15 36
t15 36t36 15zM290 777q21 0 36 -15t15 -36t-15 -36t-36 -15q-20 0 -35.5 15t-15.5 36t15.5 36t35.5 15z" />
    <glyph glyph-name="Uacute_B" unicode="&#xf2f0;" horiz-adv-x="1078" 
d="M770 45q61 1 93 36t32 89t-32.5 89.5t-94.5 35.5h-89v-139q0 -70 16 -90t75 -21zM679 555v-215h56q54 0 82 30t28 77q0 46 -28 77t-82 31h-56zM554 0v63q-66 -80 -187 -80q-104 0 -172 63t-68 177v231q0 75 -17 96t-79 21v29h317v-29q-63 0 -79.5 -20.5t-16.5 -96.5v-220
q0 -93 43.5 -141t111.5 -48q67 0 107 48t40 141v220q0 76 -16.5 96.5t-79.5 20.5v29h340q81 0 131 -43t50 -107q0 -81 -74 -124q58 -18 91 -60.5t33 -97.5q0 -72 -55.5 -120t-146.5 -48h-273zM555 788q0 -24 -30 -40l-179 -75l-6 9l121 113q35 30 57 30q17 0 27 -12t10 -25z
" />
    <glyph glyph-name="Ucircumflex_B" unicode="&#xf2f1;" horiz-adv-x="1078" 
d="M770 45q61 1 93 36t32 89t-32.5 89.5t-94.5 35.5h-89v-139q0 -70 16 -90t75 -21zM679 555v-215h56q54 0 82 30t28 77q0 46 -28 77t-82 31h-56zM554 0v63q-66 -80 -187 -80q-104 0 -172 63t-68 177v231q0 75 -17 96t-79 21v29h317v-29q-63 0 -79.5 -20.5t-16.5 -96.5v-220
q0 -93 43.5 -141t111.5 -48q67 0 107 48t40 141v220q0 76 -16.5 96.5t-79.5 20.5v29h340q81 0 131 -43t50 -107q0 -81 -74 -124q58 -18 91 -60.5t33 -97.5q0 -72 -55.5 -120t-146.5 -48h-273zM534 689l-15 -14l-128 83l-128 -83l-15 14l143 155z" />
    <glyph glyph-name="Ugrave_B" unicode="&#xf2f2;" horiz-adv-x="1078" 
d="M770 45q61 1 93 36t32 89t-32.5 89.5t-94.5 35.5h-89v-139q0 -70 16 -90t75 -21zM679 555v-215h56q54 0 82 30t28 77q0 46 -28 77t-82 31h-56zM554 0v63q-66 -80 -187 -80q-104 0 -172 63t-68 177v231q0 75 -17 96t-79 21v29h317v-29q-63 0 -79.5 -20.5t-16.5 -96.5v-220
q0 -93 43.5 -141t111.5 -48q67 0 107 48t40 141v220q0 76 -16.5 96.5t-79.5 20.5v29h340q81 0 131 -43t50 -107q0 -81 -74 -124q58 -18 91 -60.5t33 -97.5q0 -72 -55.5 -120t-146.5 -48h-273zM429 682l-6 -9l-180 75q-30 18 -30 40q0 13 10 25t27 12q23 0 58 -30z" />
    <glyph glyph-name="Ntilde_K" unicode="&#xf2f3;" horiz-adv-x="1152" 
d="M622 -17h-30l-414 494v-331q0 -75 17 -96t79 -21v-29h-236v29q62 0 78.5 21t16.5 96v308q0 75 -16.5 96t-78.5 21v29h200l275 -329v183q0 75 -16.5 96t-78.5 21v29h300v-29q-63 0 -79.5 -20.5t-16.5 -96.5v-134l209 169q12 10 23 22t19.5 26.5t-0.5 24t-38 9.5v29h241
v-29q-40 0 -72.5 -11.5t-50.5 -24.5t-60 -46l-143 -114l278 -287q24 -24 64.5 -41.5t64.5 -17.5v-29h-333v29q42 0 53 14t-15 45l-198 214l-42 -35v-284zM458 726q39 0 52 57h19q0 -56 -22 -88t-60 -32q-23 0 -77 33t-71 33q-15 0 -29.5 -16t-21.5 -39h-18q0 51 22.5 84.5
t55.5 33.5q24 0 76.5 -33t73.5 -33z" />
    <glyph glyph-name="L_Agrave" unicode="&#xf2f4;" horiz-adv-x="1117" 
d="M841 245l-80 183l-79 -183h159zM38 0v29q62 0 78.5 21t16.5 96v308q0 75 -16.5 96t-78.5 21v29h316v-29q-62 0 -79 -21t-17 -96v-292q0 -75 17 -96t79 -21h73h34q51 0 75.5 17.5t46.5 70.5l210 484h22l218 -500q23 -53 44.5 -70.5t77.5 -17.5v-29h-328v29q64 0 79.5 18
t-4.5 58l-42 95h-198l-41 -95q-19 -41 -2.5 -58.5t77.5 -17.5v-29h-658zM873 682l-7 -9l-179 75q-11 5 -20.5 15.5t-9.5 24.5q0 13 9.5 25t26.5 12q25 0 58 -30z" />
    <glyph glyph-name="L_Atilde" unicode="&#xf2f5;" horiz-adv-x="1117" 
d="M841 245l-80 183l-79 -183h159zM38 0v29q62 0 78.5 21t16.5 96v308q0 75 -16.5 96t-78.5 21v29h316v-29q-62 0 -79 -21t-17 -96v-292q0 -75 17 -96t79 -21h73h34q51 0 75.5 17.5t46.5 70.5l210 484h22l218 -500q23 -53 44.5 -70.5t77.5 -17.5v-29h-328v29q64 0 79.5 18
t-4.5 58l-42 95h-198l-41 -95q-19 -41 -2.5 -58.5t77.5 -17.5v-29h-658zM881 731q38 0 52 57h19q0 -56 -22.5 -88t-60.5 -32q-22 0 -76 33t-71 33q-16 0 -30.5 -16t-20.5 -39h-18q0 51 22.5 84.5t54.5 33.5q25 0 77.5 -33t73.5 -33z" />
    <glyph glyph-name="L_Acircumflex" unicode="&#xf2f6;" horiz-adv-x="1117" 
d="M841 245l-80 183l-79 -183h159zM38 0v29q62 0 78.5 21t16.5 96v308q0 75 -16.5 96t-78.5 21v29h316v-29q-62 0 -79 -21t-17 -96v-292q0 -75 17 -96t79 -21h73h34q51 0 75.5 17.5t46.5 70.5l210 484h22l218 -500q23 -53 44.5 -70.5t77.5 -17.5v-29h-328v29q64 0 79.5 18
t-4.5 58l-42 95h-198l-41 -95q-19 -41 -2.5 -58.5t77.5 -17.5v-29h-658zM946 689l-15 -14l-128 83l-129 -83l-15 14l144 155z" />
    <glyph glyph-name="L_Aacute" unicode="&#xf2f7;" horiz-adv-x="1117" 
d="M841 245l-80 183l-79 -183h159zM38 0v29q62 0 78.5 21t16.5 96v308q0 75 -16.5 96t-78.5 21v29h316v-29q-62 0 -79 -21t-17 -96v-292q0 -75 17 -96t79 -21h73h34q51 0 75.5 17.5t46.5 70.5l210 484h22l218 -500q23 -53 44.5 -70.5t77.5 -17.5v-29h-328v29q64 0 79.5 18
t-4.5 58l-42 95h-198l-41 -95q-19 -41 -2.5 -58.5t77.5 -17.5v-29h-658zM938 788q0 -14 -9.5 -24.5t-20.5 -15.5l-179 -75l-6 9l121 113q33 30 58 30q17 0 26.5 -12t9.5 -25z" />
    <glyph glyph-name="L_Adieresis" unicode="&#xf2f8;" horiz-adv-x="1117" 
d="M841 245l-80 183l-79 -183h159zM38 0v29q62 0 78.5 21t16.5 96v308q0 75 -16.5 96t-78.5 21v29h316v-29q-62 0 -79 -21t-17 -96v-292q0 -75 17 -96t79 -21h73h34q51 0 75.5 17.5t46.5 70.5l210 484h22l218 -500q23 -53 44.5 -70.5t77.5 -17.5v-29h-328v29q64 0 79.5 18
t-4.5 58l-42 95h-198l-41 -95q-19 -41 -2.5 -58.5t77.5 -17.5v-29h-658zM901 776q21 0 36 -15t15 -36t-15 -36t-36 -15t-36 15t-15 36t15 36t36 15zM702 776q21 0 36 -15t15 -36t-15 -36t-36 -15t-36 15t-15 36t15 36t36 15z" />
    <glyph glyph-name="L_Aring" unicode="&#xf2f9;" horiz-adv-x="1117" 
d="M841 245l-80 183l-79 -183h159zM38 0v29q62 0 78.5 21t16.5 96v308q0 75 -16.5 96t-78.5 21v29h316v-29q-62 0 -79 -21t-17 -96v-292q0 -75 17 -96t79 -21h73h34q51 0 75.5 17.5t46.5 70.5l210 484h22l218 -500q23 -53 44.5 -70.5t77.5 -17.5v-29h-328v29q64 0 79.5 18
t-4.5 58l-42 95h-198l-41 -95q-19 -41 -2.5 -58.5t77.5 -17.5v-29h-658zM800 873q41 0 70 -29t29 -70t-29 -70t-70 -29t-70 29t-29 70t29 70t70 29zM800 820q-19 0 -32.5 -13.5t-13.5 -32.5t13.5 -32.5t32.5 -13.5t32.5 13.5t13.5 32.5t-13.5 32.5t-32.5 13.5z" />
    <glyph glyph-name="Ntilde_T" unicode="&#xf2fa;" horiz-adv-x="1308" 
d="M1291 600l8 -141h-29l-5 20q-7 30 -15.5 44t-32 23t-68.5 9h-100v-409q0 -75 17 -96t79 -21v-29h-317v29q63 0 79.5 20.5t16.5 96.5v409h-211q-63 0 -79.5 -20.5t-16.5 -96.5v-455h-25l-414 494v-331q0 -75 17 -96t79 -21v-29h-236v29q62 0 78.5 21t16.5 96v308
q0 75 -16.5 96t-78.5 21v29h200l334 -398v252q0 75 -17 96t-79 21v29h815zM458 726q39 0 52 57h19q0 -56 -22 -88t-60 -32q-23 0 -77 33t-71 33q-15 0 -29.5 -16t-21.5 -39h-18q0 51 22.5 84.5t55.5 33.5q24 0 76.5 -33t73.5 -33z" />
    <glyph glyph-name="Oacute_O" unicode="&#xf2fb;" horiz-adv-x="1067" 
d="M533 488q-54 -77 -54 -188t54 -188q55 77 55 188t-55 188zM533 581q75 36 155 36q137 0 235 -93t98 -224t-98 -224t-235 -93q-78 0 -155 36q-74 -36 -154 -36q-137 0 -235 93t-98 224t98 224t235 93q79 0 154 -36zM475 57q-56 45 -88.5 108.5t-32.5 134.5q0 72 32.5 136
t88.5 107q-41 26 -96 26q-70 0 -119 -43t-69 -102t-20 -124t20 -124t69 -102t119 -43q55 0 96 26zM592 543q56 -45 88.5 -108t32.5 -135t-32.5 -136t-88.5 -107q40 -26 96 -26q70 0 119 43t69 102t20 124t-20 124t-69 102t-119 43q-56 0 -96 -26zM517 788q0 -26 -30 -40
l-179 -75l-6 9l121 113q31 30 57 30q17 0 27 -12t10 -25z" />
    <glyph glyph-name="Ocircumflex_O" unicode="&#xf2fc;" horiz-adv-x="1067" 
d="M533 488q-54 -77 -54 -188t54 -188q55 77 55 188t-55 188zM533 581q75 36 155 36q137 0 235 -93t98 -224t-98 -224t-235 -93q-78 0 -155 36q-74 -36 -154 -36q-137 0 -235 93t-98 224t98 224t235 93q79 0 154 -36zM475 57q-56 45 -88.5 108.5t-32.5 134.5q0 72 32.5 136
t88.5 107q-41 26 -96 26q-70 0 -119 -43t-69 -102t-20 -124t20 -124t69 -102t119 -43q55 0 96 26zM592 543q56 -45 88.5 -108t32.5 -135t-32.5 -136t-88.5 -107q40 -26 96 -26q70 0 119 43t69 102t20 124t-20 124t-69 102t-119 43q-56 0 -96 -26zM523 687l-15 -14l-128 83
l-128 -83l-15 14l143 155z" />
    <glyph glyph-name="Ograve_O" unicode="&#xf2fd;" horiz-adv-x="1067" 
d="M533 488q-54 -77 -54 -188t54 -188q55 77 55 188t-55 188zM533 581q75 36 155 36q137 0 235 -93t98 -224t-98 -224t-235 -93q-78 0 -155 36q-74 -36 -154 -36q-137 0 -235 93t-98 224t98 224t235 93q79 0 154 -36zM475 57q-56 45 -88.5 108.5t-32.5 134.5q0 72 32.5 136
t88.5 107q-41 26 -96 26q-70 0 -119 -43t-69 -102t-20 -124t20 -124t69 -102t119 -43q55 0 96 26zM592 543q56 -45 88.5 -108t32.5 -135t-32.5 -136t-88.5 -107q40 -26 96 -26q70 0 119 43t69 102t20 124t-20 124t-69 102t-119 43q-56 0 -96 -26zM451 682l-7 -9l-179 75
q-11 5 -20.5 15.5t-9.5 24.5q0 13 10 25t27 12q26 0 57 -30z" />
    <glyph glyph-name="Otilde_O" unicode="&#xf2fe;" horiz-adv-x="1067" 
d="M533 488q-54 -77 -54 -188t54 -188q55 77 55 188t-55 188zM533 581q75 36 155 36q137 0 235 -93t98 -224t-98 -224t-235 -93q-78 0 -155 36q-74 -36 -154 -36q-137 0 -235 93t-98 224t98 224t235 93q79 0 154 -36zM475 57q-56 45 -88.5 108.5t-32.5 134.5q0 72 32.5 136
t88.5 107q-41 26 -96 26q-70 0 -119 -43t-69 -102t-20 -124t20 -124t69 -102t119 -43q55 0 96 26zM592 543q56 -45 88.5 -108t32.5 -135t-32.5 -136t-88.5 -107q40 -26 96 -26q70 0 119 43t69 102t20 124t-20 124t-69 102t-119 43q-56 0 -96 -26zM459 731q39 0 52 57h19
q0 -56 -22 -88t-60 -32q-22 0 -77 33t-71 33t-30 -16t-21 -39h-18q0 51 22.5 84.5t54.5 33.5q25 0 77.5 -33t73.5 -33z" />
    <glyph glyph-name="Odieresis_O" unicode="&#xf2ff;" horiz-adv-x="1067" 
d="M533 488q-54 -77 -54 -188t54 -188q55 77 55 188t-55 188zM533 581q75 36 155 36q137 0 235 -93t98 -224t-98 -224t-235 -93q-78 0 -155 36q-74 -36 -154 -36q-137 0 -235 93t-98 224t98 224t235 93q79 0 154 -36zM475 57q-56 45 -88.5 108.5t-32.5 134.5q0 72 32.5 136
t88.5 107q-41 26 -96 26q-70 0 -119 -43t-69 -102t-20 -124t20 -124t69 -102t119 -43q55 0 96 26zM592 543q56 -45 88.5 -108t32.5 -135t-32.5 -136t-88.5 -107q40 -26 96 -26q70 0 119 43t69 102t20 124t-20 124t-69 102t-119 43q-56 0 -96 -26zM481 776q21 0 36 -15
t15 -36t-15 -36t-36 -15t-36 15t-15 36t15 36t36 15zM282 776q21 0 36 -15t15 -36t-15 -36t-36 -15t-36 15t-15 36t15 36t36 15z" />
    <glyph glyph-name="O_Oacute" unicode="&#xf300;" horiz-adv-x="1067" 
d="M533 488q-54 -77 -54 -188t54 -188q55 77 55 188t-55 188zM533 581q75 36 155 36q137 0 235 -93t98 -224t-98 -224t-235 -93q-78 0 -155 36q-74 -36 -154 -36q-137 0 -235 93t-98 224t98 224t235 93q79 0 154 -36zM475 57q-56 45 -88.5 108.5t-32.5 134.5q0 72 32.5 136
t88.5 107q-41 26 -96 26q-70 0 -119 -43t-69 -102t-20 -124t20 -124t69 -102t119 -43q55 0 96 26zM592 543q56 -45 88.5 -108t32.5 -135t-32.5 -136t-88.5 -107q40 -26 96 -26q70 0 119 43t69 102t20 124t-20 124t-69 102t-119 43q-56 0 -96 -26zM825 788q0 -14 -9.5 -24.5
t-20.5 -15.5l-179 -75l-6 9l121 113q33 30 57 30q17 0 27 -12t10 -25z" />
    </font>
</defs>
</svg>
