<?xml version="1.0" standalone="no"?>
<!DOCTYPE svg PUBLIC "-//W3C//DTD SVG 1.1//EN" "http://www.w3.org/Graphics/SVG/1.1/DTD/svg11.dtd" >
<svg xmlns="http://www.w3.org/2000/svg">
<metadata></metadata>
<defs>
<font id="alfa_slab_oneregular" horiz-adv-x="0" >
<font-face units-per-em="2048" ascent="1638" descent="-410" />
<missing-glyph horiz-adv-x="614" />
<glyph />
<glyph />
<glyph horiz-adv-x="682" />
<glyph />
<glyph />
<glyph />
<glyph />
<glyph />
<glyph />
<glyph />
<glyph />
<glyph unicode="&#x9;" />
<glyph unicode="&#xd;" />
<glyph />
<glyph />
<glyph />
<glyph />
<glyph />
<glyph />
<glyph />
<glyph />
<glyph />
<glyph />
<glyph unicode=" "  horiz-adv-x="614" />
<glyph unicode="&#x09;" horiz-adv-x="614" />
<glyph unicode="&#xa0;" horiz-adv-x="614" />
<glyph unicode="!" horiz-adv-x="702" d="M41 1489v104h612v-104l-96 -1106h-422zM109 0v313h473v-313h-473z" />
<glyph unicode="&#x22;" horiz-adv-x="763" d="M57 1139l88 454h275l-158 -454h-205zM350 1139l88 454h273l-156 -454h-205z" />
<glyph unicode="#" horiz-adv-x="1499" d="M45 395l33 285h231l27 215h-250l33 285h254l51 413h291v-45l-47 -368h245l52 413h290v-45l-47 -368h246l-33 -285h-247l-27 -215h266l-33 -285h-268l-47 -395h-293v45l43 350h-244l-47 -395h-293v45l43 350h-229zM606 680h244l27 215h-244z" />
<glyph unicode="$" horiz-adv-x="1404" d="M45 1128q0 212 122.5 335t403.5 151v235h269v-231q93 -5 179 -20t142 -32.5t98.5 -34.5t62.5 -29l19 -11v-367h-430q0 103 -112 103q-68 0 -97.5 -18t-29.5 -60q0 -23 16.5 -38.5t38 -24.5t72.5 -25q78 -25 132.5 -45t120.5 -49.5t110 -59t88.5 -72t70.5 -90t42.5 -110.5 t16.5 -137q0 -233 -138 -364.5t-402 -156.5v-247h-269v245q-88 6 -173 19t-143 27.5t-103 28.5t-67 23l-22 9v405h451q0 -65 26.5 -92.5t100.5 -27.5q125 0 125 82q0 30 -25 52.5t-94 47.5q-95 36 -161.5 63.5t-134.5 61.5t-112 66.5t-84 73.5t-62.5 86.5t-35 102.5 t-12.5 125z" />
<glyph unicode="%" horiz-adv-x="1740" d="M29 1210q0 113 25 194t73.5 128t112.5 68.5t149 21.5q171 0 262.5 -96t91.5 -316q0 -113 -24.5 -194t-72.5 -128t-110.5 -68t-146.5 -21q-85 0 -149 21t-112.5 67.5t-73.5 127.5t-25 195zM160 0v66l1128 1527h291v-65l-1126 -1528h-293zM315 1217q0 -90 6 -131.5 t19.5 -55.5t42.5 -14q44 0 57 38.5t13 162.5t-13 162t-57 38q-41 0 -54.5 -38.5t-13.5 -161.5zM997 383q0 221 93 316.5t268 95.5q171 0 262.5 -96t91.5 -316q0 -113 -24.5 -194t-72.5 -128t-110.5 -68.5t-146.5 -21.5q-175 0 -268 95t-93 317zM1284 389q0 -90 6 -131.5 t19.5 -55.5t42.5 -14q43 0 56 39t13 162q0 125 -12.5 163t-56.5 38q-41 0 -54.5 -39t-13.5 -162z" />
<glyph unicode="&#x26;" horiz-adv-x="1611" d="M-10 430q0 258 301 408q-114 85 -172 169t-58 199q0 131 86 226t233 142.5t337 47.5q107 0 207.5 -15.5t167 -38t117.5 -45t75 -37.5l23 -16v-393h-430v29q0 78 -35 114.5t-105 36.5q-66 0 -97.5 -29t-31.5 -79q0 -13 3.5 -25t12.5 -24.5t16.5 -21.5t23 -22.5t23.5 -20 t28 -21t26 -19.5l334 -252q4 33 8 99v37h494v-342h-119l-18 -68l184 -139l-250 -330l-149 115q-189 -144 -510 -144q-349 0 -537 122t-188 337zM547 442q0 -55 42 -80.5t148 -25.5q94 0 154 37l-260 200q-39 -21 -61.5 -55t-22.5 -76z" />
<glyph unicode="'" horiz-adv-x="520" d="M57 1139l88 454h322l-158 -454h-252z" />
<glyph unicode="(" horiz-adv-x="716" d="M74 672q0 120 15.5 236.5t41.5 211t59.5 183t70.5 157t74 128t70.5 101t59.5 71.5t41 44l16 15l223 -103q-12 -17 -31.5 -49t-69.5 -138t-88 -220t-69.5 -288t-31.5 -349q0 -128 16 -254.5t41.5 -226t56.5 -190t62 -155t56.5 -113t41.5 -71.5l16 -24l-223 -107 q-9 8 -25.5 23.5t-63 70.5t-88.5 117.5t-94 164t-89 210t-62.5 255t-25.5 300.5z" />
<glyph unicode=")" horiz-adv-x="716" d="M-29 -362q12 17 31.5 48t69.5 134.5t88.5 216t70 286t31.5 349.5q0 175 -30 347t-72.5 292.5t-85.5 215.5t-73 142l-30 47l224 103q9 -8 25.5 -24t63 -72t88.5 -119.5t94 -165.5t89 -211t62.5 -255.5t25.5 -299.5q0 -121 -15.5 -237.5t-41.5 -211t-59.5 -182 t-70.5 -155.5t-74 -127t-70.5 -100t-59.5 -70.5t-42 -43.5l-15 -14z" />
<glyph unicode="*" horiz-adv-x="837" d="M33 1128l22 19l205 67l-205 68l-22 14l123 211l24 -14l154 -127l-37 193v34h246v-34l-37 -193l151 127l23 14l125 -211l-25 -14l-207 -68l207 -67l25 -19l-125 -204l-23 14l-151 123l37 -193v-30h-246v30l37 193l-154 -123l-24 -14z" />
<glyph unicode="+" horiz-adv-x="1179" d="M82 530v342h338v338h342v-338h336v-342h-336v-337h-342v337h-338z" />
<glyph unicode="," horiz-adv-x="501" d="M82 -330l106 330h-104v336h319v-336l-145 -330h-176z" />
<glyph unicode="-" horiz-adv-x="796" d="M70 485v336h657v-336h-657z" />
<glyph unicode="." horiz-adv-x="499" d="M82 0v336h319v-336h-319z" />
<glyph unicode="/" horiz-adv-x="866" d="M-41 -244l657 1968h291v-65l-655 -1968h-293v65z" />
<glyph unicode="0" horiz-adv-x="1499" d="M29 797q0 825 721 825q169 0 298.5 -45.5t225.5 -142t146 -257t50 -380.5q0 -826 -720 -826q-721 0 -721 826zM610 487q0 -78 35 -114.5t105 -36.5t104.5 36.5t34.5 114.5v619q0 78 -34.5 114.5t-104.5 36.5t-105 -36.5t-35 -114.5v-619z" />
<glyph unicode="1" horiz-adv-x="1083" d="M29 1257v232l454 104h396v-1257h172v-336h-961v336h197v921h-258z" />
<glyph unicode="2" horiz-adv-x="1329" d="M25 0v313q335 282 530 491t195 302q0 78 -35 114.5t-105 36.5t-104.5 -36.5t-34.5 -114.5v-102h-410v485q10 6 29 16t83 35t134 44.5t179.5 35.5t222.5 16q577 0 577 -479q0 -68 -20 -137t-52.5 -129.5t-81 -123.5t-99 -116t-113 -109t-116 -101t-114.5 -94 q-3 -2 -5 -3.5t-4.5 -3.5t-4.5 -4h250v117h399v-453h-1300z" />
<glyph unicode="3" horiz-adv-x="1275" d="M49 113v432h410v-58q0 -78 34.5 -114.5t104.5 -36.5q71 0 105 39.5t34 132.5q0 76 -34.5 113.5t-108.5 37.5h-148v310h146q145 0 145 137q0 78 -34.5 114.5t-104.5 36.5t-104.5 -36.5t-34.5 -114.5v-35h-410v418q8 5 24 14t72 32t118.5 40.5t163.5 32t208 14.5 q283 0 434.5 -119t151.5 -336q0 -66 -17 -122t-49.5 -98.5t-58.5 -68.5t-64 -55v-20q32 -20 56.5 -37.5t57 -50t54 -67t36.5 -86t15 -109.5q0 -225 -161.5 -353.5t-475.5 -128.5q-100 0 -195 14.5t-159.5 35.5t-114 42t-73.5 35z" />
<glyph unicode="4" horiz-adv-x="1421" d="M37 473v350l248 770h485l-252 -809h184v281h531v-281h164v-311h-164v-113h125v-360h-916v360h260v113h-665z" />
<glyph unicode="5" horiz-adv-x="1333" d="M57 762l76 831h1090v-397h-680l-19 -213q54 30 133 50t146 20q236 0 369 -138t133 -368q0 -281 -169.5 -438.5t-473.5 -157.5q-106 0 -206.5 15t-168.5 37t-121 43.5t-78 36.5l-25 15v412h476q-2 -75 23 -112.5t87 -37.5q59 0 83 43.5t24 141.5q0 104 -25 151t-86 47 q-57 0 -81.5 -34.5t-24.5 -87.5h-389z" />
<glyph unicode="6" horiz-adv-x="1419" d="M37 684q0 199 36.5 356t103 265.5t163.5 180t213 104t256 32.5q128 0 251.5 -25.5t183.5 -50.5l59 -26v-330q-23 8 -62 19t-146 29.5t-196 18.5q-142 0 -211.5 -76t-69.5 -204v-59q16 6 44.5 15.5t108 25.5t149.5 16q79 0 146 -12.5t130.5 -45t108 -83t71.5 -131 t27 -185.5q0 -547 -645 -547q-167 0 -298.5 43.5t-226.5 130.5t-145.5 223.5t-50.5 315.5zM618 487q0 -78 35 -114.5t105 -36.5t104.5 36.5t34.5 114.5q0 81 -37 123.5t-108 42.5q-28 0 -61.5 -6.5t-52.5 -12.5l-20 -7v-140z" />
<glyph unicode="7" horiz-adv-x="1290" d="M20 1008v585h1287v-311q-10 -15 -27 -42t-67 -112.5t-95 -172.5t-100 -212.5t-95 -242t-67 -251t-27 -249.5h-579q0 109 28 234t72.5 237.5t98.5 223t108 199.5t98.5 158t72.5 106l28 38h-305v-188h-431z" />
<glyph unicode="8" horiz-adv-x="1433" d="M20 434q0 64 16 119.5t41 94t55.5 69.5t61.5 49.5t56 31t41 16.5l16 5v21q-10 3 -26 9t-57.5 31.5t-73.5 59t-58 94t-26 133.5q0 96 41.5 178t121 144t205 97.5t283.5 35.5t283 -35.5t203.5 -98t119.5 -144t41 -177.5q0 -53 -13 -99.5t-34.5 -79t-47 -59t-51 -42.5 t-47 -27t-34.5 -16l-13 -4v-21q6 -2 16.5 -5t40.5 -16.5t57 -30.5t60.5 -48t57.5 -67.5t40.5 -90.5t16.5 -115q0 -219 -182 -347t-514 -128q-330 0 -513.5 126.5t-183.5 336.5zM557 487q0 -78 39.5 -114.5t120.5 -36.5t120.5 36.5t39.5 114.5q0 94 -39.5 137.5t-120.5 43.5 t-120.5 -43.5t-39.5 -137.5zM578 1106q0 -57 36 -92t103 -35t103 35t36 92q0 78 -34.5 114.5t-104.5 36.5t-104.5 -36.5t-34.5 -114.5z" />
<glyph unicode="9" horiz-adv-x="1419" d="M20 1065q0 286 164 421.5t482 135.5q348 0 534 -178t186 -535q0 -205 -34.5 -363t-98 -266.5t-159.5 -177.5t-214 -100t-266 -31q-125 0 -250.5 26t-189.5 51l-63 26v329q25 -8 67.5 -19t160 -29.5t216.5 -18.5q123 0 186.5 72.5t63.5 207.5v43q-16 -6 -44 -15.5 t-107.5 -25.5t-149.5 -16q-79 0 -146 12.5t-131 45t-108.5 83.5t-71.5 133t-27 189zM526 1085q0 -78 37.5 -119.5t108.5 -41.5q28 0 61 6.5t53 13.5l19 6v156q0 78 -34.5 114.5t-104.5 36.5q-71 0 -105.5 -39.5t-34.5 -132.5z" />
<glyph unicode=":" horiz-adv-x="499" d="M82 0v336h319v-336h-319zM82 666v335h319v-335h-319z" />
<glyph unicode=";" horiz-adv-x="501" d="M82 -330l106 330h-104v336h319v-336l-145 -330h-176zM84 666v335h319v-335h-319z" />
<glyph unicode="&#x3c;" horiz-adv-x="1021" d="M74 471v377l815 332h43v-320l-555 -188v-23l555 -190v-318h-43z" />
<glyph unicode="=" horiz-adv-x="1013" d="M82 250v342h850v-342h-850zM82 793v340h850v-340h-850z" />
<glyph unicode="&#x3e;" horiz-adv-x="1021" d="M90 141v318l555 190v23l-555 188v320h43l815 -332v-377l-815 -330h-43z" />
<glyph unicode="?" horiz-adv-x="1257" d="M4 1464q12 6 34.5 17t93.5 38t143 48t176 38t200 17q270 0 432 -125.5t162 -318.5q0 -98 -26 -173t-67 -121t-90.5 -84t-99.5 -71t-91 -70.5t-67 -94.5t-26 -132h-489v111q0 70 21 129t54.5 99t73.5 73.5t80.5 61t74 53.5t54.5 58t21 68q0 82 -123 82q-87 0 -195 -30 t-172 -60l-65 -30zM289 0v336h487v-336h-487z" />
<glyph unicode="@" horiz-adv-x="2351" d="M66 440q0 266 96 490t260.5 374.5t386 234t471.5 83.5q307 0 533 -108t345 -306.5t119 -464.5q0 -156 -34.5 -286.5t-93 -219t-136 -149.5t-162 -89t-172.5 -28q-78 0 -138.5 18t-98 49.5t-59.5 67t-33 76.5q-57 -82 -156.5 -146.5t-226.5 -64.5q-195 0 -298.5 135.5 t-103.5 374.5q0 170 52.5 302.5t146 215.5t216.5 125.5t269 42.5q124 0 264 -34t261 -89v-714q0 -22 12 -33.5t31 -11.5q51 0 90 114t39 299q0 309 -183 463t-526 154q-247 0 -438.5 -106t-296.5 -298.5t-105 -441.5q0 -172 45.5 -297.5t131 -199.5t197 -109t253.5 -35 q120 0 222 12t144 24l42 13v-297q-21 -7 -59 -17.5t-153.5 -28t-228.5 -17.5q-450 0 -687.5 231.5t-237.5 691.5zM1065 426q0 -111 94 -111q41 0 80.5 25t63.5 59v471q-57 15 -103 15q-62 0 -98.5 -50t-36.5 -122v-287z" />
<glyph unicode="A" horiz-adv-x="1650" d="M37 0v336h82l346 1257h745l346 -1257h82v-336h-802v336h122l-34 164h-277l-33 -164h123v-336h-700zM692 717h189l-84 407h-21z" />
<glyph unicode="B" horiz-adv-x="1628" d="M53 0v336h123v921h-123v336h961q256 0 399 -104t143 -299q0 -75 -25 -138.5t-61.5 -104.5t-85 -72t-88.5 -46.5t-79 -23.5v-21q46 -5 87.5 -13.5t98 -34t96 -63t68 -105t28.5 -154.5q0 -90 -30.5 -161t-83.5 -117.5t-127.5 -77.5t-158.5 -44.5t-181 -13.5h-961zM750 336 h124q119 0 119 131v90q0 131 -119 131h-124v-352zM750 922h110q119 0 119 131v73q0 131 -119 131h-110v-335z" />
<glyph unicode="C" horiz-adv-x="1511" d="M37 797q0 825 782 825q112 0 218.5 -15.5t178 -38t127 -45t81.5 -37.5l26 -16v-512h-492v148q0 78 -34.5 114.5t-104.5 36.5t-104.5 -36.5t-34.5 -114.5v-619q0 -78 34.5 -114.5t104.5 -36.5t104.5 36.5t34.5 114.5v166h492v-530q-9 -6 -27 -16.5t-79 -36.5t-129 -46 t-174.5 -36.5t-217.5 -16.5q-185 0 -326.5 45.5t-246 142.5t-159 257.5t-54.5 380.5z" />
<glyph unicode="D" horiz-adv-x="1691" d="M57 0v336h123v919h-123v338h852q130 0 239 -25t204.5 -83.5t161.5 -148.5t103.5 -227t37.5 -312t-37.5 -312t-103.5 -227.5t-161.5 -149t-204.5 -83.5t-239 -25h-852zM754 336h118q70 0 105 36.5t35 114.5v619q0 151 -140 151h-118v-921z" />
<glyph unicode="E" horiz-adv-x="1505" d="M53 0v336h123v921h-123v336h1403v-618h-459v282h-247v-323h180v-234h-180v-364h247v323h459v-659h-1403z" />
<glyph unicode="F" horiz-adv-x="1318" d="M57 0v336h123v921h-123v336h1246v-530h-363v194h-186v-339h309v-234h-309v-348h268v-336h-965z" />
<glyph unicode="G" horiz-adv-x="1622" d="M41 797q0 177 36 315t102.5 233.5t165 158t219.5 90.5t270 28q116 0 227 -13.5t186.5 -33t134 -39.5t86.5 -34l27 -13v-490h-512v97q0 86 -35.5 123.5t-113.5 37.5t-114 -37.5t-36 -123.5v-598q0 -86 36 -124t114 -38t113.5 37.5t35.5 124.5v14h-111v305h725v-305h-102 v-410q-10 -5 -29 -14t-83.5 -31.5t-135.5 -40t-182.5 -31.5t-226.5 -14q-189 0 -333 45.5t-249.5 142.5t-160 257.5t-54.5 380.5z" />
<glyph unicode="H" horiz-adv-x="1777" d="M49 0v336h123v921h-123v336h801v-336h-105v-311h308v311h-105v336h801v-336h-123v-921h123v-336h-801v336h105v338h-308v-338h105v-336h-801z" />
<glyph unicode="I" horiz-adv-x="897" d="M49 0v336h123v921h-123v336h819v-336h-123v-921h123v-336h-819z" />
<glyph unicode="J" horiz-adv-x="1069" d="M29 14v344q98 -22 186 -22q154 0 154 192v729h-228v336h924v-336h-123v-710q0 -152 -47.5 -265.5t-132.5 -180t-192.5 -98.5t-237.5 -32q-88 0 -163.5 10.5t-107.5 21.5z" />
<glyph unicode="K" horiz-adv-x="1708" d="M53 0v336h123v921h-123v336h697v-551l374 551h529v-336h-82l-322 -413l353 -508h81v-336h-610l-323 561v-561h-697z" />
<glyph unicode="L" horiz-adv-x="1374" d="M53 0v336h123v921h-123v336h885v-336h-188v-921h184v188h407v-524h-1288z" />
<glyph unicode="M" horiz-adv-x="2463" d="M49 0v336h123v921h-123v336h979l234 -702l225 702h944v-336h-123v-921h123v-336h-819v336h123v809l-408 -1145h-221l-463 1149v-813h123v-336h-717z" />
<glyph unicode="N" horiz-adv-x="1949" d="M45 0v336h123v921h-123v336h760l538 -823v487h-122v336h716v-336h-122v-1257h-576l-600 924v-588h123v-336h-717z" />
<glyph unicode="O" horiz-adv-x="1634" d="M41 797q0 825 782 825q783 0 783 -825q0 -826 -783 -826q-782 0 -782 826zM684 487q0 -78 34.5 -114.5t104.5 -36.5t105 36.5t35 114.5v619q0 78 -35 114.5t-105 36.5t-104.5 -36.5t-34.5 -114.5v-619z" />
<glyph unicode="P" horiz-adv-x="1544" d="M57 0v336h123v921h-123v336h920q264 0 403.5 -114t139.5 -367t-139.5 -367t-403.5 -114h-223v-295h196v-336h-893zM754 922h69q119 0 119 131v73q0 131 -119 131h-69v-335z" />
<glyph unicode="Q" horiz-adv-x="1662" d="M33 797q0 825 782 825q368 0 575 -192t207 -572q0 -62 -9.5 -120.5t-22.5 -100.5t-36 -85t-39 -67.5t-44 -55.5t-38 -41t-34 -32l12 -20h244v-496q-182 0 -313.5 3.5t-269 13.5t-237.5 28t-199 47.5t-174 72t-143 101.5t-124 136q-137 198 -137 555zM676 487 q0 -78 34.5 -114.5t104.5 -36.5t104.5 36.5t34.5 114.5v619q0 78 -34.5 114.5t-104.5 36.5t-104.5 -36.5t-34.5 -114.5v-619z" />
<glyph unicode="R" horiz-adv-x="1667" d="M53 0v336h123v921h-123v336h961q264 0 403 -108t139 -352q0 -137 -55 -237.5t-158 -139.5l3 -21q196 -30 196 -241v-158h96v-336h-649v481q0 61 -12.5 99t-44 58t-72.5 27t-110 7v-336h135v-336h-832zM750 922h110q119 0 119 131v73q0 131 -119 131h-110v-335z" />
<glyph unicode="S" horiz-adv-x="1404" d="M45 1128q0 118 36 206.5t116 154.5t216.5 99.5t329.5 33.5q111 0 213 -13.5t169 -33t118 -38.5t75 -33l23 -13v-367h-430q0 103 -112 103q-68 0 -97.5 -18t-29.5 -60q0 -23 16.5 -38.5t38 -24.5t72.5 -25q78 -25 132.5 -45t120.5 -49.5t110 -59t88.5 -72t70.5 -90 t42.5 -110.5t16.5 -137q0 -261 -172.5 -394t-502.5 -133q-110 0 -216.5 11.5t-180 27.5t-131.5 32.5t-86 27.5l-28 12v404h451q0 -65 26.5 -92t100.5 -27q125 0 125 82q0 30 -25 52.5t-94 47.5q-95 36 -161.5 63.5t-134.5 61.5t-112 66.5t-84 73.5t-62.5 86.5t-35 102.5 t-12.5 125z" />
<glyph unicode="T" horiz-adv-x="1576" d="M33 1098v495h1540v-495h-352v159h-131v-921h143v-336h-860v336h143v921h-131v-159h-352z" />
<glyph unicode="U" horiz-adv-x="1628" d="M45 1257v336h778v-336h-82v-790q0 -131 119 -131t119 131v790h-82v336h723v-336h-123v-686q0 -162 -45.5 -279t-133.5 -186.5t-205.5 -102t-272.5 -32.5q-157 0 -277.5 32.5t-210.5 102t-137 186.5t-47 279v686h-123z" />
<glyph unicode="V" horiz-adv-x="1589" d="M29 1257v336h782v-336h-102l141 -808h20l142 808h-103v336h680v-336h-82l-325 -1257h-746l-325 1257h-82z" />
<glyph unicode="W" horiz-adv-x="2574" d="M29 1257v336h813v-336h-133l100 -768h20l236 1104h590l221 -1104h20l101 768h-133v336h710v-336h-82l-264 -1257h-715l-186 844h-20l-197 -844h-715l-284 1257h-82z" />
<glyph unicode="X" horiz-adv-x="1691" d="M57 0v336h82l238 477l-219 444h-82v336h651l152 -475h41l153 475h569v-336h-81l-220 -442l240 -479h82v-336h-651l-172 520h-41l-172 -520h-570z" />
<glyph unicode="Y" horiz-adv-x="1546" d="M25 1257v336h784v-336h-72l121 -317h21l120 317h-71v336h618v-336h-71l-396 -708v-213h123v-336h-819v336h123v213l-408 708h-73z" />
<glyph unicode="Z" horiz-adv-x="1427" d="M45 0v295l631 962h-193v-167h-407v503h1290v-295l-629 -962h254v168h408v-504h-1354z" />
<glyph unicode="[" horiz-adv-x="665" d="M90 -539v2327l547 47l25 -264l-228 -47v-1798l228 -48l-25 -264z" />
<glyph unicode="\" horiz-adv-x="868" d="M-41 1659v65h293l657 -1968v-65h-295z" />
<glyph unicode="]" horiz-adv-x="665" d="M4 -322l227 48v1798l-227 47l25 264l546 -47v-2327l-546 -47z" />
<glyph unicode="^" horiz-adv-x="845" d="M29 1069v31l239 493h310l239 -493v-31h-258l-127 291h-18l-127 -291h-258z" />
<glyph unicode="_" horiz-adv-x="1294" d="M33 -147h1229v-193h-1229v193z" />
<glyph unicode="`" horiz-adv-x="546" d="M-86 1538v55h438l223 -311v-31h-327z" />
<glyph unicode="a" horiz-adv-x="1335" d="M16 291q0 393 738 393q0 62 -39.5 90.5t-149.5 28.5q-214 0 -475 -60v353q27 8 76 20t197.5 31.5t293.5 19.5q163 0 273.5 -30t175 -94.5t92 -153.5t27.5 -217v-336h90v-336h-561v139q-22 -29 -51 -55t-72.5 -53t-104.5 -43.5t-131 -16.5q-177 0 -278 83.5t-101 236.5z M516 401q0 -35 27 -50t86 -15q125 0 125 131v12q-121 0 -179.5 -16t-58.5 -62z" />
<glyph unicode="b" horiz-adv-x="1359" d="M37 0v336h90v921h-90v336h561v-594q51 65 132 116.5t185 51.5q209 0 314.5 -155t105.5 -443t-105.5 -443t-314.5 -155q-104 0 -185 51.5t-132 116.5v-139h-561zM598 467q0 -131 119 -131t119 131v205q0 131 -119 131t-119 -131v-205z" />
<glyph unicode="c" horiz-adv-x="1134" d="M16 569q0 293 164 445.5t455 152.5q79 0 157 -13t132 -31.5t97 -37.5t64 -32l21 -13v-405h-352v37q0 68 -29 99.5t-90 31.5q-119 0 -119 -131v-176q0 -160 182 -160q165 0 396 37v-322q-8 -3 -22 -8.5t-61 -19.5t-97 -24.5t-125.5 -19t-151.5 -8.5q-292 0 -456.5 152.5 t-164.5 445.5z" />
<glyph unicode="d" horiz-adv-x="1343" d="M25 569q0 288 105 443t314 155q104 0 186 -51.5t132 -116.5v258h-121v336h592v-1257h90v-336h-561v139q-50 -65 -132 -116.5t-186 -51.5q-209 0 -314 155t-105 443zM524 467q0 -131 119 -131t119 131v205q0 131 -119 131t-119 -131v-205z" />
<glyph unicode="e" horiz-adv-x="1204" d="M16 569q0 293 164 445.5t455 152.5q122 0 217.5 -30t156 -79.5t100 -119t55.5 -142t16 -153.5v-147h-664v-13q0 -75 45 -111t150 -36q241 0 434 65v-327l-22 -11t-63.5 -25t-104.5 -31.5t-142 -24.5t-178 -11q-291 0 -455 152.5t-164 445.5zM516 659h238v13 q0 131 -119 131t-119 -131v-13z" />
<glyph unicode="f" horiz-adv-x="778" d="M37 0v336h90v467h-90v336h94q0 250 122 366.5t355 116.5q100 0 183 -13t116 -27l33 -13v-322q-101 10 -201 10q-79 0 -110 -26.5t-31 -91.5h160v-336h-160v-467h160v-336h-721z" />
<glyph unicode="g" horiz-adv-x="1343" d="M25 569q0 288 105 443t314 155q104 0 186 -51.5t132 -116.5v140h561v-336h-90v-721q0 -296 -148 -430.5t-444 -134.5q-83 0 -164 7t-137 16.5t-100.5 19.5t-65.5 17l-22 7v336q224 -39 389 -39q117 0 169 36t52 134v88q-50 -65 -132 -116.5t-186 -51.5q-209 0 -314 155 t-105 443zM524 467q0 -131 119 -131t119 131v205q0 131 -119 131t-119 -131v-205z" />
<glyph unicode="h" horiz-adv-x="1417" d="M37 0v336h90v921h-90v336h561v-594q31 31 44.5 44t51.5 42t69 43t79.5 26.5t101.5 12.5q173 0 268 -122.5t95 -372.5v-336h90v-336h-652v336h91v336q0 131 -119 131t-119 -131v-336h90v-336h-651z" />
<glyph unicode="i" horiz-adv-x="708" d="M37 0v336h90v467h-90v336h561v-803h90v-336h-651zM156 1251v342h376v-342h-376z" />
<glyph unicode="j" horiz-adv-x="669" d="M-184 -104q106 -15 192 -15q137 0 137 148v774h-137v336h608v-1069q0 -280 -118.5 -416.5t-358.5 -136.5q-76 0 -156.5 11.5t-123.5 22.5l-43 11v334zM174 1251v342h377v-342h-377z" />
<glyph unicode="k" horiz-adv-x="1380" d="M37 0v336h90v921h-90v336h561v-831h49l254 377h432v-336h-84l-174 -195l197 -272h88v-336h-502l-211 393h-49v-393h-561z" />
<glyph unicode="l" horiz-adv-x="708" d="M37 0v336h90v921h-90v336h561v-1257h90v-336h-651z" />
<glyph unicode="m" horiz-adv-x="2125" d="M37 0v336h90v467h-90v336h561v-140q31 31 44.5 44t51.5 42t69 43t79.5 26.5t101.5 12.5q66 0 120 -14t92 -40.5t62.5 -52.5t47.5 -61q34 32 52.5 48t58.5 43t75 41t88 25t113 11q172 0 267 -122.5t95 -372.5v-336h90v-336h-651v336h90v336q0 131 -119 131 q-59 0 -88.5 -31.5t-29.5 -99.5v-336h90v-336h-652v336h91v336q0 131 -119 131t-119 -131v-336h90v-336h-651z" />
<glyph unicode="n" horiz-adv-x="1409" d="M33 0v336h90v467h-90v336h561v-140q31 31 44.5 44t51.5 42t69 43t79.5 26.5t101.5 12.5q173 0 268 -122.5t95 -372.5v-336h90v-336h-652v336h90v336q0 68 -29.5 99.5t-88.5 31.5q-119 0 -119 -131v-336h90v-336h-651z" />
<glyph unicode="o" horiz-adv-x="1269" d="M16 569q0 293 164 445.5t455 152.5t454.5 -152.5t163.5 -445.5t-163.5 -445.5t-454.5 -152.5t-455 152.5t-164 445.5zM516 467q0 -131 119 -131t119 131v205q0 131 -119 131t-119 -131v-205z" />
<glyph unicode="p" horiz-adv-x="1331" d="M8 -119h90v922h-90v336h561v-140q50 65 132 116.5t186 51.5q209 0 314.5 -155t105.5 -443t-105.5 -443t-314.5 -155q-104 0 -186 51.5t-132 116.5v-258h142v-336h-703v336zM569 467q0 -131 119 -131t119 131v205q0 131 -119 131t-119 -131v-205z" />
<glyph unicode="q" horiz-adv-x="1339" d="M25 569q0 288 105 443t314 155q104 0 186 -51.5t132 -116.5v140h561v-336h-90v-1258h-612v336h141v258q-50 -65 -132 -116.5t-186 -51.5q-209 0 -314 155t-105 443zM524 467q0 -131 119 -131t119 131v205q0 131 -119 131t-119 -131v-205z" />
<glyph unicode="r" horiz-adv-x="1067" d="M37 0v336h90v467h-90v336h561v-135l20 -7q33 69 100 119.5t163 50.5q47 0 88.5 -7t59.5 -14l18 -7v-355q-91 19 -191 19q-137 0 -197.5 -61t-60.5 -207v-199h186v-336h-747z" />
<glyph unicode="s" horiz-adv-x="1093" d="M12 793q0 170 128 272t395 102q139 0 258 -15.5t168 -30.5l49 -15v-277q-221 29 -389 29q-158 0 -158 -49q0 -25 31 -37.5t124 -21.5q239 -25 351 -116.5t112 -268.5q0 -188 -128.5 -291t-387.5 -103q-138 0 -261.5 16t-177.5 32l-54 16v284q255 -36 407 -36q86 0 117 13 t31 40q0 28 -30.5 40.5t-127.5 26.5q-457 63 -457 390z" />
<glyph unicode="t" horiz-adv-x="915" d="M8 803v336q79 0 117.5 40t38.5 109v92h434v-241h276v-336h-276v-336q0 -131 119 -131q34 0 76.5 4.5t68.5 9.5l25 4v-321q-17 -7 -48 -17.5t-123.5 -27.5t-180.5 -17q-218 0 -327.5 105t-109.5 356v371h-90z" />
<glyph unicode="u" horiz-adv-x="1384" d="M4 803v336h561v-672q0 -131 119 -131t119 131v336h-111v336h582v-803h90v-336h-561v139q-31 -31 -44.5 -44t-51.5 -42t-69 -43t-79.5 -26.5t-101.5 -12.5q-172 0 -267.5 123t-95.5 373v336h-90z" />
<glyph unicode="v" horiz-adv-x="1314" d="M8 803v336h639v-336h-92l111 -467h20l111 467h-92v336h602v-336h-88l-213 -803h-693l-219 803h-86z" />
<glyph unicode="w" horiz-adv-x="1976" d="M8 803v336h639v-336h-92l74 -422h20l158 758h397l166 -758h21l67 422h-94v336h604v-336h-88l-199 -803h-610l-74 344h-20l-70 -344h-604l-209 803h-86z" />
<glyph unicode="x" horiz-adv-x="1296" d="M37 0v336h96l115 248l-109 219h-88v336h545l94 -375h41l86 375h447v-336h-84l-107 -240l115 -227h88v-336h-543l-102 385h-41l-92 -385h-461z" />
<glyph unicode="y" horiz-adv-x="1327" d="M4 803v336h561v-672q0 -131 119 -131t119 131v336h-111v336h582v-1024q0 -300 -156 -449t-461 -149q-136 0 -266 16.5t-192 33.5l-62 17v336q198 -39 445 -39q117 0 169 36t52 136v86q-31 -31 -44.5 -44t-51.5 -42t-69 -43t-79.5 -26.5t-101.5 -12.5q-172 0 -267.5 123 t-95.5 373v336h-90z" />
<glyph unicode="z" horiz-adv-x="1142" d="M20 0v305l500 498h-182v-74h-305v410h1075v-293l-487 -510h196v115h309v-451h-1106z" />
<glyph unicode="{" horiz-adv-x="612" d="M45 510v223q46 0 80.5 33t34.5 111q0 119 -27 286t-27 289q0 50 11 91.5t33 71t48.5 52t62.5 36.5t69.5 23.5t76 13.5t75 5.5t73.5 1.5v-182q-111 0 -111 -133q0 -105 25 -260.5t25 -270.5q0 -212 -158 -280q158 -70 158 -279q0 -115 -25 -270t-25 -260q0 -76 32.5 -106 t78.5 -30v-182q-47 0 -84 1.5t-86 8.5t-85.5 19t-75 34t-63 53t-40 77t-15.5 104q0 121 27 288t27 288q0 76 -35 109.5t-80 33.5z" />
<glyph unicode="|" horiz-adv-x="522" d="M127 -670v2595h268v-2595h-268z" />
<glyph unicode="}" horiz-adv-x="612" d="M57 -324q113 0 113 136q0 105 -25.5 260t-25.5 270q0 208 160 279q-160 69 -160 280q0 115 25.5 270.5t25.5 260.5q0 76 -31 104.5t-82 28.5v182q41 0 73.5 -1.5t75 -5.5t76 -13.5t69.5 -23.5t62.5 -36.5t48.5 -52t33 -71t11 -91.5q0 -122 -25.5 -288.5t-25.5 -286.5 q0 -78 34 -111t78 -33v-223q-44 0 -78 -33.5t-34 -109.5q0 -121 25.5 -288t25.5 -288q0 -58 -15.5 -104t-40 -77t-63 -53t-75 -34t-85.5 -19t-86 -8.5t-84 -1.5v182z" />
<glyph unicode="~" horiz-adv-x="1265" d="M61 489q0 373 312 373q104 0 200.5 -24t190.5 -48t192 -24q134 0 134 74h114q0 -38 -1.5 -68t-8.5 -71t-19 -71.5t-34 -62.5t-53 -52.5t-77 -34t-104 -13.5q-103 0 -200.5 24.5t-194.5 49t-199 24.5q-76 0 -109.5 -24t-33.5 -52h-109z" />
<glyph unicode="&#xa1;" horiz-adv-x="702" d="M49 -350l96 1065h422l95 -1065v-105h-613v105zM121 825v314h473v-314h-473z" />
<glyph unicode="&#xa2;" horiz-adv-x="1134" d="M16 569q0 251 121 400t342 186v191h269v-185q97 -12 186.5 -42.5t130.5 -54.5l41 -24v-405h-352v37q0 68 -29 99.5t-90 31.5q-119 0 -119 -131v-176q0 -160 182 -160q165 0 396 37v-322q-16 -6 -44.5 -16.5t-119 -31t-182.5 -28.5v-188h-269v197q-221 38 -342 185.5 t-121 399.5z" />
<glyph unicode="&#xa3;" horiz-adv-x="1261" d="M49 156q176 205 176 424q0 45 -2 65h-172v256h99q-48 105 -48 260q0 94 36.5 175.5t108.5 146t190 102t270 37.5q297 0 503 -117v-340h-370v43q-1 2 -2 6t-9 14t-19 17.5t-33 14t-50 6.5q-69 0 -101 -33.5t-32 -110.5q0 -18 2 -38.5t4.5 -35.5t8 -38.5t8.5 -34.5 t10.5 -38t9.5 -36h340v-256h-301q-3 -139 -60 -242q94 -41 185 -41q85 0 119 32t34 73h299q0 -50 -3.5 -93t-14.5 -95.5t-29.5 -94t-51.5 -83t-77 -69t-109 -44.5t-145 -17q-97 0 -215 35t-194 35q-137 0 -189 -61z" />
<glyph unicode="&#xa4;" horiz-adv-x="1196" d="M16 328l164 164q-18 68 -18 178q0 98 18 174l-164 166l222 221l133 -135q90 43 227 43t227 -43l136 135l219 -221l-164 -164q20 -73 20 -176q0 -93 -20 -181l164 -161l-219 -219l-138 135q-87 -43 -225 -43t-225 43l-135 -135zM455 670q0 -116 33.5 -166.5t109.5 -50.5 q77 0 111 51t34 166t-34 166t-111 51q-76 0 -109.5 -50.5t-33.5 -166.5z" />
<glyph unicode="&#xa5;" horiz-adv-x="1546" d="M25 1257v336h784v-336h-72l121 -317h21l120 317h-71v336h618v-336h-71l-185 -327h185v-162h-275l-78 -139h353v-162h-396v-131h123v-336h-819v336h123v131h-414v162h367l-80 139h-287v162h195l-189 327h-73z" />
<glyph unicode="&#xa6;" horiz-adv-x="522" d="M127 426h268v-1096h-268v1096zM127 831v1094h268v-1094h-268z" />
<glyph unicode="&#xa7;" horiz-adv-x="1236" d="M45 639q0 178 131 279q-41 74 -41 174q0 170 127.5 272t394.5 102q73 0 141.5 -6.5t114 -15t80.5 -17.5t51 -15l17 -7v-277q-175 29 -318 29q-83 0 -120 -13t-37 -42t28.5 -42t126.5 -32q220 -43 331.5 -130.5t111.5 -242.5q0 -87 -31 -165t-90 -128q31 -70 31 -161 q0 -188 -128.5 -291t-387.5 -103q-117 0 -222.5 16t-152.5 32l-47 16v285q209 -37 336 -37q86 0 116.5 14t30.5 45q0 29 -27 42.5t-131 39.5q-100 24 -174.5 54.5t-136 75t-93.5 107t-32 142.5zM428 676q0 -40 39 -63t151 -44q66 -13 106.5 -15.5t59.5 5.5t25 19.5t6 33.5 q0 38 -34.5 62t-133.5 45q-70 15 -115 18.5t-67 -4.5t-29.5 -21t-7.5 -36z" />
<glyph unicode="&#xa8;" horiz-adv-x="925" d="M31 1251v342h342v-342h-342zM555 1251v342h340v-342h-340z" />
<glyph unicode="&#xa9;" horiz-adv-x="1462" d="M49 940q0 139 54 265.5t145 217.5t217.5 145t265.5 54t265.5 -54t217.5 -145t145 -217.5t54 -265.5t-54 -265.5t-145 -217.5t-217.5 -145t-265.5 -54t-265.5 54t-217.5 145t-145 217.5t-54 265.5zM264 940q0 -195 136 -331t331 -136q127 0 234.5 62t170 169.5t62.5 235.5 q0 127 -62.5 234.5t-170 170t-234.5 62.5q-128 0 -235.5 -62.5t-169.5 -170t-62 -234.5zM424 942q0 328 303 328q72 0 134.5 -16.5t88.5 -33.5l27 -16v-200h-174v81q0 58 -76 58q-74 0 -74 -58v-288q0 -56 74 -56q76 0 76 56v90h174v-209q-4 -3 -10.5 -7t-30.5 -15 t-50.5 -19.5t-69 -15.5t-87.5 -7q-305 0 -305 328z" />
<glyph unicode="&#xaa;" horiz-adv-x="690" d="M16 1184q0 196 369 196q0 43 -19 61.5t-75 18.5q-125 0 -238 -30v155q121 37 285 37q158 0 220.5 -59.5t62.5 -188.5v-168h45v-168h-281v70q-64 -84 -178 -84q-89 0 -140 41.5t-51 118.5zM225 1225q0 -39 64 -39q41 0 68.5 23.5t27.5 62.5v6q-90 0 -125 -11t-35 -42z" />
<glyph unicode="&#xab;" horiz-adv-x="1064" d="M86 518v96l238 394h268l-162 -426v-31l162 -426h-268zM539 518v96l237 394h268l-161 -426v-31l161 -426h-268z" />
<glyph unicode="&#xac;" horiz-adv-x="1120" d="M82 578v294h944v-618h-330v324h-614z" />
<glyph unicode="&#xad;" horiz-adv-x="688" d="M45 422v336h596v-336h-596z" />
<glyph unicode="&#xae;" horiz-adv-x="1462" d="M49 940q0 139 54 265.5t145 217.5t217.5 145t265.5 54t265.5 -54t217.5 -145t145 -217.5t54 -265.5t-54 -265.5t-145 -217.5t-217.5 -145t-265.5 -54t-265.5 54t-217.5 145t-145 217.5t-54 265.5zM264 940q0 -195 136 -331t331 -136q127 0 234.5 62t170 169.5t62.5 235.5 q0 127 -62.5 234.5t-170 170t-234.5 62.5q-128 0 -235.5 -62.5t-169.5 -170t-62 -234.5zM432 627v141h55v350h-55v144h379q215 0 215 -183q0 -111 -82 -153v-8q39 -8 58.5 -30t19.5 -67v-53h41v-141h-248v188q0 48 -29 63t-90 15v-125h54v-141h-318zM696 993h74 q21 0 31 11.5t10 39.5v43q0 52 -41 52h-74v-146z" />
<glyph unicode="&#xaf;" horiz-adv-x="1366" d="M387 1298v213h731v-213h-731z" />
<glyph unicode="&#xb0;" horiz-adv-x="516" d="M8 1380q0 100 70.5 171t171.5 71q100 0 171 -71t71 -171q0 -101 -71 -171t-171 -70q-101 0 -171.5 70t-70.5 171zM156 1380q0 -38 28 -66t66 -28q37 0 64.5 28t27.5 66q0 37 -27.5 65t-64.5 28q-38 0 -66 -28t-28 -65z" />
<glyph unicode="&#xb1;" horiz-adv-x="1181" d="M82 850v342h340v340h342v-340h336v-342h-336v-336h-342v336h-340zM117 86v324h942v-324h-942z" />
<glyph unicode="&#xb2;" horiz-adv-x="643" d="M49 879v213l27.5 22t61 54t77 76.5t61 80t27.5 74.5q0 61 -74 61q-30 0 -71.5 -6.5t-67.5 -13.5l-27 -6v196q11 6 32.5 15.5t90.5 25t142 15.5q128 0 201 -60.5t73 -161.5q0 -182 -223 -372h244v-213h-574z" />
<glyph unicode="&#xb3;" horiz-adv-x="540" d="M37 899v205q57 -12 135 -12q43 0 58.5 14t15.5 43q0 33 -26 47t-109 14v146q81 0 107 13.5t26 43.5q0 23 -15 35t-57 12q-32 0 -64.5 -2t-48.5 -4l-16 -2v190q10 5 28 12.5t75.5 19.5t115.5 12q114 0 186 -58t72 -149q0 -119 -98 -195q115 -69 115 -190 q0 -107 -78 -169.5t-197 -62.5q-61 0 -117 9t-82 19z" />
<glyph unicode="&#xb4;" horiz-adv-x="571" d="M-23 1251v31l224 311h438v-55l-334 -287h-328z" />
<glyph unicode="&#xb5;" horiz-adv-x="1380" d="M0 803v336h561v-672q0 -131 119 -131t119 131v336h-111v336h582v-803h90v-336h-561v139q-44 -61 -130 -114.5t-184 -53.5l76 -426h-471v1258h-90z" />
<glyph unicode="&#xb6;" horiz-adv-x="1554" d="M29 1120q0 76 20.5 147.5t64.5 136t106.5 113t152.5 77t196 28.5q99 0 193 -16t155 -35t147.5 -35t172.5 -16q102 0 150.5 29t48.5 73h114q0 -56 -4.5 -97t-17.5 -90t-43.5 -88.5t-77.5 -68.5v-1606h-336v1557q-46 5 -143 31v-1588h-334v944q-282 0 -423.5 136 t-141.5 368z" />
<glyph unicode="&#xb7;" horiz-adv-x="432" d="M45 655v312h320v-312h-320z" />
<glyph unicode="&#xb8;" horiz-adv-x="1161" d="M375 -322q123 -28 229 -28q35 0 52.5 18t17.5 47q0 30 -17.5 48t-52.5 18h-90v219h195v-80q93 0 149.5 -49t56.5 -143q0 -110 -76.5 -171t-211.5 -61q-112 0 -252 37v145z" />
<glyph unicode="&#xb9;" horiz-adv-x="534" d="M20 1446v139l185 76h221v-563h84v-219h-469v219h96v348h-117z" />
<glyph unicode="&#xba;" horiz-adv-x="659" d="M20 1323q0 146 82 222.5t228 76.5q144 0 226.5 -76.5t82.5 -222.5q0 -147 -82 -223t-227 -76q-146 0 -228 75.5t-82 223.5zM250 1251q0 -35 19.5 -50t60.5 -15t60.5 15t19.5 50v144q0 65 -80 65t-80 -65v-144z" />
<glyph unicode="&#xbb;" horiz-adv-x="1064" d="M20 125l162 426v31l-162 426h269l237 -394v-96l-237 -393h-269zM473 125l162 426v31l-162 426h268l238 -394v-96l-238 -393h-268z" />
<glyph unicode="&#xbc;" horiz-adv-x="1644" d="M-6 1378v140l184 75h221v-563h84v-219h-469v219h97v348h-117zM129 0v66l952 1527h291v-65l-950 -1528h-293zM940 174v168l98 438h230l-88 -409h112v166h260v-166h80v-197h-80v-174h-260v174h-352z" />
<glyph unicode="&#xbd;" horiz-adv-x="1644" d="M-6 1378v140l184 75h221v-563h84v-219h-469v219h97v348h-117zM129 0v66l952 1527h291v-65l-950 -1528h-293zM1008 0v213l27.5 22t61 54t77 76.5t61 80t27.5 74.5q0 62 -74 62q-30 0 -71.5 -7t-68.5 -13l-26 -7v197q11 6 32 15t90 24.5t142 15.5q128 0 201.5 -60 t73.5 -161q0 -182 -224 -373h244v-213h-573z" />
<glyph unicode="&#xbe;" horiz-adv-x="1644" d="M8 836v204q57 -12 135 -12q43 0 58.5 14t15.5 43q0 33 -26 47.5t-109 14.5v145q81 0 107 14t26 44q0 23 -15 35t-57 12q-32 0 -64.5 -2t-48.5 -4l-16 -2v190q10 5 28 12t75.5 19t115.5 12q114 0 186.5 -58t72.5 -149q0 -117 -99 -194q115 -69 115 -191q0 -107 -78 -169 t-197 -62q-61 0 -117 9.5t-82 18.5zM129 0v66l952 1527h291v-65l-950 -1528h-293zM940 174v168l98 438h230l-88 -409h112v166h260v-166h80v-197h-80v-174h-260v174h-352z" />
<glyph unicode="&#xbf;" horiz-adv-x="1257" d="M12 -39q0 98 26 173t67 121t90.5 84t99.5 71t91 70.5t67 94.5t26 132h490v-111q0 -70 -21 -129t-54.5 -99t-73.5 -74t-80.5 -61.5t-74 -53.5t-54.5 -58t-21 -68q0 -82 123 -82q87 0 195 30.5t172 60.5l65 30l108 -418q-12 -6 -34.5 -17t-93.5 -38t-143 -47.5t-176 -37.5 t-200 -17q-270 0 -432 125.5t-162 318.5zM481 803v336h488v-336h-488z" />
<glyph unicode="&#xc0;" horiz-adv-x="1650" d="M37 0v336h82l346 1257h745l346 -1257h82v-336h-802v336h122l-34 164h-277l-33 -164h123v-336h-700zM307 1896v54h514l223 -197v-31h-403zM692 717h189l-84 407h-21z" />
<glyph unicode="&#xc1;" horiz-adv-x="1650" d="M37 0v336h82l346 1257h745l346 -1257h82v-336h-802v336h122l-34 164h-277l-33 -164h123v-336h-700zM580 1722v31l223 197h514v-54l-334 -174h-403zM692 717h189l-84 407h-21z" />
<glyph unicode="&#xc2;" horiz-adv-x="1650" d="M37 0v336h82l346 1257h745l346 -1257h82v-336h-802v336h122l-34 164h-277l-33 -164h123v-336h-700zM283 1722v31l260 197h538l260 -197v-31h-344l-161 117h-48l-161 -117h-344zM692 717h189l-84 407h-21z" />
<glyph unicode="&#xc3;" horiz-adv-x="1650" d="M37 0v336h82l346 1257h745l346 -1257h82v-336h-802v336h122l-34 164h-277l-33 -164h123v-336h-700zM293 1712q0 188 56.5 269t209.5 81q109 0 282.5 -36.5t250.5 -36.5q64 0 92 21.5t28 49.5h115q0 -186 -52.5 -268t-199.5 -82q-94 0 -277.5 39t-265.5 39q-63 0 -97 -24 t-34 -52h-108zM692 717h189l-84 407h-21z" />
<glyph unicode="&#xc4;" horiz-adv-x="1650" d="M37 0v336h82l346 1257h745l346 -1257h82v-336h-802v336h122l-34 164h-277l-33 -164h123v-336h-700zM326 1722v228h383v-228h-383zM692 717h189l-84 407h-21zM911 1722v228h381v-228h-381z" />
<glyph unicode="&#xc5;" horiz-adv-x="1650" d="M37 0v336h82l346 1257h745l346 -1257h82v-336h-802v336h122l-34 164h-277l-33 -164h123v-336h-700zM565 1872q0 103 73 176.5t177 73.5q103 0 176.5 -73.5t73.5 -176.5q0 -104 -73.5 -177t-176.5 -73q-104 0 -177 73t-73 177zM692 717h189l-84 407h-21zM733 1872 q0 -35 23.5 -58.5t58.5 -23.5q33 0 56.5 23.5t23.5 58.5q0 32 -24 56t-56 24q-35 0 -58.5 -23.5t-23.5 -56.5z" />
<glyph unicode="&#xc6;" horiz-adv-x="2306" d="M-4 0v336h82l530 1257h1657v-618h-459v282h-247v-323h180v-234h-180v-364h247v323h459v-659h-1382v336h102v164h-280l-60 -164h123v-336h-772zM791 737h194v473h-20z" />
<glyph unicode="&#xc7;" horiz-adv-x="1511" d="M37 797q0 825 782 825q112 0 218.5 -15.5t178 -38t127 -45t81.5 -37.5l26 -16v-512h-492v148q0 78 -34.5 114.5t-104.5 36.5t-104.5 -36.5t-34.5 -114.5v-619q0 -78 34.5 -114.5t104.5 -36.5t104.5 36.5t34.5 114.5v166h492v-530q-9 -6 -27 -16.5t-79 -36.5t-129 -46 t-174.5 -36.5t-217.5 -16.5q-185 0 -326.5 45.5t-246 142.5t-159 257.5t-54.5 380.5zM557 -324q123 -28 229 -28q35 0 52.5 18t17.5 47q0 30 -17.5 48t-52.5 18h-90v219h195v-80q93 0 150 -49.5t57 -142.5q0 -110 -76.5 -171t-212.5 -61q-112 0 -252 37v145z" />
<glyph unicode="&#xc8;" horiz-adv-x="1505" d="M53 0v336h123v921h-123v336h1403v-618h-459v282h-247v-323h180v-234h-180v-364h247v323h459v-659h-1403zM309 1896v54h514l224 -197v-31h-404z" />
<glyph unicode="&#xc9;" horiz-adv-x="1505" d="M53 0v336h123v921h-123v336h1403v-618h-459v282h-247v-323h180v-234h-180v-364h247v323h459v-659h-1403zM582 1722v31l223 197h514v-54l-334 -174h-403z" />
<glyph unicode="&#xca;" horiz-adv-x="1505" d="M53 0v336h123v921h-123v336h1403v-618h-459v282h-247v-323h180v-234h-180v-364h247v323h459v-659h-1403zM285 1722v31l260 197h538l260 -197v-31h-344l-161 117h-47l-162 -117h-344z" />
<glyph unicode="&#xcb;" horiz-adv-x="1505" d="M53 0v336h123v921h-123v336h1403v-618h-459v282h-247v-323h180v-234h-180v-364h247v323h459v-659h-1403zM328 1722v228h383v-228h-383zM913 1722v228h381v-228h-381z" />
<glyph unicode="&#xcc;" horiz-adv-x="897" d="M-27 1896v54h514l224 -197v-31h-404zM49 0v336h123v921h-123v336h819v-336h-123v-921h123v-336h-819z" />
<glyph unicode="&#xcd;" horiz-adv-x="897" d="M49 0v336h123v921h-123v336h819v-336h-123v-921h123v-336h-819zM246 1722v31l223 197h514v-54l-334 -174h-403z" />
<glyph unicode="&#xce;" horiz-adv-x="897" d="M-51 1722v31l260 197h539l260 -197v-31h-344l-162 117h-47l-162 -117h-344zM49 0v336h123v921h-123v336h819v-336h-123v-921h123v-336h-819z" />
<glyph unicode="&#xcf;" horiz-adv-x="897" d="M-8 1722v228h383v-228h-383zM49 0v336h123v921h-123v336h819v-336h-123v-921h123v-336h-819zM578 1722v228h380v-228h-380z" />
<glyph unicode="&#xd0;" horiz-adv-x="1691" d="M35 637v336h145v282h-123v338h852q130 0 239 -25t204.5 -83.5t161.5 -148.5t103.5 -227t37.5 -312t-37.5 -312t-103.5 -227.5t-161.5 -149t-204.5 -83.5t-239 -25h-852v336h123v301h-145zM754 336h118q70 0 105 36.5t35 114.5v619q0 151 -140 151h-118v-284h125v-336 h-125v-301z" />
<glyph unicode="&#xd1;" horiz-adv-x="1949" d="M45 0v336h123v921h-123v336h760l538 -823v487h-122v336h716v-336h-122v-1257h-576l-600 924v-588h123v-336h-717zM502 1712q0 188 56.5 269t209.5 81q109 0 282 -36.5t250 -36.5q64 0 92.5 21.5t28.5 49.5h115q0 -186 -52.5 -268t-199.5 -82q-94 0 -277.5 39t-265.5 39 q-63 0 -97 -24t-34 -52h-108z" />
<glyph unicode="&#xd2;" horiz-adv-x="1634" d="M41 797q0 825 782 825q783 0 783 -825q0 -826 -783 -826q-782 0 -782 826zM330 1896v54h514l223 -197v-31h-403zM684 487q0 -78 34.5 -114.5t104.5 -36.5t105 36.5t35 114.5v619q0 78 -35 114.5t-105 36.5t-104.5 -36.5t-34.5 -114.5v-619z" />
<glyph unicode="&#xd3;" horiz-adv-x="1634" d="M41 797q0 825 782 825q783 0 783 -825q0 -826 -783 -826q-782 0 -782 826zM602 1722v31l223 197h514v-54l-333 -174h-404zM684 487q0 -78 34.5 -114.5t104.5 -36.5t105 36.5t35 114.5v619q0 78 -35 114.5t-105 36.5t-104.5 -36.5t-34.5 -114.5v-619z" />
<glyph unicode="&#xd4;" horiz-adv-x="1634" d="M41 797q0 825 782 825q783 0 783 -825q0 -826 -783 -826q-782 0 -782 826zM305 1722v31l260 197h539l260 -197v-31h-344l-162 117h-47l-162 -117h-344zM684 487q0 -78 34.5 -114.5t104.5 -36.5t105 36.5t35 114.5v619q0 78 -35 114.5t-105 36.5t-104.5 -36.5 t-34.5 -114.5v-619z" />
<glyph unicode="&#xd5;" horiz-adv-x="1634" d="M41 797q0 825 782 825q783 0 783 -825q0 -826 -783 -826q-782 0 -782 826zM315 1712q0 188 57 269t210 81q109 0 282 -36.5t250 -36.5q64 0 92.5 21.5t28.5 49.5h115q0 -186 -52.5 -268t-199.5 -82q-94 0 -277.5 39t-265.5 39q-63 0 -97 -24t-34 -52h-109zM684 487 q0 -78 34.5 -114.5t104.5 -36.5t105 36.5t35 114.5v619q0 78 -35 114.5t-105 36.5t-104.5 -36.5t-34.5 -114.5v-619z" />
<glyph unicode="&#xd6;" horiz-adv-x="1634" d="M41 797q0 825 782 825q783 0 783 -825q0 -826 -783 -826q-782 0 -782 826zM348 1722v228h383v-228h-383zM684 487q0 -78 34.5 -114.5t104.5 -36.5t105 36.5t35 114.5v619q0 78 -35 114.5t-105 36.5t-104.5 -36.5t-34.5 -114.5v-619zM934 1722v228h381v-228h-381z" />
<glyph unicode="&#xd7;" horiz-adv-x="1167" d="M66 416l264 264l-264 266l253 254l265 -266l266 266l252 -254l-266 -266l266 -264l-252 -252l-266 264l-265 -264z" />
<glyph unicode="&#xd8;" horiz-adv-x="1634" d="M41 797q0 825 782 825q783 0 783 -825q0 -826 -783 -826q-782 0 -782 826zM578 -168l327 1968h146v-65l-328 -1968h-145v65zM684 487q0 -78 34.5 -114.5t104.5 -36.5t105 36.5t35 114.5v619q0 78 -35 114.5t-105 36.5t-104.5 -36.5t-34.5 -114.5v-619z" />
<glyph unicode="&#xd9;" horiz-adv-x="1628" d="M45 1257v336h778v-336h-82v-790q0 -131 119 -131t119 131v790h-82v336h723v-336h-123v-686q0 -162 -45.5 -279t-133.5 -186.5t-205.5 -102t-272.5 -32.5q-157 0 -277.5 32.5t-210.5 102t-137 186.5t-47 279v686h-123zM362 1896v54h515l223 -197v-31h-404z" />
<glyph unicode="&#xda;" horiz-adv-x="1628" d="M45 1257v336h778v-336h-82v-790q0 -131 119 -131t119 131v790h-82v336h723v-336h-123v-686q0 -162 -45.5 -279t-133.5 -186.5t-205.5 -102t-272.5 -32.5q-157 0 -277.5 32.5t-210.5 102t-137 186.5t-47 279v686h-123zM635 1722v31l223 197h514v-54l-334 -174h-403z" />
<glyph unicode="&#xdb;" horiz-adv-x="1628" d="M45 1257v336h778v-336h-82v-790q0 -131 119 -131t119 131v790h-82v336h723v-336h-123v-686q0 -162 -45.5 -279t-133.5 -186.5t-205.5 -102t-272.5 -32.5q-157 0 -277.5 32.5t-210.5 102t-137 186.5t-47 279v686h-123zM338 1722v31l260 197h539l260 -197v-31h-344 l-162 117h-47l-162 -117h-344z" />
<glyph unicode="&#xdc;" horiz-adv-x="1628" d="M45 1257v336h778v-336h-82v-790q0 -131 119 -131t119 131v790h-82v336h723v-336h-123v-686q0 -162 -45.5 -279t-133.5 -186.5t-205.5 -102t-272.5 -32.5q-157 0 -277.5 32.5t-210.5 102t-137 186.5t-47 279v686h-123zM381 1722v228h383v-228h-383zM967 1722v228h381v-228 h-381z" />
<glyph unicode="&#xdd;" horiz-adv-x="1546" d="M25 1257v336h784v-336h-72l121 -317h21l120 317h-71v336h618v-336h-71l-396 -708v-213h123v-336h-819v336h123v213l-408 708h-73zM635 1722v31l223 197h514v-54l-334 -174h-403z" />
<glyph unicode="&#xde;" horiz-adv-x="1560" d="M57 0v336h123v921h-123v336h820v-336h-123v-92h241q109 0 193 -16.5t151.5 -54.5t103.5 -105t36 -162q0 -358 -484 -358h-241v-133h196v-336h-893zM754 678h49q44 0 71 22.5t27 67.5v33q0 45 -26.5 67.5t-71.5 22.5h-49v-213z" />
<glyph unicode="&#xdf;" horiz-adv-x="1447" d="M37 0v336h90v467h-90v336h94q0 264 139 373.5t453 109.5q123 0 220 -21t170.5 -65t113 -117t39.5 -172q0 -28 -3.5 -54.5t-7 -46t-14 -44.5t-14.5 -36t-19.5 -36.5t-18.5 -30t-22 -31.5t-20 -28q-2 -3 -12 -17t-13.5 -19t-11 -17t-10.5 -19.5t-5.5 -18t-2.5 -20.5 q0 -32 23.5 -55.5t107.5 -73.5q45 -26 78 -54.5t62.5 -70t44.5 -100t15 -131.5q0 -169 -105.5 -271t-311.5 -102q-73 0 -149.5 16t-116.5 32l-40 16v284q120 -36 183 -36q51 0 68.5 13t17.5 40q0 26 -24.5 48.5t-82.5 53.5q-106 60 -153 126t-47 163q0 59 24 124t53.5 113 t53.5 102.5t24 94.5q0 52 -24.5 74t-85.5 22q-62 0 -85.5 -25.5t-23.5 -94.5v-1137h-561z" />
<glyph unicode="&#xe0;" horiz-adv-x="1335" d="M16 291q0 393 738 393q0 62 -39.5 90.5t-149.5 28.5q-214 0 -475 -60v353q27 8 76 20t197.5 31.5t293.5 19.5q163 0 273.5 -30t175 -94.5t92 -153.5t27.5 -217v-336h90v-336h-561v139q-22 -29 -51 -55t-72.5 -53t-104.5 -43.5t-131 -16.5q-177 0 -278 83.5t-101 236.5z M205 1538v55h438l223 -311v-31h-327zM516 401q0 -35 27 -50t86 -15q125 0 125 131v12q-121 0 -179.5 -16t-58.5 -62z" />
<glyph unicode="&#xe1;" horiz-adv-x="1335" d="M16 291q0 393 738 393q0 62 -39.5 90.5t-149.5 28.5q-214 0 -475 -60v353q27 8 76 20t197.5 31.5t293.5 19.5q163 0 273.5 -30t175 -94.5t92 -153.5t27.5 -217v-336h90v-336h-561v139q-22 -29 -51 -55t-72.5 -53t-104.5 -43.5t-131 -16.5q-177 0 -278 83.5t-101 236.5z M422 1251v31l223 311h438v-55l-333 -287h-328zM516 401q0 -35 27 -50t86 -15q125 0 125 131v12q-121 0 -179.5 -16t-58.5 -62z" />
<glyph unicode="&#xe2;" horiz-adv-x="1335" d="M16 291q0 393 738 393q0 62 -39.5 90.5t-149.5 28.5q-214 0 -475 -60v353q27 8 76 20t197.5 31.5t293.5 19.5q163 0 273.5 -30t175 -94.5t92 -153.5t27.5 -217v-336h90v-336h-561v139q-22 -29 -51 -55t-72.5 -53t-104.5 -43.5t-131 -16.5q-177 0 -278 83.5t-101 236.5z M225 1251v31l240 311h403l240 -311v-31h-305l-127 133h-19l-127 -133h-305zM516 401q0 -35 27 -50t86 -15q125 0 125 131v12q-121 0 -179.5 -16t-58.5 -62z" />
<glyph unicode="&#xe3;" horiz-adv-x="1335" d="M16 291q0 393 738 393q0 62 -39.5 90.5t-149.5 28.5q-214 0 -475 -60v353q27 8 76 20t197.5 31.5t293.5 19.5q163 0 273.5 -30t175 -94.5t92 -153.5t27.5 -217v-336h90v-336h-561v139q-22 -29 -51 -55t-72.5 -53t-104.5 -43.5t-131 -16.5q-177 0 -278 83.5t-101 236.5z M236 1274q0 86 10.5 146.5t37 108.5t75.5 71.5t122 23.5q79 0 220.5 -47t209.5 -47q42 0 61 22t19 50h115q0 -69 -5 -118.5t-19.5 -96t-40 -74.5t-67.5 -45t-100 -17q-69 0 -218.5 49.5t-221.5 49.5q-43 0 -66.5 -24t-23.5 -52h-108zM516 401q0 -35 27 -50t86 -15 q125 0 125 131v12q-121 0 -179.5 -16t-58.5 -62z" />
<glyph unicode="&#xe4;" horiz-adv-x="1335" d="M16 291q0 393 738 393q0 62 -39.5 90.5t-149.5 28.5q-214 0 -475 -60v353q27 8 76 20t197.5 31.5t293.5 19.5q163 0 273.5 -30t175 -94.5t92 -153.5t27.5 -217v-336h90v-336h-561v139q-22 -29 -51 -55t-72.5 -53t-104.5 -43.5t-131 -16.5q-177 0 -278 83.5t-101 236.5z M238 1251v342h342v-342h-342zM516 401q0 -35 27 -50t86 -15q125 0 125 131v12q-121 0 -179.5 -16t-58.5 -62zM762 1251v342h340v-342h-340z" />
<glyph unicode="&#xe5;" horiz-adv-x="1335" d="M16 291q0 393 738 393q0 62 -39.5 90.5t-149.5 28.5q-214 0 -475 -60v353q27 8 76 20t197.5 31.5t293.5 19.5q163 0 273.5 -30t175 -94.5t92 -153.5t27.5 -217v-336h90v-336h-561v139q-22 -29 -51 -55t-72.5 -53t-104.5 -43.5t-131 -16.5q-177 0 -278 83.5t-101 236.5z M399 1485q0 103 73 176.5t177 73.5q103 0 176.5 -73.5t73.5 -176.5q0 -104 -73.5 -177t-176.5 -73q-104 0 -177 73t-73 177zM516 401q0 -35 27 -50t86 -15q125 0 125 131v12q-121 0 -179.5 -16t-58.5 -62zM567 1485q0 -35 23.5 -58.5t58.5 -23.5q33 0 56.5 23.5t23.5 58.5 q0 32 -24 56t-56 24q-35 0 -58.5 -23.5t-23.5 -56.5z" />
<glyph unicode="&#xe6;" horiz-adv-x="1937" d="M16 291q0 393 738 393q0 62 -39.5 90.5t-149.5 28.5q-214 0 -475 -60v353q27 8 76 20t197.5 31.5t293.5 19.5q223 0 365 -90q149 90 346 90q122 0 217.5 -30t156 -79.5t100 -119t55.5 -142t16 -153.5v-147h-664v-13q0 -75 45 -111t150 -36q241 0 434 65v-327l-22 -11 t-63.5 -25t-104.5 -31.5t-142 -24.5t-178 -11q-336 0 -489 209q-70 -81 -195.5 -145t-288.5 -64q-177 0 -278 83.5t-101 236.5zM516 401q0 -35 27 -50t86 -15q125 0 125 131v12q-121 0 -179.5 -16t-58.5 -62zM1249 659h238v13q0 131 -119 131t-119 -131v-13z" />
<glyph unicode="&#xe7;" horiz-adv-x="1134" d="M16 569q0 293 164 445.5t455 152.5q79 0 157 -13t132 -31.5t97 -37.5t64 -32l21 -13v-405h-352v37q0 68 -29 99.5t-90 31.5q-119 0 -119 -131v-176q0 -160 182 -160q165 0 396 37v-322q-8 -3 -22 -8.5t-61 -19.5t-97 -24.5t-125.5 -19t-151.5 -8.5q-292 0 -456.5 152.5 t-164.5 445.5zM362 -322q124 -28 230 -28q35 0 52.5 18t17.5 47q0 30 -17.5 48t-52.5 18h-90v219h194v-80q93 0 150 -49.5t57 -142.5q0 -110 -76.5 -171t-212.5 -61q-112 0 -252 37v145z" />
<glyph unicode="&#xe8;" horiz-adv-x="1204" d="M16 569q0 293 164 445.5t455 152.5q122 0 217.5 -30t156 -79.5t100 -119t55.5 -142t16 -153.5v-147h-664v-13q0 -75 45 -111t150 -36q241 0 434 65v-327l-22 -11t-63.5 -25t-104.5 -31.5t-142 -24.5t-178 -11q-291 0 -455 152.5t-164 445.5zM180 1538v55h438l224 -311 v-31h-328zM516 659h238v13q0 131 -119 131t-119 -131v-13z" />
<glyph unicode="&#xe9;" horiz-adv-x="1204" d="M16 569q0 293 164 445.5t455 152.5q122 0 217.5 -30t156 -79.5t100 -119t55.5 -142t16 -153.5v-147h-664v-13q0 -75 45 -111t150 -36q241 0 434 65v-327l-22 -11t-63.5 -25t-104.5 -31.5t-142 -24.5t-178 -11q-291 0 -455 152.5t-164 445.5zM397 1251v31l224 311h438v-55 l-334 -287h-328zM516 659h238v13q0 131 -119 131t-119 -131v-13z" />
<glyph unicode="&#xea;" horiz-adv-x="1204" d="M16 569q0 293 164 445.5t455 152.5q122 0 217.5 -30t156 -79.5t100 -119t55.5 -142t16 -153.5v-147h-664v-13q0 -75 45 -111t150 -36q241 0 434 65v-327l-22 -11t-63.5 -25t-104.5 -31.5t-142 -24.5t-178 -11q-291 0 -455 152.5t-164 445.5zM201 1251v31l239 311h404 l239 -311v-31h-305l-127 133h-18l-127 -133h-305zM516 659h238v13q0 131 -119 131t-119 -131v-13z" />
<glyph unicode="&#xeb;" horiz-adv-x="1204" d="M16 569q0 293 164 445.5t455 152.5q122 0 217.5 -30t156 -79.5t100 -119t55.5 -142t16 -153.5v-147h-664v-13q0 -75 45 -111t150 -36q241 0 434 65v-327l-22 -11t-63.5 -25t-104.5 -31.5t-142 -24.5t-178 -11q-291 0 -455 152.5t-164 445.5zM213 1251v342h342v-342h-342z M516 659h238v13q0 131 -119 131t-119 -131v-13zM737 1251v342h340v-342h-340z" />
<glyph unicode="&#xec;" horiz-adv-x="708" d="M-106 1538v55h438l223 -311v-31h-328zM37 0v336h90v467h-90v336h561v-803h90v-336h-651z" />
<glyph unicode="&#xed;" horiz-adv-x="708" d="M37 0v336h90v467h-90v336h561v-803h90v-336h-651zM111 1251v31l223 311h438v-55l-334 -287h-327z" />
<glyph unicode="&#xee;" horiz-adv-x="708" d="M-86 1251v31l240 311h403l240 -311v-31h-305l-127 133h-19l-127 -133h-305zM37 0v336h90v467h-90v336h561v-803h90v-336h-651z" />
<glyph unicode="&#xef;" horiz-adv-x="708" d="M-74 1251v342h342v-342h-342zM37 0v336h90v467h-90v336h561v-803h90v-336h-651zM451 1251v342h340v-342h-340z" />
<glyph unicode="&#xf0;" horiz-adv-x="1241" d="M16 569q0 293 164 445.5t455 152.5h10q-12 34 -49 97l-238 -80h-32v186l147 49q-52 55 -106 92v43l233 146q114 -75 213 -164l250 86h33v-188l-138 -48q286 -342 295 -788v-29q0 -293 -163.5 -445.5t-454.5 -152.5t-455 152.5t-164 445.5zM516 467q0 -131 119 -131 t119 131v205q0 131 -119 131t-119 -131v-205z" />
<glyph unicode="&#xf1;" horiz-adv-x="1409" d="M33 0v336h90v467h-90v336h561v-140q31 31 44.5 44t51.5 42t69 43t79.5 26.5t101.5 12.5q173 0 268 -122.5t95 -372.5v-336h90v-336h-652v336h90v336q0 68 -29.5 99.5t-88.5 31.5q-119 0 -119 -131v-336h90v-336h-651zM330 1274q0 86 10.5 146.5t37 108.5t75.5 71.5 t122 23.5q79 0 221 -47t210 -47q41 0 60 22t19 50h115q0 -69 -5 -118t-19.5 -96t-39.5 -75t-67 -45t-100 -17q-69 0 -219 49.5t-222 49.5q-43 0 -66.5 -24t-23.5 -52h-108z" />
<glyph unicode="&#xf2;" horiz-adv-x="1269" d="M16 569q0 293 164 445.5t455 152.5t454.5 -152.5t163.5 -445.5t-163.5 -445.5t-454.5 -152.5t-455 152.5t-164 445.5zM190 1538v55h439l223 -311v-31h-328zM516 467q0 -131 119 -131t119 131v205q0 131 -119 131t-119 -131v-205z" />
<glyph unicode="&#xf3;" horiz-adv-x="1269" d="M16 569q0 293 164 445.5t455 152.5t454.5 -152.5t163.5 -445.5t-163.5 -445.5t-454.5 -152.5t-455 152.5t-164 445.5zM408 1251v31l223 311h438v-55l-334 -287h-327zM516 467q0 -131 119 -131t119 131v205q0 131 -119 131t-119 -131v-205z" />
<glyph unicode="&#xf4;" horiz-adv-x="1269" d="M16 569q0 293 164 445.5t455 152.5t454.5 -152.5t163.5 -445.5t-163.5 -445.5t-454.5 -152.5t-455 152.5t-164 445.5zM211 1251v31l240 311h403l240 -311v-31h-306l-126 133h-19l-127 -133h-305zM516 467q0 -131 119 -131t119 131v205q0 131 -119 131t-119 -131v-205z " />
<glyph unicode="&#xf5;" horiz-adv-x="1269" d="M16 569q0 293 164 445.5t455 152.5t454.5 -152.5t163.5 -445.5t-163.5 -445.5t-454.5 -152.5t-455 152.5t-164 445.5zM221 1274q0 86 10.5 146.5t37.5 108.5t76 71.5t122 23.5q79 0 220.5 -47t209.5 -47q42 0 61 22t19 50h115q0 -69 -5 -118.5t-19.5 -96t-40 -74.5 t-67.5 -45t-100 -17q-69 0 -218.5 49.5t-221.5 49.5q-43 0 -66.5 -24t-23.5 -52h-109zM516 467q0 -131 119 -131t119 131v205q0 131 -119 131t-119 -131v-205z" />
<glyph unicode="&#xf6;" horiz-adv-x="1269" d="M16 569q0 293 164 445.5t455 152.5t454.5 -152.5t163.5 -445.5t-163.5 -445.5t-454.5 -152.5t-455 152.5t-164 445.5zM223 1251v342h342v-342h-342zM516 467q0 -131 119 -131t119 131v205q0 131 -119 131t-119 -131v-205zM748 1251v342h339v-342h-339z" />
<glyph unicode="&#xf7;" horiz-adv-x="1067" d="M82 532v295h903v-295h-903zM367 106v312h319v-312h-319zM367 934v311h319v-311h-319z" />
<glyph unicode="&#xf8;" horiz-adv-x="1269" d="M16 569q0 293 164 445.5t455 152.5t454.5 -152.5t163.5 -445.5t-163.5 -445.5t-454.5 -152.5t-455 152.5t-164 445.5zM446 -195l263 1575h116v-53l-262 -1575h-117v53zM516 467q0 -131 119 -131t119 131v205q0 131 -119 131t-119 -131v-205z" />
<glyph unicode="&#xf9;" horiz-adv-x="1384" d="M4 803v336h561v-672q0 -131 119 -131t119 131v336h-111v336h582v-803h90v-336h-561v139q-31 -31 -44.5 -44t-51.5 -42t-69 -43t-79.5 -26.5t-101.5 -12.5q-172 0 -267.5 123t-95.5 373v336h-90zM207 1538v55h438l223 -311v-31h-327z" />
<glyph unicode="&#xfa;" horiz-adv-x="1384" d="M4 803v336h561v-672q0 -131 119 -131t119 131v336h-111v336h582v-803h90v-336h-561v139q-31 -31 -44.5 -44t-51.5 -42t-69 -43t-79.5 -26.5t-101.5 -12.5q-172 0 -267.5 123t-95.5 373v336h-90zM424 1251v31l223 311h438v-55l-333 -287h-328z" />
<glyph unicode="&#xfb;" horiz-adv-x="1384" d="M4 803v336h561v-672q0 -131 119 -131t119 131v336h-111v336h582v-803h90v-336h-561v139q-31 -31 -44.5 -44t-51.5 -42t-69 -43t-79.5 -26.5t-101.5 -12.5q-172 0 -267.5 123t-95.5 373v336h-90zM227 1251v31l240 311h403l240 -311v-31h-305l-127 133h-19l-127 -133h-305z " />
<glyph unicode="&#xfc;" horiz-adv-x="1384" d="M4 803v336h561v-672q0 -131 119 -131t119 131v336h-111v336h582v-803h90v-336h-561v139q-31 -31 -44.5 -44t-51.5 -42t-69 -43t-79.5 -26.5t-101.5 -12.5q-172 0 -267.5 123t-95.5 373v336h-90zM240 1251v342h342v-342h-342zM764 1251v342h340v-342h-340z" />
<glyph unicode="&#xfd;" horiz-adv-x="1327" d="M4 803v336h561v-672q0 -131 119 -131t119 131v336h-111v336h582v-1024q0 -300 -156 -449t-461 -149q-136 0 -266 16.5t-192 33.5l-62 17v336q198 -39 445 -39q117 0 169 36t52 136v86q-31 -31 -44.5 -44t-51.5 -42t-69 -43t-79.5 -26.5t-101.5 -12.5q-172 0 -267.5 123 t-95.5 373v336h-90zM432 1251v31l223 311h439v-55l-334 -287h-328z" />
<glyph unicode="&#xfe;" horiz-adv-x="1335" d="M12 -119h90v1376h-90v336h561v-594q50 65 132 116.5t186 51.5q209 0 314.5 -155t105.5 -443t-105.5 -443t-314.5 -155q-104 0 -186 51.5t-132 116.5v-258h142v-336h-703v336zM573 467q0 -131 119 -131t119 131v205q0 131 -119 131t-119 -131v-205z" />
<glyph unicode="&#xff;" horiz-adv-x="1327" d="M4 803v336h561v-672q0 -131 119 -131t119 131v336h-111v336h582v-1024q0 -300 -156 -449t-461 -149q-136 0 -266 16.5t-192 33.5l-62 17v336q198 -39 445 -39q117 0 169 36t52 136v86q-31 -31 -44.5 -44t-51.5 -42t-69 -43t-79.5 -26.5t-101.5 -12.5q-172 0 -267.5 123 t-95.5 373v336h-90zM248 1251v342h342v-342h-342zM772 1251v342h340v-342h-340z" />
<glyph unicode="&#x152;" horiz-adv-x="2283" d="M41 797q0 825 782 825q135 0 267 -29h1153v-618h-459v282h-248v-323h180v-234h-180v-364h248v323h459v-659h-1151q-132 -29 -269 -29q-782 0 -782 826zM684 487q0 -78 34.5 -114.5t104.5 -36.5t105 36.5t35 114.5v619q0 78 -35 114.5t-105 36.5t-104.5 -36.5 t-34.5 -114.5v-619z" />
<glyph unicode="&#x153;" horiz-adv-x="1941" d="M16 569q0 293 164 445.5t455 152.5t454.5 -152.5t163.5 -445.5t-163.5 -445.5t-454.5 -152.5t-455 152.5t-164 445.5zM516 467q0 -131 119 -131t119 131v205q0 131 -119 131t-119 -131v-205zM754 569q0 293 163.5 445.5t454.5 152.5q122 0 217.5 -30t156 -79.5t100 -119 t55.5 -142t16 -153.5v-147h-664v-13q0 -75 45 -111t150 -36q241 0 434 65v-327l-22 -11t-63.5 -25t-104.5 -31.5t-142 -24.5t-178 -11q-291 0 -454.5 152.5t-163.5 445.5zM1253 659h238v13q0 131 -119 131t-119 -131v-13z" />
<glyph unicode="&#x2c6;" horiz-adv-x="882" d="M0 1251v31l240 311h403l240 -311v-31h-305l-127 133h-19l-127 -133h-305z" />
<glyph unicode="&#x2dc;" horiz-adv-x="1017" d="M84 1274q0 86 10.5 146.5t37.5 108.5t76 71.5t122 23.5q79 0 220.5 -47t209.5 -47q42 0 61 22t19 50h114q0 -69 -5 -118t-19.5 -96t-39.5 -75t-67 -45t-100 -17q-69 0 -218.5 49.5t-221.5 49.5q-43 0 -66.5 -24t-23.5 -52h-109z" />
<glyph unicode="&#x2000;" horiz-adv-x="1061" />
<glyph unicode="&#x2001;" horiz-adv-x="2122" />
<glyph unicode="&#x2002;" horiz-adv-x="1061" />
<glyph unicode="&#x2003;" horiz-adv-x="2122" />
<glyph unicode="&#x2004;" horiz-adv-x="707" />
<glyph unicode="&#x2005;" horiz-adv-x="530" />
<glyph unicode="&#x2006;" horiz-adv-x="353" />
<glyph unicode="&#x2007;" horiz-adv-x="353" />
<glyph unicode="&#x2008;" horiz-adv-x="265" />
<glyph unicode="&#x2009;" horiz-adv-x="424" />
<glyph unicode="&#x200a;" horiz-adv-x="117" />
<glyph unicode="&#x2010;" horiz-adv-x="796" d="M70 485v336h657v-336h-657z" />
<glyph unicode="&#x2011;" horiz-adv-x="796" d="M70 485v336h657v-336h-657z" />
<glyph unicode="&#x2012;" horiz-adv-x="796" d="M70 485v336h657v-336h-657z" />
<glyph unicode="&#x2013;" horiz-adv-x="1230" d="M49 434v309h1133v-309h-1133z" />
<glyph unicode="&#x2014;" horiz-adv-x="2021" d="M49 434v309h1923v-309h-1923z" />
<glyph unicode="&#x2018;" horiz-adv-x="430" d="M82 1122v262l137 209h137l-88 -209h101v-262h-287z" />
<glyph unicode="&#x2019;" horiz-adv-x="430" d="M61 1331v262h287v-262l-137 -209h-137l88 209h-101z" />
<glyph unicode="&#x201a;" horiz-adv-x="430" d="M61 0v262h287v-262l-137 -209h-137l88 209h-101z" />
<glyph unicode="&#x201c;" horiz-adv-x="790" d="M82 1122v262l137 209h137l-88 -209h101v-262h-287zM442 1122v262l138 209h137l-88 -209h100v-262h-287z" />
<glyph unicode="&#x201d;" horiz-adv-x="790" d="M61 1331v262h287v-262l-137 -209h-137l88 209h-101zM422 1331v262h287v-262l-138 -209h-137l88 209h-100z" />
<glyph unicode="&#x201e;" horiz-adv-x="790" d="M61 0v262h287v-262l-137 -209h-137l88 209h-101zM422 0v262h287v-262l-138 -209h-137l88 209h-100z" />
<glyph unicode="&#x2022;" horiz-adv-x="702" d="M72 786q0 117 81.5 198t198.5 81q115 0 197 -81.5t82 -197.5q0 -115 -82 -195.5t-197 -80.5q-117 0 -198.5 80.5t-81.5 195.5z" />
<glyph unicode="&#x202f;" horiz-adv-x="424" />
<glyph unicode="&#x2039;" horiz-adv-x="612" d="M86 518v96l238 394h268l-162 -426v-31l162 -426h-268z" />
<glyph unicode="&#x203a;" horiz-adv-x="612" d="M20 125l162 426v31l-162 426h269l237 -394v-96l-237 -393h-269z" />
<glyph unicode="&#x205f;" horiz-adv-x="530" />
<glyph unicode="&#x20ac;" horiz-adv-x="1480" d="M25 565v162h131q-2 23 -2 70q0 57 2 86h-131v161h149q109 578 789 578q83 0 163.5 -10.5t137 -25.5t100.5 -30t66 -26l22 -10l-55 -314q-166 51 -318 51q-238 0 -276 -213h565l-29 -161h-542v-156h516l-29 -162h-481q17 -117 83.5 -173t192.5 -56q53 0 136 18t139 36 l57 18v-314q-8 -5 -22.5 -13.5t-63.5 -29.5t-102.5 -37t-136 -29.5t-166.5 -13.5q-652 0 -750 594h-145z" />
<glyph unicode="&#xe000;" horiz-adv-x="1136" d="M0 0v1137h1137v-1137h-1137z" />
</font>
</defs>
</svg>
